<?xml version="1.0" encoding="utf-8"?>
<!-- Generator: Adobe Illustrator 21.1.0, SVG Export Plug-In . SVG Version: 6.00 Build 0)  -->
<svg version="1.1" id="Calque_1" xmlns="http://www.w3.org/2000/svg" xmlns:xlink="http://www.w3.org/1999/xlink" x="0px" y="0px"
	 viewBox="0 0 432 432" style="enable-background:new 0 0 432 432;" xml:space="preserve">
<style type="text/css">
	.st0{fill:#643514;}
	.st1{fill:#EEA900;}
	.st2{fill:#1A7733;}
	.st3{fill:#E3630E;}
	.st4{fill:#938922;}
	.st5{fill:#AA1A17;}
	.st6{fill:#E98800;}
	.st7{fill:#D01419;}
	.st8{fill:#D36415;}
	.st9{fill:#FFFFFF;}
	.st10{fill:#F1883B;}
	.st11{fill:#F7A518;}
	.st12{fill:#4C2814;}
	.st13{fill:#DB760F;}
	.st14{fill:#7E4615;}
	.st15{fill:#EC7105;}
	.st16{fill:#6E3B11;}
	.st17{fill:#46702C;}
	.st18{fill:#844D16;}
	.st19{fill:#CB8013;}
	.st20{fill:#00642F;}
	.st21{fill:#B72617;}
	.st22{fill:#D91815;}
	.st23{fill:#F59B00;}
	.st24{fill:#EE8600;}
	.st25{fill:#6E3710;}
	.st26{fill:#EE7042;}
	.st27{fill:#D82F15;}
	.st28{fill:#E84C0F;}
	.st29{fill:#D65514;}
	.st30{fill:#ED6E05;}
	.st31{fill:#CE6D28;}
	.st32{fill:#F7C5A5;}
	.st33{fill:#A8CB64;}
	.st34{fill:#971827;}
	.st35{fill:#DD5013;}
	.st36{fill:#EC893A;}
	.st37{fill:#E87507;}
	.st38{fill:#FFD682;}
	.st39{fill:#D46814;}
	.st40{fill:#F6E5DA;}
	.st41{fill:#FEFEFD;}
	.st42{fill:#F59C52;}
	.st43{fill:#E5640D;}
	.st44{fill:#FCF4EF;}
	.st45{fill:#FAE1D0;}
	.st46{fill:#E59256;}
	.st47{fill:#F9BD95;}
</style>
<path class="st4" d="M271.1,203.9c-1.8-0.4-6-0.9-8.1-0.9c-2.7,3.2-4.9,6.4-7.5,7.6c-0.2-0.6-0.1-1.3,0-1.9c-2.9,2-7.1,2.7-8.4,2.6
	c0.5-0.9,1.3-1.8,1.6-2.4c-2.9,1.1-8.4,0.5-10.1-0.5c0.8-0.3,1.4-0.6,1.9-1.2c-2.9-0.6-8.9-4.4-10-6c3.8-1.4,5.7-3.8,7.7-3.5
	c-0.5-0.8-1.5-1.6-1.9-1.7c2.2-0.9,6.3-3.7,9.6-2.4c-0.3-1-0.8-1.4-1-1.7c2.2-0.6,6.2-0.5,8.7,0.8c1.8,1,3.2,2.8,3.5,2.6
	c0-0.5-1.8-2.9-1.7-3c1.7,0.7,4.8,3.4,5.4,4.3c1.4,2,2,4.1,2.4,5.8c2.1-0.4,7.4,0.2,8,0.4C271.6,202.9,271.4,203.3,271.1,203.9z"/>
<path class="st4" d="M159.9,291.3c2.1,0.1,6.8-0.2,9.1-0.8c2.3-4.1,4-8.1,6.7-9.9c0.4,0.6,0.4,1.4,0.4,2.1c2.7-2.8,7.2-4.5,8.7-4.6
	c-0.4,1.1-1,2.2-1.2,3c3-1.9,9.2-2.3,11.2-1.5c-0.8,0.5-1.5,1-1.8,1.7c3.3,0,10.7,3,12.2,4.5c-3.9,2.3-5.5,5.4-7.7,5.5
	c0.7,0.8,2,1.4,2.4,1.5c-2.2,1.4-6.2,5.4-10.1,4.6c0.5,1,1.2,1.4,1.5,1.6c-2.3,1.1-6.7,1.9-9.7,0.9c-2.2-0.7-4.1-2.4-4.4-2.1
	c0.1,0.6,2.6,2.9,2.5,3c-2-0.5-5.9-2.7-6.8-3.6c-1.9-1.9-3-4.1-3.8-5.9c-2.3,0.9-8.2,1.3-8.8,1.2
	C159.5,292.4,159.7,291.9,159.9,291.3z"/>
<path class="st5" d="M153.3,181.6c0.5-1.2,1.7-3.3,1.1-5.2c-0.6-1.9-0.8-3.4-1.1-3.9c-1.7,0.2-4.9,1.6-6,2.8c0-1,0.4-1.7-0.4-2.1
	c-0.8-0.4-4.3,1.7-6.6,1.6c0.3-0.5,0.9-1,0.8-1.4c-0.1-0.4-3.7-2.7-5-3.6c6.4,1.3,2.4-1.8,4.3-1.4c0.7,0.2,2.1,0.1,2.7,0.1
	s4.2-0.8,1.6-2.5c-2.6-1.7-5.3-3-6.2-3.1c-1-0.1,0.7-1.1,1.3-1.7c0.5-0.5,0.1-1.9-0.6-3.1c-0.6-0.9-1.1-1.5-1.5-1.7
	c1,0,2.3,0.6,2.8,0.7c0.5,0.1,1.3,0.8,1.2-1.1c0-0.4,1.8,0.8,2.1,1.3c0.3,0.5,1.8,1.4,2.4,1.3s-0.9-3.4-1.6-4.3
	c-0.7-0.8-2.2-3.7-2-4.2s2,0.8,2.8-0.4c0.8-1.2,1.2-4.3,1.2-4.9c-0.1-0.6,0.5-1.5,0.9-1.5s0.9,1.8,1.2,2.4c0.6,1.1,1.9,3.4,2.6,3.5
	c0.7,0.1,1.3-3.3,1.9-1.6c0.3,0.7,1.3,2.7,1.2,3.6c-0.1,0.9-0.4,5,0.7,5.6c1.1,0.6,3-0.8,3.1-2.8c0.2-3,1-0.4,1.5,0.4
	c0.2,0.3,3-2.7,3.8-3c0.8-0.3,2-1,2.2-0.9c-0.1,0.5-0.6,2.8-0.6,3.6s1.2,1.4,1.7,1.1c0.5-0.3,0.8-0.5,1.1-0.6c1-0.4-0.1,1.2-0.9,2.2
	s-4.4,4-4.5,5.2c-0.1,1.2,0.3,3.3,2.5,2.3c2.2-1.1,3.6-2.6,4-2.7c-0.3,1.2-1.2,2.1-1.6,2.8c-0.4,0.7,0.1,2,1,1.9
	c-0.3,1.3-1.9,1.7-3.1,2.1c-1.1,0.3-3.5,1.5-3.2,2s0.9,0.8,1.4,1c-1.8,0.2-4.3-0.1-4.6,0.4c-0.3,0.6,1.1,2.3,1.3,2.4
	c-2.4-0.7-5.9-1.7-6.2-1.5c0.8,2,1.9,5.2,0.5,9.1C154.2,181.9,153.6,181.8,153.3,181.6z"/>
<path class="st5" d="M237.3,299.4c-0.2,1.4-1,3.7,0,5.6s1.6,3.4,2,3.8c1.7-0.5,4.7-2.7,5.6-4.1c0.2,1,0,1.9,0.8,2.1
	c0.9,0.2,4.1-2.6,6.4-3c-0.2,0.6-0.7,1.2-0.5,1.6c0.2,0.4,4.4,2,5.9,2.7c-6.8,0-2.1,2.4-4.1,2.3c-0.7,0-2.2,0.3-2.8,0.4
	c-0.6,0.1-4.2,1.7-1.1,2.9c3.1,1.2,6,2,7,1.9c1-0.1-0.5,1.3-1,2c-0.4,0.7,0.3,2,1.3,3c0.7,0.8,1.5,1.3,1.9,1.5
	c-1.1,0.2-2.5-0.1-3-0.2s-1.5-0.6-1,1.3c0.1,0.4-2-0.4-2.5-0.9c-0.4-0.4-2.2-1.1-2.7-0.8c-0.5,0.3,1.6,3.4,2.5,4.1
	c0.9,0.7,3,3.4,3,3.9c0,0.5-2.3-0.4-2.8,1s-0.4,4.6-0.2,5.3c0.2,0.6-0.2,1.7-0.7,1.7c-0.5,0-1.2-1.6-1.7-2.2c-0.8-1-2.6-3.1-3.3-3.1
	s-0.6,3.6-1.7,2.1c-0.4-0.7-1.9-2.5-2-3.4s-0.7-5.3-1.9-5.6c-1.2-0.4-3,1.4-2.7,3.5c0.4,3.1-0.9,0.7-1.6-0.1
	c-0.2-0.3-2.6,3.4-3.3,3.9c-0.7,0.5-1.9,1.4-2.1,1.4c0-0.6,0.1-3-0.1-3.8c-0.2-0.8-1.5-1.2-2-0.8c-0.5,0.4-0.8,0.7-1,0.8
	c-1,0.6-0.1-1.2,0.4-2.5c0.5-1.3,3.7-5,3.6-6.2c-0.1-1.2-1-3.4-3.1-1.8c-2.1,1.6-3.2,3.4-3.6,3.6c0-1.3,0.8-2.4,1.1-3.2
	c0.3-0.8-0.5-2-1.5-1.8c0-1.4,1.6-2.2,2.7-2.8c1.1-0.6,3.3-2.3,2.9-2.7c-0.4-0.4-1.1-0.6-1.6-0.7c1.8-0.6,4.5-0.8,4.6-1.4
	s-1.6-2.1-1.9-2.2c2.6,0.2,6.4,0.6,6.7,0.3c-1.3-1.9-3-5-2.4-9.3C236.3,299.3,236.9,299.3,237.3,299.4z"/>
<path class="st13" d="M227.5,136.1c4.4,1.4,10,3.7,12.1,5.3c2,1.6,7.2,5.5,8.2,6c1-1.3,1-5.4,1.2-7.1s3.5-11.7,7.3-13.6
	c5.2,5.5,4.9,9.3,4.5,11.1c-0.4,1.8,0.2,3-3.3,6.5c4.7-3.3,11.8-6.7,15.5-6.4c3.7,0.3,8.5,2.5,9.3,3.3c-1.8,2.2-4.4,6.1-7.2,8.2
	c-2.8,2.1-10.1,5.7-15.1,3.1c6.5,3.8,11.6,1.7,18.1,5.7s10.1,14.9,10.5,16.4c-3.1,0.9-10.5,2.5-16.5,0.9c-6-1.6-9.6-4-12.7-7.6
	c-3-3.6-6.2-6.9-7.2-7.6c2.7,6.5,2.1,9,1.6,11.1c-0.5,2-2.8,8.8-3.9,10.6c-4.5-2.6-9-5.1-9.7-8.6c-0.7-3.5,1.2-10.6,2.5-12.7
	c-3.1,2.1-5.7,3.5-7.5,3.5c-1.8,0-8-1.9-9-2.3c2-4.2,7.3-10.5,12.7-10.4c5.4,0,7.9-1.2,8-2.1c-2.5-2.3-9.5-6.7-11.3-7.7
	s-8.5-3.4-9.6-3.6C226.4,137,226.8,136,227.5,136.1z"/>
<path class="st13" d="M188.1,314.4c-2,1.8-4.7,4-6.1,4.6c-1.4,0.6-4.8,2.1-5.3,2.4c0.4,0.9,2.4,2,3.2,2.6c0.8,0.6,4.9,5,4.7,7.5
	c-4.2,1.1-6-0.2-6.8-0.9s-1.6-0.7-2.3-3.5c0.4,3.3,0,7.8-1.1,9.6c-1.2,1.8-3.6,3.5-4.2,3.7c-0.6-1.5-1.8-3.9-2.1-5.9
	c-0.3-2,0-6.7,2.7-8.4c-3.7,2.2-4.1,5.4-7.9,7.5c-3.8,2.1-10.3,0.9-11.1,0.6c0.4-1.8,1.7-6,4.2-8.5s4.7-3.7,7.4-4.2
	c2.7-0.5,5.2-1.2,5.8-1.5c-4-0.5-5.1-1.5-6-2.3s-3.6-3.9-4.2-4.9c2.6-1.5,5.1-3.1,7-2.4c1.9,0.6,5,3.6,5.7,4.8
	c-0.2-2.1-0.1-3.8,0.4-4.7c0.5-0.9,3.2-3.5,3.7-3.8c1.5,2.2,3.2,6.6,1.7,9.3c-1.5,2.7-1.6,4.3-1.2,4.6c1.8-0.6,6-2.9,7-3.5
	c1-0.6,4.1-3.3,4.5-3.8C188,313.6,188.4,314.1,188.1,314.4z"/>
<path class="st7" d="M227.6,127.7c3-3.7,5.7-8.5,6.2-10.1c-9-1.3-9.4-8.3-5.8-12c3.6-3.7,16.6-6.4,20.4-7.9c3.8-1.5,3.4,0.6,3.2,3.2
	s0.5,12.2,0.8,15.3s-0.9,7.2-3.9,9.1c-2.5,1.6-13.9-0.2-13.3-7.2c-2.1,4.4-5.4,10-5.8,10.5C228.9,129.1,228.4,128.4,227.6,127.7z"/>
<path class="st7" d="M156.6,226.6c-2.8,0.8-6,2.2-6.8,2.8c4,4,1.7,7.6-1.5,8.1c-3.2,0.5-10.6-2.9-13.1-3.5c-2.5-0.6-1.5-1.6-0.4-2.8
	c1.1-1.2,4.2-6.3,5.2-7.9c1-1.6,3.1-3.3,5.3-3.1c1.9,0.1,6.9,5.2,4,8.5c2.6-1.4,6.3-3,6.8-3.1C156.5,225.4,156.5,226,156.6,226.6z"
	/>
<path class="st7" d="M224.9,360.6c-1.2-3.1-3.3-6.4-4.1-7.2c-3.9,5-8.3,3-9.3-0.5s1.7-12.3,2.1-15.1s1.5-1.9,3-0.9
	c1.5,1,7.6,3.8,9.6,4.7c2,0.9,4.1,3,4.3,5.5c0.1,2.1-4.9,8.4-8.9,5.7c2,2.7,4.3,6.7,4.5,7.1C226.2,360.3,225.6,360.3,224.9,360.6z"
	/>
<path class="st8" d="M158.2,136.1c-3.2-3-9.6-10.4-11.1-12.6c-5.8,1.8-17.4-8.1-9.1-24.4c11.8,1.5,19.6,17.1,11.3,23.2
	c4.6,8.6,9.7,11.9,11.2,12.7C160.2,135.8,159.3,137,158.2,136.1z"/>
<path class="st8" d="M294.5,234.2c-2-2.8-6.9-8.4-8.5-9.7c2-4.3-4.4-14.1-17.7-9.4c-0.1,9.2,11.1,16.7,16.6,11
	c6.1,4.4,8.1,8.6,8.6,9.8C294,235.6,295.1,235,294.5,234.2z"/>
<path class="st8" d="M242,80.5c-1.9,0.8-6,3.1-7,3.8c-2.3-1.7-9.1,0.8-8.1,9.4c5.5,1.3,11.6-4.5,8.8-8.6c3.5-3.1,6.3-3.7,7.1-3.9
	C242.9,81,242.7,80.3,242,80.5z"/>
<path class="st8" d="M261.5,344.9c-2.2-0.2-7.2-0.2-8.5-0.1c-1.3-2.8-8.9-4-12.4,4.6c4.5,4.1,13.1,1.8,12.7-3.4
	c4.8-1.1,7.8-0.2,8.6,0.1C262.1,345.7,262.2,345,261.5,344.9z"/>
<g>
	<path class="st14" d="M237.7,256.2c-1-0.5-2.2,0-2.7,1l-43.3,90.5c-0.3,0.2-0.5,0.5-0.7,0.9c-1.5,3.1-2.3,5-4.2,9.1
		c-0.1,0.2-0.2,0.5-0.3,0.7c-2,3.9-6.2,4.1-8,3.2c-3.9-1.9-5.5-5.2-3.5-9.3c1.8-3.8-2.1-5.5-4-1.5c-4.1,8.5-0.5,12.3,6.3,15.5
		c6.8,3.2,11.5-2.4,12.4-4.4c1-2,4-8.2,5.4-11.2c0.2-0.4,0.3-0.8,0.3-1.2l43.2-90.4C239.2,257.9,238.7,256.7,237.7,256.2z"/>
	<path class="st13" d="M191.1,348.6c-1.5,3.2-2.4,5.2-4.4,9.5c-1.9,4.1-6.2,4.3-8.1,3.4c-3.9-1.9-5.5-5.2-3.5-9.3
		c1.8-3.8-2.1-5.5-4-1.5c-4.1,8.5-0.5,12.3,6.3,15.5c6.8,3.2,11.5-2.4,12.4-4.4c1-2,4-8.2,5.4-11.2
		C196.6,347.5,192.5,345.7,191.1,348.6z"/>
	<path class="st13" d="M295.8,311.5c6.2-17.3,5.2-67.1-42.2-88.9c-47.4-21.8-85.6,6.6-95.6,23c0,0-0.1,0-0.1-0.1
		c-1.5-0.7-3.2-0.1-3.9,1.4c-0.7,1.5-0.1,3.2,1.4,3.9c1.5,0.7,3.2,0.1,3.9-1.4c0.5-1.1,0.3-2.4-0.5-3.3c3.7-1.7,8-1.8,11.9,0.1
		c4.1,2,6.8,5.6,7.7,9.8c-0.9,0.2-1.6,0.7-2.1,1.6c-0.7,1.5-0.1,3.2,1.4,3.9c1.5,0.7,3.2,0.1,3.9-1.4c0.4-0.9,0.4-1.8-0.1-2.6
		c3.7-1.9,8.3-2.1,12.4-0.2c4.2,2,6.9,5.8,7.7,10c-0.8,0.2-1.4,0.8-1.8,1.5c-0.7,1.5-0.1,3.2,1.4,3.9c1.5,0.7,3.2,0.1,3.9-1.4
		c0.4-0.8,0.4-1.6,0.1-2.4c3.7-1.8,8.2-2,12.2-0.1c4,1.9,6.6,5.4,7.6,9.4c-0.8,0.2-1.6,0.7-2,1.6c-0.7,1.5-0.1,3.2,1.4,3.9
		c1.5,0.7,3.2,0.1,3.9-1.4c0.4-0.8,0.4-1.6,0.1-2.3c3.7-1.8,8.2-2,12.3-0.1c4,1.9,6.7,5.6,7.6,9.6c-0.7,0.2-1.4,0.8-1.7,1.5
		c-0.7,1.5-0.1,3.2,1.4,3.9c1.5,0.7,3.2,0.1,3.9-1.4c0.4-0.8,0.4-1.7,0-2.4c3.7-1.8,8.2-2,12.2-0.1c4,1.9,6.7,5.5,7.6,9.6
		c-0.7,0.2-1.4,0.8-1.8,1.5c-0.7,1.5-0.1,3.2,1.4,3.9c1.5,0.7,3.2,0.1,3.9-1.4c0.4-0.8,0.4-1.6,0.1-2.3c3.7-1.8,8.2-2,12.2-0.1
		c3.7,1.8,6.3,5,7.4,8.6c-1.3-0.4-2.8,0.3-3.4,1.6c-0.7,1.5-0.1,3.2,1.4,3.9c1.5,0.7,3.2,0.1,3.9-1.4
		C297.4,313.8,296.9,312.3,295.8,311.5z"/>
	<path class="st6" d="M252,225.2c-0.2-0.2-0.4-0.4-0.7-0.5c0,0,0,0,0,0c0,0,0,0,0,0c0,0,0,0,0,0c-0.1,0-0.2-0.1-0.3-0.1c0,0,0,0,0,0
		c0,0,0,0,0,0c-31.9-15-62,19.8-67.6,27.7c9.3-3.9,20.8,2.1,23.4,11.2c1.8-2.9,22.8-31.1,44.4-38.8c0,0,0,0,0,0
		c-1.2,2.5-17.5,40.7-21.4,49.8c7.7-2.6,19.1,2.1,22.6,10.8c5.1-15,5.7-54.1-0.4-60c22.9,15.1,25.4,56.5,23.8,71.2
		c5.3-3,13.8-0.2,17.6,5C290,253.4,272.5,238.2,252,225.2z"/>
</g>
<g>
	<g>
		<path class="st13" d="M160,207.6c9.8-0.8,23.3-7.4,29.2-10c9.9-4.4,25.6-8.7,38.4-11.9c-0.3-3.5-5.5-21.4-7.5-27.1
			c-2-5.8-0.2-17.3,0.7-30c0.9-12.7-1.9-36.9-6.5-57.6c-8.9-0.2-27.9,12.7-30.9,14.8c-3.1,2.1-17.6,11.5-23.1,14.1
			c2.3,5.7,13.9,51.6,14.7,61.6c0.7,10-5.4,15.1-10.5,22c-5.1,6.9-13.9,7.7-17.2,8.5c-3.3,0.8-11.1,1-12.7,7.1
			c-0.4,1.5-1.4,3.8-0.5,4.1C137.1,204.6,147.4,208.7,160,207.6z"/>
		<path class="st14" d="M174.1,89.1c3.6-2.3,10.5-6.7,15-9.7c6.3-4.2,17.2-9.4,24.6-11.1c0-0.3-0.2-2.3-0.4-3.5
			c-9.5,0.9-23.4,8.2-28.8,12.1c-5.4,3.9-17.4,12.3-26.1,17.2c0.2,0.5,0,2.2,0.6,3C160.9,96.5,168.6,92.5,174.1,89.1z"/>
		<path class="st14" d="M228.2,188.8c-2,1.1-25,6.7-29.7,8.5c-7.8,3-15.3,6.7-25.3,10.1c-11.1,3.7-15.3,3-20.4,2.8
			c-6.5-0.2-15-2.4-18.3-4.1c0.1,0.8,0.4,2.3,0.6,3.3c4.2,1.3,12.7,4.2,26.9,3.6c4.6-0.2,16.7-4.7,20.3-6.2c4.8-2,18-7.6,22.2-8.7
			c5.3-1.4,17.5-4.1,23.8-5.7C228.5,191.9,228.5,191.1,228.2,188.8z"/>
	</g>
	<path class="st6" d="M214.6,152.8c-0.8-6.7,1.3-31.5,1.7-39.8c0.4-8.3-2.9-25.9-4.4-36.8c-3.3,0.5-5.2,1.5-9.9,4.8
		c2,5.3,6.5,47.1,4.8,58.4c-1.7,11.3,1.3,31.2,5,44c4.6-0.8,6.5-0.6,10.7-2.5C222.2,177.8,215.5,159.5,214.6,152.8z"/>
</g>
</svg>
