<?xml version="1.0" encoding="utf-8"?>
<!-- Generator: Adobe Illustrator 21.1.0, SVG Export Plug-In . SVG Version: 6.00 Build 0)  -->
<svg version="1.1" id="Calque_1" xmlns="http://www.w3.org/2000/svg" xmlns:xlink="http://www.w3.org/1999/xlink" x="0px" y="0px"
	 viewBox="0 0 432 432" style="enable-background:new 0 0 432 432;" xml:space="preserve">
<style type="text/css">
	.st0{fill:#643514;}
	.st1{fill:#EEA900;}
	.st2{fill:#1A7733;}
	.st3{fill:#E3630E;}
	.st4{fill:#938922;}
	.st5{fill:#AA1A17;}
	.st6{fill:#E98800;}
	.st7{fill:#D01419;}
	.st8{fill:#D36415;}
	.st9{fill:#FFFFFF;}
	.st10{fill:#F1883B;}
	.st11{fill:#F7A518;}
	.st12{fill:#4C2814;}
	.st13{fill:#DB760F;}
	.st14{fill:#7E4615;}
	.st15{fill:#EC7105;}
	.st16{fill:#6E3B11;}
	.st17{fill:#46702C;}
	.st18{fill:#844D16;}
	.st19{fill:#CB8013;}
	.st20{fill:#00642F;}
	.st21{fill:#B72617;}
	.st22{fill:#D91815;}
	.st23{fill:#F59B00;}
	.st24{fill:#EE8600;}
	.st25{fill:#6E3710;}
	.st26{fill:#EE7042;}
	.st27{fill:#D82F15;}
	.st28{fill:#E84C0F;}
	.st29{fill:#D65514;}
	.st30{fill:#ED6E05;}
	.st31{fill:#CE6D28;}
	.st32{fill:#F7C5A5;}
	.st33{fill:#A8CB64;}
	.st34{fill:#971827;}
	.st35{fill:#DD5013;}
	.st36{fill:#EC893A;}
	.st37{fill:#E87507;}
	.st38{fill:#FFD682;}
	.st39{fill:#D46814;}
	.st40{fill:#F6E5DA;}
	.st41{fill:#FEFEFD;}
	.st42{fill:#F59C52;}
	.st43{fill:#E5640D;}
	.st44{fill:#FCF4EF;}
	.st45{fill:#FAE1D0;}
	.st46{fill:#E59256;}
	.st47{fill:#F9BD95;}
</style>
<g>
	<g>
		<path class="st15" d="M109.8,267.7c-0.5,0-0.9,0.1-1.3,0.3c0.4,0.8,0.7,1.6,0.9,2.4C109.4,269.4,109.5,268.5,109.8,267.7z"/>
		<path class="st15" d="M120.5,305.9c-2.8-8.6-6.4-17-9.2-25.6c-0.6-2-1.4-4.3-1.7-6.7c-0.3,4.1-2.1,8.5-3.2,11.7
			c-3.6,10.2-10.1,21.4-8.9,32.4c1.1,10.3,11.6,32,15.4,22.2C115.5,333,124.8,320.6,120.5,305.9z"/>
		<path class="st15" d="M152.7,283.8c-4.1-5.7-9.3-10.8-15.4-14.5c-3.1-1.9-8.2-4.7-12.1-3.5c11.8,7.1,18.9,20.4,20.8,33.8
			c0.1,0.6-0.7,1.4-0.8,0.5c-2.6-12.8-11.2-28.8-24.1-33.8c-3.5-1.3-9-1.8-10,2.9c-1,5.1,2.2,11.6,3.9,16.2
			c2.5,6.8,5.5,13.7,7.4,20.7c5.5,20.8-18.1,42.6-0.1,32.4c9-5.1,18.5-13.6,22.2-23.4c0.3-0.8,0.9,0.1,0.8,0.6c0,0.1,0,0.1-0.1,0.2
			l0,0c0,0,0,0,0,0c-3.5,12.4-12.6,20.8-24.2,25.4c9.3,0.2,19.5-6.7,26.1-12.1c7.2-5.9,13.3-13.5,13.6-23.2
			C160.8,298.2,157.4,290.3,152.7,283.8z"/>
		<path class="st15" d="M93.5,340.1c-2.2-1.2-4.3-2.5-6.3-4c-12.1-8.9-17.9-23-15.2-37.7c2.3-12.6,10.1-24.7,21.3-31.2
			c-3.9-3.2-13.2,2.8-16,4.8c-8.6,6-15.5,14.9-18.9,24.9c-3,8.7-2.3,16.4,3.3,23.8c4.4,5.9,10.6,10.4,16.9,14.1
			c5.1,3,10.6,5.7,16.3,7.1c1,0.2,2.5,0.7,3.6,0.5c-0.5-0.3-1.3-0.5-1.7-0.7C95.8,341.3,94.6,340.7,93.5,340.1z"/>
		<path class="st15" d="M98.2,327.4c-2.6-6.9-3.4-14.1-1.2-21.2c0,0,0,0,0-0.1c0,0,0-0.1,0-0.1c1.9-5.9,4.4-11.6,6.5-17.4
			c1.9-5.5,5-12.8,3.9-18.8c-1.2-6.3-8.9-2.9-12.5-1c-4.6,2.4-8.3,6.3-11.5,10.3c-7.7,10-12.8,23.4-9.5,36
			c1.9,7.5,6.8,13.7,12.9,18.3c1.8,1.4,17.4,10.8,18.2,8.3c0.4-1.1-2.4-4.9-2.9-5.8C100.7,333.2,99.3,330.3,98.2,327.4z"/>
	</g>
	<g>
		<path class="st16" d="M115.8,264.2c3.9-7.2,9.3-20.8,9.3-20.8s-13,1.8-17.5-4.6c-5.4-7.7-1,19.1-2.1,27.4c0.5,0.2,0.9,0.5,1.3,0.8
			c0.2,0.1,0.3,0.3,0.4,0.4c0.2-0.4,0.6-0.6,1-0.8c0.6-0.2,1.3,0,1.8,0.4C111.5,265.3,113.6,264.4,115.8,264.2z"/>
	</g>
	<g>
		<path class="st17" d="M137.3,248.3c0,0,0.1,2.6-1.5,5.5c-5.6-0.6-10.8,2-13,7.7c0,0,0,0,0,0.1c-0.9,0.1-1.8,0.2-2.9,0.3
			C120,261.9,120,247.7,137.3,248.3z"/>
		<path class="st17" d="M123.4,262.8c0,0,3.5-11.1,15.9-6.6C139.3,256.2,136.5,266.2,123.4,262.8z"/>
	</g>
	<g>
		<path class="st18" d="M160,258.6c-0.1-0.3-0.4-0.4-0.7-0.5c-1.8-0.3-3.4,0.4-4.2,2c-0.7-0.2-1.5-0.2-2.3-0.2
			c-1.3,0-3.1,0.3-4.5,1.3c-1.3-0.5-2.8-0.6-4.1-0.3c-2.8,0.7-5,3.2-5.9,6.8c-0.1,0.3,0.2,0.6,0.6,0.7c0.5,0.1,0.8-0.1,0.8-0.3
			c0.6-2.3,2.4-5.1,4.7-6.1c1-0.4,2.1-0.5,3.1,0c-0.2,0.2-0.3,0.4-0.4,0.6c-0.6,1-1.4,3.5-1,5.1c0.2,0.7,0.5,1.2,1,1.5
			c0.4,0.2,0.7,0.3,1.2,0.3c0.2,0,0.4,0,0.7-0.1c0.8-0.2,1.5-0.8,2-1.6c1-1.7,0.5-4.2-1-5.6c-0.1-0.1-0.2-0.1-0.2-0.2
			c1.2-0.9,2.8-1.3,4.5-1c0.2,0,0.3,0.1,0.5,0.1c0,0.1-0.1,0.3-0.1,0.4c-0.2,1-0.4,2.8,0.4,3.8c0.4,0.4,0.9,0.6,1.5,0.6
			c0.8,0,1.5-0.5,1.9-1.2c0.4-0.9,0.3-2.1-0.3-2.9c-0.4-0.5-0.8-0.9-1.5-1.2c0.4-0.8,1.3-1.7,2.8-1.4c0.1,0,0.4,0.1,0.6-0.1l0.1-0.2
			L160,258.6z M156.9,264L156.9,264c-0.1,0.2-0.2,0.5-0.4,0.5c-0.2,0-0.4,0-0.7-0.2c-0.1-0.5-0.1-1,0-1.6c0-0.4,0.1-0.7,0.2-1.1
			C156.7,262.2,157.4,262.9,156.9,264z M148.8,268c-0.3,0.1-0.8,0.2-1,0.1c-0.3-0.3-0.3-1.2-0.2-1.7l0-0.3c0.1-1.3,0.5-2.4,1.2-3.2
			c0.9,0.9,1.3,2.4,1,3.7C149.6,267.1,149.2,267.9,148.8,268z"/>
		<path class="st18" d="M87,255.4c-1.6-0.8-3.4-0.9-5.2-0.3c-0.1,0-0.2,0.1-0.2,0.1c-0.7-0.5-1.5-0.8-2.3-1
			c-1.5-0.4-3.1-0.4-4.4-0.1c-1-1.5-2.7-2.3-4.4-1.9c-0.2,0-0.3,0.2-0.3,0.3l-0.1,0.3l0.1,0.2c0.2,0.2,0.7,0.4,1,0.4
			c1.1-0.2,1.9,0.2,2.5,1.3c-0.4,0.2-0.7,0.4-1,0.6c-0.8,0.7-1.2,1.8-1.1,2.7c0.1,0.9,0.7,1.5,1.5,1.9c1,0.5,1.6,0.2,2-0.1
			c1-0.9,0.7-3.2,0.3-4.4c1.5-0.4,3.7-0.3,5.1,0.7c-1.4,1.1-2.1,2.9-1.7,4.7c0.3,1.5,1.6,3,3.2,3c0.1,0,0.2,0,0.3,0
			c0.6-0.1,1-0.3,1.3-0.8c1-1.5,0-4.5-0.1-4.8c-0.2-0.7-0.6-1.2-1-1.8c1-0.5,2.1-0.6,3.2-0.2c2.3,0.9,4.1,3.7,4.7,6
			c0.1,0.4,0.8,0.6,1.1,0.5c0.3-0.1,0.4-0.3,0.3-0.5C91.2,259.1,89.3,256.5,87,255.4z M81.6,262.2c-0.6-0.2-1.2-1-1.3-2.7
			c0-1,0.5-2,1.4-2.7c1.6,2.5,1.5,4.3,1,5C82.3,262.1,82,262.3,81.6,262.2z M74.2,255.7c0,0.1,0,0.2,0.1,0.3
			c0.3,1.7-0.1,2.2-0.3,2.3c-0.2,0.1-0.4,0.1-0.5,0c-0.2-0.1-0.4-0.3-0.4-0.5l0,0c-0.1-0.4,0-0.8,0.2-1.1
			C73.5,256.3,73.8,256,74.2,255.7z"/>
	</g>
	<g>
		<path class="st19" d="M77,262.8c-1.1,0-1.1,1.7,0,1.7C78.1,264.5,78.1,262.8,77,262.8z"/>
		<path class="st19" d="M86.7,250.7c-1.1,0-1.1,1.7,0,1.7C87.8,252.4,87.8,250.7,86.7,250.7z"/>
		<path class="st19" d="M87.1,263.8c1.1,0,1.1-1.7,0-1.7C86,262.1,86,263.8,87.1,263.8z"/>
		<path class="st19" d="M151.2,271.4c-1.1,0-1.1,1.7,0,1.7C152.3,273.1,152.3,271.4,151.2,271.4z"/>
		<path class="st19" d="M147.1,252.9c-1.1,0-1.1,1.7,0,1.7C148.2,254.6,148.2,252.9,147.1,252.9z"/>
		<path class="st19" d="M144.1,267.1c-1.1,0-1.1,1.7,0,1.7C145.2,268.8,145.2,267.1,144.1,267.1z"/>
		<path class="st19" d="M128.6,343.4c-1.1,0-1.1,1.7,0,1.7C129.7,345.1,129.7,343.4,128.6,343.4z"/>
		<path class="st19" d="M132.3,341.8c-1.1,0-1.1,1.7,0,1.7C133.4,343.4,133.4,341.8,132.3,341.8z"/>
		<path class="st19" d="M133.5,347.2c-1.1,0-1.1,1.7,0,1.7C134.6,348.9,134.6,347.2,133.5,347.2z"/>
		<path class="st19" d="M83.7,342.3c-1.1,0-1.1,1.7,0,1.7C84.8,344,84.8,342.3,83.7,342.3z"/>
		<path class="st19" d="M87.3,345.1c-1.1,0-1.1,1.7,0,1.7C88.4,346.8,88.4,345.1,87.3,345.1z"/>
		<path class="st19" d="M80.7,347c-1.1,0-1.1,1.7,0,1.7C81.8,348.7,81.8,347,80.7,347z"/>
	</g>
</g>
<g>
	<g>
		<path class="st20" d="M366.2,339.4c-0.2-0.6,1-1.7,1.5-2.1c-1.2-1.3-3.8,0.1-4.9-1.2c-0.8-1,1.6-2,2.7-2.6
			c-1.3-1.1-2.8-1.1-4.2-0.9c0,0.1,0,0.1-0.1,0.2c-3.1,5.1-6.7,10-11.1,14.1c-0.1,0.1-0.2,0.2-0.3,0.3c1.7,2.1,5.8,3.4,6.7,3.6
			c0.3,0.1,0.6,0.1,0.9,0.1c0.7,0,0.6-0.4,0.5-0.7c0-0.2-0.2-0.3-0.2-0.5c-0.1-0.3-0.8-1.2-0.5-1.3c0.3-0.1,1.7,0.6,2,0.7
			c0.7,0.2,1.5,0.5,2.2,0.7c0.6,0.2,1.2,0.4,1.8,0.3c0.3,0,0.5-0.2,0.6-0.4c0.2-0.4-0.2-0.9-0.5-1.1c-0.4-0.3-0.8-0.5-0.9-0.9
			c0-0.1,0-0.2,0-0.3c0.1-0.1,0.2-0.2,0.3-0.2c0.6-0.2,1.2-0.3,1.8-0.2c0.6,0.1,1.2,0.4,1.8,0.5c1.2,0.3,2.6-0.1,3.5-1
			c-0.6-0.3-1.3-0.9-1.1-1.5c0.2-0.6,1.1-0.5,1.7-0.7c0.6-0.1,1.2-0.4,1.8-0.8c1.2-0.8,2.2-2,2.9-3.4l0.1-0.2
			C372.4,339.8,367.1,342.1,366.2,339.4z"/>
	</g>
	<g>
		<path class="st20" d="M267.9,346.9c-3.6-3-6.6-6.5-9-10.6c-1.3,0.9-3.5-0.2-4.6,1c0.5,0.4,1.7,1.4,1.5,2.1c-0.9,2.7-6.2,0.4-9,0.7
			l0.1,0.2c0.6,1.4,1.6,2.5,2.9,3.4c0.5,0.4,1.1,0.7,1.8,0.8c0.7,0.1,1.6,0,1.7,0.7c0.2,0.6-0.5,1.3-1.1,1.5c0.9,0.9,2.2,1.3,3.5,1
			c0.6-0.1,1.2-0.4,1.8-0.5c0.6-0.1,1.2-0.1,1.8,0.2c0.1,0,0.2,0.1,0.3,0.2c0.1,0.1,0.1,0.2,0,0.3c-0.1,0.4-0.6,0.7-0.9,0.9
			c-0.4,0.3-0.7,0.7-0.5,1.1c0.1,0.2,0.4,0.4,0.6,0.4c0.6,0.1,1.2-0.1,1.8-0.3c0.7-0.2,1.5-0.5,2.2-0.7c0.3-0.1,1.7-0.8,2-0.7
			c0.3,0.1-0.4,1-0.5,1.3c0,0.2-0.2,0.3-0.2,0.5c-0.1,0.3-0.2,0.7,0.5,0.7c0.3,0,0.6,0,0.9-0.1c0.6-0.1,2.9-0.8,4.8-2
			C269.5,348.2,268.7,347.6,267.9,346.9z"/>
	</g>
	<g>
		<path class="st21" d="M355.6,347.4c-0.2-0.6,1-1.7,1.5-2.1c-1.1-1.2-3.2-0.2-4.5-0.9c-0.8,0.9-1.6,1.7-2.5,2.5
			c-2,1.9-4.2,3.7-6.5,5.2c-1.5,1-3.2,1.8-4.8,2.5c1.4,2.5,6.1,4,7.1,4.2c0.3,0.1,0.6,0.1,0.9,0.1c0.7,0,0.6-0.4,0.5-0.7
			c0-0.2-0.2-0.3-0.2-0.5c-0.1-0.3-0.8-1.2-0.5-1.3c0.3-0.1,1.7,0.6,2,0.7c0.7,0.2,1.5,0.5,2.2,0.7c0.6,0.2,1.2,0.4,1.8,0.3
			c0.3,0,0.5-0.2,0.6-0.4c0.2-0.4-0.2-0.9-0.5-1.1c-0.4-0.3-0.8-0.5-0.9-0.9c0-0.1,0-0.2,0-0.3c0.1-0.1,0.2-0.2,0.3-0.2
			c0.6-0.2,1.2-0.3,1.8-0.2c0.6,0.1,1.2,0.4,1.8,0.5c1.2,0.3,2.6-0.1,3.5-1c-0.6-0.3-1.3-0.9-1.1-1.5c0.2-0.6,1.1-0.5,1.7-0.7
			c0.6-0.1,1.2-0.4,1.8-0.8c1.2-0.8,2.2-2,2.9-3.4l0.1-0.2C361.8,347.8,356.5,350.1,355.6,347.4z"/>
	</g>
	<g>
		<path class="st21" d="M267.9,346.9c-1.5-1.2-2.8-2.5-4.1-3.9c-0.2,0.1-0.3,0.2-0.3,0.4c-0.1,0.4,0.4,0.8,0.8,1
			c0.4,0.2,0.9,0.3,1.1,0.7c0.1,0.1,0.1,0.2,0,0.3c0,0.1-0.1,0.2-0.2,0.3c-0.5,0.4-1.1,0.6-1.7,0.6c-0.6,0-1.2-0.1-1.8-0.1
			c-1.2,0-2.5,0.7-3.1,1.8c0.6,0.1,1.4,0.6,1.4,1.2c0,0.7-0.9,0.8-1.5,1c-0.6,0.3-1.1,0.7-1.5,1.2c-1,1.1-1.7,2.5-2,4l-0.1,0.2
			c2.8-0.4,7.4-3.8,8.9-1.4c0.4,0.6-0.6,1.9-1,2.4c1.5,1,3.6-1,5.1,0.1c1,0.7-1,2.3-2,3.1c3.1,1.6,6.2-1.5,7.6-1.6
			c0.6-0.1,0.5,1.1,0.3,1.6c-0.1,0.2-0.2,0.5,0,0.6c0.1,0.1,0.4,0.1,0.5,0c2.7-1.2,4.3-3.2,5.6-5.8
			C275.5,352.9,271.2,349.7,267.9,346.9z"/>
	</g>
	<g>
		<g>
			<path class="st15" d="M310.5,285.8c-0.5,0-0.9,0.1-1.3,0.3c0.4,0.8,0.7,1.6,0.9,2.4C310,287.5,310.2,286.6,310.5,285.8z"/>
			<path class="st15" d="M317.7,344.7c0.1,0,0.3-0.1,0.4-0.1c0.5-0.1,1,0,1.4,0.2c2.3-6,3.8-13.1,1.5-20.8c-2.8-8.6-6.4-17-9.2-25.6
				c-0.6-2-1.4-4.3-1.7-6.7c-0.3,4.1-2.1,8.5-3.2,11.7c-3.6,10.2-10.1,21.4-8.9,32.4c0.4,3.7,2,8.9,4.1,13.5c0,0,0-0.1,0-0.1
				c0-0.6,0.4-1.3,0.9-1.6c1.5-0.8,2.7-0.4,4.3,0c1.1,0.2,2.1,0.5,3.1,0.2c0.7-0.2,1-0.4,1.5-0.4
				C313.5,345.8,315.6,344.7,317.7,344.7z"/>
			<path class="st15" d="M353.3,302c-4.1-5.7-9.3-10.8-15.4-14.5c-3.1-1.9-8.2-4.7-12.1-3.5c11.8,7.1,18.9,20.4,20.8,33.8
				c0.1,0.6-0.7,1.4-0.8,0.5c-2.6-12.8-11.2-28.8-24.1-33.8c-3.5-1.3-9-1.8-10,2.9c-1,5.1,2.2,11.6,3.9,16.2
				c2.5,6.8,5.5,13.7,7.4,20.7c2.1,7.9,0,15.9-2.4,22.2c0,0,0,0.1,0,0.1c1.8,0,3.6-0.2,5.5,0.3c0.1,0,0.2,0.1,0.3,0.1
				c1.5-2.5,3.8-4,7.2-4.6c1-0.2,1.9,0.3,2.2,1.2c1,0,2.1,0,3.1,0.1c2.7-3.2,4.9-6.7,6.3-10.3c0.3-0.8,0.9,0.1,0.8,0.6
				c0,0.1,0,0.1-0.1,0.2c0,0,0,0,0,0c0,0,0,0,0,0c-1,3.6-2.5,6.9-4.4,9.9c0.1,0,0.1,0,0.2,0c1.7,0.4,1.6,2.4,0.5,3.4
				c0.4,0,0.7,0,1.1,0.1c1.1,0.1,2,0.9,1.9,2c0.9-0.7,1.8-1.4,2.6-2c7.2-5.9,13.3-13.5,13.6-23.2C361.5,316.3,358,308.4,353.3,302z"
				/>
			<path class="st15" d="M279.6,353.2c0.8-0.2,1.3-0.6,1-1.5c-0.3-0.9,0.3-2.1,1.3-2.3c0.1,0,0.3-0.1,0.4-0.1
				c-8.2-8.7-11.8-20.5-9.6-32.8c2.3-12.6,10.1-24.7,21.3-31.2c-3.9-3.2-13.2,2.8-16,4.8c-8.6,6-15.5,14.9-18.9,24.9
				c-3,8.7-2.3,16.4,3.3,23.8c4.4,5.9,10.6,10.4,16.9,14.1C279.4,353.1,279.5,353.1,279.6,353.2z"/>
			<path class="st15" d="M308,287.9c-1.2-6.3-8.9-2.9-12.5-1c-4.6,2.4-8.3,6.3-11.5,10.3c-7.7,10-12.8,23.4-9.5,36
				c1.4,5.3,4.2,9.9,7.9,13.9c0.9-2.5,4.7-2.3,7.6-2.1c0.1-0.9,0.9-1.7,1.9-1.7c3,0.2,5.8,2,7.8,4.3c-0.3-0.7-0.6-1.4-0.9-2.1
				c-2.6-6.9-3.4-14.1-1.2-21.2c0,0,0,0,0-0.1c0,0,0-0.1,0-0.1c1.9-5.9,4.4-11.6,6.5-17.4C306.1,301.2,309.2,293.9,308,287.9z"/>
		</g>
		<g>
			<path class="st16" d="M316.5,282.3c3.9-7.2,9.3-20.8,9.3-20.8s-13,1.8-17.5-4.6c-5.4-7.7-1,19.1-2.1,27.4
				c0.5,0.2,0.9,0.5,1.3,0.8c0.2,0.1,0.3,0.3,0.4,0.4c0.2-0.4,0.6-0.6,1-0.8c0.6-0.2,1.3,0,1.8,0.4
				C312.1,283.4,314.2,282.5,316.5,282.3z"/>
		</g>
		<g>
			<path class="st17" d="M337.9,266.4c0,0,0.1,2.6-1.5,5.5c-5.6-0.6-10.8,2-13,7.7c0,0,0,0,0,0.1c-0.9,0.1-1.8,0.2-2.9,0.3
				C320.6,280.1,320.7,265.8,337.9,266.4z"/>
			<path class="st17" d="M324,280.9c0,0,3.5-11.1,15.9-6.6C340,274.3,337.1,284.4,324,280.9z"/>
		</g>
		<g>
			<path class="st18" d="M360.6,276.7c-0.1-0.3-0.4-0.4-0.7-0.5c-1.8-0.3-3.4,0.4-4.2,2c-0.7-0.2-1.5-0.2-2.3-0.2
				c-1.3,0-3.1,0.3-4.5,1.3c-1.3-0.5-2.8-0.6-4.1-0.3c-2.8,0.7-5,3.2-5.9,6.8c-0.1,0.3,0.2,0.6,0.6,0.7c0.5,0.1,0.8-0.1,0.8-0.3
				c0.6-2.3,2.4-5.1,4.7-6.1c1-0.4,2.1-0.5,3.1,0c-0.2,0.2-0.3,0.4-0.4,0.6c-0.6,1-1.4,3.5-1,5.1c0.2,0.7,0.5,1.2,1,1.5
				c0.4,0.2,0.7,0.3,1.2,0.3c0.2,0,0.4,0,0.7-0.1c0.8-0.2,1.5-0.8,2-1.6c1-1.7,0.5-4.2-1-5.6c-0.1-0.1-0.2-0.1-0.2-0.2
				c1.2-0.9,2.8-1.3,4.5-1c0.2,0,0.3,0.1,0.5,0.1c0,0.1-0.1,0.3-0.1,0.4c-0.2,1-0.4,2.8,0.4,3.8c0.4,0.4,0.9,0.6,1.5,0.6
				c0.8,0,1.5-0.5,1.9-1.2c0.4-0.9,0.3-2.1-0.3-2.9c-0.4-0.5-0.8-0.9-1.5-1.2c0.4-0.8,1.3-1.7,2.8-1.4c0.1,0,0.4,0.1,0.6-0.1
				l0.1-0.2L360.6,276.7z M357.6,282.1L357.6,282.1c-0.1,0.2-0.2,0.5-0.4,0.5c-0.2,0-0.4,0-0.7-0.2c-0.1-0.5-0.1-1,0-1.6
				c0-0.4,0.1-0.7,0.2-1.1C357.4,280.3,358.1,281.1,357.6,282.1z M349.4,286.2c-0.3,0.1-0.8,0.2-1,0.1c-0.3-0.3-0.3-1.2-0.2-1.7
				l0-0.3c0.1-1.3,0.5-2.4,1.2-3.2c0.9,0.9,1.3,2.4,1,3.7C350.2,285.3,349.9,286,349.4,286.2z"/>
			<path class="st18" d="M287.7,273.5c-1.6-0.8-3.4-0.9-5.2-0.3c-0.1,0-0.2,0.1-0.2,0.1c-0.7-0.5-1.5-0.8-2.3-1
				c-1.5-0.4-3.1-0.4-4.4-0.1c-1-1.5-2.7-2.3-4.4-1.9c-0.2,0-0.3,0.2-0.3,0.3l-0.1,0.3l0.1,0.2c0.2,0.2,0.7,0.4,1,0.4
				c1.1-0.2,1.9,0.2,2.5,1.3c-0.4,0.2-0.7,0.4-1,0.6c-0.8,0.7-1.2,1.8-1.1,2.7c0.1,0.9,0.7,1.5,1.5,1.9c1,0.5,1.6,0.2,2-0.1
				c1-0.9,0.7-3.2,0.3-4.4c1.5-0.4,3.7-0.3,5.1,0.7c-1.4,1.1-2.1,2.9-1.7,4.7c0.3,1.5,1.6,3,3.2,3c0.1,0,0.2,0,0.3,0
				c0.6-0.1,1-0.3,1.3-0.8c1-1.5,0-4.5-0.1-4.8c-0.2-0.7-0.6-1.2-1-1.8c1-0.5,2.1-0.6,3.2-0.2c2.3,0.9,4.1,3.7,4.7,6
				c0.1,0.4,0.8,0.6,1.1,0.5c0.3-0.1,0.4-0.3,0.3-0.5C291.8,277.2,289.9,274.6,287.7,273.5z M282.2,280.3c-0.6-0.2-1.2-1-1.3-2.7
				c0-1,0.5-2,1.4-2.7c1.6,2.5,1.5,4.3,1,5C283,280.3,282.6,280.4,282.2,280.3z M274.8,273.9c0,0.1,0,0.2,0.1,0.3
				c0.3,1.7-0.1,2.2-0.3,2.3c-0.2,0.1-0.4,0.1-0.5,0c-0.2-0.1-0.4-0.3-0.4-0.5l0,0c-0.1-0.4,0-0.8,0.2-1.1
				C274.1,274.5,274.4,274.1,274.8,273.9z"/>
		</g>
		<g>
			<path class="st19" d="M277.6,281c-1.1,0-1.1,1.7,0,1.7C278.7,282.6,278.7,281,277.6,281z"/>
			<path class="st19" d="M287.4,268.8c-1.1,0-1.1,1.7,0,1.7C288.4,270.5,288.4,268.8,287.4,268.8z"/>
			<path class="st19" d="M287.7,281.9c1.1,0,1.1-1.7,0-1.7C286.6,280.2,286.6,281.9,287.7,281.9z"/>
			<path class="st19" d="M351.9,289.6c-1.1,0-1.1,1.7,0,1.7C352.9,291.2,352.9,289.6,351.9,289.6z"/>
			<path class="st19" d="M347.7,271.1c-1.1,0-1.1,1.7,0,1.7C348.8,272.7,348.8,271.1,347.7,271.1z"/>
			<path class="st19" d="M344.8,285.3c-1.1,0-1.1,1.7,0,1.7C345.8,286.9,345.8,285.3,344.8,285.3z"/>
		</g>
	</g>
	<g>
		<path class="st22" d="M351.3,352.7c-0.6,1.4-1.6,2.5-2.9,3.4c-0.5,0.4-1.1,0.7-1.8,0.8c-0.7,0.1-1.6,0-1.7,0.7
			c-0.2,0.6,0.5,1.3,1.1,1.5c-0.9,0.9-2.2,1.3-3.5,1c-0.6-0.1-1.2-0.4-1.8-0.5c-0.6-0.1-1.2-0.1-1.8,0.2c-0.1,0-0.2,0.1-0.3,0.2
			c-0.1,0.1-0.1,0.2,0,0.3c0.1,0.4,0.6,0.7,0.9,0.9c0.4,0.3,0.7,0.7,0.5,1.1c-0.1,0.2-0.4,0.4-0.6,0.4c-0.6,0.1-1.2-0.1-1.8-0.3
			c-0.7-0.2-1.5-0.5-2.2-0.7c-0.3-0.1-1.7-0.8-2-0.7c-0.3,0.1,0.4,1,0.5,1.3c0,0.2,0.2,0.3,0.2,0.5c0.1,0.3,0.2,0.7-0.5,0.7
			c-0.3,0-0.6,0-0.9-0.1c-1.1-0.3-7.4-2.3-7.5-5.5c0-1.2,0.3-2.5,1.1-3.3c-2.4,0.6-4.7,1.2-7.1,1.9c0.2-0.5,0.4-0.9,0.6-1.4
			c0.1-0.2,0.2-0.4,0.3-0.5c0.2-0.2,0.5-0.2,0.8-0.2c1.5-0.2,3-0.3,4.5-0.5c0.2,0,0.3,0,0.4-0.2c0.1-0.1,0.1-0.2,0.1-0.3
			c0.1-4.1,1.2-8.4,7.7-9.7c0.2,0,0.4,0,0.5,0.1c0.1,0.2,0,0.4-0.2,0.6c-0.4,0.5-0.7,1.6-0.1,1.7c1.4,0.2,5.1-2.1,7.8,0.2
			c-1.1,0.5-3.5,1.6-2.7,2.6c1.2,1.4,3.7-0.1,4.9,1.2c-0.5,0.4-1.7,1.4-1.5,2.1c0.9,2.7,6.2,0.4,9,0.7"/>
	</g>
	<g>
		<path class="st22" d="M274.3,353.6c0.6,1.4,1.6,2.5,2.9,3.4c0.5,0.4,1.1,0.7,1.8,0.8c0.7,0.1,1.6,0,1.7,0.7
			c0.2,0.6-0.5,1.3-1.1,1.5c0.9,0.9,2.2,1.3,3.5,1c0.6-0.1,1.2-0.4,1.8-0.5c0.6-0.1,1.2-0.1,1.8,0.2c0.1,0,0.2,0.1,0.3,0.2
			c0.1,0.1,0.1,0.2,0,0.3c-0.1,0.4-0.6,0.7-0.9,0.9c-0.4,0.3-0.7,0.7-0.5,1.1c0.1,0.2,0.4,0.4,0.6,0.4c0.6,0.1,1.2-0.1,1.8-0.3
			c0.7-0.2,1.5-0.5,2.2-0.7c0.3-0.1,1.7-0.8,2-0.7c0.3,0.1-0.4,1-0.5,1.3c0,0.2-0.2,0.3-0.2,0.5c-0.1,0.3-0.2,0.7,0.5,0.7
			c0.3,0,0.6,0,0.9-0.1c1.1-0.3,7.4-2.3,7.5-5.5c0-1.2-0.3-2.5-1.1-3.3c2.4,0.6,4.7,1.2,7.1,1.9c-0.2-0.5-0.4-0.9-0.6-1.4
			c-0.1-0.2-0.2-0.4-0.3-0.5c-0.2-0.2-0.5-0.2-0.8-0.2c-1.5-0.2-3-0.3-4.5-0.5c-0.2,0-0.3,0-0.4-0.2c-0.1-0.1-0.1-0.2-0.1-0.3
			c-0.1-4.1-1.2-8.4-7.7-9.7c-0.2,0-0.4,0-0.5,0.1c-0.1,0.2,0,0.4,0.2,0.6c0.4,0.5,0.7,1.6,0.1,1.7c-1.4,0.2-5.1-2.1-7.8,0.2
			c1.1,0.5,3.5,1.6,2.7,2.6c-1.2,1.4-3.7-0.1-4.9,1.2c0.5,0.4,1.7,1.4,1.5,2.1c-0.9,2.7-6.2,0.4-9,0.7"/>
	</g>
	<g>
		<path class="st23" d="M335.4,355.3c-0.6,1.4-1.6,2.5-2.9,3.4c-0.5,0.4-1.1,0.7-1.8,0.8c-0.7,0.1-1.6,0-1.7,0.7
			c-0.2,0.6,0.5,1.3,1.1,1.5c-0.9,0.9-2.2,1.3-3.5,1c-0.6-0.1-1.2-0.4-1.8-0.5c-0.6-0.1-1.2-0.1-1.8,0.2c-0.1,0-0.2,0.1-0.3,0.2
			c-0.1,0.1-0.1,0.2,0,0.3c0.1,0.4,0.6,0.7,0.9,0.9c0.4,0.3,0.7,0.7,0.5,1.1c-0.1,0.2-0.4,0.4-0.6,0.4c-0.6,0.1-1.2-0.1-1.8-0.3
			c-0.7-0.2-1.5-0.5-2.2-0.7c-0.3-0.1-1.7-0.8-2-0.7c-0.3,0.1,0.4,1,0.5,1.3c0,0.2,0.2,0.3,0.2,0.5c0.1,0.3,0.2,0.7-0.5,0.7
			c-0.3,0-0.6,0-0.9-0.1c-1.1-0.3-7.4-2.3-7.5-5.5c0-1.2,0.3-2.5,1.1-3.3c-2.4,0.6-4.7,1.2-7.1,1.9c0.2-0.5,0.4-0.9,0.6-1.4
			c0.1-0.2,0.2-0.4,0.3-0.5c0.2-0.2,0.5-0.2,0.8-0.2c1.5-0.2,3-0.3,4.5-0.5c0.2,0,0.3,0,0.4-0.2c0.1-0.1,0.1-0.2,0.1-0.3
			c0.1-4.1,1.2-8.4,7.7-9.7c0.2,0,0.4,0,0.5,0.1c0.1,0.2,0,0.4-0.2,0.6c-0.4,0.5-0.7,1.6-0.1,1.7c1.4,0.2,5.1-2.1,7.8,0.2
			c-1.1,0.5-3.5,1.6-2.7,2.6c1.2,1.4,3.7-0.1,4.9,1.2c-0.5,0.4-1.7,1.4-1.5,2.1c0.9,2.7,6.2,0.4,9,0.7"/>
	</g>
	<g>
		<path class="st24" d="M292.3,351.7c0.2,1.5,0.8,2.9,1.8,4.1c0.4,0.5,0.9,1,1.5,1.3c0.6,0.3,1.5,0.5,1.5,1.1c0,0.6-0.9,1-1.5,1.2
			c0.6,1.1,1.8,1.9,3,1.9c0.6,0,1.2-0.1,1.8,0c0.6,0.1,1.2,0.3,1.7,0.7c0.1,0.1,0.2,0.2,0.2,0.3c0,0.1,0,0.2-0.1,0.3
			c-0.2,0.4-0.7,0.5-1.2,0.6c-0.4,0.1-0.9,0.5-0.8,0.9c0,0.3,0.3,0.4,0.5,0.6c0.5,0.3,1.2,0.3,1.8,0.2c0.8,0,1.6,0,2.4-0.1
			c0.3,0,1.9-0.3,2.2-0.1c0.3,0.2-0.7,0.8-0.8,1.1c-0.1,0.1-0.2,0.2-0.3,0.4c-0.2,0.3-0.3,0.6,0.3,0.8c0.3,0.1,0.6,0.1,0.9,0.2
			c1.2,0.1,7.8,0,8.7-3.2c0.4-1.1,0.4-2.5-0.1-3.5c2.1,1.3,4.1,2.5,6.2,3.8c-0.1-0.5-0.1-1-0.2-1.5c0-0.2-0.1-0.4-0.2-0.6
			c-0.1-0.2-0.4-0.4-0.7-0.5c-1.4-0.6-2.7-1.2-4.1-1.8c-0.1-0.1-0.3-0.1-0.4-0.3c0-0.1,0-0.2,0-0.3c1.1-4,1.3-8.4-4.6-11.5
			c-0.2-0.1-0.4-0.2-0.5,0c-0.2,0.1-0.1,0.4,0,0.6c0.2,0.6,0.2,1.7-0.4,1.6c-1.4-0.2-4.3-3.5-7.5-2c0.9,0.8,2.9,2.5,1.9,3.2
			c-1.5,1-3.5-1.1-5.1-0.2c0.4,0.5,1.3,1.9,0.9,2.4c-1.6,2.3-6-1.4-8.9-1.9"/>
	</g>
</g>
<g>
	<path class="st25" d="M266.6,147.1c-0.5-1.7-3-1.4-3.1,0.4c-0.4,10.5-3.9,26.2-20.1,34.6c-13.5,7-20.4,27.2-20.4,27.2
		c-1.4-1.4-11.7-39.8-1.4-48.1c3-2.4,5.9-4.5,8.4-6.1c1.5-1,0.4-3.4-1.3-2.8c-13.6,4.4-24.3,8.7-19.2-26.6c0.2-1.7-2.1-2.4-2.8-0.8
		c-6.8,15.2-6,15.2-22.1,5.4c-0.7-0.4-1.7-1.4-2.5-1.4c-0.4,0-0.7,0.4-0.5,0.8c0.2,0.3,0.7,0.7,1,0.9c0.8,0.7,1.6,1.4,2.4,2.2
		c0.8,0.8,1.7,1.5,2.5,2.3c5.8,4.6,8.3,8.8,10.1,11.4l3.1,4.4c5.3,7.5,8.2,16.4,8.2,25.5c0.1,30.9,1.5,37-4.5,42
		c-27.6-27.6-34.2-34.1-29.5-53.2c0.4-1.7-1.9-2.7-2.8-1.2l-1.9,4.5c-1,2.3-4,2.8-5.7,1c-2.7-3-6.6-6.9-10-9.4
		c-1.4-1.1-3.3,0.7-2.2,2.1c6.7,9.8,18.4,26.8,30,42.4c19.6,26.5,46.4,69.5-6,128.6c0,0,26.1-15.4,40.2-10
		c17.1,6.6,37.8,6.8,36.8,6.5c-14.2-1.9-17.5-11.4-22.2-38.1c-4.1-23.2-8.8-60.6,5.2-87.1C251.5,175.8,276.8,180.4,266.6,147.1z"/>
	<g>
		<g>
			<path class="st26" d="M168.3,149.1l-0.7-0.4l0,0c-5.9-18.5-26.2-13.2-25.8-12.3c9.4,20.5,23.4,15.1,25.8,14l7.5,2.5l-0.9-2.3
				L168.3,149.1z M166,149.5c-0.9-1.2-1.9-2.3-2.9-3.2c0,0,0,0,0,0c-1,0.6-2.2,0.9-3.4,0.8c-0.5,0-0.5-0.8,0-0.8
				c1,0.1,1.9-0.1,2.7-0.6c-0.6-0.5-1.3-0.9-1.9-1.4c-0.9,0.7-2,1.1-3.2,1.2c-0.5,0.1-0.5-0.7,0-0.8c0.9-0.1,1.7-0.4,2.5-0.9
				c-0.5-0.3-0.9-0.5-1.4-0.8c-1.4,0.9-3.1,1.3-4.8,1.2c-0.5,0-0.5-0.8,0-0.8c1.4,0.1,2.7-0.2,4-0.9c-0.6-0.3-1.1-0.5-1.7-0.7
				c0,0-0.1,0-0.1,0c-1.2,0.1-2.3,0.8-3.4,1.1c-1,0.2-2,0.4-3,0.5c-0.5,0-0.5-0.7,0-0.8c1.2-0.1,2.4-0.3,3.6-0.7
				c0.6-0.2,1.1-0.4,1.7-0.6c-0.6-0.2-1.2-0.4-1.8-0.6c-1.5-0.1-2.9,0.7-4.4,0.9c-0.5,0.1-0.5-0.7,0-0.8c0.8-0.1,1.6-0.4,2.4-0.6
				c0,0-0.1-0.1-0.1-0.1c-1.3-0.4-2.7-0.7-4.1-1.1c-0.5-0.1-0.3-0.9,0.2-0.7c1.1,0.3,2.2,0.6,3.3,0.9c-0.6-0.9-1.3-1.6-2.3-2.2
				c-0.4-0.3,0-0.9,0.4-0.7c1.3,0.8,2.3,1.8,2.9,3.2c0.5,0.2,1.1,0.3,1.6,0.5c0,0,0,0,0,0c0.1,0,0.1,0,0.2,0.1
				c0.8,0.3,1.7,0.6,2.5,0.9c-0.7-1.1-1.9-1.6-3-2.3c-0.4-0.3,0-0.9,0.4-0.7c1.3,0.8,2.8,1.5,3.5,3c0,0.1,0,0.2,0,0.3
				c1.3,0.5,2.5,1.1,3.7,1.8c-0.3-0.7-0.8-1.3-1.3-1.9c-0.3-0.4,0.2-0.9,0.5-0.5c0.8,0.9,1.6,1.8,1.7,3c2.1,1.3,3.9,3,5.5,5.2
				C167,149.5,166.3,149.9,166,149.5z"/>
			<path class="st26" d="M252.8,165.4c-16.8-9.6-23.9,1.1-25.1,3.2l-6.5,2.1l1.8,1.2l4.9-2l0.7-0.1l0,0
				C242,179.6,253.5,165.8,252.8,165.4z M235.4,169.9c-2.1,0.1-4.2-0.1-6.4-0.8c-0.5-0.2-0.3-0.9,0.2-0.7c0.3,0.1,0.6,0.2,0.9,0.2
				c0.9,0.3,1.9,0.4,2.8,0.5c0.2-0.3,0.4-0.7,0.6-1c0.4-0.5,0.8-0.9,1.4-1.3c0.4-0.3,0.8,0.4,0.4,0.7c-0.2,0.1-0.4,0.3-0.6,0.5
				c-0.4,0.3-0.7,0.7-0.9,1.2c0.6,0,1.3,0,1.9,0c0.2-0.5,0.4-1,0.7-1.4c0.2-0.4,0.5-0.7,0.9-1c0.4-0.3,0.9,0.2,0.5,0.5
				c-0.1,0.1-0.2,0.2-0.3,0.3c-0.4,0.4-0.8,0.9-1,1.5c0.4,0,0.8-0.1,1.3-0.2c0.2-0.5,0.5-1,0.8-1.5c0.5-0.7,1.2-1.3,1.9-1.8
				c0.4-0.3,0.8,0.4,0.4,0.7c-0.4,0.3-0.8,0.6-1.2,1c-0.4,0.4-0.8,0.9-1,1.5c0.5-0.1,0.9-0.2,1.4-0.3c0,0,0,0,0-0.1
				c0.4-0.4,0.7-0.8,1-1.3c0.2-0.3,0.4-0.6,0.6-0.9c0.6-0.7,1.3-1.4,2-2.1c0.4-0.3,0.9,0.2,0.5,0.5c-0.7,0.6-1.4,1.3-2,2.1
				c-0.1,0.1-0.1,0.2-0.2,0.3c-0.3,0.4-0.5,0.8-0.8,1.1c0.5-0.1,0.9-0.3,1.4-0.4c0.4-0.3,0.7-0.6,1-0.9c0.5-0.6,0.9-1.3,1.5-1.9
				c0.4-0.3,0.9,0.2,0.5,0.5c-0.4,0.4-0.7,0.8-1,1.2c-0.1,0.2-0.2,0.3-0.4,0.5c0,0,0,0,0,0c0.6-0.2,1.3-0.5,1.9-0.7
				c0.5-0.2,1-0.4,1.5-0.6c0.5-0.2,0.7,0.6,0.2,0.7c-0.9,0.3-1.7,0.7-2.6,1c0.8,0.3,1.7,0.4,2.6,0.3c0.5,0,0.5,0.7,0,0.8
				c-1.3,0.1-2.5-0.2-3.6-0.7c-0.4,0.2-0.9,0.3-1.3,0.4c0,0,0,0,0,0c-0.1,0-0.1,0.1-0.2,0c-0.6,0.2-1.3,0.4-1.9,0.6
				c1,0.3,2,0.1,3.1,0c0.5,0,0.5,0.7,0,0.8c-1.4,0.1-2.7,0.3-4-0.4c-0.1,0-0.1-0.1-0.2-0.2c-1.1,0.3-2.2,0.4-3.3,0.5
				c0.5,0.3,1.1,0.5,1.8,0.6c0.5,0.1,0.3,0.8-0.2,0.7C237.1,170.9,236.1,170.7,235.4,169.9z"/>
			<path class="st26" d="M248.3,211.6l-5.6-4.5l0,2.3l4.7,3.2l0.5,0.5l0,0c-0.9,17.7,18.1,19.7,18,18.8
				C264.5,211.4,250.8,211.4,248.3,211.6z M262.1,228.4c-0.8-0.6-1.7-1.2-2.5-1.8c0.2,0.9,0.6,1.7,1.2,2.5c0.3,0.4-0.2,0.9-0.5,0.5
				c-0.9-1.1-1.4-2.3-1.5-3.7c-0.4-0.3-0.8-0.6-1.2-0.9c0,0,0,0,0,0c-0.1,0-0.1-0.1-0.1-0.1c-0.6-0.5-1.1-0.9-1.7-1.4
				c0.3,1.1,1.2,1.9,1.8,2.8c0.3,0.4-0.4,0.8-0.7,0.4c-0.9-1.2-1.9-2.2-2-3.7c0-0.1,0-0.2,0.1-0.2c-0.9-0.8-1.7-1.7-2.5-2.6
				c0,0.7,0.3,1.3,0.5,2c0.2,0.5-0.6,0.7-0.7,0.2c-0.4-1-0.7-2-0.5-3c-1.3-1.8-2.4-3.8-3-6.2c-0.1-0.5,0.6-0.7,0.7-0.2
				c0.1,0.3,0.2,0.5,0.3,0.8c0.3,1,0.7,2,1.2,2.9c0.4-0.1,0.8-0.1,1.3,0c0.7,0,1.3,0.2,1.9,0.5c0.4,0.2,0.1,0.9-0.4,0.7
				c-0.3-0.1-0.5-0.2-0.8-0.3c-0.5-0.1-1.1-0.2-1.6-0.1c0.4,0.6,0.7,1.2,1.2,1.7c0.6-0.1,1.1-0.2,1.7-0.2c0.5,0,0.9,0.1,1.4,0.2
				c0.5,0.1,0.3,0.9-0.2,0.7c-0.1,0-0.3-0.1-0.4-0.1c-0.7-0.1-1.3-0.1-1.9,0c0.3,0.4,0.6,0.7,0.9,1.1c0.6-0.1,1.2-0.2,1.8-0.1
				c0.9,0,1.8,0.2,2.7,0.6c0.4,0.2,0.1,0.9-0.4,0.7c-0.5-0.2-1-0.4-1.6-0.5c-0.6-0.1-1.3-0.1-1.9,0c0.4,0.4,0.8,0.7,1.1,1.1
				c0,0,0.1,0,0.1,0c0.6,0.1,1.2,0.1,1.7,0.1c0.5,0,1,0,1.5,0c0.9,0.1,1.8,0.3,2.7,0.5c0.5,0.1,0.3,0.9-0.2,0.7
				c-1.1-0.3-2.2-0.5-3.3-0.6c0,0,0,0-0.1,0c-0.5,0-1,0-1.5,0c0.4,0.3,0.8,0.7,1.2,1c0.5,0.2,1,0.3,1.5,0.4c0.8,0.1,1.7,0,2.5,0.2
				c0.5,0.1,0.3,0.9-0.2,0.7c-0.5-0.1-1.1-0.2-1.6-0.2c-0.2,0-0.4,0-0.6,0c0,0,0,0.1,0,0.1c0.6,0.4,1.2,0.9,1.8,1.3
				c0.4,0.3,0.8,0.6,1.3,0.9C262.9,228.1,262.5,228.7,262.1,228.4z"/>
		</g>
		<g>
			<path class="st27" d="M167.1,209.5l-0.7-0.4l0,0c-5.9-18.5-26.2-13.2-25.8-12.3c9.4,20.5,23.4,15.1,25.8,14l7.5,2.5l-0.9-2.3
				L167.1,209.5z M164.9,209.9c-0.9-1.2-1.9-2.3-2.9-3.2c0,0,0,0,0,0c-1,0.6-2.2,0.9-3.4,0.8c-0.5,0-0.5-0.8,0-0.8
				c1,0.1,1.9-0.1,2.7-0.6c-0.6-0.5-1.3-0.9-1.9-1.4c-0.9,0.7-2,1.1-3.2,1.2c-0.5,0.1-0.5-0.7,0-0.8c0.9-0.1,1.7-0.4,2.5-0.9
				c-0.5-0.3-0.9-0.5-1.4-0.8c-1.4,0.9-3.1,1.3-4.8,1.2c-0.5,0-0.5-0.8,0-0.8c1.4,0.1,2.7-0.2,4-0.9c-0.6-0.3-1.1-0.5-1.7-0.7
				c0,0-0.1,0-0.1,0c-1.2,0.1-2.3,0.8-3.4,1.1c-1,0.2-2,0.4-3,0.5c-0.5,0-0.5-0.7,0-0.8c1.2-0.1,2.4-0.3,3.6-0.7
				c0.6-0.2,1.1-0.4,1.7-0.6c-0.6-0.2-1.2-0.4-1.8-0.6c-1.5-0.1-2.9,0.7-4.4,0.9c-0.5,0.1-0.5-0.7,0-0.8c0.8-0.1,1.6-0.4,2.4-0.6
				c0,0-0.1-0.1-0.1-0.1c-1.3-0.4-2.7-0.7-4.1-1.1c-0.5-0.1-0.3-0.9,0.2-0.7c1.1,0.3,2.2,0.6,3.3,0.9c-0.6-0.9-1.3-1.6-2.3-2.2
				c-0.4-0.3,0-0.9,0.4-0.7c1.3,0.8,2.3,1.8,2.9,3.2c0.5,0.2,1.1,0.3,1.6,0.5c0,0,0,0,0,0c0.1,0,0.1,0,0.2,0.1
				c0.8,0.3,1.7,0.6,2.5,0.9c-0.7-1.1-1.9-1.6-3-2.3c-0.4-0.3,0-0.9,0.4-0.7c1.3,0.8,2.8,1.5,3.5,3c0,0.1,0,0.2,0,0.3
				c1.3,0.5,2.5,1.1,3.7,1.8c-0.3-0.7-0.8-1.3-1.3-1.9c-0.3-0.4,0.2-0.9,0.5-0.5c0.8,0.9,1.6,1.8,1.7,3c2.1,1.3,3.9,3,5.5,5.2
				C165.9,209.9,165.2,210.3,164.9,209.9z"/>
			<path class="st27" d="M152.7,113.9l2.2,7.6l1.4-2l-2.2-5.8L154,113l0,0c12-15.3-3.8-29-4.3-28.2C138,104,150.3,112.6,152.7,113.9
				z M149.7,98.6c0.7,1.2,1.7,2.1,2.9,2.7c-0.1-0.6-0.2-1.2-0.3-1.8c0,0,0,0-0.1-0.1c-0.7-0.8-1.7-1.3-2.5-2
				c-0.9-0.7-1.6-1.5-2.3-2.4c-0.3-0.4,0.2-0.9,0.5-0.5c0.7,0.9,1.5,1.7,2.3,2.4c0.5,0.5,1.2,0.8,1.8,1.3c-0.2-0.6-0.3-1.2-0.5-1.8
				c-0.8-1.3-2.2-1.9-3.2-3c-0.3-0.4,0.2-0.9,0.5-0.5c0.6,0.7,1.3,1.1,2,1.7c0,0,0-0.1,0.1-0.1c-0.4-1.3-0.9-2.7-1.4-4
				c-0.2-0.5,0.6-0.7,0.7-0.2c0.4,1.1,0.8,2.2,1.1,3.2c0.4-1,0.6-2,0.5-3.1c0-0.5,0.7-0.5,0.8,0c0.1,1.5-0.3,2.9-1,4.2
				c0.2,0.5,0.3,1.1,0.5,1.6c0,0,0,0,0,0c0,0.1,0,0.1,0,0.2c0.2,0.8,0.5,1.7,0.7,2.5c0.5-1.2,0.2-2.5,0.2-3.8c0-0.5,0.7-0.5,0.8,0
				c0.1,1.6,0.3,3.1-0.5,4.6c-0.1,0.1-0.1,0.2-0.2,0.2c0.3,1.4,0.5,2.7,0.6,4.1c0.4-0.6,0.6-1.4,0.8-2.2c0.1-0.5,0.9-0.3,0.7,0.2
				c-0.3,1.1-0.6,2.3-1.5,3.1c0,0,0,0,0,0c0.1,2.4-0.3,4.9-1.1,7.4c-0.2,0.5-0.9,0.3-0.7-0.2c0.5-1.4,0.8-2.9,1-4.3c0,0,0,0,0,0
				c-1.1-0.5-1.9-1.3-2.5-2.3c-0.2-0.4,0.4-0.8,0.7-0.4c0.5,0.8,1.1,1.4,2,1.9c0.1-0.8,0.1-1.6,0-2.4c-1-0.4-2-1-2.7-1.9
				c-0.3-0.4,0.2-0.9,0.5-0.5c0.6,0.7,1.3,1.2,2.1,1.6c0-0.5-0.1-1.1-0.2-1.6c-1.6-0.7-2.9-1.8-3.7-3.3
				C148.8,98.5,149.4,98.1,149.7,98.6z"/>
			<path class="st27" d="M187,240.5l-0.2-0.5l0,0c4.6-11.3-7.4-17-7.5-16.4c-3.7,13.7,5.2,16.8,6.9,17.2l2.7,4.2l0.5-1.5L187,240.5z
				 M186.4,239.8c0,0.5-0.8,0.5-0.8,0c0.1-0.9,0-1.8-0.1-2.7c-0.7-0.1-1.4-0.5-1.9-1c-0.4-0.3,0.2-0.9,0.5-0.5
				c0.4,0.3,0.8,0.6,1.2,0.7c-0.1-0.4-0.2-0.7-0.3-1.1c-0.7-0.1-1.3-0.3-1.9-0.7c-0.4-0.3,0-0.9,0.4-0.7c0.4,0.3,0.8,0.4,1.3,0.5
				c-0.1-0.2-0.2-0.4-0.3-0.6c-1.1-0.2-2-0.6-2.8-1.4c-0.4-0.3,0.2-0.9,0.5-0.5c0.5,0.5,1.2,0.9,1.9,1.1c-0.1-0.2-0.2-0.5-0.4-0.7
				c0,0,0,0,0,0c-0.5-0.4-1.2-0.5-1.8-0.7c-0.7-0.3-1.3-0.7-1.9-1.1c-0.4-0.3,0-0.9,0.4-0.7c0.6,0.4,1.3,0.8,2,1.1
				c0.2,0.1,0.5,0.2,0.7,0.3c-0.1-0.2-0.3-0.4-0.4-0.6c-0.7-0.6-1.7-0.8-2.4-1.3c-0.4-0.3,0-0.9,0.4-0.7c0.4,0.2,0.8,0.4,1.1,0.5
				c-0.5-0.7-0.9-1.3-1.4-1.9c-0.3-0.4,0.4-0.8,0.7-0.4c0.3,0.5,0.7,0.9,1,1.4c0-0.5-0.1-1-0.2-1.5c-0.2-0.5,0.6-0.7,0.7-0.2
				c0.3,0.9,0.3,1.8,0.2,2.7c0.2,0.3,0.4,0.5,0.5,0.8c0,0,0,0,0,0c0.1,0.1,0.1,0.1,0.1,0.2c0.2,0.3,0.4,0.6,0.6,0.9
				c-0.1-0.6-0.3-1.2-0.5-1.7c-0.2-0.5,0.6-0.7,0.7-0.2c0.3,1,0.8,1.9,0.5,2.9c0,0.1,0,0.1-0.1,0.1c0.3,0.6,0.6,1.2,0.8,1.9
				c0-0.3,0-0.7,0-1c0-0.5,0.7-0.5,0.8,0c0,0.7,0,1.5-0.4,2.1C186.2,236.6,186.5,238.1,186.4,239.8z"/>
		</g>
		<g>
			<path class="st21" d="M238.5,238.4l-4.7-3.8l0,1.9l3.9,2.6l0.4,0.5l0,0c-0.8,14.8,15.2,16.5,15.1,15.8
				C252,238.1,240.6,238.2,238.5,238.4z M250,252.5c-0.7-0.5-1.3-0.9-2-1.4c0.2,0.7,0.5,1.3,0.9,1.9c0.3,0.4-0.2,0.9-0.5,0.5
				c-0.7-0.9-1.1-1.9-1.3-3.1c-0.3-0.3-0.7-0.5-1-0.8c0,0,0,0,0,0c-0.1,0-0.1-0.1-0.1-0.1c-0.4-0.3-0.8-0.7-1.2-1
				c0.3,0.8,0.9,1.5,1.4,2.1c0.3,0.4-0.4,0.8-0.7,0.4c-0.7-1-1.6-1.8-1.7-3.1c0-0.1,0-0.1,0-0.2c-0.7-0.6-1.3-1.3-1.9-2
				c0.1,0.5,0.2,1,0.4,1.4c0.2,0.5-0.6,0.7-0.7,0.2c-0.3-0.8-0.6-1.7-0.4-2.5c-1.1-1.5-2-3.2-2.5-5.2c-0.1-0.5,0.6-0.7,0.7-0.2
				c0.1,0.3,0.2,0.5,0.3,0.8c0.3,0.8,0.6,1.5,1,2.2c0.3,0,0.7-0.1,1,0c0.6,0,1.1,0.2,1.7,0.4c0.4,0.2,0.1,0.9-0.4,0.7
				c-0.2-0.1-0.4-0.1-0.5-0.2c-0.4-0.1-0.9-0.2-1.3-0.1c0.3,0.5,0.6,0.9,0.9,1.3c0.4-0.1,0.9-0.2,1.3-0.2c0.4,0,0.8,0.1,1.2,0.2
				c0.5,0.1,0.3,0.9-0.2,0.7c-0.1,0-0.2,0-0.3,0c-0.5-0.1-1.1-0.1-1.6,0c0.2,0.3,0.4,0.5,0.7,0.8c0.5-0.1,1-0.1,1.5-0.1
				c0.8,0,1.6,0.2,2.4,0.5c0.4,0.2,0.1,0.9-0.4,0.7c-0.4-0.2-0.8-0.3-1.2-0.4c-0.5-0.1-1-0.1-1.6-0.1c0.3,0.3,0.6,0.5,0.9,0.8
				c0,0,0.1,0,0.1,0c0.4,0.1,0.9,0.1,1.4,0.1c0.4,0,0.9,0,1.3,0c0.8,0.1,1.5,0.2,2.3,0.4c0.5,0.1,0.3,0.9-0.2,0.7
				c-0.9-0.2-1.8-0.4-2.7-0.5c0,0-0.1,0-0.1,0c-0.4,0-0.7,0-1.1,0c0.3,0.2,0.6,0.5,0.9,0.7c0.4,0.2,0.8,0.2,1.2,0.3
				c0.7,0.1,1.5,0,2.2,0.2c0.5,0.1,0.3,0.9-0.2,0.7c-0.4-0.1-0.9-0.1-1.3-0.2c-0.2,0-0.3,0-0.5,0c0.4,0.3,0.8,0.6,1.3,0.9
				c0.4,0.3,0.8,0.6,1.3,0.9C250.8,252.1,250.4,252.8,250,252.5z"/>
			<path class="st21" d="M126.5,151.4L126.5,151.4c7.3-18-11.7-26.9-11.9-26c-5.9,21.8,8.3,26.6,10.9,27.3l4.2,6.7l0.8-2.3l-3.7-4.9
				L126.5,151.4z M125.6,151c0,0.5-0.8,0.5-0.8,0c0.1-1.5,0-3-0.2-4.4c0,0,0,0,0,0c-1.2-0.2-2.2-0.7-3.1-1.6
				c-0.4-0.3,0.2-0.9,0.5-0.5c0.7,0.7,1.5,1.1,2.4,1.3c-0.2-0.8-0.4-1.5-0.6-2.3c-1.1-0.1-2.2-0.4-3.1-1.1c-0.4-0.3,0-0.9,0.4-0.7
				c0.8,0.5,1.6,0.8,2.5,0.9c-0.2-0.5-0.4-1-0.6-1.5c-1.7-0.2-3.2-0.9-4.5-2.1c-0.4-0.3,0.2-0.9,0.5-0.5c1,1,2.2,1.6,3.6,1.8
				c-0.3-0.5-0.5-1.1-0.8-1.6c0,0-0.1,0-0.1,0c-0.8-0.6-1.9-0.8-2.9-1.2c-1.1-0.5-2.1-1.1-3-1.7c-0.4-0.3,0-0.9,0.4-0.7
				c1,0.7,2.1,1.3,3.2,1.8c0.6,0.2,1.2,0.4,1.8,0.6c-0.3-0.5-0.6-1.1-1-1.6c-1.1-1-2.7-1.2-3.9-2c-0.4-0.3,0-0.9,0.4-0.7
				c0.7,0.5,1.6,0.7,2.3,1.1c0-0.1,0-0.1,0-0.2c-0.8-1.2-1.6-2.3-2.5-3.4c-0.3-0.4,0.4-0.8,0.7-0.4c0.7,0.9,1.3,1.8,2,2.8
				c0.1-1.1,0-2.1-0.4-3.2c-0.2-0.5,0.6-0.7,0.7-0.2c0.5,1.4,0.5,2.8,0.2,4.3c0.3,0.5,0.6,0.9,0.9,1.4c0,0,0,0,0,0
				c0.1,0.1,0.1,0.1,0.1,0.2c0.5,0.7,0.9,1.5,1.3,2.2c0.2-1.3-0.5-2.5-0.8-3.7c-0.2-0.5,0.6-0.7,0.7-0.2c0.5,1.5,1.2,2.9,0.8,4.5
				c0,0.1-0.1,0.2-0.2,0.2c0.6,1.2,1.2,2.5,1.7,3.8c0.3-0.7,0.2-1.5,0.2-2.3c0-0.5,0.7-0.5,0.8,0c0.1,1.2,0.1,2.4-0.6,3.4
				C125.4,145.9,125.7,148.4,125.6,151z"/>
			<path class="st21" d="M171.3,239.1l-0.7-0.4l0,0c-5.9-18.5-26.2-13.2-25.8-12.3c9.4,20.5,23.4,15.1,25.8,14l7.5,2.5l-0.9-2.3
				L171.3,239.1z M169,239.4c-0.9-1.2-1.9-2.3-2.9-3.2c0,0,0,0,0,0c-1,0.6-2.2,0.9-3.4,0.8c-0.5,0-0.5-0.8,0-0.8
				c1,0.1,1.9-0.1,2.7-0.6c-0.6-0.5-1.3-0.9-1.9-1.4c-0.9,0.7-2,1.1-3.2,1.2c-0.5,0.1-0.5-0.7,0-0.8c0.9-0.1,1.7-0.4,2.5-0.9
				c-0.5-0.3-0.9-0.5-1.4-0.8c-1.4,0.9-3.1,1.3-4.8,1.2c-0.5,0-0.5-0.8,0-0.8c1.4,0.1,2.7-0.2,4-0.9c-0.6-0.3-1.1-0.5-1.7-0.7
				c0,0-0.1,0-0.1,0c-1.2,0.1-2.3,0.8-3.4,1.1c-1,0.2-2,0.4-3,0.5c-0.5,0-0.5-0.7,0-0.8c1.2-0.1,2.4-0.3,3.6-0.7
				c0.6-0.2,1.1-0.4,1.7-0.6c-0.6-0.2-1.2-0.4-1.8-0.6c-1.5-0.1-2.9,0.7-4.4,0.9c-0.5,0.1-0.5-0.7,0-0.8c0.8-0.1,1.6-0.4,2.4-0.6
				c0,0-0.1-0.1-0.1-0.1c-1.3-0.4-2.7-0.7-4.1-1.1c-0.5-0.1-0.3-0.9,0.2-0.7c1.1,0.3,2.2,0.6,3.3,0.9c-0.6-0.9-1.3-1.6-2.3-2.2
				c-0.4-0.3,0-0.9,0.4-0.7c1.3,0.8,2.3,1.8,2.9,3.2c0.5,0.2,1.1,0.3,1.6,0.5c0,0,0,0,0,0c0.1,0,0.1,0,0.2,0.1
				c0.8,0.3,1.7,0.6,2.5,0.9c-0.7-1.1-1.9-1.6-3-2.3c-0.4-0.3,0-0.9,0.4-0.7c1.3,0.8,2.8,1.5,3.5,3c0,0.1,0,0.2,0,0.3
				c1.3,0.5,2.5,1.1,3.7,1.8c-0.3-0.7-0.8-1.3-1.3-1.9c-0.3-0.4,0.2-0.9,0.5-0.5c0.8,0.9,1.6,1.8,1.7,3c2.1,1.3,3.9,3,5.5,5.2
				C170,239.4,169.3,239.8,169,239.4z"/>
		</g>
		<g>
			<path class="st28" d="M200,110.4L200,110.4c1.1-19.4-19.7-21.6-19.7-20.7c1.4,22.5,16.5,22.5,19.2,22.3l6.2,5l0-2.5l-5.1-3.5
				L200,110.4z M198.3,110.6c-0.1-0.3-0.2-0.5-0.2-0.8c-0.4-1.1-0.8-2.2-1.4-3.3c-0.5,0.1-1,0.1-1.4,0c-0.7-0.1-1.4-0.2-2.1-0.5
				c-0.4-0.2-0.1-0.9,0.4-0.7c0.3,0.1,0.6,0.2,0.9,0.3c0.6,0.1,1.2,0.2,1.8,0.1c-0.4-0.7-0.8-1.3-1.3-2c-0.6,0.2-1.3,0.2-1.9,0.2
				c-0.5,0-1-0.1-1.4-0.2c-0.5-0.1-0.3-0.9,0.2-0.7c0.2,0,0.3,0.1,0.5,0.1c0.7,0.1,1.4,0.1,2.2,0c-0.3-0.4-0.7-0.8-1.1-1.2
				c-0.7,0.1-1.4,0.2-2.1,0.1c-1-0.1-2-0.3-2.9-0.7c-0.4-0.2-0.1-0.9,0.4-0.7c0.6,0.3,1.2,0.4,1.8,0.5c0.1,0,0.2,0,0.3,0.1l0.1,0
				c0.6,0.1,1.1,0,1.7-0.1c-0.4-0.4-0.9-0.9-1.3-1.3c0,0-0.1,0-0.1,0c-0.6-0.2-1.3-0.2-2-0.2c-0.5,0-1.1,0-1.6-0.1
				c-1-0.1-2-0.3-3-0.6c-0.5-0.1-0.3-0.9,0.2-0.7c1.2,0.3,2.4,0.6,3.7,0.6c0,0,0,0,0,0c0.6,0,1.2,0,1.7,0c-0.5-0.4-1-0.8-1.4-1.2
				c-0.5-0.2-1.1-0.3-1.7-0.4c-0.9-0.1-1.8-0.1-2.7-0.3c-0.5-0.1-0.3-0.9,0.2-0.7c0.6,0.1,1.2,0.2,1.8,0.2c0.2,0,0.5,0,0.7,0.1
				c0-0.1,0-0.1,0-0.2c-0.7-0.5-1.4-1-2.1-1.5c-0.4-0.3-0.8-0.6-1.2-0.9c-0.4-0.3,0-0.9,0.4-0.7c1,0.7,1.9,1.3,2.8,2
				c-0.2-1-0.7-2-1.3-2.8c-0.3-0.4,0.2-0.9,0.5-0.5c0.9,1.2,1.5,2.5,1.7,4c0.5,0.3,0.9,0.7,1.3,1c0,0,0,0,0,0c0.1,0,0.1,0.1,0.1,0.1
				c0.7,0.5,1.3,1.1,1.9,1.6c-0.3-1.2-1.3-2.2-2-3.2c-0.3-0.4,0.4-0.8,0.7-0.4c0.9,1.3,2.1,2.4,2.2,4c0,0.1,0,0.2-0.1,0.2
				c1,0.9,1.9,1.9,2.8,3c0-0.8-0.3-1.5-0.6-2.3c-0.2-0.5,0.6-0.7,0.7-0.2c0.4,1.1,0.8,2.2,0.5,3.3c1.5,2,2.6,4.2,3.3,6.8
				C199.2,110.8,198.4,111,198.3,110.6z"/>
			<path class="st28" d="M242.3,116.3c-22.4,2.5-21.7,17.5-21.3,20.2l-4.7,6.4l2.5-0.1l3.2-5.3l0.6-0.6l0,0
				C242,137.1,243.3,116.2,242.3,116.3z M232.9,128.8c-0.9,1-1.8,2-2.9,2.9c0.7,0,1.5-0.3,2.2-0.7c0.4-0.2,0.8,0.5,0.4,0.7
				c-1.1,0.5-2.2,0.9-3.4,0.7c-1.9,1.6-4.1,2.8-6.6,3.6c-0.5,0.1-0.7-0.6-0.2-0.7c0.3-0.1,0.5-0.2,0.8-0.3c1.1-0.4,2.2-0.9,3.2-1.5
				c-0.1-0.5-0.1-1-0.1-1.4c0-0.7,0.1-1.4,0.4-2c0.2-0.5,0.9-0.3,0.7,0.2c-0.1,0.3-0.2,0.7-0.3,1c-0.1,0.6-0.1,1.2,0,1.8
				c0.7-0.4,1.3-0.9,1.9-1.4c-0.2-0.6-0.3-1.3-0.3-1.9c0-0.5,0-1,0.1-1.5c0.1-0.5,0.8-0.3,0.7,0.2c0,0.2,0,0.3-0.1,0.5
				c-0.1,0.7-0.1,1.4,0.1,2.1c0.4-0.4,0.8-0.7,1.2-1.1c-0.2-0.7-0.2-1.4-0.2-2.1c0-1,0.2-1.9,0.5-2.9c0.2-0.5,0.9-0.3,0.7,0.2
				c-0.2,0.6-0.4,1.3-0.5,1.9c0,0.1,0,0.2-0.1,0.4l0,0c0,0.6,0,1.2,0.1,1.8c0.4-0.4,0.8-0.9,1.2-1.4c0,0,0-0.1,0-0.2
				c0.1-0.6,0.1-1.3,0.1-1.9c0-0.5-0.1-1.1,0-1.6c0.1-1,0.2-2,0.5-3c0.1-0.5,0.8-0.3,0.7,0.2c-0.3,1.2-0.4,2.5-0.5,3.7c0,0,0,0,0,0
				c0,0.6,0,1.2,0,1.7c0.4-0.5,0.8-1,1.1-1.5c0.2-0.5,0.3-1.1,0.3-1.7c0-0.9,0-1.9,0.2-2.8c0.1-0.5,0.8-0.3,0.7,0.2
				c-0.1,0.6-0.1,1.2-0.1,1.8c0,0.2,0,0.5,0,0.7c0,0,0,0,0,0c0.1,0,0.1,0,0.1,0c0.5-0.7,1-1.5,1.4-2.2c0.3-0.4,0.6-0.9,0.8-1.3
				c0.3-0.4,0.9,0,0.7,0.4c-0.6,1-1.2,2-1.9,2.9c1-0.3,2-0.8,2.8-1.5c0.4-0.3,0.9,0.2,0.5,0.5c-1.1,1-2.5,1.6-3.9,1.8
				c-0.8,1.2-1.7,2.5-2.7,3.6c1.2-0.3,2.1-1.3,3.1-2.1c0.4-0.3,0.9,0.2,0.5,0.5c-1.2,1-2.3,2.2-4,2.4
				C233,128.9,232.9,128.8,232.9,128.8z"/>
			<path class="st28" d="M221.2,108.6l2.1-4.9l0.4-0.5l0,0c16.5-2.1,15.3-20,14.5-19.8c-18.8,4.7-16.5,17.4-15.9,19.6l-3.3,6
				L221.2,108.6z M223.3,101.8c0.3-0.1,0.5-0.3,0.8-0.4c0.9-0.5,1.7-1,2.4-1.6c0,0,0,0,0,0c-0.1-0.4-0.2-0.7-0.2-1.1
				c-0.1-0.6,0-1.3,0.1-1.9c0.1-0.5,0.9-0.3,0.7,0.2c-0.1,0.3-0.1,0.5-0.1,0.7c0,0.5,0,1,0.2,1.5c0.5-0.4,0.9-0.9,1.4-1.3
				c-0.2-0.5-0.4-1-0.5-1.5c-0.1-0.4-0.1-0.8-0.1-1.3c0-0.5,0.8-0.5,0.8,0c0,0.1,0,0.3,0,0.4c0,0.6,0.1,1.2,0.3,1.8
				c0.3-0.3,0.5-0.7,0.8-1c-0.2-0.5-0.3-1.1-0.4-1.7c-0.1-0.9-0.1-1.8,0.1-2.6c0.1-0.5,0.9-0.3,0.7,0.2c-0.1,0.5-0.2,1-0.2,1.5
				c0,0.6,0.1,1.2,0.3,1.8c0.3-0.4,0.5-0.8,0.8-1.2c0,0,0,0,0-0.1c0-0.5-0.1-1.1-0.2-1.6c-0.1-0.4-0.1-0.7-0.2-1.1
				c-0.1-1-0.1-1.9,0-2.9c0-0.5,0.8-0.5,0.8,0c-0.1,1-0.1,1.9,0,2.9c0,0.1,0,0.2,0,0.3c0.1,0.5,0.2,0.9,0.2,1.4
				c0.2-0.4,0.5-0.8,0.7-1.2c0.1-0.5,0.1-0.9,0.1-1.4c-0.1-0.8-0.2-1.6-0.2-2.4c0-0.5,0.8-0.5,0.8,0c0,0.5,0,1,0.1,1.6
				c0,0.2,0,0.4,0.1,0.6c0,0,0,0,0,0c0.3-0.6,0.6-1.2,0.9-1.8c0.2-0.5,0.5-1,0.7-1.5c0.2-0.4,0.9-0.1,0.7,0.4
				c-0.4,0.8-0.8,1.7-1.2,2.5c0.8-0.4,1.5-0.9,2.1-1.5c0.3-0.4,0.9,0.2,0.5,0.5c-0.8,0.9-1.9,1.6-3.1,2c-0.2,0.4-0.4,0.8-0.7,1.3
				c0,0,0,0,0,0c0,0.1-0.1,0.1-0.1,0.2c-0.3,0.6-0.7,1.2-1,1.8c0.9-0.4,1.5-1.3,2.2-2.1c0.3-0.4,0.9,0.2,0.5,0.5
				c-0.9,1-1.7,2.1-3.1,2.5c-0.1,0-0.2,0-0.2,0c-0.6,0.9-1.3,1.8-2,2.7c0.6-0.1,1.1-0.4,1.6-0.8c0.4-0.3,0.8,0.4,0.4,0.7
				c-0.8,0.5-1.7,1-2.8,1c-1.5,1.5-3.2,2.9-5.2,3.8C223.2,102.6,222.8,102,223.3,101.8z"/>
			<path class="st28" d="M199.3,189.5L199.3,189.5c5.8-18.5-13.8-25.8-14-24.9c-4.1,22.2,10.4,25.8,13.1,26.3l4.8,6.3l0.6-2.4
				l-4.1-4.6L199.3,189.5z M197.7,189.2c0-1.5-0.2-2.9-0.6-4.3c-1.2-0.1-2.3-0.6-3.3-1.3c-0.4-0.3,0.2-0.8,0.5-0.5
				c0.7,0.6,1.6,0.9,2.5,1.1c-0.2-0.8-0.5-1.5-0.8-2.2c-1.1,0-2.2-0.3-3.2-0.8c-0.4-0.2,0-0.9,0.4-0.7c0.8,0.4,1.6,0.7,2.5,0.7
				c-0.2-0.5-0.5-1-0.7-1.4c-1.7-0.1-3.3-0.7-4.7-1.8c-0.4-0.3,0.2-0.8,0.5-0.5c1.1,0.9,2.3,1.4,3.7,1.5c-0.3-0.5-0.6-1-1-1.6
				c0,0-0.1,0-0.1,0c-1-0.5-2.3-0.7-3.4-1.1c-0.9-0.4-1.8-0.8-2.7-1.3c-0.4-0.2,0-0.9,0.4-0.7c1,0.6,2.1,1.1,3.3,1.5
				c0.6,0.2,1.2,0.3,1.8,0.5c-0.4-0.5-0.7-1-1.1-1.5c-1.2-0.9-2.8-1-4.1-1.7c-0.4-0.2,0-0.9,0.4-0.7c0.8,0.4,1.6,0.6,2.4,0.9
				c0,0,0,0,0,0c0-0.1,0-0.1,0-0.2c-0.9-1.1-1.8-2.1-2.7-3.2c-0.3-0.4,0.2-0.9,0.5-0.5c0.8,0.9,1.5,1.8,2.3,2.7
				c0-1.1-0.2-2.1-0.6-3.1c-0.2-0.4,0.5-0.8,0.7-0.4c0.6,1.4,0.8,2.8,0.6,4.3c0.4,0.4,0.7,0.9,1,1.3c0,0,0,0,0.1,0
				c0.1,0.1,0.1,0.1,0.1,0.2c0.5,0.7,1,1.4,1.5,2.1c0.1-1.3-0.7-2.5-1.1-3.6c-0.2-0.5,0.6-0.7,0.7-0.2c0.6,1.5,1.4,2.8,1.1,4.4
				c0,0.1-0.1,0.2-0.1,0.2c0.7,1.2,1.4,2.4,2,3.6c0.2-0.8,0.1-1.6,0-2.4c-0.1-0.5,0.7-0.5,0.8,0c0.2,1.2,0.2,2.3-0.3,3.4
				c0.9,2.3,1.5,4.7,1.5,7.3C198.4,189.7,197.7,189.7,197.7,189.2z"/>
			<path class="st28" d="M202.6,73.9c-15.7-16.2-27.1-6.4-29-4.5l-7.9,0.2l1.6,1.9l6.1-0.7l0.8,0.1l0,0
				C186,86.4,203.3,74.6,202.6,73.9z M175.4,69.8c0.3,0.2,0.5,0.3,0.8,0.5c1,0.6,2.1,1.1,3.2,1.6c0,0,0,0,0,0c0.3-0.4,0.6-0.7,1-0.9
				c0.6-0.4,1.2-0.7,1.9-0.9c0.5-0.1,0.7,0.6,0.2,0.7c-0.3,0.1-0.6,0.2-0.9,0.4c-0.5,0.3-1,0.6-1.4,1.1c0.7,0.3,1.5,0.5,2.3,0.6
				c0.4-0.5,0.8-1,1.3-1.4c0.4-0.3,0.8-0.6,1.2-0.8c0.4-0.2,0.8,0.4,0.4,0.7c-0.2,0.1-0.3,0.2-0.5,0.3c-0.6,0.4-1.2,0.8-1.6,1.4
				c0.5,0.1,1.1,0.2,1.6,0.2c0.4-0.5,0.9-1,1.5-1.4c0.8-0.6,1.7-1.1,2.6-1.3c0.5-0.1,0.7,0.6,0.2,0.7c-0.6,0.2-1.2,0.4-1.7,0.8
				c-0.1,0-0.1,0.1-0.2,0.1l-0.2,0.1c-0.5,0.3-0.9,0.7-1.2,1.1c0.6,0.1,1.2,0.1,1.8,0.1c0,0,0,0,0.1-0.1c0.6-0.3,1.1-0.7,1.6-1.2
				c0.3-0.3,0.6-0.5,0.9-0.7c0.9-0.7,1.9-1.2,3-1.7c0.4-0.2,0.8,0.5,0.4,0.7c-1,0.5-2,1-3,1.7c-0.1,0.1-0.2,0.1-0.3,0.2
				c-0.4,0.4-0.9,0.7-1.3,1.1c0.6,0,1.2,0,1.8,0c0.6-0.2,1-0.4,1.5-0.8c0.7-0.5,1.4-1.1,2.2-1.6c0.4-0.2,0.8,0.4,0.4,0.7
				c-0.6,0.3-1.1,0.7-1.6,1c-0.2,0.1-0.4,0.3-0.6,0.4c0,0,0.1,0.1,0.1,0.1c0.9-0.1,1.8-0.1,2.6-0.2c0.5,0,1.1-0.1,1.6-0.2
				c0.5,0,0.5,0.7,0,0.8c-1.1,0.1-2.3,0.2-3.4,0.3c0.9,0.6,1.8,1.1,2.9,1.3c0.5,0.1,0.3,0.8-0.2,0.7c-1.4-0.3-2.7-1-3.8-2
				c-0.6,0-1.1,0.1-1.7,0.1c0,0,0,0,0,0c-0.1,0-0.1,0-0.2,0c-0.9,0-1.7,0-2.6,0c1,0.8,2.4,0.9,3.6,1.1c0.5,0.1,0.3,0.8-0.2,0.7
				c-1.5-0.3-3.1-0.5-4.3-1.6c-0.1-0.1-0.1-0.2-0.1-0.3c-1.4-0.1-2.8-0.2-4.1-0.5c0.5,0.6,1.2,1,1.9,1.3c0.4,0.2,0,0.9-0.4,0.7
				c-1-0.5-2.1-1.1-2.6-2.2c0,0,0,0,0,0c-2.4-0.6-4.7-1.5-6.9-3C174.6,70.1,175,69.5,175.4,69.8z"/>
		</g>
		<g>
			<path class="st29" d="M255,196.7l-7.5,2.4l2.1,1.4l5.7-2.4l0.8-0.1l0,0c15.5,11.6,28.9-4.5,28.1-5
				C264.6,181.8,256.4,194.4,255,196.7z M278.6,196.8c-1.5,0.1-2.9-0.2-4.2-0.8c-0.5,0.2-1,0.4-1.6,0.5c0,0,0,0,0,0
				c-0.1,0-0.1,0.1-0.2,0c-0.8,0.3-1.6,0.5-2.5,0.7c1.2,0.5,2.5,0.2,3.8,0.1c0.5,0,0.5,0.7,0,0.8c-1.6,0.1-3.1,0.4-4.6-0.4
				c-0.1-0.1-0.2-0.1-0.2-0.2c-1.3,0.3-2.7,0.5-4.1,0.7c0.6,0.4,1.4,0.6,2.2,0.8c0.5,0.1,0.3,0.8-0.2,0.7c-1.1-0.2-2.3-0.5-3.1-1.4
				c0,0,0,0,0,0c-2.4,0.1-4.9-0.1-7.4-1c-0.5-0.2-0.3-0.9,0.2-0.7c0.3,0.1,0.6,0.2,0.9,0.2c1.2,0.3,2.3,0.5,3.5,0.6c0,0,0,0,0,0
				c0.2-0.4,0.4-0.8,0.7-1.2c0.4-0.6,1-1,1.6-1.4c0.4-0.3,0.8,0.4,0.4,0.7c-0.3,0.2-0.5,0.4-0.8,0.6c-0.4,0.4-0.8,0.9-1.1,1.4
				c0.8,0,1.6,0,2.4,0c0.2-0.6,0.5-1.2,0.9-1.7c0.3-0.4,0.6-0.8,0.9-1.1c0.4-0.3,0.9,0.2,0.5,0.5c-0.1,0.1-0.3,0.3-0.4,0.4
				c-0.5,0.5-0.9,1.1-1.2,1.8c0.5,0,1.1-0.1,1.6-0.2c0.3-0.6,0.6-1.2,1-1.8c0.6-0.8,1.3-1.5,2.2-2c0.4-0.3,0.8,0.4,0.4,0.7
				c-0.5,0.3-1,0.8-1.5,1.2c-0.1,0.1-0.1,0.1-0.2,0.2l-0.2,0.2c-0.3,0.4-0.6,0.9-0.9,1.4c0.6-0.1,1.2-0.2,1.8-0.4c0,0,0-0.1,0.1-0.1
				c0.5-0.4,0.9-1,1.2-1.6c0.2-0.4,0.5-0.7,0.7-1c0.7-0.9,1.5-1.7,2.3-2.4c0.4-0.3,0.9,0.2,0.5,0.5c-0.8,0.7-1.6,1.5-2.3,2.4
				c-0.1,0.1-0.2,0.2-0.3,0.4c-0.3,0.5-0.6,1-1,1.4c0.6-0.2,1.2-0.3,1.8-0.5c0.5-0.3,0.9-0.7,1.2-1.2c0.6-0.7,1-1.5,1.7-2.1
				c0.4-0.3,0.9,0.2,0.5,0.5c-0.5,0.4-0.8,0.9-1.2,1.4c-0.1,0.2-0.3,0.4-0.4,0.6c0,0,0.1,0,0.1,0.1c0.8-0.3,1.6-0.6,2.5-0.9
				c0.5-0.2,1-0.4,1.5-0.6c0.5-0.2,0.7,0.6,0.2,0.7c-1.1,0.4-2.1,0.8-3.2,1.2c1,0.4,2.1,0.5,3.2,0.5
				C279.1,196,279.1,196.7,278.6,196.8z"/>
			<path class="st29" d="M297.6,185.5l-4.7-3.8l0,1.9l3.9,2.6l0.4,0.5l0,0c-0.8,14.8,15.2,16.5,15.1,15.8
				C311.1,185.2,299.6,185.3,297.6,185.5z M309.1,199.6c-0.7-0.5-1.3-0.9-2-1.4c0.2,0.7,0.5,1.3,0.9,1.9c0.3,0.4-0.2,0.9-0.5,0.5
				c-0.7-0.9-1.1-1.9-1.3-3.1c-0.3-0.3-0.7-0.5-1-0.8c0,0,0,0,0,0c-0.1,0-0.1-0.1-0.1-0.1c-0.4-0.3-0.8-0.7-1.2-1
				c0.3,0.8,0.9,1.5,1.4,2.1c0.3,0.4-0.4,0.8-0.7,0.4c-0.7-1-1.6-1.8-1.7-3.1c0-0.1,0-0.1,0-0.2c-0.7-0.6-1.3-1.3-1.9-2
				c0.1,0.5,0.2,1,0.4,1.4c0.2,0.5-0.6,0.7-0.7,0.2c-0.3-0.8-0.6-1.7-0.4-2.5c-1.1-1.5-2-3.2-2.5-5.2c-0.1-0.5,0.6-0.7,0.7-0.2
				c0.1,0.3,0.2,0.5,0.3,0.8c0.3,0.8,0.6,1.5,1,2.2c0.3,0,0.7-0.1,1,0c0.6,0,1.1,0.2,1.7,0.4c0.4,0.2,0.1,0.9-0.4,0.7
				c-0.2-0.1-0.4-0.1-0.5-0.2c-0.4-0.1-0.9-0.2-1.3-0.1c0.3,0.5,0.6,0.9,0.9,1.3c0.4-0.1,0.9-0.2,1.3-0.2c0.4,0,0.8,0.1,1.2,0.2
				c0.5,0.1,0.3,0.9-0.2,0.7c-0.1,0-0.2,0-0.3,0c-0.5-0.1-1.1-0.1-1.6,0c0.2,0.3,0.4,0.5,0.7,0.8c0.5-0.1,1-0.1,1.5-0.1
				c0.8,0,1.6,0.2,2.4,0.5c0.4,0.2,0.1,0.9-0.4,0.7c-0.4-0.2-0.8-0.3-1.2-0.4c-0.5-0.1-1-0.1-1.6-0.1c0.3,0.3,0.6,0.5,0.9,0.8
				c0,0,0.1,0,0.1,0c0.4,0.1,0.9,0.1,1.4,0.1c0.4,0,0.9,0,1.3,0c0.8,0.1,1.5,0.2,2.3,0.4c0.5,0.1,0.3,0.9-0.2,0.7
				c-0.9-0.2-1.8-0.4-2.7-0.5c0,0-0.1,0-0.1,0c-0.4,0-0.7,0-1.1,0c0.3,0.2,0.6,0.5,0.9,0.7c0.4,0.2,0.8,0.2,1.2,0.3
				c0.7,0.1,1.5,0,2.2,0.2c0.5,0.1,0.3,0.9-0.2,0.7c-0.4-0.1-0.9-0.1-1.3-0.2c-0.2,0-0.3,0-0.5,0c0.4,0.3,0.8,0.6,1.3,0.9
				c0.4,0.3,0.8,0.6,1.3,0.9C309.9,199.2,309.5,199.9,309.1,199.6z"/>
		</g>
		<g>
			<path class="st30" d="M273.5,174.5L267,179l2.4,0.7l4.8-3.9l0.7-0.3l0,0c18.3,6.5,26.3-12.8,25.4-13
				C278.3,157.5,274.1,171.9,273.5,174.5z M296.1,167.6c-1.4,0.5-2.8,0.7-4.2,0.4c-0.4,0.3-0.9,0.7-1.3,1c0,0,0,0,0,0.1
				c-0.1,0.1-0.1,0.1-0.2,0.1c-0.7,0.5-1.4,1-2.1,1.4c1.3,0.1,2.5-0.6,3.7-1c0.5-0.2,0.7,0.6,0.2,0.7c-1.5,0.5-2.9,1.3-4.5,0.9
				c-0.1,0-0.2-0.1-0.2-0.2c-1.2,0.7-2.4,1.3-3.7,1.8c0.8,0.2,1.6,0.2,2.4,0.1c0.5,0,0.5,0.7,0,0.8c-1.2,0.1-2.3,0.2-3.4-0.5
				c-2.3,0.8-4.7,1.3-7.4,1.3c-0.5,0-0.5-0.8,0-0.8c0.3,0,0.6,0,0.9,0c1.2,0,2.4-0.2,3.5-0.4c0.1-0.5,0.2-0.9,0.4-1.4
				c0.2-0.7,0.6-1.3,1.1-1.8c0.3-0.4,0.9,0.2,0.5,0.5c-0.2,0.2-0.4,0.5-0.6,0.8c-0.3,0.5-0.5,1.1-0.6,1.7c0.8-0.2,1.5-0.4,2.3-0.7
				c0-0.6,0.1-1.3,0.3-1.9c0.2-0.5,0.3-0.9,0.6-1.3c0.3-0.4,0.9,0,0.7,0.4c-0.1,0.2-0.2,0.3-0.2,0.5c-0.3,0.6-0.5,1.3-0.6,2
				c0.5-0.2,1-0.4,1.5-0.7c0.1-0.7,0.2-1.4,0.5-2c0.3-0.9,0.8-1.8,1.5-2.6c0.3-0.4,0.9,0.2,0.5,0.5c-0.4,0.5-0.8,1-1,1.6
				c0,0.1-0.1,0.2-0.1,0.3l-0.1,0.2c-0.2,0.5-0.3,1.1-0.4,1.6c0.5-0.3,1.1-0.6,1.6-0.9c0,0,0-0.1,0-0.1c0.3-0.5,0.5-1.2,0.7-1.8
				c0.1-0.5,0.3-0.9,0.4-1.4c0.4-1,0.9-1.9,1.5-2.8c0.3-0.4,0.9,0,0.7,0.4c-0.7,1.1-1.2,2.2-1.7,3.4c0,0,0,0,0,0
				c-0.2,0.5-0.3,1.1-0.5,1.6c0.5-0.3,1-0.7,1.5-1c0.4-0.4,0.6-0.9,0.8-1.5c0.3-0.8,0.6-1.7,1-2.5c0.2-0.4,0.9,0,0.7,0.4
				c-0.3,0.5-0.5,1.1-0.7,1.7c-0.1,0.2-0.2,0.4-0.2,0.7c0.1,0,0.1,0,0.2,0c0.7-0.5,1.4-1.1,2.1-1.6c0.4-0.3,0.8-0.6,1.2-0.9
				c0.4-0.3,0.9,0.2,0.5,0.5c-0.9,0.7-1.8,1.5-2.8,2.2c1.1,0.1,2.1-0.1,3.2-0.5C296.3,166.7,296.5,167.5,296.1,167.6z"/>
			<path class="st30" d="M267.5,122.7c19.2-2.4,17.8-23.3,16.9-23c-21.9,5.4-19.2,20.2-18.5,22.8l-3.8,6.9l2.4-0.4l2.5-5.6
				L267.5,122.7L267.5,122.7z M267,121.1c0.3-0.1,0.5-0.3,0.8-0.4c1.1-0.6,2.1-1.2,3-1.9c0,0,0,0,0,0c-0.2-0.4-0.2-0.9-0.3-1.4
				c-0.1-0.7,0-1.4,0.1-2.1c0.1-0.5,0.9-0.3,0.7,0.2c-0.1,0.3-0.1,0.6-0.1,1c0,0.6,0,1.2,0.2,1.8c0.6-0.5,1.2-1.1,1.7-1.6
				c-0.3-0.6-0.5-1.2-0.5-1.8c-0.1-0.5-0.1-0.9-0.1-1.4c0-0.5,0.8-0.5,0.8,0c0,0.2,0,0.4,0,0.5c0,0.7,0.1,1.4,0.4,2.1
				c0.4-0.4,0.7-0.8,1-1.3c0,0,0,0,0,0c-0.3-0.7-0.4-1.3-0.5-2c-0.1-1-0.1-2,0.2-3c0.1-0.5,0.9-0.3,0.7,0.2
				c-0.2,0.6-0.2,1.3-0.2,1.9c0,0.1,0,0.3,0,0.4l0,0c0,0.6,0.2,1.1,0.4,1.7c0.4-0.5,0.7-1,1-1.5c0,0,0-0.1,0-0.1
				c0-0.6-0.1-1.3-0.2-2c-0.1-0.4-0.1-0.8-0.2-1.2c-0.1-1.1-0.1-2.3,0-3.4c0-0.5,0.8-0.5,0.8,0c-0.1,1.1-0.1,2.3,0,3.4
				c0,0.1,0,0.3,0.1,0.4c0.1,0.6,0.2,1.2,0.3,1.7c0.3-0.5,0.6-1.1,0.9-1.6c0.1-0.6,0.1-1.1,0.1-1.7c-0.1-0.9-0.3-1.8-0.2-2.7
				c0-0.5,0.8-0.5,0.8,0c0,0.6,0,1.3,0.1,1.9c0,0.2,0.1,0.5,0.1,0.7c0.1,0,0.1,0,0.2,0c0.4-0.8,0.8-1.6,1.1-2.4
				c0.2-0.5,0.5-1,0.7-1.4c0.2-0.4,0.9-0.1,0.7,0.4c-0.5,1-1,2.1-1.5,3.1c1-0.4,1.9-1,2.6-1.9c0.3-0.4,0.9,0.2,0.5,0.5
				c-1,1.1-2.2,1.9-3.6,2.3c-0.3,0.5-0.5,1-0.8,1.5c0,0,0,0,0,0c0,0.1-0.1,0.1-0.1,0.2c-0.4,0.8-0.8,1.5-1.3,2.2
				c1.2-0.5,1.9-1.6,2.8-2.5c0.3-0.4,0.9,0.2,0.5,0.5c-1.1,1.1-2,2.5-3.6,2.9c-0.1,0-0.2,0-0.3,0c-0.8,1.2-1.6,2.3-2.5,3.3
				c0.7-0.1,1.4-0.5,2.1-1c0.4-0.3,0.8,0.4,0.4,0.7c-1,0.6-2,1.2-3.2,1.1c-1.7,1.8-3.7,3.3-6.1,4.4C266.9,122,266.5,121.3,267,121.1
				z"/>
			<path class="st30" d="M280.8,147.2l-5.7,3.7l2,0.7l4.2-3.3l0.6-0.3l0,0c15.6,6,22.9-10.5,22.1-10.7
				C285.3,132.7,281.3,145,280.8,147.2z M300.4,141.8c-1.2,0.4-2.4,0.5-3.7,0.3c-0.4,0.3-0.8,0.5-1.2,0.8c0,0,0,0,0,0
				c-0.1,0.1-0.1,0.1-0.2,0.1c-0.6,0.4-1.1,0.7-1.7,1.1c1,0,2-0.5,3-0.8c0.5-0.2,0.7,0.6,0.2,0.7c-1.3,0.4-2.5,1.1-3.9,0.7
				c-0.1,0-0.2-0.1-0.2-0.1c-1,0.5-2,1-3,1.4c0.6,0.2,1.2,0.1,1.8,0.1c0.5,0,0.5,0.7,0,0.8c-1,0.1-2,0.1-2.9-0.5
				c-2,0.7-4.1,1-6.4,0.9c-0.5,0-0.5-0.8,0-0.8c0.3,0,0.6,0,0.9,0c1,0,1.9-0.1,2.8-0.3c0.1-0.4,0.2-0.7,0.3-1.1
				c0.2-0.6,0.6-1.1,1-1.6c0.3-0.4,0.9,0.2,0.5,0.5c-0.2,0.2-0.3,0.4-0.5,0.6c-0.3,0.4-0.5,0.9-0.6,1.4c0.6-0.1,1.2-0.3,1.8-0.5
				c0-0.5,0.1-1,0.3-1.5c0.1-0.4,0.3-0.8,0.6-1.2c0.3-0.4,0.9,0,0.7,0.4c-0.1,0.1-0.1,0.2-0.2,0.3c-0.3,0.5-0.5,1.1-0.6,1.7
				c0.4-0.2,0.8-0.3,1.2-0.5c0.1-0.6,0.2-1.1,0.4-1.6c0.3-0.8,0.7-1.6,1.4-2.3c0.3-0.4,0.9,0.2,0.5,0.5c-0.4,0.4-0.6,0.8-0.9,1.3
				c-0.3,0.5-0.5,1.1-0.6,1.7c0.4-0.2,0.8-0.4,1.3-0.7c0,0,0,0,0-0.1c0.3-0.4,0.5-1,0.6-1.5c0.1-0.4,0.2-0.7,0.4-1.1
				c0.4-0.9,0.8-1.7,1.4-2.5c0.3-0.4,0.9,0,0.7,0.4c-0.6,0.9-1.1,1.8-1.5,2.8c0,0,0,0,0,0.1c-0.2,0.4-0.3,0.8-0.4,1.3
				c0.4-0.2,0.8-0.5,1.2-0.8c0.3-0.4,0.5-0.8,0.7-1.2c0.3-0.7,0.5-1.5,0.9-2.2c0.3-0.4,0.9,0,0.7,0.4c-0.3,0.4-0.5,0.9-0.7,1.4
				c-0.1,0.2-0.1,0.4-0.2,0.6c0,0,0,0,0,0c0.5-0.4,1.1-0.8,1.6-1.2c0.4-0.3,0.9-0.6,1.3-1c0.4-0.3,0.8,0.4,0.4,0.7
				c-0.7,0.6-1.5,1.1-2.2,1.7c0.9,0.1,1.7-0.1,2.6-0.4C300.6,140.9,300.8,141.7,300.4,141.8z"/>
			<path class="st30" d="M148.4,177.9l-0.6-0.3l0,0c-6.5-15.3-23.5-9.2-23-8.5c9.6,16.8,21.2,11.1,23.2,9.9l6.6,1.5l-0.9-1.9
				L148.4,177.9z M146.6,178.4c-0.9-1-1.8-1.8-2.8-2.5c-0.8,0.6-1.8,0.9-2.8,0.9c-0.5,0-0.5-0.8,0-0.8c0.8,0,1.5-0.2,2.1-0.6
				c-0.5-0.3-1.1-0.7-1.6-0.9c-0.7,0.6-1.6,1.1-2.5,1.3c-0.5,0.1-0.7-0.6-0.2-0.7c0.7-0.1,1.4-0.4,2-0.9c-0.4-0.2-0.8-0.3-1.2-0.5
				c-1.2,0.9-2.5,1.4-4,1.4c-0.5,0-0.5-0.8,0-0.8c1.1,0,2.2-0.4,3.2-1c-0.4-0.2-0.9-0.3-1.4-0.4c0,0,0,0-0.1,0
				c-0.9,0.2-1.7,0.8-2.6,1.1c-0.9,0.3-1.8,0.6-2.8,0.8c-0.5,0.1-0.7-0.6-0.2-0.7c0.9-0.2,1.9-0.4,2.8-0.8c0.5-0.2,1-0.5,1.6-0.7
				c-0.5-0.1-0.9-0.2-1.4-0.3c-1.3,0-2.4,0.9-3.6,1.1c-0.5,0.1-0.7-0.6-0.2-0.7c0.7-0.2,1.4-0.5,2-0.7c0,0,0,0,0,0
				c-1.2-0.2-2.4-0.4-3.6-0.6c-0.5-0.1-0.3-0.8,0.2-0.7c0.9,0.1,1.8,0.3,2.7,0.4c-0.6-0.7-1.2-1.2-2-1.6c-0.4-0.2-0.1-0.9,0.4-0.7
				c1.1,0.5,2.1,1.4,2.8,2.4c0.5,0.1,0.9,0.2,1.4,0.3c0,0,0,0,0,0c0.1,0,0.1,0,0.2,0.1c0.7,0.1,1.3,0.3,2,0.5
				c-0.7-0.8-1.7-1.1-2.6-1.6c-0.4-0.2-0.1-0.9,0.4-0.7c1.2,0.6,2.5,1.1,3.2,2.3c0,0.1,0.1,0.2,0,0.2c1.1,0.3,2.1,0.7,3.1,1.2
				c-0.3-0.5-0.7-1-1.2-1.4c-0.4-0.3,0.2-0.9,0.5-0.5c0.7,0.7,1.5,1.4,1.7,2.4c1.9,1,3.6,2.2,5.1,3.9
				C147.4,178.3,146.9,178.8,146.6,178.4z"/>
			<path class="st30" d="M117.1,112.8l2.1-1.3l0.3-6.2l0.2-0.8l0,0c17-9.3,8-28.2,7.3-27.6c-18.4,13.1-10.4,25.8-8.9,28L117.1,112.8
				z M118.7,103.2c1-1.1,1.9-2.3,2.6-3.5c-0.8-0.9-1.3-2-1.4-3.2c-0.1-0.5,0.7-0.5,0.8,0c0.1,0.9,0.5,1.8,1.1,2.5
				c0.4-0.7,0.7-1.4,1-2.1c-0.8-0.8-1.4-1.7-1.8-2.8c-0.1-0.5,0.6-0.7,0.7-0.2c0.3,0.9,0.7,1.6,1.3,2.3c0.2-0.5,0.3-1,0.5-1.5
				c-1.2-1.3-1.9-2.8-2.1-4.5c-0.1-0.5,0.7-0.5,0.8,0c0.2,1.4,0.7,2.6,1.6,3.6c0.1-0.6,0.3-1.2,0.4-1.8c0,0,0-0.1-0.1-0.1
				c-0.4-1.1-1.2-2.1-1.7-3.2c-0.4-0.9-0.8-1.8-1-2.8c-0.1-0.5,0.6-0.7,0.7-0.2c0.3,1.2,0.8,2.3,1.3,3.3c0.3,0.6,0.7,1.1,1,1.6
				c0.1-0.6,0.2-1.2,0.3-1.9c-0.2-1.5-1.3-2.7-1.7-4.1c-0.2-0.5,0.6-0.7,0.7-0.2c0.3,0.8,0.7,1.6,1.1,2.3c0,0,0,0,0,0
				c0,0,0.1-0.1,0.1-0.1c0.1-1.4,0.2-2.8,0.3-4.2c0-0.5,0.8-0.5,0.8,0c-0.1,1.2-0.1,2.3-0.2,3.5c0.8-0.7,1.3-1.6,1.7-2.6
				c0.2-0.5,0.9-0.3,0.7,0.2c-0.5,1.4-1.4,2.6-2.5,3.5c-0.1,0.6-0.1,1.1-0.2,1.7c0,0,0,0,0,0.1c0,0.1,0,0.2,0,0.2
				c-0.1,0.8-0.2,1.7-0.4,2.5c0.9-0.9,1.2-2.2,1.7-3.3c0.2-0.5,0.9-0.3,0.7,0.2c-0.6,1.5-1,3.1-2.3,4c-0.1,0.1-0.2,0.1-0.3,0.1
				c-0.3,1.4-0.6,2.7-1.1,4c0.6-0.4,1.1-1,1.6-1.6c0.3-0.4,1,0,0.7,0.4c-0.7,0.9-1.5,1.9-2.6,2.3c-0.9,2.3-2.2,4.4-4,6.4
				C118.9,104.1,118.4,103.5,118.7,103.2z"/>
			<path class="st30" d="M271.3,75.3c-15.7-16.2-27.1-6.4-29-4.5l-7.9,0.2l1.6,1.9l6.1-0.7l0.8,0.1l0,0
				C254.7,87.8,272,76,271.3,75.3z M265.7,75c-1.1,0.1-2.3,0.2-3.4,0.3c0.9,0.6,1.8,1.1,2.9,1.3c0.5,0.1,0.3,0.8-0.2,0.7
				c-1.4-0.3-2.7-1-3.8-2c-0.6,0-1.1,0.1-1.7,0.1c0,0,0,0,0,0c-0.1,0-0.1,0-0.2,0c-0.9,0-1.7,0-2.6,0c1,0.8,2.4,0.9,3.6,1.1
				c0.5,0.1,0.3,0.8-0.2,0.7c-1.5-0.3-3.1-0.5-4.3-1.6c-0.1-0.1-0.1-0.2-0.1-0.3c-1.4-0.1-2.8-0.2-4.1-0.5c0.5,0.6,1.2,1,1.9,1.3
				c0.4,0.2,0,0.9-0.4,0.7c-1-0.5-2.1-1.1-2.6-2.2c0,0,0,0,0,0c-2.4-0.6-4.7-1.5-6.9-3c-0.4-0.3,0-0.9,0.4-0.7
				c0.3,0.2,0.5,0.3,0.8,0.5c1,0.6,2.1,1.1,3.2,1.6c0,0,0,0,0,0c0.3-0.4,0.6-0.7,1-0.9c0.6-0.4,1.2-0.7,1.9-0.9
				c0.5-0.1,0.7,0.6,0.2,0.7c-0.3,0.1-0.6,0.2-0.9,0.4c-0.5,0.3-1,0.6-1.4,1.1c0.7,0.3,1.5,0.5,2.3,0.6c0.4-0.5,0.8-1,1.3-1.4
				c0.4-0.3,0.8-0.6,1.2-0.8c0.4-0.2,0.8,0.4,0.4,0.7c-0.2,0.1-0.3,0.2-0.5,0.3c-0.6,0.4-1.2,0.8-1.6,1.4c0.5,0.1,1.1,0.2,1.6,0.2
				c0.4-0.5,0.9-1,1.5-1.4c0.8-0.6,1.7-1.1,2.6-1.3c0.5-0.1,0.7,0.6,0.2,0.7c-0.6,0.2-1.2,0.4-1.7,0.8c-0.1,0-0.1,0.1-0.2,0.1
				l-0.2,0.1c-0.5,0.3-0.9,0.7-1.2,1.1c0.6,0.1,1.2,0.1,1.8,0.1c0,0,0,0,0.1-0.1c0.6-0.3,1.1-0.7,1.6-1.2c0.3-0.3,0.6-0.5,0.9-0.7
				c0.9-0.7,1.9-1.2,3-1.7c0.4-0.2,0.8,0.5,0.4,0.7c-1,0.5-2,1-3,1.7c-0.1,0.1-0.2,0.1-0.3,0.2c-0.4,0.4-0.9,0.7-1.3,1.1
				c0.6,0,1.2,0,1.8,0c0.6-0.2,1-0.4,1.5-0.8c0.7-0.5,1.4-1.1,2.2-1.6c0.4-0.2,0.8,0.4,0.4,0.7c-0.6,0.3-1.1,0.7-1.6,1
				c-0.2,0.1-0.4,0.3-0.6,0.4c0,0,0.1,0.1,0.1,0.1c0.9-0.1,1.8-0.1,2.6-0.2c0.5,0,1.1-0.1,1.6-0.2C266.2,74.2,266.2,75,265.7,75z"/>
			<path class="st30" d="M285.4,89.2l-7.7-2l1,2.3l6.1,1.1l0.7,0.3l0,0c6.9,18.1,26.8,11.7,26.4,10.9
				C301.5,81.8,287.8,87.9,285.4,89.2z M306.6,99.9c-1.1-0.2-2.2-0.4-3.4-0.7c0.6,0.9,1.4,1.6,2.4,2.1c0.4,0.2,0,0.9-0.4,0.7
				c-1.3-0.7-2.4-1.7-3.1-3c-0.5-0.1-1.1-0.3-1.6-0.4c0,0,0,0,0,0c-0.1,0-0.1,0-0.2-0.1c-0.8-0.2-1.7-0.5-2.5-0.7
				c0.7,1,2,1.5,3.1,2.1c0.4,0.2,0,0.9-0.4,0.7c-1.4-0.8-2.9-1.3-3.6-2.8c-0.1-0.1-0.1-0.2,0-0.3c-1.3-0.5-2.6-1-3.8-1.6
				c0.3,0.7,0.9,1.3,1.4,1.8c0.4,0.3-0.2,0.9-0.5,0.5c-0.8-0.8-1.7-1.7-1.8-2.9c-2.1-1.2-4.1-2.8-5.7-4.8c-0.3-0.4,0.2-0.9,0.5-0.5
				c0.2,0.2,0.4,0.4,0.6,0.7c0.8,0.9,1.7,1.7,2.6,2.4c0,0,0,0,0,0c0.4-0.3,0.8-0.5,1.3-0.6c0.7-0.2,1.3-0.4,2.1-0.4
				c0.5,0,0.5,0.8,0,0.8c-0.3,0-0.7,0-1,0.1c-0.6,0.1-1.1,0.3-1.7,0.6c0.6,0.5,1.3,0.9,2,1.3c0.5-0.4,1.1-0.7,1.6-1
				c0.4-0.2,0.9-0.3,1.4-0.4c0.5-0.1,0.7,0.7,0.2,0.7c-0.2,0-0.4,0.1-0.5,0.1c-0.7,0.2-1.3,0.5-1.9,0.9c0.5,0.2,1,0.5,1.5,0.7
				c0,0,0,0,0,0c0.6-0.4,1.2-0.7,1.8-1c0.9-0.4,1.9-0.5,2.9-0.5c0.5,0,0.5,0.8,0,0.8c-0.7,0-1.3,0.1-1.9,0.2c-0.1,0-0.3,0-0.4,0.1
				l0,0c-0.5,0.2-1.1,0.4-1.6,0.7c0.6,0.2,1.1,0.4,1.7,0.6c0,0,0,0,0.1,0c0.6-0.1,1.3-0.4,1.9-0.7c0.4-0.2,0.8-0.3,1.2-0.5
				c1.1-0.4,2.1-0.6,3.2-0.8c0.5-0.1,0.7,0.7,0.2,0.7c-1.1,0.2-2.2,0.4-3.2,0.8c-0.1,0-0.3,0.1-0.4,0.2c-0.5,0.2-1.1,0.5-1.6,0.7
				c0.6,0.2,1.2,0.3,1.8,0.5c0.6,0,1.1-0.1,1.7-0.3c0.9-0.3,1.7-0.7,2.6-0.9c0.5-0.1,0.7,0.6,0.2,0.7c-0.6,0.1-1.2,0.3-1.8,0.6
				c-0.2,0.1-0.4,0.2-0.7,0.2c0,0,0.1,0.1,0.1,0.1c0.9,0.2,1.7,0.4,2.6,0.5c0.5,0.1,1,0.2,1.6,0.3C307.3,99.3,307.1,100,306.6,99.9z
				"/>
			<path class="st30" d="M128.8,189.6c-2.1-0.2-13.5-0.2-14.7,17c0,0.7,15.9-1,15.1-15.8l0,0l0.4-0.5l3.9-2.6l0-1.9L128.8,189.6z
				 M128.5,190.8c-0.5,2-1.4,3.6-2.5,5.2c0.2,0.9-0.1,1.7-0.4,2.5c-0.2,0.5-0.9,0.3-0.7-0.2c0.2-0.5,0.4-0.9,0.4-1.4
				c-0.6,0.7-1.2,1.4-1.9,2c0,0,0,0.1,0,0.2c-0.1,1.3-0.9,2.1-1.7,3.1c-0.3,0.4-1,0-0.7-0.4c0.5-0.7,1.2-1.3,1.4-2.1
				c-0.4,0.4-0.8,0.7-1.2,1c0,0-0.1,0.1-0.1,0.1c0,0,0,0,0,0c-0.3,0.3-0.7,0.5-1,0.8c-0.1,1.1-0.6,2.2-1.3,3.1
				c-0.3,0.4-0.8-0.2-0.5-0.5c0.4-0.6,0.7-1.2,0.9-1.9c-0.7,0.5-1.3,0.9-2,1.4c-0.4,0.3-0.8-0.4-0.4-0.7c0.8-0.6,1.7-1.2,2.5-1.8
				c-0.6,0-1.2,0.1-1.8,0.2c-0.5,0.1-0.7-0.6-0.2-0.7c1.1-0.3,2.3,0,3.3-0.5c0.3-0.2,0.6-0.5,0.9-0.7c-0.4,0-0.7,0-1.1,0
				c-1,0.1-1.9,0.2-2.8,0.5c-0.5,0.1-0.7-0.6-0.2-0.7c0.8-0.2,1.5-0.4,2.3-0.4c0.9-0.1,1.8,0,2.7-0.2c0,0,0.1,0,0.1,0
				c0.3-0.3,0.6-0.5,0.9-0.8c-1-0.1-1.9,0-2.8,0.4c-0.4,0.2-0.8-0.5-0.4-0.7c1.2-0.6,2.5-0.7,3.8-0.4c0.2-0.3,0.5-0.5,0.7-0.8
				c-0.6-0.1-1.2-0.1-1.8,0.1c-0.5,0.1-0.7-0.6-0.2-0.7c0.9-0.2,1.7-0.2,2.6,0c0.3-0.4,0.6-0.9,0.9-1.3c-0.6-0.1-1.3,0-1.9,0.3
				c-0.4,0.2-0.8-0.5-0.4-0.7c0.9-0.4,1.7-0.5,2.7-0.4c0.5-0.9,0.9-1.9,1.2-3C127.9,190.2,128.7,190.4,128.5,190.8z"/>
		</g>
	</g>
</g>
</svg>
