<?xml version="1.0" encoding="utf-8"?>
<!-- Generator: Adobe Illustrator 19.2.1, SVG Export Plug-In . SVG Version: 6.00 Build 0)  -->
<svg version="1.1" id="Calque_1" xmlns="http://www.w3.org/2000/svg" xmlns:xlink="http://www.w3.org/1999/xlink" x="0px" y="0px"
	 viewBox="0 0 432 432" style="enable-background:new 0 0 432 432;" xml:space="preserve">
<style type="text/css">
	.st0{fill:#534741;}
	.st1{fill:#8F7A25;}
	.st2{fill:#998675;}
	.st3{fill:#736357;}
	.st4{fill:#574A16;}
	.st5{fill:#803301;}
	.st6{fill:#B84A01;}
	.st7{fill:#D6B238;}
	.st8{fill:#CA9562;}
	.st9{fill:#913A01;}
	.st10{fill:#CCCCCC;}
	.st11{fill:#D14E1F;}
	.st12{fill:#E0861B;}
	.st13{fill:#301C0F;}
	.st14{fill:#687A00;}
</style>
<path class="st7" d="M362.7,129c-0.4-1.7-0.8-3.5-1.5-5.1c-1.1-2.6-2.9-4.7-5.2-6.2c-4.8-3.2-11.8-2.8-16.1,0.9
	c-0.7,0.6-1.4,0.9-2.2,1c-3.1,0.4-6,1.4-8.7,2.8c-0.3,0.1-0.5,0.4-0.8,0.2c0-0.1-0.1-0.1-0.1-0.2c0.1-0.3,0.2-0.6,0.3-0.9
	c1-3.3,1.5-6.6,1.1-10c-0.1-1,0-1.8,1.1-2.4c0.8-0.5,1.3-1.4,1.7-2.3c1.5-3.2,2-6.6,0.9-10c-0.6-2.2-1.8-4.1-3-6
	c-3.1-4.8-7.7-7.9-12.7-10.5c-1.5-0.8-2.3-0.1-2.3,1.5c0,1-0.1,2-0.1,3.1c0,3.1-0.4,6.1-0.1,9.2c0.3,3.5,1.2,6.9,3.4,9.8
	c1.8,2.5,4.3,4.1,7.1,5.4c0.9,0.4,1.4,0.9,1.4,1.9c0.2,2.9,0.1,5.8-0.6,8.6c-0.6,2.5-1.2,5-3.1,6.9c-7,7.6-10.4,16.6-10.5,26.8
	c-0.1,5.1,1,10,2.4,14.9c0.2,0.6,0.6,1.1,0.4,1.8c-0.7-0.2-1.1-0.7-1.5-1.1c-2.8-2.5-5.5-5.1-8-7.9c-4.9-5.6-8.7-11.8-10.8-19
	c-1.4-4.7-2-9.6-2.4-14.5c-0.4-4.8-0.8-9.5-1.6-14.3c-0.3-1.8-0.6-3.6-0.3-5.5c0.7-5.7,2.4-11.1,5.4-16c0.6-1,1.2-1.4,2.4-1.5
	c2.4-0.1,4.8-0.7,6.9-1.9c2.6-1.5,4.6-3.4,5.5-6.4c1-3.4,0.4-6.8-0.6-10.2c-0.4-1.3-1.2-1.6-2.3-0.9c-3.1,1.8-5.9,3.7-8.3,6.4
	c-2.6,2.9-4.2,6.3-4.3,10.2c0,1.2-0.3,2.1-0.9,3c-2.5,4.2-4.4,8.6-5.1,13.5c-0.1,0.4-0.1,0.9-0.5,1.2c-1-1.4-1.2-2.7-0.4-4.4
	c2.1-4.4,0.7-9.5-3.1-12.3c-4-3-8.5-3.9-13.4-3.8c-1.2,0-1.6,0.6-1.6,1.7c0.2,2.9,0.5,5.7,1.4,8.5c0.8,2.3,1.8,4.4,3.8,5.8
	c2.7,1.9,5.6,3.4,9,3.4c0.8,0,1.1,0.3,1.4,1c0.6,1.4,1.1,2.7,1.5,4.1c1.7,6.2,2.3,12.6,2.8,19c-1.9-1-3.9-1.7-6-1.9
	c-3.8-0.3-6.6,1.7-7.4,5.5c-0.5,2.3,0.3,4.4,1.5,6.3c0.3,0.5,0.7,0.8,0.8,1.5c0.1,3.7,1.8,6.9,3.9,9.8c0.2,0.3,0.6,0.6,0.6,1.2
	c-0.3-0.1-0.5-0.1-0.7-0.2c-2.9-1.5-5.8-3-8.7-4.5c-0.4-0.2-0.7-0.5-1-0.8c-3.3-3.5-5.7-7.5-7.5-11.9c-1.3-3.3-2.6-6.5-3.9-9.8
	c-2.5-6.3-5.3-12.5-9.2-18c-1.3-1.8-2.3-3.6-3.2-5.6c-1.5-3.4-2.1-6.8-1.4-10.4c0.3-1.7,0.3-1.7,2-1.8c4.4-0.3,8.5-1.6,12.1-4.3
	c2.5-1.9,4.4-4.2,5.6-7.2c0.6-1.6,0.5-2-0.8-2.9c-2.7-1.9-5.6-3.3-8.9-3.7c-4.7-0.5-9.9,1.2-12,7.1c-1.1,3.1-1.1,6.1,0.1,9.1
	c0.4,1.1,0.5,2.1,0.3,3.2c-0.5,2.8-0.5,5.6,0.3,8.3c0.1,0.4,0.3,0.8,0.1,1.2c-2.3-1.6-2.3-1.6-2.5-3.9c-0.5-5.8-3.9-9.7-9.6-11
	c-3.7-0.9-7.3-0.7-11,0.2c-1.5,0.4-3.1,0.9-4.5,1.7c-1.1,0.6-1.2,1.2-0.6,2.2c1.3,2,2.5,4.1,4.1,6c5.2,6,11.6,8.4,19.3,6.3
	c1.9-0.5,3-0.2,4.1,1.2c0.2,0.2,0.4,0.5,0.7,0.7c3.7,3.8,6.5,8.4,8.9,13.1c3.1,5.8,5.5,11.9,8.1,18c1.4,3.3,2.9,6.5,5,9.5
	c0.2,0.3,0.6,0.6,0.5,1.2c-2.8-1.2-5.4-2.3-8-3.4c-0.2-0.1-0.4-0.2-0.5-0.3c-2-2.1-4-4.3-5.3-7c-0.4-0.9-0.3-1.4,0.5-2.1
	c2-1.7,3.1-4,2.8-6.6c-0.3-3.6-2.4-6.1-5.5-7.8c-1-0.5-1.4-0.3-2,0.6c-2.9,4.5-2.1,10.7,1.9,14.3c0.2,0.2,0.4,0.3,0.5,0.5
	c0.8,2.3,2.1,4.3,3.5,6.6c-2.1-0.5-3.7-0.9-5-2.4c-0.8-1-1.7-1.9-2.5-2.9c-2.2-3-4.5-6-7.3-8.6c-0.6-0.6-0.7-1.1-0.4-1.9
	c0.5-1.3,0.3-2.5-0.1-3.7c-0.8-2.4-2.5-3.9-4.7-5c-5.2-2.6-10.6-2.2-16.1-0.7c-1,0.3-1.1,0.9-0.3,1.7c1.8,1.9,3.5,3.8,5.3,5.5
	c3.8,3.6,8.4,5.3,13.6,5.1c0.9,0,1.4,0.2,2,0.8c2.1,2.3,4.2,4.5,6,6.9c0.7,0.9,1.4,1.8,2.4,3.1c-2.8-0.9-5-1.7-7.3-2.4
	c-5.1-1.5-10.4-2.6-15.7-3.5c-1.1-0.2-1.8-0.6-2.1-1.8c-0.5-2.5-2.1-4.1-4.3-5.3c-1.6-0.8-3.2-1.2-5-1.3c-5.3-0.4-10,1.6-14.8,3.3
	c-0.9,0.3-1,1-0.1,1.8c2,1.7,3.9,3.4,6,5.1c1.7,1.4,3.7,2.6,5.9,3.1c4.4,1.1,8.2-0.3,11.6-2.9c0.7-0.5,1.2-1,2.2-0.8
	c5,1,10,2,14.9,3.5c0.7,0.2,1.5,0.2,2.3,1.1c-1.7-0.3-3.2-0.1-4.6,0c-4.5,0.4-8.8,1.6-12.5,4.3c-0.9,0.7-1.9,1.2-3,1.6
	c-8.7,2.9-9.2,11.3-4.7,16.1c2.4,2.5,5.4,4,8.7,5c1.4,0.4,2-0.2,1.5-1.6c-0.6-1.7-0.6-3.4-0.2-5.1c0.4-2.1,1-4.2,1.5-6.3
	c0.6-3,0-5.4-2.8-7.1c-0.2-0.1-0.3-0.2-0.6-0.4c2.4-1.9,4.8-3.1,7.4-3.8c5.9-1.5,11.8-1.4,17.6,0c1.3,0.3,2.6,0.7,4.1,1.6
	c-1.4,0.3-2.6,0.4-3.7,0.7c-5,1.2-9.1,3.7-12,7.9c-1,1.5-2.1,2.9-3.4,4.1c-1.6,1.4-2.2,3.2-2.2,5.3c0,3.8,1.9,6.4,4.9,8.3
	c2.3,1.5,4.9,2.4,7.7,2.7c1,0.1,2,0.3,3.1,0.1c1-0.1,1.4-0.6,1-1.4c-1-2.4-1.4-5-2.1-7.5c-1.1-3.7-3.4-6.2-6.7-7.9
	c-2.1-1.1-2.2-1.1-0.8-3.1c0.5-0.7,1-1.3,1.6-1.9c3.4-3.3,7.4-5.1,12.1-5.7c3-0.4,5.8,0,8.5,1.5c6,3.1,12,6.2,17.9,9.6
	c0.4,0.2,1,0.4,1.2,0.9c-0.6,0.4-1.2,0.3-1.8,0.4c-1.9,0.3-3.8,0.8-5.3,2.1c-2,1.8-4.2,2-6.6,1.4c-1.4-0.4-1.5-0.3-1.6-1.8
	c-0.3-3.4-2.7-6.2-6.1-7.1c-2.1-0.5-4.3-0.5-6.5-0.5c-0.8,0-1.7,0.1-2.5,0.2c-1,0.2-1.4,0.9-0.9,1.7c1.1,1.8,1.8,3.8,3.1,5.5
	c2.9,3.8,7.5,5.1,11.8,3.5c0.3-0.1,0.6-0.4,0.9-0.3c1.9,0.7,3.8,0.8,5.7,0.7c0.1,1.1,0.1,1.9-0.6,2.5c-0.5,0.4-0.7,1.1-0.8,1.7
	c-0.6,4.5,2.5,7.6,5.7,8.1c2.9,0.4,5.6-0.3,8.1-1.7c1.1-0.6,1.2-1.1,0.5-2.2c-0.6-1-1.3-2.1-2-3c-2.1-2.7-4.7-4.5-8.3-4.3
	c-0.2,0-0.3-0.1-0.6-0.2c0.3-1.4,1.1-2.4,2.2-3c3.8-2.1,7.9-2.4,11.7-0.3c3.9,2.1,7.5,4.6,11.2,7c0.4,0.3,0.9,0.4,1.1,1.1
	c-1.1,0-2,0-3,0c-3.7-0.1-6.9,1.1-9.7,3.3c-2.3,1.9-4.3,4-5.9,6.5c-0.9,1.3-1.7,2.5-2.7,3.7c-4.5,5.5-10.3,8.1-17.4,8
	c-0.8,0-1.4-0.1-1.5-1c-0.1-0.9-0.7-1.5-1.3-2c-2.7-2.6-6.1-3.9-9.8-4.2c-3.9-0.4-7.8,0-11.6,0.5c-1.5,0.2-2.9,0.4-4.4,0.6
	c-0.7,0.1-1.4,0.3-1.7,1c-0.2,0.8,0.2,1.3,0.7,1.9c0.1,0.1,0.2,0.2,0.3,0.3c3,2.6,5.9,5.3,9.3,7.4c3.2,2.1,6.7,3.1,10.5,2.8
	c3.1-0.2,5.9-1.2,7.4-4.3c0.2-0.5,0.5-0.7,1-0.7c2.1,0,4.3,0.1,6.4-0.4c0,0.7-0.4,1.1-0.6,1.4c-1.7,2.9-2.6,6.1-2.2,9.5
	c0.1,0.7-0.2,1.2-0.4,1.8c-0.7,1.9-1.4,3.9-1.4,5.9c0.1,6.2,2.4,11.4,7.5,15.1c1.5,1.1,3.1,2,4.8,2.8c1.6,0.8,2.2,0.5,2.7-1.3
	c0.6-2.7,0.8-5.4,0.3-8.2c-1-6.7-4.2-11.9-10.5-14.7c-0.6-0.3-1-0.6-1.1-1.4c-0.1-0.7-0.2-1.4-0.1-2.1c0.2-3.1,1.3-5.8,3-8.4
	c0.6-0.9,1.3-1.5,2.3-1.9c4.7-1.9,8.4-5,11.2-9.2c0.7-1.1,1.5-2.2,2.3-3.3c1.3-1.9,2.9-3.5,4.8-4.9c1.4-1.1,2.9-1.9,4.7-2.1
	c5.1-0.7,10.2-0.1,14.5,2.8c10.7,7.1,20.9,14.8,30.4,23.5c0.8,0.7,1.6,1.3,2.5,1.8c0.8,0.4,1.5-0.1,1.6-1c0.1-0.8-0.3-1.5-0.8-2.1
	c-0.6-0.7-1.3-1.2-1.9-1.8c-6.2-5.7-12.9-10.8-19.7-15.8c-1.1-0.8-1.9-1.8-2.6-3c-2-3.9-3.1-8.1-3.8-12.4c-1.9-11.1,0.6-21,7.9-29.7
	c3.6-4.2,8.2-6.8,13.6-7.9c3.2-0.6,3.3-0.6,5.1,2.2c4.6,7.3,12.5,8.1,19.4,6C362.5,130.5,362.9,130,362.7,129z M303.4,162.8
	c-4.3-2.7-8.5-5.3-12.7-8.1c-3.3-2.2-6.1-5.1-8-8.6c-0.8-1.3-1.3-2.8-1.6-4.3c-0.1-0.4-0.1-0.9,0.5-1c6.2-1.7,8.8-6.1,9-12.2
	c0,0,0-0.1,0-0.1c0.4,2.8,0.8,5.5,1.2,8.3c1.5,9.4,5.5,17.7,11.7,24.9c0.3,0.4,0.7,0.8,1,1.2c0.1,0.1,0.1,0.2,0.1,0.4
	C304.1,163.4,303.8,163,303.4,162.8z"/>
<g>
	<path class="st8" d="M150.6,188.1c-4.6-7.4-7.9-15.4-9.9-23.9c-0.1-0.5-0.1-1-0.7-1.4c-0.2,0.7-0.4,1.4-0.6,2
		c-0.2,0.7-0.5,1.3-0.8,1.9c-1,1.7-2.5,1.9-4,0.7c-0.6-0.5-1.2-1.2-1.6-1.9c-0.9-1.4-1.4-2.8-1.9-4.4c-0.7-2.3-1-4.6-1.6-6.9
		c-0.2-0.7-0.2-1.5-0.7-2.1c-0.9,0.3-1.2,1-1.6,1.7c-0.5,0.8-0.8,1.6-1.3,2.3c-1.1,1.9-2.1,2-3.9,0.7c-1.2-0.9-2-2.2-2.4-3.6
		c-0.5-1.5-0.8-3.1-1.2-4.6c-0.3-1-0.4-2.1-1.1-3.2c-1,1.3-1.2,2.7-1.5,4c-1,4.1-1.3,8.3-1.9,12.5c-0.2,1.2-0.4,2.4-0.8,3.5
		c-0.3,0.9-0.8,1.8-1.9,2c-1.1,0.2-1.8-0.5-2.4-1.3c-0.3-0.4-0.4-0.9-1.1-1.3c-0.2,1-0.4,1.8-0.5,2.6c-1.7,8.5-3.8,16.9-4.6,25.6
		c-0.5,4.8-0.8,9.7,0.2,14.5c1.9,9.8,7.5,16.4,17,19.7c2.9,1,5.8,1.5,8.8,1.8c6.3,0.5,12.4-0.4,18.1-3.2c5.3-2.6,8.9-6.7,10.4-12.6
		c0.8-3.4,0.7-6.7,0-10.1C155.9,197.8,153.5,192.8,150.6,188.1z"/>
	<path class="st0" d="M109.6,164c0.3,0.6,0.5,1.7,1.4,1.6c0.8-0.1,0.8-1.2,1-1.9c0.6-2.6,0.8-5.2,1.1-7.8c0.5-3.6,1.1-7.2,2.4-10.6
		c0.4-1.1,0.9-2.3,2.3-2.2c1.3,0.1,1.8,1.2,2.1,2.2c0.5,1.6,0.9,3.3,1.3,5c0.3,1.4,0.6,2.7,1.3,4c0.4,0.7,0.7,1.7,1.6,1.7
		c0.7,0,0.9-1,1.2-1.6c0.7-1.2,1.3-2.5,2.3-3.5c1.3-1.2,2.7-1.1,3.8,0.3c0.6,0.8,1,1.8,1.3,2.8c0.5,2.2,1,4.3,1.6,6.5
		c0.4,1.7,0.8,3.4,1.6,4.9c0.2,0.4,0.4,0.9,0.9,0.9c0.5,0,0.7-0.5,0.9-0.9c1.2-3.2,2.1-6.5,1.5-9.9c-1-6-2.3-12-3.1-18.1
		c-0.1-0.9-0.4-1.2-1.3-1.3c-2.5-0.4-5-0.8-7.5-1.3c-6.6-1.3-13.2-2.8-20.1-4c-0.1,0.7,0,1.3,0.1,1.8c0.3,1.7,0.7,3.5,1,5.3
		c0.9,6.6,0.9,13.2,0.2,19.8C108.1,160.1,108.5,162,109.6,164z"/>
	<g>
		<path class="st9" d="M92.2,131.2c0.7-0.3,1.5-0.5,2.3-1c-0.3-0.4-0.7-0.3-1-0.3c-2.7,0.1-5.3,0.7-7.9,1.3c-9,2-15.8,7-21,14.6
			c-0.6,0.8-0.4,1.3,0.3,1.9c2.2,1.8,4.9,2.7,7.6,3.4c1,0.3,1.4-0.1,1.8-1.1c1-3,2.3-5.9,4.2-8.5C82,136.6,86.7,133.3,92.2,131.2z"
			/>
		<path class="st9" d="M97.4,132.2c0.1-0.1,0.3-0.2,0.2-0.4c-10.7,2.7-18.1,9-21.5,19.8c1.2,0.5,2.3,0.3,3.4,0.4
			c1.9,0.2,3.8,0.2,5.7,0.1c1.4,0,1.7-0.1,1.8-1.5c0.1-1.2,0.4-2.4,0.7-3.6C89.4,140.9,92.2,135.7,97.4,132.2z"/>
		<path class="st9" d="M102.2,132.8c0.1-0.2,0.2-0.4,0.3-0.7c-4.3,1.8-7.5,4.6-9.7,8.6c-1.6,3-2.6,6.3-3.3,9.7
			c-0.2,1.2-0.1,1.3,1,1.1c2.1-0.3,4.3-0.6,6.4-1c1.5-0.3,1.5-0.3,1.5-1.9C98.3,143.1,99.5,137.8,102.2,132.8z"/>
		<path class="st9" d="M71.1,135.7c3.3-2.6,7.1-4.4,11.4-6c-2-0.3-3.5,0.1-4.9,0.3c-3.9,0.6-7.6,1.5-11.1,3.3
			c-1.8,0.9-3.4,2.1-4.4,3.8c-1.5,2.6-1.3,5.4,0.7,7.7C65.1,141.4,67.8,138.3,71.1,135.7z"/>
		<path class="st9" d="M106.9,146.3c-0.2-2.3-0.2-4.7-0.5-7c-0.2-2.2-0.5-4.5-1.1-6.7c-0.1,0-0.2,0-0.3,0
			c-3.4,4.9-4.4,10.4-4.5,16.2c0,0.8,0.5,0.8,1.1,0.6c1.3-0.4,2.7-0.9,4-1.2C106.7,148,107,147.4,106.9,146.3z"/>
	</g>
	<g>
		<path class="st9" d="M152.8,139c0.1,0.4,0,0.4,0.1,0.5c0.2,0.2,0.4,0.3,0.6,0.5c4.6,3.2,8.4,7,10.8,12.1c0.2,0.4,0.4,0.8,0.9,0.9
			c3.8,0.8,7.6,1.2,11.6,0.5C170.1,146.4,162.3,141.5,152.8,139z"/>
		<path class="st9" d="M163.3,139.6c0.3,0.2,0.7,0.4,1,0.6c5.3,2.8,9.9,6.5,13.5,11.3c1.6,2.1,1.7,2.1,4.2,1.3c1-0.3,2.1-0.6,3-1.2
			c0.7-0.4,1.4-0.8,2-1.7c-7.3-5.1-15-9.1-24.1-10.9C163.3,139.5,163.3,139.5,163.3,139.6z"/>
		<path class="st9" d="M142.6,138.7c2.4,1.9,4.1,4.1,5,6.8c0.7,2,1.9,2.9,3.8,3.4c3.3,1,6.6,2.2,10.3,3.2
			C159.2,146.6,148.4,139,142.6,138.7z"/>
		<path class="st9" d="M181.9,137.7c-1-0.3-2.1-0.4-3.2-0.5c-2.7-0.1-5.4,0-8.2,0.5c3.2,1.4,6.3,2.8,9.3,4.4c3,1.7,5.6,3.9,8.3,5.8
			c0.5-0.4,0.4-0.7,0.5-1C188.9,142.9,185.9,138.8,181.9,137.7z"/>
		<path class="st9" d="M141.1,146.1c1.1,0,2.3,0.4,3.4,0.6c0.5,0.1,1,0.4,1.7,0.1c-1.8-3.6-4.9-5.9-7.8-8.2
			c-0.1,0.1-0.2,0.2-0.3,0.3c0.2,1.7,0.4,3.4,0.8,5.1C139.3,146.2,138.8,146.1,141.1,146.1z"/>
	</g>
	<path class="st6" d="M69,120.5c2.9,1.3,4.8,3.5,5.6,6.6c0.2,0.9,0.7,1.1,1.5,0.9c1.7-0.3,3.4-0.6,5.1-0.8c2-0.2,1.6-0.5,1.7-1.8
		c0.3-3.7,1.9-6.8,5.4-8.5c6.1-3,14.5,1.1,13.3,9.1c-0.1,1,0.2,1.4,1.2,1.4c5.5,0.5,10.8,1.7,16.2,2.7c1.7,0.3,1.7,0.3,2.5-1.3
		c3.3-6.7,10.5-7.1,15.4-3.7c1.5,1.1,2.6,2.5,3.1,4.3c0.3,1.2,0.6,2.5,0.7,3.8c0,0.5,0,1.1,0.7,1.2c2.4,0.3,4.8,0.8,7.3,0.8
		c0-0.4,0-0.6,0-0.9c-0.6-4,0.5-7.5,3-10.5c2.8-3.5,7.1-4,10.7-1.4c2.5,1.8,4.1,4.3,4.8,7.4c0.4,1.8,0.3,3.5,0,5.3
		c2.5,0.4,2.4,0.3,3-1.7c1-3.5,3.3-6,6.4-7.7c1.2-0.7,2.5-1.2,3.9-1.5c0.9-0.2,1-0.6,0.6-1.3c-0.8-1.5-1.5-3.1-2.4-4.6
		c-1.1-2.1-1.1-2.1-3.4-1.6c-3.3,0.7-6.6,0.9-9.8-0.3c-3.8-1.4-6.3-4.8-6.2-8.4c0.1-2.8,1.5-5,3.3-6.9c0.4-0.5,0.8-0.9,1.3-1.4
		c-5.9-5.4-12.1-10-19.3-13.2c-2-0.9-4.2-1.6-6.3-2.3c-0.9-0.3-1.3-0.2-1.6,0.8c-1.3,3.5-3.7,5.7-7.5,6.3c-1.3,0.2-2.7,0.3-4,0.1
		c-4.8-0.8-7.4-3-8.3-7.5c-0.3-1.4-0.3-1.4-1.7-1.2c-8.8,1.5-16.9,4.7-24.3,9.7c-0.5,0.3-0.9,0.7-1.5,1.1c0.6,0.4,1.1,0.7,1.5,1.1
		c2.1,1.7,2.9,4.8,2.1,7.3c-1.3,3.9-5.7,6.3-9.6,5.3c-2-0.5-3.5-1.7-5-3.3c-4,4.8-7.2,9.7-10,15C68,119.9,68.3,120.2,69,120.5z
		 M131.1,105.2c0.4-3.4,3.4-7.2,8.2-7.1c2,0.1,3.9,0.6,5.7,1.3c1.8,0.7,3,2.2,3.6,4c1.1,3.1,0,7.7-2.3,9.7
		c-2.7,2.4-6.7,2.7-10.4,0.8C132.7,112.3,130.7,108.7,131.1,105.2z M103.6,100.1c2.2-2.7,7.1-4.5,11.3-2.4c4.3,2.2,5.3,7.1,4.6,10.2
		c-0.8,3.5-4.1,6-8.1,6c-5.5,0-9.7-4.1-9.5-9.3C101.9,102.9,102.5,101.4,103.6,100.1z"/>
	<g>
		<path class="st10" d="M171.8,135c4.8,0.1,9.5-0.6,14.1,2.1c-0.9-3.8-1.9-7.2-3.2-10.4c-0.3-0.7-0.7-0.7-1.4-0.6
			c-2.1,0.5-4,1.2-5.7,2.5C173.6,130.2,172.2,132.2,171.8,135z"/>
		<path class="st10" d="M138.4,132.7c0-0.3-0.1-0.6-0.2-0.9c-0.8-3.4-4.1-5.9-8.1-6.2c-3.3-0.2-5.9,1.7-7.3,5.5
			c1.1,0.2,2,0.5,2.9,0.7c3.8,0.8,7.6,1.5,11.5,2.1C138.4,134,138.5,133.9,138.4,132.7z"/>
		<path class="st10" d="M72.3,129c0.7-0.2,0.7-0.6,0.5-1.2c-0.9-2.2-2.3-3.9-4.4-5.1c-1.2-0.7-1.4-0.6-2,0.7
			c-1.3,2.8-2.4,5.8-3.4,8.7c-0.1,0.4-0.4,0.8-0.1,1.4C65.8,131.4,68.9,130,72.3,129z"/>
		<path class="st10" d="M159.5,124.2c-2.1-1.4-4.7-1-6.5,0.8c-2.6,2.6-3.2,5.8-2.7,9.3c0.1,1,0.7,1.4,1.7,1.4c1.9,0,3.8,0,5.7,0
			c0,0,0,0,0,0c1.9,0,3.8,0,5.7,0c1.4,0,1.6-0.2,1.5-1.6C164.9,129.8,163.1,126.5,159.5,124.2z"/>
		<path class="st10" d="M164,112.7c3.7,3.1,8,2.6,12.3,2.1c0-0.3,0-0.4,0-0.4c-2.8-4.6-6.3-8.6-10.1-12.4c-0.5-0.5-0.9-0.4-1.3,0
			c-1.3,1.2-2.2,2.7-2.7,4.3C161.4,108.8,162,111,164,112.7z"/>
		<path class="st10" d="M93.8,118.5c-3.1-0.7-5.8,0.1-7.9,2.7c-1,1.2-1.5,2.7-1.5,4.2c0,1.3,0.3,1.5,1.6,1.5c1.8,0,3.6,0,5.4,0
			c0-0.1,0-0.1,0-0.2c2.3,0.1,4.6,0.3,6.9,0.4c1.4,0.1,1.6-0.1,1.7-1.4c0-0.5,0-1-0.2-1.5C99,121.1,96.9,119.2,93.8,118.5z"/>
		<path class="st10" d="M124.2,89c0.4,0.1,0.9,0.2,1.3,0.3c4.8,0.9,8.4-1.1,9.7-5.6c-5.2-1.4-10.5-1.5-16-1.1
			C119.5,86.2,121.1,88.1,124.2,89z"/>
		<path class="st10" d="M85.7,105.5c0.3,0,0.6,0,1,0c2.4-0.3,4.5-2.2,4.9-4.5c0.3-2-0.9-4.4-2.7-5.5c-0.6-0.3-1.1-0.5-1.7,0.1
			c-2.3,1.9-4.5,4-6.5,6.2c-0.4,0.4-0.5,0.8-0.1,1.3C82,104.5,83.6,105.6,85.7,105.5z"/>
		<path class="st10" d="M140.8,112.9c2.8,0.4,4.9-1.1,5.7-3.8c0.2-0.7,0.3-1.5,0.3-2.3c-0.1-4.6-2.3-6.3-6.3-6.6
			c-4.8-0.4-7.8,4.1-5.7,8.5C136.1,111.1,138.2,112.5,140.8,112.9z"/>
		<path class="st10" d="M112.4,111.7c3.3,0,5.4-2.1,5.4-5.6c0-0.2,0-0.5,0-0.8c-0.1-1.7-0.7-3.3-2-4.4c-1.9-1.8-10.8-3.3-10.8,3.7
			C104.9,108.5,108.3,111.7,112.4,111.7z"/>
	</g>
</g>
<path class="st6" d="M144.5,319.7c5.7-3.5,11.6-6.4,16.8-10.6c1-0.9,1.9-1.7,2.3-3.1c0.7-2.7,4.3-4.7,7-4.3c2.6,0.4,4.2,3.2,3.4,5.8
	c-0.6,1.6-1.6,2.9-2.9,3.9c-1.7,1.3-3.8,1.2-5.5,0c-0.5-0.4-1-0.8-1.6-1.3c-5.3,4.5-11.3,8-17.5,11.2c0,0.2,0.1,0.3,0.1,0.5
	c1,0.1,2,0.3,3.1,0.4c7.5,0.4,14.6-1.1,21.3-4.4c0.9-0.4,1.1-0.9,1.1-1.9c-0.1-1.7,0.4-3.3,1.3-4.7c1.4-2.2,3.5-2.9,5.9-1.9
	c0.2,0.1,0.5,0.2,0.7,0.3c4.1,0.4,6.1,6.8,2.3,10.4c-0.9,0.8-1.8,1.4-2.9,1.8c-1.8,0.6-3.6,0.5-5-0.9c-0.9-0.9-1.5-0.8-2.5-0.3
	c-4.1,2.1-8.5,3.5-13,4.3c-3.5,0.5-7.1,0.9-10.7,0.3c-0.5-0.1-1-0.3-1.6,0c1.8,1.3,3.7,2.1,5.7,2.7c3.8,1.1,7.7,1.7,11.6,2.2
	c4.3,0.5,8.6,0.7,13,0.6c1,0,1.7-0.2,2.2-1.2c0-0.1,0.1-0.1,0.1-0.2c1.9-2.4,4.9-3.4,7.1-2.3c2.5,1.2,4.1,4.6,3.5,7.2
	c-0.8,3.1-3.4,5.2-6.3,5.1c-2.3-0.1-4.3-1.7-5.1-4c-0.6-1.8-0.6-1.8-2.6-1.8c-7.7,0-15.4-0.8-23-2.5c-3.7-0.8-6.8-2.6-9.6-4.8
	c-0.3-0.3-0.6-0.6-1-0.9c-0.5-0.3-1-0.2-1.3,0.3c-0.1,0.2-0.2,0.3-0.3,0.5c-7.1,11.4-13.1,23.4-15.6,36.8c-0.4,1.9-0.7,3.8-1.1,5.6
	c-0.2,1-0.4,2-0.9,2.9c-0.2,0.4-0.5,0.8-1,0.8c-0.6,0-0.9-0.5-1-1c-0.1-0.5-0.2-1.1-0.2-1.7c0-3.7,0.8-7.2,1.8-10.7
	c2.3-9,5.9-17.5,10.7-25.5c1.9-3.2,3.7-6.4,5.7-9.5c0.4-0.7,0.7-1.3,0.6-2.1c-1.2-7.1,0.2-14,2.5-20.7c2.2-6.3,6-11.7,10.3-16.6
	c0.3-0.4,0.7-0.8,1-1.1c1.5-1.3,2.3-2.7,1.9-4.8c-0.3-1.6,0.3-3.1,1.3-4.5c0.8-1.2,2-2.1,3.4-2.3c3.4-0.4,6.5,0.4,8.7,3.2
	c1.6,2,1.7,4.2,0.4,6.4c-1.4,2.3-3.2,4.1-6.1,4.6c-2,0.3-3.7,0-5.2-1.3c-0.8-0.6-1.2-0.8-2,0c-6.9,7-11.4,15.2-12.8,24.9
	c-0.4,2.5-0.8,4.9-0.8,7.4c0,0.4,0,0.9,0.1,1.3c0.7,0,0.8-0.5,1-0.8c4.3-5.8,9.1-11.2,14.4-16.1c0.8-0.8,1.1-1.4,0.7-2.6
	c-0.5-1.4-0.4-3.1-0.1-4.5c0.5-2.1,1.8-3.6,3.8-4.2c2.1-0.6,3.9-0.1,5.4,1.4c1.5,1.5,2.6,3.2,1.9,5.5c-0.7,2.4-2,4.3-4.7,4.8
	c-1.1,0.2-2.1,0.7-3.2,0.3c-0.5-0.1-0.8,0.1-1.2,0.4C154.2,307.4,149,313.2,144.5,319.7z"/>
<path class="st8" d="M140.3,264.5c-0.6-1.5-1.7-2.5-3.2-2.8c-0.6-0.1-1.1-0.3-1.7-0.4c-1.7-0.5-3-0.1-4.1,1.3
	c-0.9,1.2-1.5,2.6-1.7,4.1c0,0.5-0.3,0.8-0.8,1c-3.1,1.2-5.9,3-8.5,4.9c-0.2,0.1-0.3,0.4-0.6,0.3c0-0.4,0.2-0.6,0.3-0.9
	c1.5-3.3,3.4-6.5,5.2-9.7c0.3-0.5,0.6-0.8,1.2-0.8c2.3-0.1,3.9-1.3,4.7-3.5c0.9-2.5-0.3-5.9-2.5-7.4c-1-0.7-2.2-0.9-3.3-0.4
	c-1.1,0.5-2.3,1-3.1,1.9c-2.1,2.6-2.1,6,0.8,8.3c0.7,0.6,0.7,0.6,0.3,1.4c-0.4,0.7-0.8,1.4-1.2,2c-1.8,3.1-3.5,6.4-4.9,9.7
	c-1.4,3.3-2,6.7-1.9,10.2c0.1,1.4,0.2,2.8,0.4,4.2c-0.2-0.1-0.3-0.3-0.4-0.4c-1.1-2.5-2.1-5.1-3-7.8c-2.1-6.8-1.8-13.6,0.9-20.2
	c0.2-0.4,0.4-0.7,0.9-0.6c0.7,0,1.3-0.2,1.8-0.5c1.7-0.8,2.4-2.3,2.5-4c0.2-2.2-0.2-4.2-2.3-5.5c-0.8-0.5-1.6-0.9-2.4-1.2
	c-0.8-0.4-1.7-0.4-2.6-0.2c-3.9,0.9-5.6,5.9-2.9,9c0.8,1,1.9,1.7,3.1,2.1c0.4,0.1,0.5,0.3,0.4,0.7c-0.3,1-0.6,1.9-0.9,2.9
	c-1.5,4.6-1.8,9.4-1,14.2c0.3,1.6,0.6,3.1,1,4.7c-0.1-0.1-0.2-0.1-0.2-0.1c-0.2-0.2-0.4-0.5-0.6-0.7c-3.3-4.2-6.7-8.3-11.3-11.1
	c-0.3-0.2-0.5-0.4-0.3-0.8c0.8-2.4,0.3-4.5-1.2-6.4c-0.9-1.2-2.2-2.1-3.7-2c-1.7,0-3.5,0.4-4.9,1.4c-2,1.5-3,3.6-2.7,6.1
	c0.3,3,3,5.3,6,5.3c1.8,0,3.3-0.7,4.6-1.8c0.7-0.7,0.7-0.5,1.3-0.1c1.9,1.2,3.7,2.6,5.4,4.2c3.6,3.5,6.6,7.5,9.3,11.8
	c0.1,0.2,0.3,0.3,0.2,0.6c-0.1-0.1-0.3-0.1-0.4-0.2c-1.5-1.1-3.2-1.9-4.9-2.6c-3.4-1.4-7-2.2-10.6-2.8c-1.2-0.2-1.2-0.2-1.5-1.4
	c-0.4-2.2-1.7-3.7-3.7-4.7c-0.7-0.4-1.5-0.4-2.3-0.2c-0.3,0.1-0.6,0.1-0.9,0.2c-0.9,0.1-1.7,0.6-2.3,1.2c-0.7,0.7-1.2,1.5-1.5,2.4
	c-0.7,2.1-0.7,4.3,0,6.4c0.4,1.3,1.2,2.4,2.2,3.2c2.2,1.8,5.1,1.3,6.7-1c0.3-0.5,0.6-1.1,0.8-1.6c0.3-0.9,0.6-1.7,0.8-2.6
	c0.1-0.4,0.2-0.6,0.7-0.5c3.4,0.7,6.7,1.6,10,2.9c4.7,1.8,8.2,5,10.5,9.4c0.2,0.4,0.5,0.9,0.7,1.4c1.3,2.8,2.3,5.6,3.1,8.6
	c1.6,6,2.8,12,2.2,18.3c0,0.1,0,0.2,0,0.3c0,0.6,0.3,0.9,0.7,1c0.5,0.1,0.8-0.2,1-0.6c0.2-0.4,0.4-0.9,0.5-1.3
	c0.6-2.3,0.5-4.7,0.3-7.1c-0.9-6.9-2.6-13.5-5.5-19.8c-0.1-0.3-0.3-0.6-0.4-0.9c-0.7-2.6-1.5-5.2-1.8-7.8c-0.5-3.7-0.3-7.4,1-10.9
	c0.2-0.5,0.5-0.9,0.9-1.3c3-2.1,6-4,9.3-5.5c0.4-0.2,0.8-0.6,1.2-0.4c0.4,0.2,0.3,0.7,0.5,1.1c0.3,0.6,0.6,1.1,1,1.6
	c0.6,0.7,1.3,1.2,2.1,1.5c2.9,0.9,6-0.6,7.2-3.4C141.2,268,141,266.2,140.3,264.5z"/>
<path class="st1" d="M304.1,331.2c-2.3-4-5-7.7-8.3-11c-6.1-6-13.1-10-21.7-11.2c-1.9-0.3-3.8-0.3-5.7,0c-1.5-1.2-3.3-2-5.1-2.6
	c-0.7-0.3-1.6-0.3-2.5-1c1.4-0.7,2.7-1.3,3.9-1.9c5.1-2.6,10-5.4,14.9-8.2c0.7-0.4,1.4-0.9,2.3-0.7c2.2,0.5,4.4,0.7,6.5,1.4
	c1.5,0.5,2.9,1,2.6,3.1c-0.1,0.3,0.1,0.6,0.2,0.9c0.9,4.4,2.9,8.3,5.7,11.8c4,5,8.7,8.7,15.2,10c4,0.8,8.1,1.1,12.1,0.1
	c2-0.5,3.3-2.1,2.1-4.5c-2.2-4.6-5-8.7-8.7-12.2c-6.2-5.9-13.5-9.3-22-10c-1.9-0.2-3.7-0.2-5.4-1.2c-1.2-0.7-2.7-0.9-4-1.1
	c-0.4-0.1-0.9,0.1-1.2-0.4c0-0.1,0-0.2,0-0.2c4.2-2.6,8.5-5.3,12.7-7.9c0.4-0.3,0.9-0.5,1.4-0.4c3.5,0.2,7,0.1,10.5,0.6
	c1.1,0.2,1.6,0.5,1.8,1.7c1.1,5.3,4,9.3,8.7,12c1.9,1.1,3.8,2.2,5.7,3.1c2.6,1.2,5.2,2,8.1,2.3c4,0.4,7.9,0.3,11.8-0.3
	c0.9-0.1,1.8-0.3,2.6-0.6c2.1-0.8,2.4-1.9,0.8-3.6c-2.9-3.2-6-6.3-9.4-8.9c-6-4.6-12.8-7.3-20.4-8.1c-1.8-0.2-3.6-0.3-5.3,0.1
	c-1.3,0.3-2.6,0.3-4,0c-2-0.4-4-0.6-6.1-0.7c-0.4,0-0.9,0.2-1.1-0.4c4-2.7,8-5.3,11.8-8.1c1.9-1.4,3.7-2,6-1.5
	c0.9,0.2,1.8,0.2,2.7,0.3c2,0.2,4.1,0.7,6.1,0.3c0.9-0.1,1.5,0.2,2,0.8c1.7,1.8,3.7,3.3,5.8,4.6c10.3,6.4,21.3,7.4,32.8,4.4
	c1.4-0.4,2.7-0.9,3.9-1.5c1.6-0.8,3.1-1.8,4.3-3.2c1.1-1.3,0.9-2.5-0.5-3.4c-0.5-0.3-1-0.6-1.5-0.8c-2.7-1.3-5.4-2.5-8.2-3.6
	c-8.4-3.3-17.1-4.6-26.1-3.5c-4.2,0.5-8.3,1.4-12,3.6c-0.4,0.2-0.8,0.3-1.3,0.3c-2.5-0.3-5-0.6-7.6-0.9c0.2-0.9,0.9-1.1,1.4-1.4
	c3-2.3,6.2-4.3,8.6-7.2c0.4-0.5,1-0.5,1.5-0.6c4.5-0.6,8.7-2.3,12.5-4.5c9.2-5.3,15.1-13.5,19.7-22.9c1.6-3.3,0.5-4.8-3.2-4.7
	c-5.3,0.1-10.4,1.1-15.4,2.8c-6.8,2.3-11.6,6.7-13.8,13.5c-1.4,4.1-2.1,8.4-2,12.8c0,0.8-0.2,1.2-0.8,1.7c-2.8,2.3-5.7,4.3-8.6,6.3
	c-1.1,0.8-2.1,1.8-3.8,2.5c0.7-1.6,1.3-2.8,1.6-4c0.8-3.1,2.5-5.6,4.3-8.2c6-8.6,8.6-18.4,9-28.8c0.1-2.9-0.4-5.7-1.1-8.5
	c-0.6-2.1-1.7-2.5-3.6-1.4c-0.4,0.2-0.7,0.5-1,0.8c-1.7,1.5-3.2,3.1-4.5,4.9c-3.8,5.1-6.3,10.7-6.5,17.1c-0.2,5.9,0.4,11.7,2.2,17.4
	c0.2,0.7,0.2,1.3,0,2c-0.8,3-1.8,5.8-2.8,8.7c-0.6,1.9-1.8,3.5-3.6,4.6c-3.4,2.2-6.8,4.5-10.3,6.7c-0.3,0.2-0.7,0.7-1.3,0.2
	c1.5-3,2.4-6.1,2.9-9.4c0.1-0.8,0.5-1.6,1-2.3c1.3-1.9,2.2-3.9,2.9-6c3.6-10.5,3-21-0.1-31.4c-0.6-2.1-2.2-2.5-4-1.2
	c-1.1,0.8-2,1.8-2.7,2.9c-2.7,3.9-4.6,8.1-6,12.6c-1.3,4.4-1.4,8.8-0.1,13.2c1.1,3.9,2.9,7.3,5.6,10.3c0.5,0.6,1,1,0.8,2
	c-1.2,4.4-2.8,8.6-5.4,12.4c-0.4,0.6-0.9,1.2-1.6,1.6c-4.3,2.6-8.6,5.3-12.9,7.9c-0.5,0.3-0.9,0.6-1.5,0.7c-0.3-0.6,0.1-1.1,0.2-1.5
	c0.8-2,1.6-3.9,2.4-5.9c0.7-1.9,2.2-3.4,2.5-5.5c0-0.1,0.1-0.1,0.1-0.2c1.1-1.9,2-3.9,2.8-5.9c1.7-4.2,2.7-8.6,2.6-13.2
	c-0.1-3.9-0.9-7.6-1.7-11.3c-0.3-1.2-0.7-2.5-1.4-3.6c-0.9-1.5-1.7-1.8-3.1-0.7c-4.1,3.3-7.6,7.1-8.9,12.3
	c-1.3,5.1-1.5,10.2-0.1,15.3c0.9,3.2,2.5,5.9,4.9,8.1c0.9,0.8,0.9,1.4,0.4,2.4c-1.5,3.3-2.9,6.7-3.5,10.3c-0.2,0.9-0.5,1.4-1.3,1.9
	c-5.7,3.2-11.4,6.3-17.3,9c-0.4,0.2-0.7,0.6-1.2,0.1c0-0.1-0.1-0.2,0-0.2c1.6-3.9,3.8-7.5,5.5-11.4c0.1-0.3,0.4-0.5,0.6-0.7
	c3.8-3.2,6.2-7.3,7.8-11.8c2.4-6.7,2.3-13.5,0.8-20.4c-0.2-1.1-0.6-2.1-1.2-3c-0.8-1.3-1.7-1.4-2.9-0.6c-0.7,0.5-1.4,1.1-2.1,1.6
	c-3.7,2.7-6.6,6-8.1,10.4c-1.6,4.7-2.2,9.4-1.5,14.3c0.4,3.1,1.2,6.2,3,8.8c0.6,0.9,0.7,1.4,0.1,2.3c-2.2,3.6-4,7.4-5.2,11.5
	c-0.2,0.8-0.7,1.1-1.4,1.4c-2.7,1.1-5.4,2-8.1,2.8c-1.7,0.5-3.4,1.1-5.4,1.3c1.1-2.3,2.4-4.3,3.6-6.3c1-1.6,1.6-3.7,4-4
	c4.6-3.5,7.8-7.8,7.5-14c-0.2-4.2-1.2-8.2-2.3-12.2c-0.3-1.2-0.7-2.3-1.4-3.3c-0.7-1.1-1.6-1.2-2.6-0.5c-3.2,2.4-5.7,5.4-7,9.3
	c-1.7,5.5-1.6,10.9-0.5,16.5c0.2,1.1,0.5,2.3,1.4,3.1c0.9,0.8,0.7,1.5,0.2,2.3c-1.8,3-3.6,6-5.3,9.1c-0.4,0.8-1.1,1-1.8,1.1
	c-6.8,1.2-13.6,1.2-20.3-0.5c-9.7-2.4-17-8.1-21.7-16.9c-4.8-9-5.8-18.5-2.4-28.2c5.5-15.9,16.6-26.5,32.3-32.3
	c4.4-1.6,9.1-2.2,13.8-1.1c4.8,1.1,8,4.1,9.5,8.7c1.6,4.9,1.1,9.7-1.2,14.3c-2.1,4.3-5.3,7.8-9.2,10.6c-2.4,1.7-5,3.1-7.9,3.6
	c-3.1,0.5-5.8-0.1-8.2-2.3c-3.4-3.2-2.5-8.7,1.7-10.8c1-0.5,2.1-0.9,3.3-1c0.5,0,1,0,0.9-0.7c0-0.7-0.5-0.8-1.1-0.8
	c-1,0-1.9,0.4-2.8,0.6c-4.9,1.5-6.7,6.6-5.8,10.3c0.8,3.3,3,5.4,6,6.7c3.4,1.5,6.9,1.5,10.3,0.2c7.7-3,13.1-8.5,16.5-15.9
	c2-4.5,2.3-9.1,1.2-13.9c-1.7-6.8-6.3-10.9-13.2-11.9c-3.7-0.5-7.4-0.2-11,0.7c-7.4,1.8-13.9,5.3-19.8,10.1
	c-7.3,5.8-13,12.8-16.4,21.5c-5.9,14.9-3.5,28.6,6.9,40.7c6.1,7,14.2,10.5,23.3,11.6c5.8,0.7,11.5,0.5,17.1-0.5
	c0.7-0.1,1.4-0.4,2,0.1c2.7,2.3,5.7,4.3,8.5,6.5c0.6,0.5,0.8,1,0.6,1.8c-0.4,2-0.3,4,0.4,6c0.8,2.5,2.3,4.6,3.8,6.6
	c2,2.6,4.4,4.8,7.5,6.1c4.5,1.9,9,2.2,13.6,0.5c2.7-1,3.3-2.5,2-4.8c-1.1-1.9-2.1-3.8-3.4-5.6c-5.1-7-11.7-11-20.7-10.6
	c-0.6,0-1.1,0-1.6-0.4c-2.7-2.1-5.4-4.1-8.1-6.1c-0.2-0.2-0.5-0.4-0.4-0.7c0.1-0.1,0.2-0.2,0.3-0.2c5.9-1.5,11.6-3.5,17.1-6
	c0.5-0.2,1-0.3,1.5-0.1c2.6,0.8,5.1,1.6,7.5,2.9c0.7,0.4,1.2,0.9,1.3,1.7c0.1,1.3,0.6,2.5,1.1,3.6c2.7,6.1,6.9,11,12,15.2
	c5.1,4.2,11.1,6.1,17.8,5.8c1.7-0.1,3.3-0.3,4.8-1C304.9,334.3,305.3,333.3,304.1,331.2z"/>
</svg>
