<?xml version="1.0" encoding="utf-8"?>
<!-- Generator: Adobe Illustrator 21.1.0, SVG Export Plug-In . SVG Version: 6.00 Build 0)  -->
<svg version="1.1" id="Calque_1" xmlns="http://www.w3.org/2000/svg" xmlns:xlink="http://www.w3.org/1999/xlink" x="0px" y="0px"
	 viewBox="0 0 432 432" style="enable-background:new 0 0 432 432;" xml:space="preserve">
<style type="text/css">
	.st0{fill:#D97910;}
	.st1{fill:#62432C;}
	.st2{fill:#EA5A0C;}
	.st3{fill:#E64E0F;}
	.st4{fill:#006D34;}
	.st5{fill:#4F7E2F;}
	.st6{fill:#EE8600;}
	.st7{fill:#3F5B25;}
	.st8{fill:#B69E18;}
	.st9{fill:#BD2218;}
	.st10{fill:#DD5512;}
	.st11{fill:#FFFFFF;}
	.st12{fill:#76142D;}
	.st13{fill:#6D3D12;}
	.st14{fill:#F6EDE8;}
	.st15{fill:#D4BDAE;}
	.st16{fill:#EC6707;}
	.st17{fill:#EDD600;}
	.st18{fill:#9D9893;}
	.st19{fill:#807C79;}
	.st20{fill:#C57915;}
	.st21{fill:#975018;}
	.st22{fill:#FAB300;}
	.st23{fill:#FFD800;}
	.st24{fill:#36312C;}
	.st25{fill:#BB7730;}
	.st26{fill:#D5D4D4;}
	.st27{fill:#898584;}
	.st28{fill:#D01419;}
	.st29{fill:#F28B00;}
	.st30{fill:#E74310;}
	.st31{fill:#13110C;}
	.st32{fill:#9B6228;}
	.st33{fill:#D49F61;}
	.st34{fill:#BEBBBB;}
	.st35{fill:#EDECED;}
	.st36{fill:#E77812;}
	.st37{fill:#F3B455;}
	.st38{fill:#641616;}
	.st39{fill:#B37218;}
	.st40{fill:#ED7004;}
	.st41{fill:#B57D44;}
	.st42{fill:#844D16;}
	.st43{fill:#DD720F;}
	.st44{fill:none;}
	.st45{fill:#4C2814;}
	.st46{fill:#921913;}
	.st47{fill:#D67F10;}
</style>
<ellipse transform="matrix(0.9999 -1.108315e-02 1.108315e-02 0.9999 -2.0708 0.4611)" class="st11" cx="40.6" cy="187.1" rx="4.5" ry="0"/>
<g>
	<g>
		<path class="st8" d="M161.1,339c1-1.2,1.7-2.6,2.1-4.2c-1-1.2-2-2.4-2.7-3.8c-1-1.9-1.5-4.2-0.9-6.3c-1.1-1.4-2.2-2.8-3.4-4.2
			c-1,1.8-1.9,3.8-2.1,5.8c-0.2,2.5,0.7,5,2,7.1C157.4,335.6,159.2,337.4,161.1,339z"/>
		<path class="st8" d="M183.4,318.9c-3.9,0.8-7,3-9.3,5.7c-2.1,2.5-4,5.2-5.3,8.1l-16.1,15.3c-0.1,0.1-0.1,0.2,0,0.3l0.1,0.1
			c0.1,0.1,0.2,0.1,0.3,0l15.9-15.1c5.4,1.9,11.9,0.9,15.6-2.3c1.1-0.9,1.9-2,2.8-3.1c2.2-2.9,4.1-5.8,6-8.8
			C190.1,318.5,186.6,318.2,183.4,318.9z"/>
		<path class="st8" d="M164.9,336.2l0.2-0.4c1.5-2.2,3.1-4.7,2.8-7.4c-0.4-3.6-4.1-6.4-3.9-10c-1.2,1.8-2.9,3.2-3.8,5.2
			c-0.9,2.2-0.5,4.8,0.5,6.9S163.3,334.5,164.9,336.2z"/>
		<path class="st8" d="M170.3,341.9c-1.3-0.9-2.4-1.9-3.4-3.1c-1.6,0.1-3.1,0.7-4.4,1.6c1.4,2,3,4,4.9,5.5c1.9,1.6,4.3,2.7,6.8,2.8
			c2.1,0,4.1-0.6,6-1.4c-1.3-1.3-2.5-2.6-3.8-3.8C174.3,343.8,172.1,343.1,170.3,341.9z"/>
		<path class="st8" d="M166.1,336.8l-0.5,0.1c1.6,1.8,3.2,3.6,5.2,4.8c2,1.3,4.5,1.9,6.8,1.2c2.1-0.6,3.7-2.2,5.6-3.2
			c-3.6-0.2-6-4.2-9.5-5C171.1,334.2,168.5,335.6,166.1,336.8z"/>
	</g>
	<path class="st12" d="M238.8,105.8c-4.8,7.7,2.2,16-3.9,12.4c-1.2,5.6,4.3,5.7,5.1,9.8c0.5,2.4-3.5-0.8-4.4,0.7
		c-1.3,2.2,7,6.5,7.4,7.7c0.5,1.2-6.3-0.8-2.4,3c8.8,8.6,15.8,6.2,17.1,0.8c1.2,3.6,2.4,7.3,3.5,10.9c0.4-0.7,0.9-1.3,1.3-2
		c1.5-2.3-4.5-8.3-2.8-9.5c12.6-8.5,6.3-21.9,5.1-18.3c-2.5,7-2.6-6.7-9-8.5c1.8,12.7-5.3,0.6-6.9,0.3c-0.6,12.5-9.1-6.3-10.1-7.5"
		/>
	<g>
		<g>
			<path class="st13" d="M317.9,220.4c-1.1,2.9-2.1,5.9-2.2,9c-1-0.8-1.2-2.5-1.8-3.7c-0.8,0.8-2.2,2.4-3,3.2c-0.2-2.4,3.4-4,3-6.5
				c-0.3-1.6-2.1-2.4-3.6-3.1c-3.5-1.8-6.2-5.2-7-9.1c3.8,6.2,9.2,9.9,11.4,9.4c2.9-6.9,8.8-25,8.9-27.1c0.2-5-2.3-9.6-4.7-13.9
				c1.6,0.4,4.5,7.3,6.1,6.9c0.1-1.3-0.5-6.6-0.4-7.9c1.3,1.3,1.9,7.2,3.6,7.5c0.3-1.5,0.6-3.1,0.9-4.6c0.8-0.2,0.8,3.6,2.6,3.7
				c1.8,0.1,3.4-1.2,4.3-2.7c0.9-1.5,31.4-51.9,38.6-59.2c-0.2,0.9,0.1,1.8,0.7,2.5c0.7-0.9,1.7-1.6,2.7-2.1c0,1.1,0,2.2,0,3.3
				c-2.2,0.5-5.3,1.8-6.6,3.7c-10.2,15-19.9,29.2-28.1,45.4c-2.1,4.2-5.8,8.4-9.6,11.3c1,0.6,2.2,0.7,3.3,0.4
				c0.7,0.6-0.7,1.5-1.6,1.4c-1.9-0.2-6.2-2.4-6.6-2.4c-0.6,0.1-10.3,28.1-10.8,34.1c0.3-0.2,3.5-0.5,3.8-0.7"/>
			<g>
				<path class="st14" d="M316.8,192.6c-1.3,3.8-3,9-4,12.2c-0.3,0.8-0.4,1.6-0.4,2.4c0,8.3,13.7,14.1,19,0.7l3.3-10.4
					c1.1-3.4-0.3-7.3-3.5-9c-3.5-1.9-6.9-1.6-9.4-0.8C319.4,188.4,317.6,190.2,316.8,192.6z"/>
				<path class="st15" d="M312.5,205.9c0,0.1,0,0.2-0.1,0.4c6.2-1.4,12.7,0.5,17.1,5c0.1-0.1,0.1-0.2,0.2-0.3
					C325.2,206.4,318.8,204.5,312.5,205.9z"/>
			</g>
			<g>
				<path class="st14" d="M339.6,158.5c-1.9,3.6-4.4,8.4-6,11.3c-0.4,0.7-0.7,1.5-0.8,2.3c-1.4,8.2,11.1,16.2,18.6,3.8l5-9.7
					c1.7-3.2,0.9-7.2-1.9-9.5c-3.1-2.4-6.5-2.7-9.1-2.3C342.9,154.8,340.7,156.3,339.6,158.5z"/>
				<path class="st15" d="M333.1,170.9c0,0.1-0.1,0.2-0.1,0.3c6.4-0.4,12.4,2.6,16.1,7.8c0.1-0.1,0.2-0.2,0.2-0.3
					C345.6,173.5,339.5,170.6,333.1,170.9z"/>
			</g>
		</g>
		<g>
			<g>
				<path class="st16" d="M323.9,237.4c1.5,0,1.5-2.4,0-2.4C322.4,235,322.4,237.4,323.9,237.4z"/>
				<path class="st16" d="M332.6,239.6c-1.5,0-1.5,2.4,0,2.4C334.2,242,334.2,239.6,332.6,239.6z"/>
				<path class="st16" d="M324.2,247c-1.5,0-1.5,2.4,0,2.4C325.7,249.4,325.7,247,324.2,247z"/>
				<path class="st16" d="M304.3,226.9c-1.5,0-1.5,2.4,0,2.4C305.9,229.4,305.9,226.9,304.3,226.9z"/>
				<path class="st16" d="M303.7,239.4c-1.5,0-1.5,2.4,0,2.4C305.2,241.8,305.2,239.4,303.7,239.4z"/>
				<path class="st16" d="M324.8,240.8c-1.5,0-1.5,2.4,0,2.4C326.4,243.2,326.4,240.8,324.8,240.8z"/>
				<path class="st16" d="M324.4,230.7c1.5,0,1.5-2.4,0-2.4C322.8,228.3,322.8,230.7,324.4,230.7z"/>
				<path class="st16" d="M302.3,247.2c-0.1,0-0.1,0-0.2,0c-1.5,0-1.5,2.4,0,2.4c0.1,0,0.1,0,0.2,0
					C303.9,249.6,303.9,247.2,302.3,247.2z"/>
			</g>
			<g>
				<path class="st17" d="M331.7,235.3c-0.8,0-0.8,1.2,0,1.2C332.5,236.5,332.5,235.3,331.7,235.3z"/>
				<path class="st17" d="M317.5,232.2c-0.8,0-0.8,1.2,0,1.2C318.2,233.4,318.2,232.2,317.5,232.2z"/>
				<path class="st17" d="M319.5,238c-0.8,0-0.8,1.2,0,1.2C320.3,239.2,320.3,238,319.5,238z"/>
				<path class="st17" d="M331.3,246.3c-0.8,0-0.8,1.2,0,1.2C332.1,247.5,332.1,246.3,331.3,246.3z"/>
				<path class="st17" d="M306.6,234.7c-0.8,0-0.8,1.2,0,1.2C307.3,235.9,307.3,234.7,306.6,234.7z"/>
				<path class="st17" d="M308.3,229.3c-0.8,0-0.8,1.2,0,1.2C309.1,230.5,309.1,229.3,308.3,229.3z"/>
				<path class="st17" d="M303.9,232.9c-0.8,0-0.8,1.2,0,1.2C304.7,234.1,304.7,232.9,303.9,232.9z"/>
				<path class="st17" d="M304.3,244c-0.8,0-0.8,1.2,0,1.2C305.1,245.2,305.1,244,304.3,244z"/>
				<path class="st17" d="M301.2,244.2c-0.8,0-0.8,1.2,0,1.2C302,245.4,302,244.2,301.2,244.2z"/>
				<path class="st17" d="M301.4,235.3c-0.8,0-0.8,1.2,0,1.2C302.2,236.5,302.2,235.3,301.4,235.3z"/>
				<path class="st17" d="M320.8,227.3c-0.8,0-0.8,1.2,0,1.2C321.6,228.5,321.6,227.3,320.8,227.3z"/>
				<path class="st17" d="M309.9,222.7c-0.1,0-0.1,0-0.2,0c-0.8,0-0.8,1.2,0,1.2c0.1,0,0.1,0,0.2,0
					C310.7,223.9,310.7,222.7,309.9,222.7z"/>
				<path class="st17" d="M321.9,253.2c-0.8,0-0.8,1.2,0,1.2C322.7,254.4,322.7,253.2,321.9,253.2z"/>
				<path class="st17" d="M323.9,257.9c-0.8,0-0.8,1.2,0,1.2C324.7,259.1,324.7,257.9,323.9,257.9z"/>
				<path class="st17" d="M319.7,244c-0.8,0-0.8,1.2,0,1.2C320.5,245.2,320.5,244,319.7,244z"/>
				<path class="st17" d="M300.3,252.9c-0.8,0-0.8,1.2,0,1.2C301.1,254.1,301.1,252.9,300.3,252.9z"/>
			</g>
		</g>
		<g>
			<g>
				<g>
					<ellipse class="st18" cx="324.8" cy="319.8" rx="11.8" ry="9.1"/>
					<path class="st19" d="M324.4,324.7c1.8-0.8,3.5-1.8,4.9-3.1c0.7-0.6,1.3-1.3,2.2-1.6c0.8-0.3,2-0.1,2.3,0.8
						c0.2,0.4,0.1,0.8,0,1.2c-0.3,1.2-1.3,2.1-2.3,2.6c-1.1,0.5-2.3,0.6-3.5,0.6c-1.2,0-2.4-0.1-3.6-0.3"/>
				</g>
				<g>
					<ellipse class="st18" cx="274.9" cy="344.8" rx="9.5" ry="7.3"/>
					<path class="st19" d="M274.5,348.8c1.4-0.6,2.8-1.5,3.9-2.5c0.5-0.5,1-1,1.7-1.2c0.7-0.2,1.6,0,1.8,0.6c0.1,0.3,0.1,0.7,0,1
						c-0.2,0.9-1,1.7-1.9,2.1c-0.9,0.4-1.9,0.5-2.8,0.5c-1,0-1.9-0.1-2.9-0.2"/>
				</g>
				<g>
					<ellipse class="st18" cx="242.2" cy="326.3" rx="11.8" ry="9.1"/>
					<path class="st19" d="M241.8,331.3c1.8-0.8,3.5-1.8,4.9-3.1c0.7-0.6,1.3-1.3,2.2-1.6s2-0.1,2.3,0.8c0.2,0.4,0.1,0.8,0,1.2
						c-0.3,1.2-1.3,2.1-2.3,2.6c-1.1,0.5-2.3,0.6-3.5,0.6c-1.2,0-2.4-0.1-3.6-0.3"/>
				</g>
				<g>
					<ellipse class="st18" cx="221.6" cy="336.5" rx="6.4" ry="4.9"/>
					<path class="st19" d="M221.4,339.1c1-0.4,1.9-1,2.6-1.7c0.4-0.3,0.7-0.7,1.2-0.8c0.5-0.2,1.1,0,1.2,0.4c0.1,0.2,0.1,0.4,0,0.7
						c-0.2,0.6-0.7,1.1-1.3,1.4c-0.6,0.3-1.3,0.3-1.9,0.3c-0.6,0-1.3-0.1-1.9-0.1"/>
				</g>
				<g>
					<ellipse class="st18" cx="345.8" cy="328.9" rx="4.7" ry="3.6"/>
					<path class="st19" d="M345.7,330.9c0.7-0.3,1.4-0.7,2-1.3c0.3-0.2,0.5-0.5,0.9-0.6c0.3-0.1,0.8,0,0.9,0.3
						c0.1,0.2,0.1,0.3,0,0.5c-0.1,0.5-0.5,0.8-0.9,1s-0.9,0.2-1.4,0.2C346.6,331.1,346.1,331,345.7,330.9"/>
				</g>
				<g>
					<ellipse class="st18" cx="284.3" cy="329.2" rx="15.4" ry="11.8"/>
					<path class="st19" d="M283.8,335.6c2.3-1,4.5-2.4,6.4-4.1c0.9-0.8,1.7-1.6,2.8-2s2.5-0.1,3,1c0.2,0.5,0.2,1.1,0,1.6
						c-0.4,1.5-1.6,2.7-3.1,3.4s-3,0.8-4.6,0.8c-1.6,0-3.1-0.2-4.7-0.4"/>
				</g>
			</g>
			<g>
				<path class="st20" d="M351.7,291L351.7,291c-95.8,2.4-75.1,1.4-136.6,9.5l0,0c-10.1,1.3-15.8,15.3-4.3,23.1
					c3.6,2.4,7.2,3.1,10.3,2.5l0,0l25-4.5l-6.2,5.6l0,0c-7.5,6.8-4.2,21.6,9.7,21.4c4.4-0.1,7.6-1.6,9.9-3.8l0,0l24.8-24.9
					l24.8,24.9l0,0c2.2,2.2,5.5,3.7,9.9,3.8c13.9,0.2,17.3-14.6,9.7-21.4l0,0L317,316.5l32.8,0.7l0,0c3.1,0.1,6.6-1.1,9.7-4.1
					C369.7,303.6,361.8,290.7,351.7,291z"/>
				<g>
					<path class="st21" d="M326.4,334.7c-0.1-11-17.4-3.3-13.9,4.7c2.5,5.6,14.6,4.9,11.9-0.4c-4.6-9.2-10.8,2-4.9,1.5
						c0.8-0.1-1.8-1.5-1.6-2.4c0.7-3.2,7,0.5,5.4,3.2c-1.5,2.4-9.2,1.5-10.2-2c-1.9-6.7,12.5-13.6,12.5-5.1
						C325.6,334.3,326.4,335.1,326.4,334.7L326.4,334.7z"/>
				</g>
				<g>
					<path class="st21" d="M242.2,334.7c0.1-11,17.4-3.3,13.9,4.7c-2.5,5.6-14.6,4.9-11.9-0.4c4.6-9.2,10.8,2,4.9,1.5
						c-0.8-0.1,1.8-1.5,1.6-2.4c-0.7-3.2-7,0.5-5.4,3.2c1.5,2.4,9.2,1.5,10.2-2c1.9-6.7-12.5-13.6-12.5-5.1
						C243,334.3,242.2,335.1,242.2,334.7L242.2,334.7z"/>
				</g>
				<g>
					<path class="st21" d="M355.2,297.9c-7.7-7.9-14.8,9.7-6.8,13c5.6,2.3,13.9-6.6,8.3-8.5c-9.7-3.4-6.4,8.9-2.5,4.4
						c0.6-0.6-2.4,0.1-2.8-0.6c-1.7-2.8,5.4-4.5,6-1.4c0.6,2.8-5.6,7.4-8.7,5.6c-6-3.5-0.5-18.4,5.5-12.4
						C354.3,298.2,355.5,298.2,355.2,297.9L355.2,297.9z"/>
				</g>
				<path class="st13" d="M342.6,295c3-2.8,6.1-4,9.1-4.1l0,0c-95.8,2.4-75.1,1.4-136.6,9.5l0,0c2.9-0.4,6.3,0.3,9.6,2.6
					c11.3,7.7,6,21.3-3.6,23l0,0l25-4.5l-6.2,5.6l0,0c2.2-2,5.3-3.3,9.4-3.4c13.6-0.2,17.1,14,10.2,21l0,0l24.8-24.9l24.8,24.9l0,0
					c-6.9-7-3.4-21.1,10.2-21c4.1,0.1,7.2,1.4,9.4,3.4l0,0L317,316.5l32.8,0.7l0,0C339.9,317,332.6,304.4,342.6,295z"/>
				<g>
					<path class="st21" d="M212.7,307.8c6.4-9,16.1,7.3,8.7,11.8c-5.2,3.1-14.7-4.3-9.5-7.1c9-4.8,7.7,7.8,3.2,4
						c-0.6-0.6,2.4-0.2,2.7-1.1c1.2-3-6.1-3.6-6.2-0.5c-0.1,2.8,6.7,6.5,9.5,4.2c5.4-4.4-2.4-18.3-7.3-11.4
						C213.6,308,212.5,308.2,212.7,307.8L212.7,307.8z"/>
				</g>
			</g>
			<g>
				<path class="st16" d="M240,273.1c6.4,3.6,14.1,14.8,22.1,16.7c0.5,0.1,0.8-0.3,0.6-0.8c-4.2-8-34-32.9-15.4-65.5
					c0.2-0.4,0.9-0.3,1,0.2c6,32.1,13.8,16.4,21,41.3c0.2,0.6,1.1,0.4,1-0.2c-1.2-23.3-16.1-81.4,12.7-91.8c0.5-0.2,0.9,0.4,0.6,0.8
					c-13.3,14.8,27.8,43.6,13.6,86c-0.1,0.4,0.3,0.9,0.7,0.7c6.1-3.1,12.7-20.1,12.6-27.4c0-0.5,0.5-0.7,0.9-0.4
					c5.8,5.2,7.9,17.8,8.2,25.5c3.7,90.4-80.4,57.4-80.4,15.5C239.2,273.2,239.6,272.9,240,273.1z"/>
				<path class="st22" d="M262,289.9c3.4,1.9,7.5,8,11.7,8.6c-0.9-3.3-17-15.8-8.8-32.4c0.1-0.2,0.4-0.1,0.3,0.1
					c-0.1,1.7,0.8,3.6,2.1,4.9c6.7,6.5,7.1-0.1,10.1,16.8c0.5-10.3-9-43.2,6.4-48.9c0.3-0.1,0.5,0.2,0.3,0.5
					c-6.8,7.7,14.7,21.9,6.8,44.3c3.2-0.7,7-10.2,7-14.1c0-0.2,0.3-0.4,0.5-0.2c3,2.7,4,9.1,4.2,13c1.9,46-40.9,29.2-41,7.9
					C261.6,289.9,261.9,289.8,262,289.9z"/>
				<path class="st23" d="M274.3,301.1c0-0.2,0.2-0.3,0.3-0.2c1.3,0.8,2.8,3,4.3,3.2c-0.3-1.2-6.1-5.7-3.7-11.7
					c0.1-0.2,0.3-0.2,0.4,0c0.4,1.2,2.4,2.2,3.3,2.9c0.8,0.6,1.2,3.5,1.4,4.7c0.2-3.7-3.3-15.9,2-18.5c0.2-0.1,0.4,0.1,0.3,0.3
					c-1.8,2.9,5.4,8.1,3,16c-0.1,0.2,0.2,0.4,0.3,0.2c1.7-1.8,3.5-9.2,3.9-0.2C290.6,315.3,274.6,309.1,274.3,301.1z"/>
			</g>
		</g>
	</g>
	<g>
		<path class="st24" d="M175,214.2c0.2-0.4,0.1-0.8,0.1-1c-0.1-3.5,0-7.1,0.5-10.6c0.1-0.9,0.3-1.7,0.6-2.6c0.8-2.4,2.9-3.3,5.2-2.2
			c1.1,0.5,2,1.3,2.7,2.3c1.2,1.5,2.1,3.3,3,5c0.1,0.3,0.2,0.6,0.5,0.9c0.2-0.3,0.1-0.6,0.1-0.8c0-4.6,0.4-9.3,1.6-13.8
			c0.2-0.9,0.5-1.7,0.9-2.5c1.1-2,3.1-2.5,5-1.1c1.1,0.8,1.9,1.9,2.4,3.1c0.9,1.9,1.4,4,1.8,6c1.1,4.9,2.1,9.8,2.9,14.7
			c0,0.2,0.1,0.5,0.2,0.7c0.2-0.2,0.1-0.4,0.1-0.6c0-4.6-0.1-9.2-0.1-13.8c0-0.5-0.1-1-0.3-1.5c-1-2.6-1.9-5.2-2.4-7.9
			c-0.2-1.3-0.4-2.5-0.1-3.8c0.1-0.6,0.3-1.2,0.7-1.7c0.7-0.9,1.8-1.1,2.7-0.4c0.5,0.4,0.9,0.8,1.3,1.3c0.7,0.9,1.2,1.9,1.7,2.9
			c1.5,3.1,2.8,6.4,4.2,9.5c0.5,1.2,1,2.3,1.5,3.5c0.3-0.1,0.2-0.3,0.2-0.5c0-4.2,0.5-8.3,1.1-12.5c0.1-0.8,0.3-1.6,0.5-2.4
			c0.9-3.2,3.7-4.3,6.5-2.5c1.2,0.7,2,1.8,2.7,2.9c1.1,1.8,2,3.7,2.8,5.6c2.3,5.2,4.4,10.5,6.2,15.9c0.4,1.3,1,2.6,1.6,3.9
			c0.1,0.3,0.2,0.6,0.5,0.8c0.2-0.4,0.4-0.8,0.6-1.2c0.6-1.3,1.3-2.5,2.2-3.6c0.3-0.3,0.5-0.7,0.9-0.9c0.6-0.3,1.1,0.1,1.1,0.7
			c0,0.3-0.1,0.6-0.2,0.9c-0.4,1.2-0.9,2.3-1.4,3.5c-0.4,0.9-0.8,1.9-1.3,2.8c-0.2,0.5-0.2,0.9,0.2,1.2c0.4,0.4,0.7,0.8,1.2,1
			c0.3-0.2,0.3-0.6,0.5-0.9c0.4-1,0.8-2.1,1.3-3.1c0.4-0.7,0.8-1.3,1.3-1.8c0.3-0.2,0.6-0.4,0.9-0.2c0.3,0.2,0.4,0.5,0.3,0.9
			c-0.2,0.6-0.3,1.2-0.5,1.8c-0.4,1-0.8,2.1-1.2,3.1c-0.1,0.3-0.3,0.5-0.2,0.9c1.3,0,2.3-0.6,3.1-1.5c0.7-0.7,1.2-1.6,1.6-2.5
			c1.1-2.2,1.7-4.6,2.2-7.1c0.7-3.3,0.9-6.6,0.7-10c-0.2-4.4-1.4-8.5-3.7-12.3c-0.7-1.2-1.5-2.2-2.6-3.1c-0.8-0.6-1.7-1.1-2.7-1.3
			c-0.8-0.2-1.4,0-2,0.6c-1.6,1.7-2.1,4.8-1.1,6.8c0.2,0.4,0.5,0.8,0.9,1c0.5,0.2,0.7,0,0.7-0.5c0-0.2-0.1-0.5,0-0.7
			c0.1-0.8,0.6-1.3,1.3-1.3c0.7,0.1,1.1,0.7,1,1.5c-0.3,2.4-3,3.6-5,2.3c-1.4-0.9-2.1-2.3-2.3-3.9c-0.4-2.8,0.5-5.1,2.6-7
			c1.4-1.3,3.1-1.6,4.9-0.9c1.6,0.6,2.8,1.5,3.9,2.7c2.2,2.4,3.6,5.3,4.4,8.4c0.8,3,1.1,6.1,1.3,9.1c0.1,2.2-0.2,4.3-0.6,6.4
			c-0.4,2.4-0.8,4.7-1.5,7.1c-0.5,1.8-1.3,3.5-2.4,5c-1.2,1.8-2.8,2.9-5,3.3c-0.6,0.1-0.8,0.3-1,0.9c-0.2,0.9-0.6,1.7-1,2.6
			c-0.1,0.1-0.1,0.3-0.2,0.4c-0.4,0.6-0.8,0.8-1.2,0.7c-0.5-0.1-0.7-0.5-0.6-1.3c0.1-0.7,0.3-1.4,0.4-2.1c0.1-0.4,0.5-0.8,0.3-1.1
			c-0.2-0.3-0.7-0.3-1.1-0.4c-0.3-0.1-0.7-0.3-1-0.4c-0.3,0.4-0.5,0.9-0.6,1.4c-0.4,1.1-1,2.1-1.8,3.1c-0.4,0.5-0.8,0.7-1.2,0.5
			c-0.4-0.2-0.6-0.5-0.5-1.2c0.1-1.3,0.6-2.5,1.1-3.7c0.2-0.5,0.7-1.1,0.6-1.6c-0.1-0.5-0.7-0.8-1.1-1.2c-4-3.9-7-8.5-9-13.7
			c-1.7-4.4-3.4-8.7-5.1-13.1c-0.2-0.4-0.3-0.8-0.6-1.4c-0.3,0.4-0.4,0.7-0.5,1.1c-0.6,2-0.9,4.1-1.1,6.2c-0.3,3-0.3,6,0,9
			c0.2,2.6,0.6,5.3,1.4,7.8c0.3,0.9,0.5,1.9,0.7,2.8c0.1,0.3,0.1,0.5,0.1,0.8c0.1,1.4-1.1,2.4-2.4,2c-0.6-0.1-1-0.4-1.4-0.8
			c-0.7-0.7-1.4-1.5-2-2.3c-2.2-3-4.1-6.1-5.5-9.5c-0.1-0.3-0.2-0.5-0.4-0.7c0,0-0.1-0.1-0.2-0.1c0,0.5,0,0.9,0,1.4
			c0.1,2.3,0.1,4.7,0.2,7c0.1,2.5,0.2,5.1,0.1,7.6c0,0.4-0.1,0.8-0.2,1.2c-0.4,1.5-1.7,2.1-3.1,1.5c-0.7-0.3-1.3-0.9-1.8-1.5
			c-1.8-2.1-3.1-4.5-4.2-7c-1.6-3.5-2.4-7.1-3.1-10.9c-0.5-2.9-1-5.8-1.3-8.8c0-0.3-0.1-0.5-0.2-0.8c-0.6,1.2-0.9,2.4-1.2,3.6
			c-0.8,3.7-1,7.4-0.8,11.2c0,0.3,0,0.6,0,0.9c0,1.2,0.2,2.3,0.7,3.4c1.2,3,2,6,2.3,9.2c0,0.4,0.1,0.7,0,1.1
			c-0.1,1.4-1.3,2.1-2.6,1.7c-0.6-0.2-1-0.6-1.4-1c-1.3-1.2-2.3-2.6-3.1-4.1c-1.7-2.9-2.9-5.9-4.2-9c-0.8-2.1-1.7-4.1-2.5-6.2
			c-0.1-0.2-0.1-0.4-0.3-0.5c-0.4,0.6-0.5,1.3-0.6,1.9c-0.7,3.2-0.8,6.4-0.6,9.6c0.1,1.8,0.2,3.7,0.4,5.5c0.1,1.2,0.6,2.3,0.8,3.5
			c0.2,1.2,0.5,2.3,0.8,3.5c0.1,0.4,0.2,0.9,0.2,1.4c0,1.5-1.3,2.2-2.6,1.5c-0.5-0.3-0.9-0.7-1.3-1.1c-2.1-2.4-4-5-5.5-7.8
			c-0.1-0.2-0.2-0.5-0.4-0.7c-0.1,0.2-0.1,0.5-0.1,0.7c0.1,3.2,0.2,6.5,0.3,9.7c0.1,2.1,0.2,4.2-0.1,6.3c-0.1,0.5-0.2,1-0.3,1.4
			c-0.5,1.4-1.7,1.9-3.1,1.3c-0.8-0.3-1.4-0.9-2-1.5c-2.5-2.6-4.6-5.4-6.2-8.6c-0.7-1.5-1.3-3-1.9-4.6c-0.1-0.3-0.2-0.6-0.4-0.8
			c-0.1,0.6,0,1.2,0,1.8c0.2,2.3,0.4,4.7,0.3,7c0,0.9-0.1,1.8-0.4,2.6c-0.6,1.9-2.1,2.8-4,2.2c-1.2-0.3-2.2-1-3.1-1.7
			c-1.6-1.3-3-2.8-4.3-4.4c-0.7-0.9-1.3-1.8-2-2.7c-0.1,0.3-0.1,0.6-0.1,0.8c0.4,3.4,0.8,6.8,1.2,10.2c0.2,1.8,0.4,3.6,0.1,5.5
			c-0.1,0.6-0.2,1.2-0.5,1.8c-0.6,1.2-1.7,1.6-2.9,1.2c-0.7-0.2-1.4-0.7-1.9-1.2c-1-0.9-1.9-2-2.7-3.1c-2.2-2.8-4.2-5.7-5.9-8.9
			c-0.1-0.2-0.2-0.3-0.3-0.5c0,0-0.1-0.1-0.2-0.1c0.2,1.5,0.4,3,0.6,4.5c0.4,3.3,0.7,6.5,0.6,9.8c0,0.5-0.1,1-0.2,1.5
			c-0.4,2-2,2.9-4,2.4c-1.2-0.3-2.1-1-2.9-1.8c-1.4-1.3-2.4-2.9-3.3-4.6c-1.6-3-2.5-6.1-3.3-9.4c-0.1-0.3-0.2-0.7-0.3-1.2
			c-0.2,0.4-0.2,0.7-0.2,1.1c0,3.4-0.1,6.7-0.1,10.1c0,1.9-0.1,3.8-0.5,5.6c-0.2,0.9-0.5,1.7-0.9,2.5c-0.9,1.4-2.2,1.9-3.8,1.5
			c-0.8-0.2-1.5-0.6-2.2-1c-1.5-1-2.8-2.1-4-3.4c-0.2-0.2-0.3-0.4-0.7-0.6c-0.1,0.7,0.1,1.3,0.2,2c0.4,3,0.9,6,1.3,9
			c0.2,1.4,0.3,2.9,0.3,4.4c0,0.5,0,0.9-0.1,1.4c-0.2,1.4-1.3,1.9-2.6,1.5c-0.8-0.3-1.4-0.8-2-1.3c-2.7-2.5-5.1-5.2-7.1-8.3
			c-2.5-3.8-4.1-7.9-5.5-12.2c-1.6-5.2-3.2-10.5-4.8-15.7c0-0.1-0.1-0.3-0.1-0.4c-0.1-0.4-0.3-0.5-0.7-0.3c-1,0.5-2,0.9-3,1.3
			c-0.4,0.2-0.5,0.4-0.4,0.8c0.4,2.8,0.8,5.7,1.1,8.5c0.7,4.9,1.2,9.8,1.5,14.7c0.2,4.5,0.3,9.1-0.1,13.6c-0.3,3.6-0.9,7.2-2.2,10.6
			c-0.8,2-1.8,3.8-3.3,5.3c-2.4,2.3-5.3,2.9-8.3,1.5c-2.3-1-4.1-2.7-5.6-4.7c-1.8-2.5-2.9-5.2-3.2-8.3c-0.1-0.5-0.2-0.9-0.5-1.2
			c-2.5-3.1-3.8-6.7-4.3-10.6c-0.8-6.5,1.2-12.2,4.9-17.4c2.6-3.7,6-6.7,9.7-9.4c2.4-1.7,4.8-3.3,7.4-4.7c0.7-0.4,0.7-0.4,0.6-1.1
			c-0.7-5.7-1.5-11.4-2.2-17c-0.3-2-0.4-4.1-0.5-6.1c0-0.6,0-1.2,0.1-1.7c0.2-2.3,2.1-3.5,4.3-2.7c0.8,0.3,1.5,0.8,2.1,1.3
			c1,0.9,1.7,2.1,2.4,3.3c1.4,2.5,2.4,5.2,3.3,7.9c1.2,3.4,2.2,6.8,3.3,10.2c0.2,0.8,0.3,0.8,1.1,0.6c2.1-0.4,4.1-0.7,6.3-0.7
			c1.6,0,3.1,0.2,4.6,0.7c0.6,0.2,1.1,0.4,1.5,0.8c0.3,0.3,0.5,0.5,0.5,0.9c0.1,0.7-0.4,1.1-1,0.9c-1.4-0.4-2.9-0.6-4.3-0.7
			c-2.4-0.2-4.7,0.1-7.1,0.5c-0.5,0.1-0.5,0.2-0.3,0.8c2.2,7,4.1,14.1,6.5,21c1.3,3.7,2.4,7.6,3.8,11.3c0.5,1.4,1.1,2.8,1.8,4.1
			c0.1,0.3,0.2,0.6,0.5,0.8c0.3-0.4,0.2-0.9,0.1-1.3c-0.1-1.4-0.2-2.7-0.4-4.1c-0.6-4.1-1.2-8.2-1.8-12.3c-0.1-0.6-0.3-1-0.5-1.5
			c-1.6-3-2.7-6.1-3.1-9.5c-0.1-0.9-0.1-1.8,0.1-2.7c0.3-1.3,1-2.3,2.4-2.5c1.4-0.3,2.4,0.4,3.2,1.5c0.4,0.7,0.7,1.4,1,2.2
			c1.4,4.2,3.1,8.3,4.9,12.3c0.6,1.4,1.3,2.8,2.2,4.1c0.7,0.9,1,0.9,1.5-0.1c0.4-0.9,0.6-2,0.8-3c0.2-1.7,0.3-3.3,0.3-5
			c0.1-4.5,0.1-9,0.4-13.4c0.2-2.6,0.3-5.2,0.4-7.9c0.1-1.8,1.7-2.8,3.4-2c0.7,0.3,1.2,0.9,1.7,1.5c0.8,1.2,1.3,2.5,1.7,3.8
			c0.9,3,1.5,6,2.2,9.1c0.9,3.7,1.7,7.5,2.6,11.2c0.1,0.6,0.3,1.2,0.6,1.8c0.1,0.3,0.2,0.6,0.5,0.7c0.3-0.6,0.3-1.3,0.3-2
			c0-2.1-0.2-4.2-0.4-6.3c-0.4-3.4-0.8-6.7-1.2-10.1c-0.2-1.5-0.4-2.9-0.6-4.4c0-0.3-0.2-0.7-0.3-1c-1.7-4.8-3.1-9.7-4.5-14.6
			c0-0.1-0.1-0.3-0.1-0.4c-0.2-0.6-0.2-0.6-0.7-0.3c-2.1,1-4.3,2-6.3,3.1c-1.2,0.7-2.5,1.2-3.9,1.5c-0.7,0.1-1.1,0-1.3-0.4
			c-0.2-0.4-0.1-0.9,0.4-1.3c0.3-0.3,0.6-0.5,0.9-0.7c2.1-1.5,4.4-2.7,6.8-3.8c0.8-0.4,1.6-0.8,2.4-1.2c0.8-0.4,0.8-0.3,0.6-1.2
			c-0.5-1.9-0.9-3.8-1.3-5.7c-0.4-2-0.6-4-0.5-6c0-0.5,0.1-0.9,0.3-1.3c0.5-1.5,1.8-1.9,3.1-1c0.5,0.3,0.9,0.8,1.2,1.2
			c1,1.2,1.6,2.6,2.2,4c0.7,1.7,1.2,3.4,1.8,5.2c0.1,0.3,0.1,0.5,0.3,0.8c0.3-0.1,0.6-0.3,0.9-0.5c1.2-0.7,2.5-1.3,3.7-2
			c0.7-0.4,1.5-0.7,2.3-0.9c0.6-0.1,1,0,1.3,0.4c0.3,0.4,0.2,0.9-0.1,1.4c-0.6,0.7-1.3,1.2-2.1,1.6c-1.5,0.8-3,1.7-4.5,2.5
			c-0.7,0.4-0.8,0.4-0.5,1.3c2.2,7.1,4.4,14.3,7,21.3c1.5,4.1,2.7,8.2,4.1,12.3c0.4,1.3,0.9,2.6,1.6,3.9c0.2,0.3,0.3,0.6,0.7,0.8
			c0.2-0.6,0.3-1.1,0.3-1.7c0-1.9-0.2-3.8-0.4-5.7c-0.4-3.9-0.8-7.8-1.2-11.7c-0.1-0.7-0.2-1.5-0.2-2.2c-0.1-0.7-0.2-1.3-0.5-1.9
			c-1.6-4.1-2.9-8.3-3.8-12.6c-0.3-1.6-0.5-3.3-0.1-4.9c0.1-0.5,0.3-1,0.7-1.5c0.7-0.8,1.5-1,2.5-0.5c0.6,0.3,1,0.8,1.4,1.3
			c0.7,0.9,1.3,1.9,1.7,3c1.1,2.4,1.9,5,2.8,7.5c2,5.6,4.5,11.1,7,16.6c0.3,0.7,0.7,1.4,1.1,2.1c0.2,0.3,0.4,0.6,0.8,0.9
			c0.3-0.7,0.4-1.3,0.5-2c0.2-2.3,0-4.6-0.1-6.9c-0.2-3.3-0.4-6.6-0.6-10c-0.1-0.8-0.2-1.6-0.4-2.3c-0.3-1.5-0.3-3.1-0.2-4.7
			c0.1-1.7,1.7-2.5,3.2-1.7c0.5,0.3,1,0.7,1.4,1.2c0.9,1.1,1.6,2.3,2.2,3.6c1.3,3,2.3,6.1,3.5,9.1c1.5,3.8,2.6,7.8,3.7,11.8
			c0.2,0.9,0.5,1.8,1,2.6c0-0.3,0.1-0.6,0-0.9c0-6.2-0.1-12.3-0.1-18.5c0-0.5-0.1-0.9-0.3-1.3c-0.9-2.5-1.8-5.1-2.4-7.7
			c-0.3-1.3-0.4-2.6-0.3-3.9c0.1-0.6,0.2-1.2,0.5-1.8c0.7-1.5,2.3-1.8,3.6-0.8c0.7,0.6,1.2,1.3,1.6,2.1c0.7,1.3,1.3,2.6,1.8,3.9
			c1,2.4,2,4.7,2.9,7.1C174.7,213.5,174.8,213.8,175,214.2z M62.3,277.3c0.8,2.4,1.8,4.5,3.4,6.2c0.9,1.1,2,1.9,3.3,2.5
			c2,0.9,3.9,0.6,5.6-0.9c0.7-0.6,1.3-1.4,1.8-2.3c0.8-1.3,1.3-2.7,1.7-4.1c1.1-3.9,1.4-7.9,1.6-11.9c0.2-4.4,0-8.8-0.3-13.2
			c-0.5-6.2-1.3-12.4-2.1-18.5c0-0.3-0.1-0.6-0.2-0.9c-0.3,0-0.4,0.1-0.6,0.2c-2.9,1.7-5.7,3.6-8.3,5.8c-3.2,2.8-6,6-7.8,9.9
			c-2.5,5.3-2.8,10.8-0.5,16.3c0.1,0.3,0.2,0.6,0.5,0.8c0.3-0.2,0.4-0.5,0.5-0.7c1.4-2,3.2-3.6,5.6-4.4c4.1-1.5,8.6,0.8,9.5,5.1
			c0.7,3.4-0.1,6.6-2.5,9.1c-1.9,2-4.3,2.7-7.1,2.4C65.1,278.5,63.8,278,62.3,277.3z M74.1,269.2c0-4.1-3.8-5.9-6.4-5.1
			c-2.8,0.9-4.5,2.9-5.4,5.6c-0.1,0.4,0,0.6,0.2,0.9c0.5,0.6,1,1.2,1.6,1.8c1.1,1,2.3,1.9,3.8,2.3c2.1,0.6,4.1-0.2,5.3-2
			C73.7,271.7,74.1,270.5,74.1,269.2z M78.6,230.4c1.1-0.5,2.1-0.9,3-1.3c0.6-0.2,0.6-0.3,0.4-0.9c-1.6-5.4-3.2-10.8-5.1-16.1
			c-0.1-0.3-0.1-0.6-0.5-0.8C76.8,217.8,77.8,224,78.6,230.4z"/>
		<path class="st24" d="M208.1,126.1c-0.3,0-0.6,0.2-0.9,0.3c-1.1,0.6-2.3,1.2-3.4,1.8c-0.8,0.4-1.5,0.8-2.4,1
			c-0.3,0.1-0.7,0.1-1,0.1c-0.4,0-0.8-0.1-1-0.5c-0.2-0.4-0.1-0.8,0.2-1.1c0.4-0.4,0.8-0.7,1.3-1c1.5-1,3.1-1.8,4.7-2.6
			c0.5-0.3,1.2-0.3,1.4-0.8c0.2-0.5-0.2-1-0.4-1.5c-1-3.1-1.9-6.2-2.4-9.5c-0.2-1.3-0.3-2.6,0.1-3.9c0.1-0.5,0.3-0.9,0.6-1.3
			c0.7-0.9,1.8-1.2,2.9-0.6c0.7,0.4,1.2,1,1.6,1.6c0.7,1,1.2,2,1.7,3.1c1,2.5,1.8,5.1,2.7,7.7c0.1,0.3,0.2,0.6,0.3,0.9
			c0.8-0.4,1.6-0.8,2.3-1.2c2.1-1.2,4.2-2.4,6.4-3.5c0.7-0.3,1.1-0.3,1.4,0.1c0.3,0.4,0.3,1-0.1,1.5c-0.3,0.4-0.8,0.7-1.2,1
			c-2.1,1.5-4.3,2.8-6.5,4c-0.1,0.1-0.3,0.1-0.4,0.2c-1.2,0.7-1,0.4-0.6,1.6c2.1,6.1,4.3,12.2,6.8,18.3c1.3,3.1,2.3,6.4,3.6,9.5
			c0.7,1.7,1.4,3.4,2.5,4.9c0.5,0.6,0.9,1.2,1.6,1.6c0.5,0.3,0.6,0.3,0.8-0.2c0.2-0.5,0.3-1.1,0.3-1.7c0.1-2-0.1-3.9-0.2-5.8
			c-0.3-2.8-0.5-5.6-0.7-8.5c0-0.3,0-0.6,0-0.8c0.2-0.7,0.8-0.8,1.3-0.4c0.3,0.3,0.4,0.7,0.5,1.1c0.8,2.9,1.2,5.8,1.4,8.8
			c0.1,1.9,0.2,3.8-0.1,5.7c-0.1,1-0.4,2-0.8,3c-0.6,1.4-1.7,1.9-3.2,1.5c-2-0.5-3.7-1.5-5.3-2.8c-2.2-1.9-3.9-4.2-5.4-6.6
			c-1.5-2.3-2.8-4.7-3.9-7.1c-0.1-0.2-0.2-0.3-0.3-0.5c-0.2,0.2-0.2,0.5-0.2,0.7c0,3.6-0.1,7.1-0.1,10.7c0,3.6-0.3,7.2-0.8,10.8
			c-0.2,1.8-0.9,3.5-1.7,5.1c-1.6,3-4.2,4.1-7.4,3.6c-4.4-0.7-7.8-3-10.5-6.4c-0.8-1.1-1.5-2.2-2.3-3.5c-0.1,0.4-0.1,0.7-0.1,1
			c0.2,2.8,0.4,5.5,0.3,8.3c-0.1,1.3-0.2,2.6-0.5,3.9c-0.8,2.9-3,4.2-5.9,3.8c-1.9-0.3-3.6-1.1-5.2-2.1c-1.9-1.2-3.5-2.8-4.8-4.6
			c-2.7-3.8-4.8-7.9-6.6-12.2c-0.2-0.4-0.3-0.9-0.6-1.3c-2.7,2.1-5.5,4.1-8.7,5.7c0.8,0.4,1.6,0.8,2.3,1.3c4.9,2.8,7.8,7.1,9,12.6
			c0.3,1.6,0.6,3.3,0.4,5c0,0.5-0.1,0.9-0.2,1.3c-0.8,2.9-3.1,4.2-6.1,3.4c-1.1-0.3-2-0.8-2.9-1.4c-3.9-2.7-7.1-6-9.6-10
			c-0.4-0.7-0.8-1.4-1.4-2.1c0.1,1.5,0.1,3,0.2,4.4c0.1,2.8,0.3,5.7,0,8.5c-0.1,1-0.3,1.9-0.7,2.8c-0.8,1.7-2.2,2.3-4,1.6
			c-2-0.8-3.6-2.1-5-3.7c-1.3-1.6-2.1-3.4-2.8-5.3c-1.4-4.1-2.3-8.3-3.1-12.6c-0.9-4.6-1.5-9.3-2.6-13.9c-0.2-1.1-0.5-2.2-0.8-3.3
			c-0.1-0.5-0.3-0.6-0.8-0.5c-0.9,0.2-1.8,0.5-2.7,0.9c-0.1,0.3,0,0.5,0.1,0.6c2.1,5.1,3.1,10.4,3,15.9c-0.1,2.7-0.5,5.5-1.5,8.1
			c-0.9,2.5-2.3,4.5-4.7,5.9c-4.5,2.5-11.6,2.5-15.8-3.1c-2-2.6-3.1-5.6-3.6-8.8c-0.5-2.8-0.5-5.6,0.3-8.3c0.4-1.4,1-2.6,2-3.6
			c1.7-1.7,3.8-2,5.9-0.8c3.1,1.7,4.9,5.3,4.4,8.9c-0.3,2.6-1.5,4.7-3.2,6.5c-0.7,0.8-0.7,0.8-0.1,1.6c1.3,1.9,2.9,3.3,5.2,4
			c2.7,0.8,4.9,0,6.5-2.3c0.4-0.6,0.8-1.3,1.1-2c0.6-1.5,0.9-3.1,1.1-4.7c0.4-4.7-0.1-9.3-1.4-13.7c-0.3-1-0.7-1.9-1.1-2.9
			c-0.2-0.4-0.3-0.5-0.8-0.3c-1.7,0.5-3.4,0.8-5.1,0.4c-2.6-0.5-4.8-1.7-6.4-3.8c-1.4-1.9-1.3-4.3,0.2-6c1.1-1.2,2.5-1.7,4.1-1.3
			c1.1,0.3,2,0.8,2.8,1.4c2.2,1.6,4,3.6,5.5,6c0.4,0.7,0.4,0.7,1.2,0.3c1.2-0.6,2.4-1.2,3.4-2.1c2.4-1.9,4.6-0.9,6,0.6
			c0.8,0.9,1.3,2,1.8,3.1c1,2.5,1.5,5.2,2,7.9c1,5.4,1.9,10.8,3.3,16.1c0.6,2.4,1.5,4.7,2.1,7.1c0.3,1.1,0.5,2.2,0.8,3.3
			c0.1,0.3,0.1,0.6,0.4,0.9c0.3-0.7,0.4-1.5,0.5-2.2c0.2-3.1,0.2-6.3,0.2-9.4c0-2.1-0.1-4.1-0.2-6.2c0-0.4-0.1-0.8-0.3-1.2
			c-2.5-5.6-4.2-11.4-5.2-17.5c-0.6-3.6-0.9-7.1-0.4-10.7c0.4-3.4,1.7-6.6,4.2-9c1.4-1.4,3.1-2.2,5.2-2.3c2.3-0.1,4,0.9,5.2,2.8
			c1,1.5,1.4,3.2,1.5,4.9c0.1,2.7-0.4,5.2-1.2,7.7c-1.3,4.1-2.8,8.2-4.9,12c-0.2,0.4-0.2,0.7-0.1,1.1c0.4,1.3,0.9,2.7,1.3,4
			c0.2,0.7,0.3,0.7,1,0.5c3.2-0.6,6.1-2,8.7-3.9c1-0.8,1.9-1.6,2.9-2.4c0.4-0.3,0.5-0.6,0.3-1.2c-0.8-2.3-1.3-4.6-1.7-7
			c-0.5-3.2-0.7-6.4,0.1-9.6c0.5-2.1,1.5-3.9,3.1-5.3c0.5-0.5,1.1-0.9,1.8-1.2c1.8-0.8,3.5-0.5,4.9,0.8c2.1,1.8,3.4,4.2,3.9,6.9
			c1,5-0.5,9.3-4.1,12.8c-0.4,0.4-0.5,0.7-0.3,1.3c1.9,5.2,4.2,10.1,7.5,14.5c1.2,1.6,2.3,3.3,3.6,4.8c0.4,0.5,0.8,0.9,1.2,1.3
			c0.6,0.6,1,0.6,1.4-0.3c0.2-0.4,0.3-0.7,0.4-1.1c0.4-1.4,0.4-2.8,0.4-4.2c0.1-2.7-0.1-5.5-0.2-8.2c-0.1-1.3-0.2-2.7-0.2-4
			c0-0.6-0.1-1.1-0.3-1.6c-1.2-3.4-1.9-6.9-2.2-10.4c-0.2-2.3-0.2-4.5,0.3-6.7c0.4-1.9,1.2-3.6,2.4-5.1c1.9-2.3,5.1-3.6,8.4-2.4
			c3.9,1.4,6.4,4.2,7.9,8c0,0.1,0.1,0.2,0.1,0.3c0,0.1,0,0.2,0.1,0.4c0,0.4-0.1,0.7-0.5,0.9c-0.4,0.1-0.7,0-0.9-0.3
			c-0.2-0.3-0.4-0.6-0.6-0.9c-1.4-1.8-3.2-3.1-5.2-4c-0.6-0.3-1.2-0.4-1.8-0.5c-0.9-0.1-1.5,0.2-2,0.9c-0.6,0.9-0.7,1.9-0.7,3
			c-0.1,2,0.1,4,0.3,5.9c0.6,4.3,1.7,8.4,3.6,12.3c1.8,3.5,4.2,6.6,7,9.3c0.5,0.5,1.1,0.9,1.8,1.3c1,0.6,1.7,0.4,2.4-0.5
			c0.8-1,1.3-2.3,1.6-3.5c0.5-1.7,0.7-3.5,0.9-5.3c0.3-3.3,0.6-6.6,0.7-9.8c0.2-4,0.3-7.9,0.4-11.9c0-0.3,0-0.6-0.1-0.9
			c-1.4-3.7-2.6-7.4-3.9-11.1C208.2,126.3,208.2,126.2,208.1,126.1z M151.5,156.2c0.1-0.1,0.2-0.2,0.2-0.2c2-3.6,3.5-7.3,4.3-11.3
			c0.4-1.9,0.6-3.8,0.3-5.8c-0.2-0.9-0.4-1.7-0.9-2.5c-1-1.5-2.5-1.7-3.8-0.5c-0.6,0.5-1,1.2-1.3,2c-0.4,1.1-0.5,2.3-0.6,3.5
			c0,4.4,0.5,8.7,1.4,13C151.2,154.9,151.2,155.5,151.5,156.2z M155.7,168.6c0,0.4,0.2,0.7,0.3,1c1.2,2.8,2.9,5.4,4.3,8
			c1.3,2.4,2.7,4.8,4,7.2c0.4,0.7,0.9,1.4,1.5,1.9c0.5,0.4,1,0.9,1.6,0.6c0.7-0.2,0.7-0.9,0.8-1.5c0.1-0.9,0.1-1.8,0-2.7
			c-0.9-6.2-4.1-10.9-9.8-13.7C157.7,169,156.8,168.7,155.7,168.6z M173.6,152.9c0.5-0.2,0.7-0.5,0.9-0.8c2.1-2.4,2.8-5.3,2.5-8.4
			c-0.2-1.7-0.7-3.2-1.8-4.5c-0.4-0.5-0.8-1-1.4-1.3c-0.6-0.4-0.9-0.3-1.1,0.4c-0.2,0.6-0.2,1.3-0.3,1.9
			C171.9,144.4,172.4,148.6,173.6,152.9z M113.5,175.3c0.7-0.5,1.2-1.1,1.6-1.8c1.1-1.5,1.7-3.2,1.5-5c-0.1-2.1-1-3.8-3-4.8
			c-1.3-0.6-2.2-0.2-2.6,1.2c-0.3,0.9-0.3,1.9-0.2,2.8c0.3,2.4,1,4.7,2.1,6.9C113.2,174.8,113.2,175.1,113.5,175.3z M125.4,154.7
			c0-0.1-0.1-0.2-0.1-0.3c-1.4-2.3-3.3-4.1-5.5-5.6c-0.5-0.3-1.1-0.6-1.7-0.7c-0.5-0.1-0.9,0-1.3,0.3c-0.7,0.6-1,1.3-0.8,2.2
			c0.1,0.8,0.5,1.4,1,2C119,154.9,122.1,155.8,125.4,154.7z"/>
		<path class="st24" d="M172.5,253.6c-0.2-1.2-0.4-2.5-0.6-3.7c-0.1-0.8-0.2-1.6-0.1-2.5c0-0.5,0.2-1,0.4-1.4c0.6-1.3,2-1.9,3.4-1.5
			c1,0.3,1.6,0.9,2.2,1.7c0.6,0.8,0.9,1.7,1.2,2.6c1,3.1,1.7,6.3,2.5,9.4c1.6,6.2,3.4,12.3,6,18.2c0.8,1.9,1.3,3.9,2.1,5.9
			c0.2,0.5,0.3,1,0.7,1.5c0.4-0.8,0.4-1.5,0.4-2.3c0-1.4-0.1-2.8-0.4-4.2c-1-6.7-2-13.5-3.1-20.2c-0.1-0.5-0.3-1-0.6-1.4
			c-2.8-4.3-4.7-9-5.7-14.1c-0.3-1.5-0.4-3-0.1-4.4c0.2-0.7,0.4-1.3,0.8-1.8c1-1.2,2.5-1.3,3.7-0.3c0.7,0.6,1.1,1.3,1.5,2.2
			c0.6,1.3,1,2.7,1.5,4c1.3,3.7,2.9,7.3,5.1,10.7c0.9,1.5,1.7,3,2.6,4.5c0.4,0.6,0.8,1.2,1.2,1.8c0.2,0.4,0.5,0.7,0.9,0.9
			c0.7,0.5,1.1,0.4,1.7-0.2c0.4-0.5,0.6-1,0.9-1.6c0.6-1.6,0.8-3.3,0.9-5c0.2-3,0-6-0.1-9.1c-0.1-2.5-0.2-4.9-0.4-7.4
			c0-0.5-0.1-0.9-0.3-1.3c-0.3-0.6-0.5-1.3-0.6-1.9c-0.4-2.2,1.6-4,3.8-3.5c0.9,0.2,1.6,0.7,2.3,1.3c0.8,0.8,1.4,1.6,1.9,2.5
			c2.2,3.7,3.9,7.5,5.5,11.5c0.7,1.7,1.3,3.3,1.9,5c0.1,0.1,0.2,0.1,0.3,0c2.6-2.5,4.6-5.3,5.5-8.9c0.4-1.4,0.6-2.7,0.5-4.2
			c-0.1-1.1-0.5-2.1-1.5-2.7c-0.5-0.3-0.9-0.4-1.4,0c-0.1,0.1-0.2,0.2-0.4,0.3c-0.6,0.4-1.2,0.3-1.6-0.1c-0.4-0.5-0.4-1.2,0.1-1.7
			c0.7-0.7,1.6-1.2,2.7-1.1c1,0.1,1.8,0.5,2.5,1.1c1.2,1.1,1.8,2.5,1.9,4.1c0.2,2-0.1,3.9-0.9,5.7c-1.5,3.5-3.6,6.5-6.3,9.1
			c-0.5,0.5-0.6,0.9-0.4,1.6c1.1,3.3,1.9,6.6,2.2,10.1c0.4,5,0.5,9.9-0.7,14.8c-0.5,2.2-1.3,4.3-2.8,6.1c-0.8,1-1.7,1.9-2.9,2.5
			c-1.9,1.1-3.8,1.2-5.8,0.4c-1.6-0.7-2.9-1.8-3.9-3.3c-2.4-3.9-3.1-8-1.5-12.3c0.1-0.3,0.3-0.7,0.1-1.1c-0.8-3-0.1-5.7,1.6-8.3
			c1.5-2.1,3.2-4.1,5.2-5.8c0.9-0.8,0.9-0.8,0.5-1.9c-1.4-4.2-3.1-8.3-4.9-12.4c-0.1-0.2-0.1-0.5-0.4-0.6c-0.2,0.4-0.1,0.8-0.1,1.1
			c0,3.1,0,6.2-0.1,9.3c0,2.1-0.2,4.1-0.6,6.2c-0.2,0.7-0.3,1.3-0.6,1.9c-1.1,2.8-3.3,3.9-6.2,3.1c-2.1-0.5-3.8-1.6-5.5-2.9
			c-0.2-0.2-0.4-0.5-0.8-0.5c0,1,0.3,2,0.4,3c0.9,5.1,1.9,10.3,2.6,15.4c0.3,2.1,0.5,4.2,0.1,6.4c-0.1,0.5-0.2,1-0.5,1.5
			c-0.7,1.5-1.9,2.1-3.5,1.6c-1.5-0.4-2.8-1.3-4-2.3c-2.2-1.9-3.9-4.1-5-6.8c-1.4-3.1-2.4-6.3-3.4-9.5c-0.1-0.3-0.1-0.6-0.4-0.9
			c0,0.8,0,1.4,0,2.1c0.2,3.1,0.4,6.3,0.3,9.4c0,0.9-0.2,1.8-0.5,2.6c-0.8,2.4-2.9,3.4-5.3,2.7c-0.9-0.3-1.7-0.7-2.5-1.3
			c-3.6-2.7-6.3-6-7.7-10.3c-1.3-3.9-2-7.8-1.6-11.9c0.2-2,0.7-4,1.8-5.7c1.1-1.8,2.7-3.1,4.7-3.6c2.3-0.6,4.3,0,6.3,1.2
			c0.3,0.2,0.6,0.4,0.9,0.6C172.4,253.6,172.4,253.6,172.5,253.6z M210,258.1c-0.9,0.8-1.6,1.5-2.3,2.2c-0.7,0.7-1.4,1.4-2,2.1
			c-0.7,0.9-1.4,1.9-1.9,3c-0.3,0.8-0.6,1.6-0.5,2.6c0.5-0.2,0.9-0.5,1.3-0.7c2-0.8,3.9-0.3,5.1,1.2c0.5,0.7,0.8,1.5,0.6,2.4
			c-0.5,2.6-3.4,4-5.9,2.9c-0.3-0.1-0.5-0.4-0.9-0.4c-0.3,1-0.3,2.1-0.2,3.1c0.1,2.1,0.8,4,2,5.6c1.8,2.3,4.4,2.3,6.1-0.1
			c0.8-1.2,1.3-2.5,1.6-3.9c0.4-1.9,0.4-3.7,0.2-5.6c-0.2-3-0.6-6.1-1.5-9C211.2,261.8,210.6,260.1,210,258.1z M173,280.6
			c0.4-0.4,0.5-0.9,0.6-1.5c0.2-1.2,0.3-2.4,0.3-3.6c0-3.2-0.1-6.3-0.2-9.5c-0.1-1.8-0.2-3.7-0.3-5.5c0-0.4,0-0.9-0.4-1.2
			c-1.1-0.8-2.2-1.4-3.5-1.7c-1.1-0.2-2,0.3-2.5,1.2c-0.3,0.5-0.4,1-0.5,1.6c-0.4,2-0.3,4,0.1,6c0.7,3.6,2,7,3.4,10.3
			c0.5,1.1,1.2,2.2,2,3.1C172.4,280.1,172.6,280.5,173,280.6z M206.5,270c-0.8,0-1.4,0.4-1.9,1c-0.2,0.2-0.1,0.4,0.1,0.6
			c0.7,0.6,1.8,0.6,2.6-0.1c0.3-0.2,0.5-0.4,0.5-0.8c-0.1-0.4-0.4-0.5-0.7-0.6C206.9,270,206.7,270,206.5,270z"/>
		<path class="st24" d="M134.1,291.5c-0.3-2.4-0.5-4.7-0.7-7c-0.5-7.8-0.1-15.5,1.9-23.1c0.4-1.4,0.8-2.8,1.6-4.1
			c0.8-1.4,2-2.4,3.6-2.7c1.2-0.2,2.4-0.1,3.5,0.4c1.8,0.7,3.2,2,4.5,3.4c2.3,2.5,4.1,5.4,5.7,8.4c3.8,7.3,6.9,14.8,8.7,22.8
			c0.7,3.1,0.9,6.3,0.8,9.4c-0.1,2.3-0.4,4.5-1.2,6.7c-0.6,1.7-1.5,3.3-2.8,4.6c-2.5,2.5-5.8,2.6-8.5,0.5c-0.9-0.7-1.7-1.5-2.3-2.5
			c-1.9-2.6-3.2-5.5-3.9-8.7c-0.2-1-0.2-2,0.1-3c0.3-0.8,0.7-1.5,1.7-1.6c0.9-0.2,1.7,0.2,2.2,0.9c0.4,0.4,0.6,0.9,0.7,1.5
			c0.1,0.5,0,0.9-0.5,1.2c-0.4,0.2-0.8,0.1-1.2-0.1c-0.2-0.1-0.3-0.3-0.5-0.4c-0.3,0.2-0.1,0.4-0.1,0.6c0.6,3.2,2.1,5.9,4.2,8.3
			c0.7,0.8,1.5,1.5,2.5,1.9c1.2,0.5,2.1,0.3,2.9-0.8c0.4-0.5,0.6-1.1,0.7-1.7c0.3-1.7,0.1-3.3-0.1-5c-0.5-3.4-1.5-6.7-2.3-10
			c-1.9-7.7-4.8-15.1-8.6-22.1c-1.2-2.3-2.7-4.4-4.3-6.3c-0.6-0.7-1.2-1.3-1.9-1.8c-0.6-0.4-0.7-0.4-1.2,0.1
			c-0.8,0.7-1.3,1.6-1.7,2.6c-0.9,2.1-1.4,4.3-1.8,6.5c-0.9,5-0.9,10.1-0.6,15.1c0.3,5.3,1.2,10.5,2.6,15.6c0.3,1.1,0.8,2.1,1.2,3.1
			c1.9,4.1,3.6,8.3,4.9,12.7c0.2,0.7,0.4,1.5,0.6,2.2c0.1,0.8-0.1,1.5-0.8,2c-0.7,0.5-1.5,0.5-2.2,0.1c-0.8-0.5-1.5-1.2-2.1-1.9
			c-2.1-2.5-4-5.1-5.6-8c-1.6-2.9-2.8-5.9-4-8.9c-3-7.3-5.7-14.6-7.9-22.2c-0.7-2.5-1.4-4.9-1.6-7.5c-0.1-0.9-0.1-1.9,0.2-2.8
			c0.1-0.4,0.3-0.8,0.6-1.1c0.8-0.9,1.8-1.1,2.9-0.6c0.6,0.3,1.1,0.8,1.6,1.4c0.7,0.9,1.1,1.9,1.5,2.9c1.2,3.1,2.1,6.2,3.3,9.3
			c1.1,2.9,2.1,5.8,3.2,8.8C133.7,290.8,133.8,291.1,134.1,291.5z"/>
		<path class="st24" d="M81.8,170.8c-0.1-1.2-0.1-2.4-0.2-3.6c-0.3-4.9-0.1-9.9,0.4-14.8c0.3-2.8,0.9-5.5,1.8-8.1
			c0.4-1.1,0.9-2.2,1.6-3.2c1.9-2.7,4.8-3.4,7.7-2c1.3,0.6,2.4,1.5,3.3,2.6c1.8,2,3.1,4.2,4.2,6.6c2.4,5.3,4,10.8,4.6,16.6
			c0.4,3.6,0.3,7.2-0.9,10.7c-1,3-2.6,5.5-4.8,7.7c-0.6,0.6-1.3,1.1-2.1,1.5c-1.8,1-3.6,0.8-5.2-0.4c-1.4-1-2.4-2.4-3.1-3.9
			c-0.9-1.7-1.5-3.4-1.9-5.3c-0.1-0.4-0.1-0.8,0-1.2c0.2-0.4,0.6-0.7,1-0.7c0.5,0.1,0.6,0.4,0.7,0.8c0.6,1.7,1.1,3.5,1.9,5.1
			c0.6,1.1,1.3,2,2.4,2.6c0.8,0.5,1.2,0.4,1.9-0.3c1.3-1.5,1.9-3.2,2.2-5.1c0.3-2.1,0.4-4.2,0.3-6.3c-0.1-3.1-0.3-6.2-1-9.3
			c-1.2-5-2.9-9.9-5.7-14.3c-0.6-0.9-1.2-1.7-2-2.5c-0.6-0.6-0.8-0.6-1.5-0.1c-0.8,0.6-1.4,1.5-1.9,2.4c-1,1.9-1.5,3.9-1.9,6
			c-0.9,4.9-0.9,9.8-0.6,14.8c0.2,3.9,0.7,7.8,1.5,11.6c0.1,0.6,0.3,1.1,0.5,1.7c1.4,3.8,3,7.4,4.5,11.2c1.5,3.8,2.5,7.8,3.7,11.7
			c0.2,0.6,0.3,1.2,0.1,1.8c-0.4,1.4-1.9,1.9-3,1.1c-0.4-0.3-0.7-0.7-1-1.1c-1-1.3-2-2.6-3-3.9c-2.4-3.3-4.2-6.9-5.8-10.7
			c-2.8-6.8-5.4-13.7-7.5-20.7c-0.6-2.2-1.2-4.4-1.5-6.6c-0.1-1.1-0.1-2.1-0.1-3.2c0-0.1,0-0.2,0-0.3c0.2-1,0.6-1.9,1.7-2.2
			c1.1-0.3,1.8,0.3,2.5,1c1.1,1.2,1.9,2.6,2.5,4.1c1,2.4,1.8,4.9,2.8,7.4c0.1,0.3,0.3,0.7,0.4,1C81.7,170.8,81.7,170.8,81.8,170.8z"
			/>
		<path class="st24" d="M138.9,106.9c-0.3,1.2-0.4,2.3-0.6,3.5c-0.5,3.5-1,7-2,10.4c-0.3,1-0.7,2.1-1.2,3.1
			c-1.3,2.8-3.6,4.1-6.6,4.2c-3.3,0.1-6.1-1.1-8.5-3.3c-1.9-1.8-3.4-3.9-4.6-6.1c-2.4-4.4-3.9-9.1-4.3-14.1
			c-0.5-5.4,0.3-10.6,2.9-15.4c1.3-2.3,2.9-4.4,4.9-6.1c4.7-4,11.3-3.9,16-0.9c3.5,2.2,5.8,5.5,7.1,9.4c0.1,0.4,0.2,0.8,0.2,1.2
			c0,0.6-0.2,1-0.6,1.1c-0.5,0.2-0.8-0.1-1.1-0.4c-0.3-0.5-0.6-0.9-0.8-1.4c-1.3-2.3-2.8-4.5-4.9-6.2c-1.7-1.3-3.6-2.2-5.8-2.5
			c-2.7-0.4-5.1,0.4-7,2.4c-1.9,2.1-3.1,4.5-3.7,7.2c-0.7,2.8-0.7,5.7-0.3,8.5c0.8,6.6,3.1,12.6,6.8,18.1c0.6,0.9,1.2,1.7,2,2.4
			c0.9,0.9,1.9,1.6,3.2,1.8c0.9,0.2,1.6-0.1,2.3-0.7c0.7-0.7,1.2-1.6,1.7-2.5c1-2.1,1.6-4.4,2-6.7c0.6-3.5,1-6.9,1.3-10.4
			c0-0.5,0-1-0.1-1.5c-0.1-0.4-0.2-0.9-0.2-1.3c-0.1-2.2,1.9-3.7,4-3c1,0.3,1.8,0.9,2.4,1.7c0.7,0.8,1.2,1.7,1.7,2.6
			c1,1.8,1.9,3.6,2.9,5.4c0.8,1.3,1.6,2.5,2.5,3.6c1.4,1.7,2.8,3.5,4.1,5.2c0.4,0.5,0.9,1,1.4,1.3c0.9,0.5,1.4,0.4,2-0.5
			c0.6-0.8,0.8-1.8,0.9-2.7c0.4-2.5,0.3-5,0.1-7.6c-0.4-4.3-1.2-8.4-2-12.6c-0.2-1-0.3-2-0.4-3c0-0.2,0-0.4,0-0.5
			c0.1-0.5,0.4-0.8,0.8-0.9c0.4,0,0.8,0.2,1,0.6c0.2,0.4,0.3,0.7,0.4,1.1c0.6,2.3,1,4.7,1.4,7.1c0.7,4.7,1.2,9.4,1.2,14.1
			c0,2-0.4,3.9-1.1,5.8c-1,2.4-2.7,3.7-5.8,3.4c-3.8-0.3-6.7-2.2-9.2-5c-2.3-2.6-4.1-5.6-5.6-8.7
			C139.3,107.5,139.2,107.2,138.9,106.9z"/>
	</g>
</g>
</svg>
