<?xml version="1.0" encoding="utf-8"?>
<!-- Generator: Adobe Illustrator 16.0.0, SVG Export Plug-In . SVG Version: 6.00 Build 0)  -->
<!DOCTYPE svg PUBLIC "-//W3C//DTD SVG 1.1//EN" "http://www.w3.org/Graphics/SVG/1.1/DTD/svg11.dtd">
<svg version="1.1" id="Calque_1" xmlns="http://www.w3.org/2000/svg" xmlns:xlink="http://www.w3.org/1999/xlink" x="0px" y="0px"
	 width="432px" height="432px" viewBox="0 0 432 432" enable-background="new 0 0 432 432" xml:space="preserve">
<g>
	<g>
		<path fill="#C96D00" d="M250.938,164.587c-1.765-14.527,2.666-33.994,13.592-46.29c10.927-12.296,29.209-18.677,44.587-12.838
			c6.665,2.53,12.433,7.125,16.945,12.643c8.45,10.332,12.575,24.093,11.202,37.37c4.733-1.925,10.075,0.911,13.815,4.393
			c13.472,12.541,15.952,35.207,5.512,50.365c4.962,2.178,7.151,8.23,6.869,13.642c-0.498,9.558-7.586,18.416-16.803,20.997
			c3.316,13.958-1.696,29.57-12.519,38.99c-10.822,9.419-26.976,12.23-40.343,7.02c-4.84,6.299-12.776,9.834-20.711,10.196
			c-7.936,0.361-15.823-2.232-22.591-6.391c-8.588-5.278-15.655-13.254-19.045-22.748c-3.39-9.494-2.875-20.487,2.139-29.233
			c-7.604-4.291-11.277-13.306-12.57-21.941c-1.7-11.355-0.15-23.282,5.039-33.524C231.247,176.995,240.165,168.558,250.938,164.587
			z"/>
	</g>
	<path fill="#361B09" d="M340.748,213.783c-0.098-0.253-0.393-0.446-0.704-0.28c-3.991,2.134-7.982,4.269-11.973,6.402
		c1.756-2.653,3.527-5.296,5.315-7.928c0.018-0.026,0.031-0.053,0.042-0.079c1.141-1.625,2.193-3.305,3.152-5.045
		c0.271-0.493-0.386-0.927-0.739-0.608c-0.128,0.016-0.253,0.082-0.343,0.216c-3.816,5.674-8.383,10.9-11.926,16.743
		c-0.031,0.05-0.048,0.1-0.059,0.148c-3.183,4.433-6.089,9.054-8.696,13.851c-0.566,0.816-1.131,1.633-1.703,2.445
		c-0.046,0.066-0.072,0.132-0.082,0.195c-0.314,0.452-0.628,0.903-0.943,1.355c0.576-4.49,0.963-8.999,1.151-13.523
		c0.004-0.104-0.021-0.189-0.063-0.258c2.162-4.275,4.324-8.55,6.485-12.825c0.251-0.498-0.395-0.931-0.736-0.619
		c-0.133,0.014-0.263,0.076-0.359,0.209c-2.017,2.78-3.841,5.681-5.478,8.695c-0.047-3.334-0.094-6.669-0.141-10.003
		c-0.007-0.513-0.663-0.595-0.891-0.261c-0.072,0.057-0.128,0.141-0.157,0.254c-0.672,2.644-0.356,5.353-0.306,8.048
		c0.049,2.625-0.28,9.143-0.308,9.48c-0.386,4.615-1.136,9.187-2.207,13.687c-0.01,0.019-0.021,0.036-0.029,0.057
		c-1.354,3.5-2.951,6.886-4.776,10.164c-3.147,4.731-6.389,9.399-9.722,14.003c-0.189-14.294-0.385-29.08-0.575-43.4
		c2.319-8.376,5.762-16.311,9.835-23.949c2.735-3.163,5.944-5.846,9.59-7.924c4.071-2.32,8.494-3.916,12.887-5.503
		c0.343-0.125,0.392-0.498,0.254-0.741c-0.059-0.243-0.277-0.444-0.585-0.345c-1.726,0.556-3.429,1.173-5.11,1.847
		c-4.685,1.741-9.316,3.547-13.489,6.339c1.47-2.51,11.957-18.684,15.13-23.333c0.306-0.448-0.292-0.864-0.683-0.63
		c-0.127-0.018-0.262,0.023-0.375,0.158c-2.885,3.454-5.365,7.213-7.847,10.961c0.113-1.042,0.191-2.087,0.232-3.138
		c0.117-3.013-0.13-6.03,0.386-9.018c0.09-0.521-0.579-0.777-0.843-0.458c-0.145,0.072-0.262,0.208-0.284,0.405
		c-0.603,5.446-1.347,10.873-2.229,16.279c-0.002,0.01-0.001,0.02-0.002,0.03c-2.194,3.261-4.38,6.534-6.284,9.97
		c-3.896,6.225-7.468,12.64-10.714,19.226c-0.094-7.056-0.185-13.939-0.272-20.526c-0.042-3.197-0.083-6.324-0.124-9.368
		c-0.007-0.555,0.061-3.902,0.166-8.627c2.418-7.652,9.219-13.257,12.257-20.701c0.101-0.246,0.001-0.476-0.164-0.611
		c-0.06-0.379-0.651-0.599-0.909-0.172c-1.837,3.036-3.691,6.075-6.058,8.736c-1.662,1.87-3.454,3.61-4.964,5.594
		c0.18-7.799,0.398-16.986,0.556-23.936c0.069-0.041,0.13-0.103,0.174-0.197c1.915-4.027,3.54-8.173,4.872-12.429
		c0.044-0.085,0.089-0.169,0.133-0.254c0.29-0.553-0.554-1.031-0.843-0.478c-1.406,2.684-2.812,5.368-4.218,8.052
		c0.063-2.929,0.1-4.887,0.094-5.284c-0.076-5.756-0.2-9.195-0.349-11.035c0-0.142,0.003-0.283,0.002-0.424
		c-0.006-0.721,0.031-1.171-0.583-1.596c-0.32-0.221-0.715,0.091-0.724,0.428c-0.083,3.107-0.108,6.214-0.077,9.321
		c-0.04,0.664-0.062,1.095-0.061,1.142l-1.99,56.078c-3.767-6.164-7.317-12.454-10.646-18.865
		c-0.611-6.741-0.702-13.512-0.267-20.273c0.032-0.491-0.563-0.583-0.836-0.297c-0.206-0.019-0.404,0.085-0.442,0.354
		c-0.738,5.325-1.209,10.677-1.406,16.046c-2.396-4.41-4.839-8.792-7.523-13.033c-0.129-0.281-0.261-0.561-0.387-0.843
		c-0.248-0.551-1.033-0.091-0.847,0.452c-0.027,0.107-0.014,0.227,0.065,0.35c0.115,0.179,0.225,0.362,0.339,0.542
		c3.134,6.809,7.003,13.339,10.677,19.949c0.02,0.059,0.049,0.11,0.085,0.154c1.397,2.517,2.764,5.046,4.049,7.607
		c-4.215-1.962-8.575-3.574-13.061-4.819c-0.244-0.068-0.428,0.047-0.521,0.217c-0.357,0.128-0.526,0.653-0.104,0.87
		c5.26,2.705,10.52,5.41,15.78,8.115c1.944,4.302,3.586,8.723,4.693,13.351l-1.37,38.619c-0.021-0.026-0.044-0.054-0.063-0.078
		c-1.296-1.643-2.807-3.101-4.227-4.634c-3.063-3.306-5.877-6.83-8.686-10.351c-1.44-4.327-2.582-8.736-3.417-13.22
		c-0.052-0.278-0.272-0.373-0.487-0.337c-0.29-0.079-0.634,0.07-0.595,0.449c0.365,3.569,0.919,7.107,1.663,10.615
		c-7.594-9.95-15-20.042-22.2-30.283c-0.065-0.092-0.146-0.15-0.232-0.182c-0.333-0.411-1.057,0.063-0.776,0.581
		c2.787,5.134,6.069,9.96,9.796,14.453c-3.255-1.571-6.506-3.153-9.748-4.752c-0.128-0.063-0.252-0.065-0.36-0.031
		c-0.483-0.124-0.846,0.61-0.348,0.895c3.988,2.286,7.977,4.571,11.966,6.856c0.42,0.334,0.833,0.678,1.24,1.029
		c1.396,1.93,2.859,3.812,4.395,5.638c0.014,0.051,0.036,0.104,0.073,0.156c2.922,4.093,6.11,7.975,9.56,11.634
		c0.023,0.025,0.048,0.045,0.073,0.063c4.025,5.195,8.104,10.35,12.233,15.463l-1.275,35.934
		c-4.184-5.181-7.702-10.846-10.506-16.883c-0.306-1.166-0.577-2.343-0.835-3.521c-1.167-6.825-2.271-13.661-3.308-20.508
		c-0.012-0.084-0.042-0.15-0.081-0.202c-0.172-1.994-0.48-3.964-0.92-5.923c-0.118-0.524-1.015-0.406-0.95,0.142
		c0.583,4.891,1.104,9.789,1.574,14.692c-1.553-2.643-3.283-5.172-5.19-7.584c-0.095-0.12-0.217-0.179-0.342-0.193
		c-0.376-0.466-1.186,0.021-0.816,0.516c2.679,3.586,4.936,7.44,6.737,11.528c0.179,0.711,0.386,1.417,0.602,2.12
		c0.574,2.473,0.886,4.974,1.241,7.472c-3.093-4.152-6.224-8.277-9.68-12.134c-3.42-4.712-7.206-9.139-11.339-13.247
		c-0.279-0.277-0.649-0.104-0.776,0.171c-0.192,0.137-0.285,0.44-0.138,0.645c0.075,0.105,0.151,0.21,0.226,0.315
		c0.084,0.118,0.208,0.198,0.341,0.223c3.374,3.873,6.634,7.842,9.775,11.9c-1.429-0.661-2.911-1.216-4.374-1.798
		c-3.074-1.222-6.147-2.443-9.221-3.665c-0.219-0.087-0.389-0.007-0.485,0.139c-0.128,0.057-0.234,0.161-0.263,0.309
		c-0.096,0.49,0.25,0.959,0.764,0.955c0.044,0,0.088-0.01,0.13-0.023c5.929,2.534,11.868,5.123,17.106,8.933
		c7.595,10.292,14.444,21.125,20.487,32.409l-0.198,5.584c-0.869,9.006-1.737,18.012-2.606,27.019
		c-1.052,10.904-2.124,21.825-2.229,32.788c-0.026,2.714-0.371,5.806,0.284,8.461c0.108,0.438,0.274,0.86,0.491,1.242
		c-0.005,0.118,0.031,0.242,0.126,0.355c0.351,0.415,0.714,0.759,1.116,1.051c0.317,0.298,0.633,0.597,0.95,0.895
		c0.168,0.159,0.368,0.167,0.528,0.086c0.357,0.213,0.772,0.336,1.216,0.33l6.398-0.085c1.279-0.017,2.312-1.078,2.295-2.357
		c0,0-0.513-38.672-1.115-84.066c1.857-3.383,3.732-6.756,5.638-10.111c2.395-3.439,5.042-6.721,8.226-9.407
		c1.02-0.653,2.051-1.287,3.097-1.897c2.468-1.442,4.993-2.784,7.514-4.129c5.116-2.729,10.224-5.497,14.831-9.043
		c0.489-0.376-0.005-1.211-0.5-0.83c-0.002,0.001-0.003,0.002-0.005,0.004c-0.14-0.123-0.343-0.177-0.554-0.068
		c-3.606,1.867-7.177,3.8-10.714,5.793c1.375-2.329,2.385-4.85,2.995-7.532c0.119-0.521-0.552-0.774-0.833-0.454
		c-0.085,0.056-0.155,0.143-0.19,0.268c-1.123,3.965-3.255,7.469-6.22,10.288c-3.984,1.557-7.758,3.564-11.273,6.005
		c6.055-10.264,12.342-20.39,18.859-30.367c0.129,0.069,10.687-5.672,15.275-9.333C341.059,214.245,340.966,213.944,340.748,213.783
		z M290.603,193.432c-0.001-0.002-0.001-0.004-0.002-0.006h0.002V193.432z"/>
	<g>
		<path fill="#FFC075" d="M290.799,116.081c0.03,2.26,2.692,4.057,2.692,4.057s2.614-1.867,2.583-4.126
			c-0.03-2.26-2.709-5.349-2.709-5.349S290.769,113.821,290.799,116.081z"/>
		<path fill="#FFC075" d="M299.509,126.516c-0.85,2.094,0.907,4.783,0.907,4.783s3.133-0.707,3.982-2.801
			c0.849-2.095-0.422-5.981-0.422-5.981S300.358,124.421,299.509,126.516z"/>
		<path fill="#FFC075" d="M310.825,152.215c1.061-1.995,0.199-5.993,0.199-5.993s-3.796,1.52-4.857,3.515
			c-1.062,1.995,0.408,4.852,0.408,4.852S309.764,154.21,310.825,152.215z"/>
		<path fill="#FFC075" d="M277.012,144.21c-0.104,2.258,2.447,4.209,2.447,4.209s2.72-1.709,2.824-3.966
			c0.104-2.258-2.388-5.5-2.388-5.5S277.116,141.953,277.012,144.21z"/>
		<path fill="#FFC075" d="M268.585,151.246c0,0,1.831-2.639,1.041-4.756c-0.79-2.118-4.354-4.122-4.354-4.122
			s-1.379,3.85-0.589,5.967C265.473,150.452,268.585,151.246,268.585,151.246z"/>
		<path fill="#FFC075" d="M267.59,170.856c-1.674-1.519-5.76-1.664-5.76-1.664s0.541,4.053,2.214,5.572
			c1.674,1.519,4.803,0.796,4.803,0.796S269.264,172.375,267.59,170.856z"/>
		<path fill="#FFC075" d="M249.902,188.545c0,0,0.817-3.106-0.649-4.826s-5.502-2.383-5.502-2.383s0.021,4.089,1.488,5.809
			C246.706,188.863,249.902,188.545,249.902,188.545z"/>
		<path fill="#FFC075" d="M243.464,199.28c1.992,1.068,4.853-0.392,4.853-0.392s-0.368-3.191-2.36-4.259
			c-1.992-1.068-5.992-0.219-5.992-0.219S241.472,198.212,243.464,199.28z"/>
		<path fill="#FFC075" d="M270.105,202.731c-0.401,2.224,1.871,4.495,1.871,4.495s2.921-1.335,3.322-3.559s-1.641-5.767-1.641-5.767
			S270.506,200.507,270.105,202.731z"/>
		<path fill="#FFC075" d="M268.427,219.854c0,0-1.739,3.701-1.153,5.884c0.585,2.183,3.608,3.269,3.608,3.269
			s2.073-2.453,1.488-4.636C271.785,222.188,268.427,219.854,268.427,219.854z"/>
		<path fill="#FFC075" d="M261.208,228.317c0,0-0.566,4.05,0.638,5.962c1.205,1.912,4.414,2.056,4.414,2.056
			s1.255-2.957,0.051-4.869C265.105,229.554,261.208,228.317,261.208,228.317z"/>
		<path fill="#FFC075" d="M246.761,225.634c0,0-0.037,4.089,1.406,5.829c1.442,1.74,4.643,1.466,4.643,1.466
			s0.862-3.094-0.581-4.834C250.787,226.355,246.761,225.634,246.761,225.634z"/>
		<path fill="#FFC075" d="M246.551,236.612c-1.971-1.105-5.987-0.332-5.987-0.332s1.435,3.829,3.406,4.935s4.859-0.3,4.859-0.3
			S248.522,237.717,246.551,236.612z"/>
		<path fill="#FFC075" d="M311.574,164.144c-0.251,2.246,2.167,4.36,2.167,4.36s2.825-1.528,3.077-3.773
			c0.251-2.246-2.023-5.645-2.023-5.645S311.825,161.898,311.574,164.144z"/>
		<path fill="#FFC075" d="M327.24,167.237c1.008-2.022,0.042-5.996,0.042-5.996s-3.756,1.618-4.764,3.641
			c-1.009,2.022,0.535,4.839,0.535,4.839S326.231,169.26,327.24,167.237z"/>
		<path fill="#FFC075" d="M329.671,181.97c-1.814,1.348-1.711,4.558-1.711,4.558s3.044,1.025,4.858-0.323
			c1.814-1.348,2.749-5.329,2.749-5.329S331.485,180.622,329.671,181.97z"/>
		<path fill="#FFC075" d="M325.728,205.674c0,0-3.978,0.947-5.32,2.766c-1.342,1.818-0.307,4.859-0.307,4.859
			s3.21,0.093,4.553-1.726C325.996,209.754,325.728,205.674,325.728,205.674z"/>
		<path fill="#FFC075" d="M325.675,232.063c-1.342,1.818-0.307,4.859-0.307,4.859s3.21,0.092,4.553-1.726
			c1.342-1.818,1.074-5.899,1.074-5.899S327.017,230.244,325.675,232.063z"/>
		<path fill="#FFC075" d="M336.727,234.895c-1.781,1.391-1.602,4.598-1.602,4.598s3.067,0.952,4.849-0.439
			c1.781-1.391,2.621-5.393,2.621-5.393S338.508,233.504,336.727,234.895z"/>
		<path fill="#FFC075" d="M341.563,203.538c1.342-1.818,1.074-5.899,1.074-5.899s-3.978,0.947-5.32,2.766s-0.307,4.859-0.307,4.859
			S340.221,205.356,341.563,203.538z"/>
		<path fill="#FFC075" d="M343.735,208.7c-1.934,1.169-2.137,4.375-2.137,4.375s2.933,1.31,4.867,0.141
			c1.934-1.169,3.243-5.043,3.243-5.043S345.669,207.531,343.735,208.7z"/>
		<path fill="#FFC075" d="M310.049,207.193c-0.003,2.26,2.633,4.096,2.633,4.096s2.641-1.829,2.644-4.089
			c0.003-2.26-2.631-5.388-2.631-5.388S310.052,204.933,310.049,207.193z"/>
	</g>
</g>
<g>
	<path d="M141.756,68.071c-0.108-0.407-0.238-0.809-0.396-1.202c-0.366-0.909-0.985-1.846-1.946-2.035
		c-0.567-0.111-1.148,0.064-1.696,0.25c-4.888,1.656-9.416,4.346-13.243,7.808c1.982,0.88,3.965,1.761,5.947,2.642
		C133.166,71.861,137.273,69.16,141.756,68.071z"/>
	<path d="M77.584,82.062c-5.811-2.508-12.5-3.006-18.584-1.233c-0.376,0.109-0.779,0.249-0.993,0.577
		c-0.264,0.405-0.142,0.939-0.003,1.403c0.016,0.052,0.034,0.104,0.049,0.156c5.313,0.116,10.583,1.845,14.936,4.892
		C74.18,85.685,75.742,83.717,77.584,82.062z"/>
	<path fill="#FFD7BF" d="M141.756,68.071c-4.483,1.088-8.59,3.79-11.334,7.462c-1.282,1.716-2.267,3.644-2.853,5.718
		c-0.15,0.531-0.264,1.141,0.039,1.602c0.236,0.359,0.664,0.532,1.065,0.686c3.729,1.437,7.366,3.108,10.887,4.996
		c1.385-4.622,2.339-9.727,2.597-14.529C142.265,72.02,142.264,69.981,141.756,68.071z"/>
	<path fill="#F2F2F2" d="M124.863,151.54c-2.657-2.262-5.752-4.311-9.235-4.521c-6.188-0.374-11.114,4.993-14.46,10.211
		c-5.026,7.838-8.81,16.471-11.168,25.478c-0.585,2.233-1.073,4.651-0.237,6.803c1.645,4.233,7.261,5.104,11.77,4.564
		c7.207-0.864,14.072-3.598,20.509-6.95c4.985-2.597,9.847-5.642,13.554-9.867c1.35-1.539,2.525-3.209,3.656-4.916
		C136.361,164.322,131.356,157.067,124.863,151.54z"/>
	<path fill="#F2F2F2" d="M149.146,107.365c1.86-2.379,4.29-4.31,7.028-5.583c-2.321-2.388-5.432-3.977-8.712-4.528
		c-0.81,0.236-1.614,0.493-2.408,0.779c-0.671,0.242-1.482,0.787-1.244,1.459c0.112,0.315,0.427,0.504,0.72,0.667
		c1.511,0.84,3.022,1.679,4.533,2.519c-4.521,0.597-8.896,2.268-12.665,4.837c3.504,0.642,7.555,1.702,8.924,4.991
		c-11.864,0.669-23.042,8.207-28.318,18.819c2.9-2.11,5.992-3.949,9.218-5.538c7.04-3.468,14.717-5.75,22.434-7.084
		c-0.429-1.835-1.942-3.374-3.771-3.831c2.425-1.311,5.167-2.028,7.922-2.074C152.476,110.564,151.091,108.511,149.146,107.365z"/>
	<path fill="#C96F06" d="M144.53,100.159c-0.293-0.163-0.608-0.351-0.72-0.667c-0.238-0.672,0.572-1.218,1.244-1.459
		c0.794-0.286,1.598-0.543,2.408-0.779c1.843-0.536,3.723-0.945,5.624-1.216c-4.125-3.216-8.61-5.278-12.973-7.208
		c-0.183-0.1-0.368-0.196-0.551-0.294c-3.521-1.888-7.159-3.559-10.887-4.996c-0.401-0.154-0.83-0.327-1.065-0.686
		c-0.302-0.461-0.188-1.071-0.039-1.602c0.585-2.075,1.57-4.002,2.853-5.718c-1.982-0.881-3.965-1.762-5.947-2.642
		c-2.148,1.943-4.078,4.129-5.723,6.515l-0.034,0.129c-12.032-3.626-25.472-1.454-36.047,5.335l-0.103,0.004
		c-1.554-1.118-3.229-2.056-4.984-2.813c-1.842,1.656-3.404,3.624-4.596,5.795c0.658,0.461,1.296,0.951,1.909,1.471
		c0.266,0.225,0.54,0.477,0.625,0.814c0.143,0.564-0.289,1.097-0.689,1.52c-2.418,2.556-4.836,5.112-7.254,7.667
		c-0.46,0.487-0.92,0.974-1.381,1.46c-5.262,6.976-9.405,13.351-10.226,22.05c1.939-1.278,3.974-2.409,6.078-3.394
		c1.558-0.729,3.153-1.38,4.78-1.938c-0.304,2.849-0.607,5.697-0.911,8.546c5.836-3.662,13.414-2.514,20.03-0.595
		c6.995,2.029,13.778,4.784,20.211,8.199c0.474,0.251,0.945,0.507,1.416,0.765c0.187-1.316,1.681-2.666,3.748-3.244
		c2.027-0.567,3.969-0.215,4.838,0.769c0.131,0.148,0.238,0.31,0.316,0.485c0.167-0.374,0.343-0.743,0.525-1.109
		c5.276-10.612,16.454-18.149,28.318-18.819c-1.369-3.289-5.42-4.35-8.924-4.991c3.768-2.569,8.144-4.24,12.665-4.837
		C147.552,101.838,146.041,100.999,144.53,100.159z"/>
	<path fill="#FFD7BF" d="M75.522,90.142c-0.085-0.338-0.359-0.589-0.625-0.814c-0.613-0.52-1.251-1.01-1.909-1.471
		c-4.353-3.047-9.623-4.776-14.936-4.892c1.851,6.095,5.143,11.744,9.527,16.365c2.418-2.556,4.836-5.112,7.254-7.667
		C75.233,91.239,75.665,90.707,75.522,90.142z"/>
	<path fill="#F2F2F2" d="M200.232,151.257c-9.754-3.772-20.649-4.708-30.812-2.241c-9.06,2.199-17.479,7.147-23.627,14.135
		c-0.749,0.851-1.466,1.731-2.145,2.641c-0.643,0.863-1.252,1.75-1.849,2.647c2.935-1.06,5.966-1.855,9.045-2.364
		c0.366-0.061,0.751-0.115,1.098,0.017c0.478,0.183,0.757,0.669,0.987,1.126c2.932,5.829,3.995,12.582,2.994,19.03
		c4.153-0.934,8.016-3.12,10.955-6.2c-0.103,3.983-1.267,7.934-3.34,11.336c4.247-1.43,8.681,1.38,13.145,1.778
		c3.377,0.301,6.856-0.877,9.361-3.161c1.175-2.925,1.982-6.033,2.725-9.102c1.303-5.384,2.528-10.913,5.452-15.617
		s7.964-8.511,13.5-8.328C206.347,154.047,203.232,152.417,200.232,151.257z"/>
	<path fill="#F2F2F2" d="M85.95,125.459c-6.617-1.919-14.194-3.067-20.03,0.595c0.304-2.849,0.607-5.698,0.911-8.546
		c-1.627,0.558-3.222,1.209-4.78,1.938c-1.708,3.674-2.365,8.496-1.477,12.362c3.631-2.231,7.689-3.766,11.889-4.497
		c-1.565,2.246-2.389,5-2.315,7.737c2.624-2.062,5.673-3.579,8.9-4.429c-1.217,2.225-1.833,4.775-1.768,7.311
		c2.604-1.117,5.399-2.027,8.291-2.732c6.729-1.64,13.982-2.159,20.59-1.539C99.728,130.244,92.945,127.489,85.95,125.459z"/>
	<path fill="#C96F06" d="M176.685,193.163c-4.464-0.398-8.898-3.208-13.145-1.778c2.073-3.402,3.237-7.353,3.34-11.336
		c-2.939,3.08-6.802,5.266-10.955,6.2c1-6.448-0.062-13.201-2.994-19.03c-0.23-0.457-0.51-0.944-0.987-1.126
		c-0.347-0.132-0.732-0.078-1.098-0.017c-3.079,0.509-6.11,1.304-9.045,2.364c0.596-0.897,1.206-1.784,1.849-2.647
		c0.678-0.91,1.396-1.79,2.145-2.641c-4.453-13.093-11.262-26.315-19.571-37.364c-3.226,1.589-6.318,3.428-9.218,5.538
		c-0.182,0.366-0.357,0.735-0.525,1.109c0.036,0.081,0.069,0.165,0.093,0.251c0.426,1.523-1.233,3.318-3.706,4.009
		c-2.473,0.691-4.822,0.018-5.248-1.505c-0.07-0.25-0.078-0.507-0.042-0.766c-0.47-0.258-0.942-0.514-1.416-0.765
		c-6.608-0.62-13.861-0.101-20.59,1.539C75.102,145.469,70.353,160.656,69.1,175.39c-0.741,8.717-0.181,18.242,5.358,25.014
		c4.963,6.068,12.933,8.708,20.579,10.438c13.427,3.039,27.361,4.184,41.017,2.441c6.979-0.891,13.839-2.525,20.683-4.157
		c9.583-2.285,19.947-5.062,25.891-12.918c1.437-1.899,2.532-4.001,3.418-6.207C183.541,192.285,180.062,193.463,176.685,193.163z
		 M135.595,177.258c-3.707,4.225-8.568,7.27-13.554,9.867c-6.438,3.353-13.303,6.086-20.509,6.95
		c-4.509,0.541-10.125-0.331-11.77-4.564c-0.836-2.152-0.348-4.57,0.237-6.803c2.358-9.007,6.143-17.64,11.168-25.478
		c3.346-5.218,8.272-10.584,14.46-10.211c3.483,0.21,6.578,2.259,9.235,4.521c6.494,5.527,11.498,12.782,14.388,20.803
		C138.12,174.049,136.944,175.72,135.595,177.258z"/>
	<path d="M116.572,132.685c-0.024-0.086-0.057-0.17-0.093-0.251c-0.079-0.176-0.186-0.337-0.316-0.485
		c-0.87-0.983-2.812-1.335-4.838-0.769c-2.067,0.578-3.561,1.927-3.748,3.244c-0.037,0.259-0.028,0.516,0.042,0.766
		c0.426,1.522,2.775,2.196,5.248,1.505C115.338,136.003,116.998,134.208,116.572,132.685z"/>
	<ellipse transform="matrix(0.9899 -0.1415 0.1415 0.9899 -15.8359 13.8433)" cx="89.42" cy="118.27" rx="2.484" ry="3.713"/>
	<ellipse transform="matrix(0.9899 -0.1415 0.1415 0.9899 -14.5801 18.3805)" cx="121.951" cy="111.708" rx="2.484" ry="3.713"/>
	<g>
		<path fill="#FFFFFF" d="M107.914,113.654c-1.033,2.072-0.526,5.655,1.046,7.246c1.372-2.268,0.563-5.237-0.984-7.383
			L107.914,113.654z"/>
	</g>
	<g>
		<path fill="#FFFFFF" d="M73.141,176.247c-1.34,1.888-1.393,5.505-0.085,7.32c1.706-2.029,1.365-5.087,0.167-7.446L73.141,176.247z
			"/>
	</g>
	<g>
		<path fill="#FFFFFF" d="M115.388,210.371c-2.089-0.999-5.663-0.434-7.228,1.164c2.291,1.335,5.246,0.477,7.366-1.105
			L115.388,210.371z"/>
	</g>
	<g>
		<path fill="#FFFFFF" d="M124.912,206.573c-2.089-0.999-5.663-0.434-7.228,1.165c2.291,1.334,5.246,0.477,7.366-1.105
			L124.912,206.573z"/>
	</g>
	<g>
		<path fill="#FFFFFF" d="M131.487,210.371c-2.088-0.999-5.662-0.434-7.227,1.164c2.29,1.335,5.245,0.477,7.366-1.105
			L131.487,210.371z"/>
	</g>
	<g>
		<path fill="#FFFFFF" d="M137.894,206.233c-2.089-0.999-5.663-0.434-7.228,1.164c2.291,1.334,5.246,0.477,7.366-1.105
			L137.894,206.233z"/>
	</g>
	<g>
		<path fill="#FFFFFF" d="M78.34,165.01c-1.765,1.499-2.709,4.991-1.891,7.072c2.154-1.545,2.579-4.593,2.001-7.174L78.34,165.01z"
			/>
	</g>
	<g>
		<path fill="#FFFFFF" d="M73.355,165.781c-1.561,1.71-2.055,5.294-0.979,7.254c1.941-1.805,1.976-4.882,1.076-7.37L73.355,165.781z
			"/>
	</g>
	<g>
		<path fill="#FFFFFF" d="M76.842,156.568c-1.654,1.62-2.347,5.171-1.382,7.189c2.038-1.695,2.245-4.765,1.484-7.299L76.842,156.568
			z"/>
	</g>
	<g>
		<path fill="#FFFFFF" d="M105.93,100.672c-1.033,2.072-0.526,5.655,1.046,7.246c1.372-2.268,0.563-5.237-0.985-7.383
			L105.93,100.672z"/>
	</g>
	<g>
		<path fill="#FFFFFF" d="M103.775,85.82c-1.033,2.072-0.526,5.655,1.046,7.246c1.372-2.269,0.563-5.237-0.984-7.383L103.775,85.82z
			"/>
	</g>
	<g>
		<path fill="#FFFFFF" d="M110.418,90.816c-1.322,1.901-1.338,5.519-0.013,7.32c1.686-2.046,1.314-5.1,0.093-7.447L110.418,90.816z"
			/>
	</g>
	<g>
		<path fill="#FFFFFF" d="M112.478,102.954c-1.477,1.784-1.796,5.387-0.627,7.293c1.851-1.897,1.737-4.972,0.718-7.413
			L112.478,102.954z"/>
	</g>
	<g>
		<path fill="#FFFFFF" d="M118.349,92.655c-1.729,1.539-2.593,5.053-1.726,7.114c2.118-1.595,2.471-4.651,1.833-7.219
			L118.349,92.655z"/>
	</g>
	<g>
		<path fill="#FFFFFF" d="M126.534,86.933c-2.007,1.153-3.57,4.417-3.142,6.612c2.398-1.128,3.369-4.049,3.27-6.692L126.534,86.933z
			"/>
	</g>
	<g>
		<path fill="#FFFFFF" d="M116.818,83.188c-1.729,1.539-2.592,5.053-1.725,7.114c2.117-1.594,2.471-4.651,1.833-7.219
			L116.818,83.188z"/>
	</g>
	<g>
		<path fill="#FFFFFF" d="M99.404,92.461c1.54,1.729,1.989,5.319,0.888,7.266c-1.918-1.83-1.915-4.907-0.983-7.383L99.404,92.461z"
			/>
	</g>
	<g>
		<path fill="#FFFFFF" d="M98.811,104.758c1.679,1.594,2.428,5.134,1.495,7.166c-2.065-1.662-2.319-4.729-1.599-7.274
			L98.811,104.758z"/>
	</g>
	<g>
		<path fill="#FFFFFF" d="M83.094,92.134c2.095,0.986,3.917,4.112,3.668,6.335c-2.482-0.931-3.687-3.762-3.801-6.405L83.094,92.134z
			"/>
	</g>
	<g>
		<path fill="#FFFFFF" d="M92.137,85.653c1.901,1.321,3.178,4.706,2.564,6.856c-2.293-1.33-3.01-4.322-2.684-6.948L92.137,85.653z"
			/>
	</g>
	<g>
		<path fill="#FFFFFF" d="M91.75,95.235c1.901,1.321,3.178,4.707,2.563,6.857c-2.292-1.33-3.009-4.322-2.684-6.948L91.75,95.235z"/>
	</g>
</g>
<g>
	<g>
		<path fill="#E6D2BE" d="M247.243,348.147c-3.491,0.325-6.7-3.442-5.824-6.837c4.05-2.584,6.973-6.874,7.895-11.589
			c-2.098-0.523-3.974-1.886-5.12-3.719c-0.21-0.336-0.401-0.704-0.409-1.1c-0.012-0.538,0.311-1.018,0.599-1.472
			c1.619-2.55,2.532-5.543,2.612-8.563c-2.259,1.4-4.95,2.094-7.604,1.959c-0.705-0.036-1.485-0.172-1.909-0.735
			c-0.266-0.354-0.338-0.812-0.403-1.25c-0.511-3.48-1.021-6.962-1.532-10.442c-1.545,3.264-4.91,5.59-8.51,5.882
			c-0.893,0.072-1.83,0.019-2.615-0.412c-0.603-0.33-1.07-0.856-1.498-1.393c-2.063-2.588-3.484-5.683-4.104-8.934
			c-0.653,2.54-2.105,4.868-4.099,6.571c-0.384,0.328-0.871,0.653-1.359,0.52c-0.367-0.1-0.616-0.431-0.836-0.741
			c-1.931-2.715-3.861-5.43-5.792-8.145c-0.189,3.543-2.539,6.882-5.81,8.258c-0.666,0.28-1.473,0.471-2.075,0.072
			c-0.798-0.529-0.73-1.701-0.572-2.645c0.345-2.045,0.689-4.091,1.033-6.136c-2.676,2.764-5.353,5.527-8.029,8.291
			c-0.221,0.228-0.462,0.467-0.773,0.529c-0.531,0.104-0.999-0.335-1.36-0.738c-2.651-2.958-5.547-6.129-9.443-6.901
			c0.63,2.833,0.695,5.79,0.189,8.647c-0.161,0.911-0.661,2.033-1.583,1.956c-0.489-0.041-0.869-0.432-1.179-0.813
			c-1.756-2.155-2.864-4.831-3.147-7.597c-2.057,3.021-3.249,6.624-3.399,10.276c-0.037,0.887-0.151,1.989-0.982,2.301
			c-0.3,0.113-0.63,0.087-0.949,0.059c-3.069-0.265-6.138-0.531-9.208-0.796c0.912,2.583,2.674,4.857,4.947,6.385l0.186-0.064
			c0.632,0.423,1.242,0.877,1.832,1.358c-5.304,5.408-11.755,9.691-18.813,12.444c-2.453,0.957-5.194,1.72-7.711,1.184
			c0.061-0.231,0.097-0.473,0.097-0.724c0-1.567-1.27-2.837-2.837-2.837c-1.566,0-2.837,1.27-2.837,2.837s1.271,2.837,2.837,2.837
			c0.65,0,1.248-0.221,1.726-0.589c9.435,10.67,22.503,17.743,36.23,21.578c1.747,0.488,3.614,0.989,4.831,2.334
			s1.323,3.846-0.265,4.724c-0.555,0.307-1.218,0.368-1.781,0.662c-0.563,0.293-1.02,1-0.7,1.548
			c0.22,0.376,0.698,0.499,1.126,0.577c2.42,0.439,4.9,0.545,7.349,0.314c0.503-0.047,1.021-0.114,1.458-0.368
			c1-0.582,1.243-1.93,1.115-3.08c-0.127-1.149-0.516-2.291-0.36-3.437c0.063-0.465,0.238-0.948,0.622-1.219
			c0.418-0.294,0.975-0.27,1.482-0.216c2.428,0.253,4.802,0.875,7.213,1.255c4.692,0.741,9.529,0.558,14.151-0.536
			c0.666-0.157,1.352-0.334,2.024-0.214c0.673,0.121,1.331,0.636,1.368,1.319c0.051,0.964-1.046,1.549-1.988,1.763
			c-0.942,0.213-2.059,0.413-2.478,1.283c-0.416,0.86,0.168,1.935,1.006,2.393c0.838,0.459,1.84,0.465,2.795,0.46
			c1.809-0.01,3.617-0.021,5.426-0.03c0.849-0.005,1.739-0.02,2.482-0.432c1.063-0.59,1.571-1.89,1.555-3.106
			s-0.466-2.38-0.909-3.513c1.685-0.005,4.639-0.842,6.772-1.701c2.209,1.398,4.345,2.954,6.742,2.289
			c-1.099-1.918-1.601-4.173-1.421-6.376C239.328,353.155,243.774,351.213,247.243,348.147z"/>
	</g>
	<g>
		<path fill="#A67C52" d="M247.243,348.157c-3.491,0.325-6.7-3.442-5.824-6.837c4.05-2.584,6.973-6.874,7.895-11.588
			c-2.097-0.524-3.973-1.886-5.12-3.719c-0.21-0.336-0.401-0.704-0.409-1.1c-0.012-0.538,0.311-1.018,0.599-1.472
			c1.619-2.55,2.532-5.543,2.612-8.563c-2.259,1.4-4.95,2.094-7.604,1.958c-0.705-0.036-1.485-0.172-1.909-0.735
			c-0.266-0.354-0.338-0.812-0.403-1.25c-0.511-3.481-1.021-6.962-1.532-10.443c-1.545,3.264-4.91,5.59-8.51,5.882
			c-0.893,0.073-1.83,0.019-2.615-0.411c-0.602-0.33-1.07-0.856-1.498-1.393c-2.063-2.588-3.484-5.683-4.104-8.934
			c-0.653,2.54-2.105,4.868-4.099,6.571c-0.384,0.328-0.871,0.652-1.359,0.52c-0.367-0.1-0.616-0.43-0.837-0.74
			c-1.93-2.715-3.861-5.43-5.792-8.146c-0.189,3.543-2.539,6.883-5.81,8.259c-0.666,0.28-1.473,0.471-2.075,0.072
			c-0.798-0.528-0.73-1.701-0.572-2.645c0.345-2.045,0.689-4.091,1.033-6.136c-2.676,2.764-5.353,5.527-8.029,8.291
			c-0.221,0.228-0.461,0.467-0.772,0.529c-0.531,0.105-0.999-0.335-1.36-0.738c-2.651-2.957-5.547-6.128-9.443-6.9
			c0.63,2.833,0.695,5.79,0.189,8.647c-0.161,0.911-0.661,2.033-1.583,1.956c-0.489-0.041-0.869-0.432-1.179-0.812
			c-1.756-2.155-2.864-4.832-3.146-7.597c-2.057,3.021-3.249,6.624-3.399,10.276c-0.037,0.887-0.151,1.989-0.982,2.301
			c-0.3,0.112-0.63,0.086-0.949,0.059c-3.069-0.265-6.138-0.531-9.208-0.796c0.912,2.583,2.674,4.857,4.947,6.386l0.186-0.064
			c0.632,0.423,1.242,0.877,1.832,1.358c2.335,1.901,4.323,4.229,5.827,6.838c1.393-2.197,3.189-4.259,5.581-5.281
			c2.392-1.023,5.467-0.763,7.224,1.155c1.623,1.771,1.749,4.614,0.606,6.727c-1.143,2.112-3.359,3.509-5.702,4.042
			c1.26,3.698,1.525,7.729,0.761,11.56c-0.386,1.933-1.013,4.015-0.169,5.796c0.977,2.063,3.489,2.817,5.73,3.25
			c11.166,2.158,22.645,1.855,34.006,1.375c2.157-0.091,4.385-0.178,6.401,0.594c0.934,0.356,1.833,0.893,2.722,1.456
			c2.209,1.398,4.345,2.953,6.742,2.289c-1.099-1.918-1.601-4.173-1.421-6.376C239.328,353.164,243.774,351.222,247.243,348.157z"/>
	</g>
	<g>
		<path d="M181.204,327.237c0.085-0.546-0.042-1.152-0.443-1.532c-0.434-0.411-1.093-0.485-1.683-0.397
			c-1.442,0.215-2.782,1.525-2.602,2.972l1.056,1.112c0.302,0.468,0.604,0.936,0.905,1.403c0.042,0.067,0.091,0.138,0.167,0.162
			c0.12,0.039,0.238-0.058,0.326-0.148c0.61-0.627,1.155-1.318,1.623-2.057C180.849,328.284,181.119,327.784,181.204,327.237z"/>
	</g>
	<path d="M137.15,330.268c-1.566,0-2.837,1.271-2.837,2.837c0,1.566,1.271,2.837,2.837,2.837c0.65,0,1.248-0.221,1.726-0.589
		c0.49-0.376,0.852-0.909,1.014-1.524c0.061-0.231,0.097-0.473,0.097-0.724C139.987,331.538,138.717,330.268,137.15,330.268z"/>
	<ellipse cx="164.263" cy="331.183" rx="1.324" ry="2.827"/>
	<g>
		<path fill="#E6D2BE" d="M187.225,309.922c-1.142,2.346-0.575,6.407,1.168,8.212c1.517-2.568,0.616-5.934-1.101-8.368
			L187.225,309.922z"/>
	</g>
	<g>
		<path fill="#E6D2BE" d="M204.528,309.278c-1.571,2.083-1.795,6.177-0.431,8.284c1.982-2.229,1.745-5.705,0.527-8.423
			L204.528,309.278z"/>
	</g>
	<g>
		<path fill="#E6D2BE" d="M197.446,329.18c-0.886,2.454,0.108,6.432,2.033,8.042c1.236-2.714-0.017-5.965-1.982-8.204
			L197.446,329.18z"/>
	</g>
	<g>
		<path fill="#E6D2BE" d="M220.766,311.919c-1.604,2.059-1.893,6.148-0.562,8.276c2.017-2.198,1.835-5.677,0.66-8.414
			L220.766,311.919z"/>
	</g>
	<g>
		<path fill="#E6D2BE" d="M210.625,324.317c-1.225,2.304-0.806,6.382,0.872,8.249c1.608-2.512,0.83-5.908-0.798-8.402
			L210.625,324.317z"/>
	</g>
	<g>
		<path fill="#E6D2BE" d="M211.856,340.281c-1.225,2.304-0.806,6.382,0.872,8.249c1.608-2.512,0.83-5.908-0.798-8.402
			L211.856,340.281z"/>
	</g>
	<g>
		<path fill="#E6D2BE" d="M222.383,330.443c-1.194,2.32-0.72,6.392,0.982,8.236c1.575-2.533,0.751-5.918-0.911-8.391
			L222.383,330.443z"/>
	</g>
	<g>
		<path fill="#E6D2BE" d="M235.226,324.5c-2.099,1.551-3.478,5.412-2.769,7.819c2.534-1.573,3.295-4.973,2.9-7.926L235.226,324.5z"
			/>
	</g>
</g>
<g>
	<path fill="#854D1A" d="M202.773,246.756c-1.183-1.553-2.541-2.99-4.067-4.208c-1.217-0.972-2.542-1.802-3.955-2.449
		c0.295-0.125,0.583-0.281,0.866-0.478c0.236-0.165,0.291-0.432,0.228-0.695c-1.399-5.896-7.243-9.772-13.1-10.007
		c-2.39-0.063-4.755,0.332-7.003,1.146c-2.88,1.085-5.441,2.821-7.506,5.088c-1.695-3.132-2.826-6.689-6.196-8.439
		c-1.033-0.536-2.691,0.259-3.511,0.914c-0.621,0.496-1.04,1.2-0.985,2.014c0.058,0.865,0.624,1.564,1.164,2.194
		c1.616,1.884,2.89,4.005,4.167,6.124c-4.425,3.88-6.949,9.499-7.273,15.355c-0.149,0.504-0.036,1.246-0.019,1.752
		c0.041,1.268,0.202,2.526,0.471,3.766c0.456,2.1,1.19,4.482,2.865,5.948c0.739,0.646,1.688,1.041,2.679,0.96
		c1.017-0.083,1.879-0.634,2.593-1.328c-0.348,3.712,0.395,7.489,2.132,10.805c0.814,1.555,2.084,4.065,4.23,3.343
		c1.303-0.438,2.377-1.348,3.285-2.408c0.136,0.438,0.294,0.871,0.473,1.293c0.755,1.794,1.843,3.423,3.201,4.816
		c1.035,1.061,2.741,2.887,4.366,2.093c1.521-0.743,2.875-2.028,3.947-3.373c0.009,0.011,0.02,0.021,0.029,0.032
		c1.839,2.105,4.687,2.985,7.375,3.342c2.719,0.362,5.794,0.22,7.813-1.886c1.954-2.038,2.261-5.093,1.828-7.757
		c-0.133-0.818-0.321-1.627-0.533-2.428c-0.034-0.128-0.069-0.256-0.104-0.384c0.342,0.063,0.69,0.076,1.042,0.023
		c1.708-0.261,3.093-1.576,3.571-3.21c0.582-1.988-0.032-4.12-0.776-5.977c-0.892-2.226-2.05-4.333-3.385-6.323
		c0.599-0.055,1.196-0.294,1.675-0.662c1.308-1.002,1.538-2.614,1.146-4.139C205.051,249.833,203.869,248.195,202.773,246.756z"/>
	<g>
		<g>
			<path fill="#361B09" d="M161.685,245.56c1.537,0.37-2.423,4.07,6.132,10.328c6.02-9.725,0.292-15.297,4.333-13.74
				c5.566,2.146,9.802,0.693,11.678,0.314c1.283-0.983-1.407-8.1-7.909-11.169c-2.86,1.12-5.359,2.923-7.327,5.287
				c-0.236,0.284-0.759,0.295-0.959-0.046c-1.082-1.84-1.835-3.858-2.958-5.672c-0.522-0.844-1.136-1.618-1.91-2.245
				c-0.38-0.309-0.862-0.714-1.34-0.862c0.09-0.043,0.097-0.054,0.021-0.033c-0.059,0.012-0.117,0.023-0.175,0.036
				c-0.14,0.018-0.281,0.056-0.419,0.084c-0.657,0.132-1.495,0.487-1.899,1.056c-0.675,0.948,0.529,1.978,1.084,2.646
				c1.589,1.913,2.834,4.079,4.117,6.201c0.182,0.301,0.108,0.622-0.155,0.84c-4.071,3.37-6.563,8.406-7.109,13.634
				C161.56,248.624,160.186,245.155,161.685,245.56z"/>
		</g>
		<g>
			<path fill="#361B09" d="M191.196,241.185c-1.91,0.818-3.777,1.538-5.922,1.51c-0.21,0.446-0.581,0.717-1.037,0.914
				c1.122,4.274,1.224,8.4-2.244,11.16C189.574,258.879,195.977,254.037,191.196,241.185z"/>
		</g>
		<g>
			<path fill="#361B09" d="M187.365,266.572c3.533-0.724,3.69-6.691,2.868-10.072c-3.496,1.378-6.071,0.928-9.22-0.9
				c0.384,2.825,0.036,5.762-0.663,7.843c-0.285,0.874-0.674,1.726-1.232,2.416c2.529,0.892,5.057,1.114,7.624,0.809
				C186.951,266.64,187.157,266.608,187.365,266.572z"/>
		</g>
		<g>
			<path fill="#361B09" d="M199.343,256.252c-2.606,0.401-4.47,0.019-6.974-0.846c-0.311,0.238-0.662,0.428-1.019,0.601
				c0.476,1.867,0.614,3.726,0.419,5.606C197.817,263.18,199.826,263.725,199.343,256.252z"/>
		</g>
		<g>
			<path fill="#361B09" d="M167.506,257.147c-0.423,1.471-1.073,3.667-1.727,5.165c1.78,1.349,9.185,4.531,11.284,3.667
				c0.16-0.153,0.375-0.28,0.595-0.354c0.827-0.692,1.325-1.721,1.65-2.805c0.914-3.161,0.573-5.67,0.541-6.799
				c-3.346,1.36-7.046,0.704-10.533-0.303C168.663,256.863,168.344,257.743,167.506,257.147z"/>
		</g>
		<g>
			<path fill="#361B09" d="M185.431,241.502c1.299,0.006,9.099-2.625,9.148-2.654c-1.684-5.872-8.512-10.429-17.052-8.083
				C181.404,232.956,184.988,237.447,185.431,241.502z"/>
		</g>
		<g>
			<path fill="#361B09" d="M183.082,243.956c-3.755,0.851-7.394,0.794-11.179-0.613c0.373,3.752-0.292,7.71-2.018,11.286
				C179.167,257.232,185.701,254.088,183.082,243.956z"/>
		</g>
		<g>
			<path fill="#361B09" d="M176.34,272.374c2.671,1.111,7.18,2.684,8.999,0.408c0.247-0.579,1.058-1.873,1.395-4.84
				c-2.235,0.266-5.569,0-8.652-1.144c-0.038,0.023-0.074,0.047-0.112,0.07C177.73,268.81,177.209,270.63,176.34,272.374z"/>
		</g>
		<g>
			<path fill="#361B09" d="M185.4,274.702c-1.825,1.522-7.585-0.398-9.647-1.265c-0.033,0.052-0.431,0.726-0.991,1.52
				c0.669,2.618,2.044,5.021,4.03,6.869c0.509,0.474,1.055,0.949,1.648,1.315c0.722,0.446,1.28-0.059,1.881-0.489
				c1.142-0.817,2.119-1.813,2.954-2.937c0.02-0.098,0.045-0.196,0.066-0.291C185.473,278.578,185.563,276.576,185.4,274.702z"/>
		</g>
		<g>
			<path fill="#361B09" d="M200.541,256.031c0.209,2.754-0.345,8.014-3.109,7.888c0.402,2.054-0.214,3.669,3.96,6.324
				c0.098,0.063,0.177,0.118,0.245,0.175c0.629,0.304,1.307,0.425,2.003,0.173c1.558-0.562,2.266-2.104,2.225-3.682
				c-0.05-1.898-0.864-3.752-1.663-5.441c-0.917-1.941-2.053-3.772-3.307-5.513C200.773,255.981,200.611,256.016,200.541,256.031z"
				/>
		</g>
		<g>
			<path fill="#361B09" d="M196.175,263.773c-1.623-0.298-2.639-0.46-4.57-0.959c-0.282,1.584-0.859,3.223-2.14,4.176
				c-0.437,0.325-0.948,0.553-1.497,0.711c-0.002,0.026-0.005,0.052-0.008,0.079c-0.005,0.052-0.01,0.104-0.015,0.155
				c-0.015,0.146-0.032,0.292-0.05,0.438c-0.01,0.085-0.022,0.17-0.034,0.255c-0.008,0.062-0.018,0.124-0.026,0.186
				c-0.206,1.395-0.504,2.423-0.932,3.5C194.621,274.662,197.993,272.49,196.175,263.773z"/>
		</g>
		<g>
			<path fill="#361B09" d="M192.685,240.57c-0.162,0.034-0.135,0.031-0.377,0.136c2.049,5.438,1.797,11.817,0.882,13.707
				c4.839,1.588,7.61,0.122,8.147,0.297c0.03,0.01,0.058,0.021,0.084,0.034c0.003,0.001,0.006,0.002,0.009,0.004
				c0.28,0.135,0.441,0.407,0.791,0.467c0.702,0.119,1.469-0.336,1.873-0.886c1.253-1.704-0.464-4.223-1.418-5.638
				C200.229,245.063,196.857,242.014,192.685,240.57z"/>
		</g>
		<g>
			<path fill="#361B09" d="M197.889,268.726c0.007,1.181-0.019,3.129-0.802,4.007c-0.229,0.281-0.525,0.516-0.912,0.684
				c-2.563,1.115-6.606,0.962-9.691,0.023c-0.004,0.071,0.495,3.956,0.016,6.37c-0.003,0.021-0.008,0.042-0.012,0.062
				c1.28,1.671,3.265,2.542,5.282,2.999c2.084,0.471,4.477,0.75,6.524-0.012c2.086-0.777,3.2-2.762,3.482-4.887
				c0.297-2.233-0.334-4.475-0.946-6.607C199.753,270.754,198.672,269.693,197.889,268.726z"/>
		</g>
		<g>
			<path fill="#361B09" d="M162.513,264.209c1.97-1.121,2.654-3.269,3.959-7.815c-2.409-1.839-4.747-4.31-5.442-7.249
				c-0.983,1.868-2.445,3.467-4.244,4.622c-0.043,1.985,0.169,3.97,0.712,5.884c0.451,1.587,1.094,3.501,2.538,4.47
				C160.803,264.636,161.707,264.667,162.513,264.209z"/>
		</g>
		<g>
			<path fill="#361B09" d="M174.132,273.737c0.297-0.428,0.569-0.869,0.826-1.323c0.858-1.564,1.497-3.306,1.68-5.087
				c-2.414,0.321-9.058-2.31-11.131-3.727c-0.27,1.832-0.259,3.689,0.034,5.525c0.299,1.873,0.903,3.723,1.779,5.406
				c0.428,0.822,0.911,1.684,1.515,2.392c0.772,0.905,1.596,0.456,2.452-0.116c0.857-0.572,1.602-1.331,2.25-2.173
				C173.635,274.299,173.942,274.011,174.132,273.737z"/>
		</g>
	</g>
</g>
<g>
	<g>
		<path fill="#361B09" d="M342.442,314.965c0.251,1.561-4.69-0.666-7.164,9.641c11.294,1.804,14.227-5.63,14.348-1.301
			c0.167,5.963,3.141,9.312,4.214,10.896c1.402,0.805,6.931-4.422,7.255-11.604c-2.136-2.207-4.764-3.817-7.703-4.721
			c-0.354-0.108-0.565-0.586-0.328-0.903c1.281-1.708,2.852-3.181,4.093-4.917c0.577-0.808,1.055-1.672,1.335-2.627
			c0.138-0.47,0.326-1.071,0.278-1.569c0.075,0.066,0.087,0.068,0.039,0.006c-0.033-0.049-0.066-0.099-0.1-0.148
			c-0.07-0.123-0.16-0.237-0.239-0.354c-0.375-0.556-1.026-1.191-1.707-1.345c-1.135-0.257-1.621,1.25-2.023,2.02
			c-1.152,2.205-2.67,4.188-4.133,6.19c-0.208,0.284-0.532,0.34-0.834,0.181c-4.679-2.456-10.287-2.814-15.321-1.302
			C339.566,316.031,342.237,313.426,342.442,314.965z"/>
	</g>
	<g>
		<path fill="#361B09" d="M357.858,340.507c-1.491-1.447-2.875-2.892-3.677-4.882c-0.493-0.022-0.885-0.259-1.243-0.604
			c-3.511,2.683-7.278,4.368-11.162,2.232C340.908,345.833,347.845,349.874,357.858,340.507z"/>
	</g>
	<g>
		<path fill="#361B09" d="M332.958,346.762c2.03,2.98,7.597,0.824,10.398-1.239c-2.62-2.694-3.197-5.244-2.725-8.854
			c-2.458,1.444-5.303,2.255-7.492,2.413c-0.916,0.074-1.852,0.044-2.704-0.205c0.152,2.677,0.922,5.095,2.193,7.346
			C332.735,346.406,332.844,346.584,332.958,346.762z"/>
	</g>
	<g>
		<path fill="#361B09" d="M347.099,353.834c-1.375-2.25-1.741-4.117-1.909-6.76c-0.339-0.195-0.65-0.446-0.947-0.708
			c-1.539,1.159-3.201,2.003-5.011,2.549C340.118,355.098,340.39,357.162,347.099,353.834z"/>
	</g>
	<g>
		<path fill="#361B09" d="M333.996,324.805c-1.521,0.177-3.797,0.424-5.432,0.398c-0.558,2.163-0.638,10.222,0.969,11.825
			c0.203,0.088,0.403,0.238,0.557,0.413c0.958,0.496,2.099,0.559,3.224,0.44c3.268-0.376,5.453-1.658,6.482-2.123
			c-2.545-2.563-3.367-6.229-3.782-9.835C334.704,325.763,333.769,325.808,333.996,324.805z"/>
	</g>
	<g>
		<path fill="#361B09" d="M355.342,335.311c0.496,1.201,5.932,7.383,5.977,7.417c4.769-3.818,6.34-11.875,0.882-18.851
			C361.675,328.299,358.914,333.338,355.342,335.311z"/>
	</g>
	<g>
		<path fill="#361B09" d="M352.172,334.089c-2.233-3.137-3.584-6.515-3.745-10.551c-3.318,1.792-7.227,2.704-11.191,2.49
			C338.414,335.597,343.834,340.413,352.172,334.089z"/>
	</g>
	<g>
		<path fill="#361B09" d="M323.353,338.827c0.005,2.894,0.292,7.66,3.094,8.46c0.629,0.004,2.135,0.254,5.003-0.58
			c-1.106-1.959-2.146-5.139-2.281-8.425c-0.036-0.025-0.072-0.05-0.108-0.076C327.178,338.736,325.297,338.957,323.353,338.827z"/>
	</g>
	<g>
		<path fill="#361B09" d="M324.698,348.084c-2.108-1.096-2.557-7.152-2.552-9.389c-0.061-0.01-0.836-0.117-1.785-0.328
			c-2.158,1.627-3.844,3.823-4.784,6.367c-0.241,0.652-0.468,1.34-0.577,2.028c-0.133,0.838,0.548,1.158,1.176,1.547
			c1.194,0.738,2.49,1.256,3.849,1.593c0.098-0.019,0.198-0.034,0.294-0.051C321.15,349.646,323.033,348.958,324.698,348.084z"/>
	</g>
	<g>
		<path fill="#361B09" d="M347.764,354.854c-2.46,1.255-7.527,2.772-8.477,0.173c-1.74,1.163-3.468,1.217-4.307,6.092
			c-0.02,0.115-0.041,0.209-0.067,0.293c-0.037,0.698,0.112,1.37,0.613,1.916c1.12,1.221,2.815,1.279,4.256,0.632
			c1.732-0.777,3.128-2.244,4.379-3.632c1.438-1.595,2.689-3.349,3.812-5.177C347.9,355.05,347.805,354.913,347.764,354.854z"/>
	</g>
	<g>
		<path fill="#361B09" d="M338.937,353.812c-0.351-1.612-0.593-2.612-0.878-4.587c-1.571,0.351-3.305,0.45-4.678-0.364
			c-0.469-0.278-0.876-0.661-1.233-1.107c-0.025,0.008-0.051,0.016-0.076,0.023c-0.05,0.015-0.1,0.031-0.149,0.046
			c-0.141,0.042-0.281,0.083-0.423,0.123c-0.083,0.023-0.166,0.045-0.248,0.067c-0.061,0.016-0.121,0.032-0.182,0.047
			c-1.366,0.349-2.431,0.47-3.589,0.49C328.292,356.577,331.596,358.85,338.937,353.812z"/>
	</g>
	<g>
		<path fill="#361B09" d="M359,341.644c-0.094-0.137-0.081-0.113-0.271-0.296c-4.228,3.987-10.211,6.215-12.307,6.1
			c0.401,5.078,2.823,7.068,2.867,7.631c0.002,0.031,0.002,0.062,0.001,0.091c0,0.003,0,0.006,0,0.01
			c-0.016,0.31-0.206,0.563-0.126,0.909c0.161,0.693,0.876,1.225,1.54,1.386c2.055,0.499,3.717-2.057,4.655-3.483
			C357.764,350.336,359.277,346.05,359,341.644z"/>
	</g>
	<g>
		<path fill="#361B09" d="M335.028,357.303c-1.086,0.462-2.894,1.189-4.007,0.805c-0.347-0.103-0.678-0.286-0.982-0.578
			c-2.017-1.935-3.436-5.724-3.758-8.932c-0.067,0.023-3.459,1.982-5.871,2.471c-0.021,0.004-0.041,0.008-0.062,0.013
			c-1.048,1.826-1.087,3.993-0.73,6.03c0.369,2.104,1.034,4.419,2.527,6.015c1.521,1.626,3.783,1.888,5.851,1.329
			c2.175-0.587,4-2.033,5.732-3.421C333.876,359.805,334.438,358.398,335.028,357.303z"/>
	</g>
	<g>
		<path fill="#361B09" d="M325.554,322.921c1.794,1.386,4.04,1.188,8.738,0.64c0.768-2.932,2.146-6.042,4.589-7.817
			c-2.103-0.186-4.142-0.919-5.901-2.133c-1.848,0.726-3.598,1.687-5.154,2.926c-1.291,1.028-2.809,2.359-3.146,4.065
			C324.501,321.508,324.82,322.354,325.554,322.921z"/>
	</g>
	<g>
		<path fill="#361B09" d="M321.244,337.316c0.51,0.109,1.021,0.19,1.539,0.252c1.774,0.188,3.627,0.106,5.342-0.412
			c-1.228-2.104-1.362-9.249-0.854-11.708c-1.794,0.458-3.504,1.184-5.084,2.162c-1.613,0.999-3.087,2.269-4.302,3.726
			c-0.593,0.711-1.203,1.49-1.623,2.32c-0.537,1.062,0.194,1.648,1.053,2.218s1.846,0.965,2.872,1.238
			C320.533,337.075,320.918,337.246,321.244,337.316z"/>
	</g>
</g>
<g>
	<g>
		<path fill="#361B09" d="M212.392,90.761c1.251-0.252,2.371-1.072,2.938-2.324c0.936-2.066,0.019-4.5-2.047-5.435
			c-2.066-0.936-4.5-0.019-5.436,2.047c-0.931,2.056-0.026,4.474,2.019,5.419c-2.154,2.465-3.441,5.482-4.299,8.644
			c-0.01,0.018-0.021,0.035-0.03,0.053c-0.098,0.183-0.129,0.356-0.12,0.516c-0.36,1.415-0.644,2.852-0.889,4.274
			c-0.556,3.231-0.835,6.546-0.523,9.798c-3.1-5.456-5.633-11.253-7.556-17.247c-0.177-0.55-0.343-1.103-0.509-1.655
			c-0.459-2.881-0.215-6.024,2.808-7.171c0.232-0.088,0.395-0.228,0.499-0.392c1.149,0.057,2.27-0.576,2.773-1.688
			c0.658-1.453,0.013-3.163-1.439-3.821c-1.452-0.658-3.163-0.014-3.821,1.439c-0.46,1.016-0.272,2.151,0.373,2.971
			c-1.21,0.703-2.118,1.779-2.703,3.045c-0.738-3.102-1.324-6.239-1.777-9.398c0.745-0.37,1.379-0.974,1.75-1.791
			c0.852-1.881,0.017-4.098-1.864-4.95s-4.098-0.018-4.95,1.864c-0.852,1.881-0.017,4.097,1.864,4.949
			c0.387,0.175,0.788,0.263,1.188,0.301c0.712,4.906,1.752,9.766,3.153,14.514c0.033,0.223,0.071,0.445,0.113,0.667
			c-3.313-3.319-6.921-6.319-10.806-8.961c0.666-1.975-0.239-4.168-2.178-5.046c-2.066-0.936-4.5-0.019-5.435,2.047
			c-0.936,2.066-0.02,4.5,2.047,5.435c1.542,0.698,3.287,0.363,4.462-0.709c4.8,3.283,9.211,7.112,13.095,11.447
			c0.114,0.127,0.241,0.217,0.375,0.276c2.792,7.867,6.57,15.358,11.338,22.176c-2.571-1.754-5.284-3.291-8.108-4.593
			c-2.503-4.298-5.861-8.039-9.862-10.994c-0.066-0.049-0.134-0.089-0.202-0.12c0.004-0.009,0.01-0.016,0.015-0.025
			c0.852-1.881,0.017-4.097-1.864-4.949s-4.098-0.018-4.95,1.864c-0.852,1.882-0.017,4.098,1.864,4.95
			c1.228,0.556,2.591,0.384,3.632-0.319c0.052,0.063,0.113,0.124,0.189,0.179c3.041,2.246,5.665,4.934,7.825,7.997
			c-2.697-1.039-5.478-1.873-8.316-2.488c-0.128-0.028-0.244-0.027-0.353-0.014c-0.302-0.712-0.853-1.322-1.614-1.667
			c-1.606-0.727-3.498-0.015-4.225,1.591c-0.728,1.606-0.015,3.498,1.591,4.225s3.498,0.015,4.225-1.591
			c0.072-0.16,0.12-0.324,0.164-0.488c9.591,2.1,18.439,6.824,25.563,13.574c2.609,2.991,5.441,5.807,8.499,8.414
			c5.046,4.3,10.641,7.953,16.618,10.822c1.193,0.573,2.041-1.3,0.848-1.873c-12.831-6.158-23.355-15.883-31.11-27.551
			c-0.007-0.093-0.026-0.19-0.063-0.292c-1.627-4.526-1.446-9.384-0.672-14.065c0.252-1.527,0.543-3.113,0.94-4.678
			c1.615-2.924,5.315-3.151,8.347-3.192c0.282,0.374,0.647,0.692,1.104,0.898c1.453,0.658,3.163,0.013,3.821-1.439
			c0.658-1.453,0.014-3.164-1.439-3.821s-3.164-0.013-3.821,1.439c-0.132,0.29-0.197,0.59-0.229,0.891
			c-2.246,0.07-4.568,0.342-6.491,1.324c0.84-1.959,1.975-3.758,3.571-5.202C212.336,90.829,212.362,90.794,212.392,90.761z"/>
		<circle fill="#361B09" cx="174.677" cy="108.421" r="3.192"/>
		<circle fill="#361B09" cx="192.475" cy="124.084" r="3.324"/>
		<circle fill="#361B09" cx="177.811" cy="123.745" r="3.74"/>
		<circle fill="#361B09" cx="181.64" cy="70.28" r="3.065"/>
		<circle fill="#361B09" cx="222.447" cy="85.394" r="3.065"/>
		<circle fill="#361B09" cx="198.606" cy="68.503" r="3.635"/>
	</g>
	<g>
		<circle fill="#C96D00" cx="185.24" cy="104.78" r="3.74"/>
		<circle fill="#C96D00" cx="183.744" cy="114.783" r="3.192"/>
		<circle fill="#C96D00" cx="174.677" cy="108.421" r="3.192"/>
		<circle fill="#C96D00" cx="192.475" cy="124.084" r="3.324"/>
		<circle fill="#C96D00" cx="177.811" cy="123.745" r="3.74"/>
		<circle fill="#C96D00" cx="179.228" cy="85.123" r="4.107"/>
		<circle fill="#C96D00" cx="211.588" cy="86.742" r="4.107"/>
		<circle fill="#C96D00" cx="190.994" cy="76.501" r="3.74"/>
		<circle fill="#C96D00" cx="181.64" cy="70.28" r="3.065"/>
		<circle fill="#C96D00" cx="222.447" cy="85.394" r="3.065"/>
		<circle fill="#C96D00" cx="199.389" cy="84.408" r="2.887"/>
		<circle fill="#C96D00" cx="218.079" cy="95.039" r="2.887"/>
		<circle fill="#C96D00" cx="198.606" cy="68.503" r="3.635"/>
	</g>
</g>
<g>
	<path fill="#361B09" d="M114.405,327.368c-0.67-0.73-1.516-1.306-2.458-1.612c-0.004-0.001-0.008-0.002-0.011-0.003
		c0.646-0.652,1.238-1.366,1.74-2.134c1.155-1.771,1.769-3.849,1.335-5.952c-0.004-0.031-0.01-0.063-0.018-0.095
		c-0.007-0.032-0.017-0.062-0.026-0.09c-1.024-3.68-5.172-5.615-8.75-4.893c-2.107,0.426-4.005,1.665-5.465,3.224
		c-0.747,0.798-1.407,1.685-1.962,2.628c-0.037,0.063-0.073,0.124-0.109,0.184c-3.594-2.339-8.544-1.67-11.311,1.703
		c-0.71,0.865-1.259,1.854-1.609,2.921c-0.111,0.339-0.196,0.686-0.262,1.036c-3.578-2.276-8.608-1.202-10.592,2.817
		c-0.522,1.057-0.83,2.219-0.838,3.403c0,0.101,0.002,0.2,0.007,0.3c-2.563-0.663-5.368,0.614-6.836,2.865
		c-1.383,2.122-1.589,4.78-1.165,7.236c-1.644,0.462-2.799,1.915-3.164,3.632c-0.476,2.237,0.084,4.649,0.553,6.844
		c0.485,2.274,1.074,4.529,1.423,6.83c0.173,1.141,0.278,2.293,0.262,3.448c-0.016,1.094-0.458,2.119,0.136,3.128
		c0.021,0.036,0.046,0.068,0.073,0.1c0.008,0.012,0.015,0.025,0.024,0.038c0.744,0.973,1.961,1.176,3.091,0.841
		c1.224-0.362,2.16-1.283,3.346-1.713c2.385-0.864,4.992,0.509,7.216,1.273c2.46,0.845,5.21,1.408,7.765,0.646
		c1.063-0.317,2.069-0.835,2.915-1.563c0.414-0.356,0.785-0.771,1.096-1.222c0.247-0.357,0.572-1.495,0.983-1.616
		c0.008-0.002,0.015-0.006,0.023-0.009c0.157,0.03,0.311,0.065,0.458,0.111c0.614,0.189,1.174,0.511,1.8,0.681
		c1.168,0.316,2.383,0.379,3.581,0.228c2.416-0.305,4.637-1.58,6.082-3.56c1.582-2.167,2.123-5.046,1.494-7.649
		c2.49-0.702,4.398-2.784,5.521-5.083c1.045-2.142,1.62-5.289-0.158-7.068c2.692-1.054,4.975-3.275,5.519-6.212
		c0.006-0.034,0.007-0.065,0.008-0.097c0.007-0.026,0.015-0.05,0.02-0.078C116.429,330.875,115.737,328.819,114.405,327.368z"/>
	<g>
		<g>
			<path fill="#C96D00" d="M72.239,358.981c-2.102,2.066-3.737,3.706-5.431,5.462c2.613,1.433,1.848-4.07,12.604-0.375
				c2.379,0.817,5.05,1.394,7.49,0.493c1.029-0.38,2.005-1.019,2.679-1.899c0.316-0.413,0.505-0.902,0.745-1.335
				C84.345,360.086,78.327,359.428,72.239,358.981z"/>
		</g>
		<g>
			<path fill="#C96D00" d="M67.751,342.482c0.01,0.043,0.019,0.087,0.029,0.13c0.005,0.024,0.01,0.048,0.016,0.072
				c0.074,0.338,0.149,0.676,0.222,1.014c0.717,3.303,2.429,11.657,2.652,14.985c2.064-2.037,3.837-3.751,6.172-6.048
				c0.064-6.438-0.584-12.773-2.142-18.861c-0.136-0.494-0.281-0.987-0.399-1.485c-0.003-0.012-0.006-0.024-0.01-0.037
				c-1.512-0.661-3.295-0.251-4.603,0.703c-1.534,1.12-2.306,2.988-2.469,4.846c-0.136,1.546,0.157,2.983,0.482,4.46
				C67.719,342.335,67.734,342.409,67.751,342.482z"/>
		</g>
		<g>
			<path fill="#C96D00" d="M108.7,326.01c0.429-0.125,0.896-0.312,1.356-0.414c0.814-0.375,1.511-1.311,2.032-1.997
				c1.245-1.639,2.095-3.632,1.634-5.716c-0.499-1.902-2.084-3.238-3.907-3.809c-3.829-1.2-7.445,1.29-9.505,4.408
				c-0.235,0.355-0.664,0.873-0.727,1.297c0.186,2.796-0.09,5.521-2.479,10.181C98.364,329.515,101.729,328.03,108.7,326.01z"/>
		</g>
		<g>
			<path fill="#C96D00" d="M87.112,328.152c0.008,0.056,0.014,0.112,0.021,0.167c0.03,0.236,0.059,0.472,0.086,0.708
				c0.013,0.114,0.024,0.228,0.036,0.341c0.425,3.979,0.337,8.243-0.311,12.676c5.104-5.909,11.627-14.243,11.343-22.096
				c-1.864-1.321-4.233-1.761-6.443-1.122c-2.053,0.593-3.748,2.206-4.593,4.166c-0.458,1.061-0.646,2.084-0.44,3.221
				C86.928,326.857,87.026,327.504,87.112,328.152z"/>
		</g>
		<g>
			<path fill="#C96D00" d="M75.881,333.108c0.05,0.18,0.099,0.361,0.145,0.543c0.324,1.276,0.606,2.563,0.85,3.856
				c0.849,4.5,1.259,9.212,1.281,13.829c4.132-4.104,10.937-6.7,7.25-25.511c-1.809-1.532-4.534-1.902-6.663-0.842
				c-1.911,0.952-3.202,2.997-3.35,5.129c-0.051,0.732,0.076,1.423,0.25,2.11C75.724,332.518,75.804,332.813,75.881,333.108z"/>
		</g>
		<g>
			<path fill="#C96D00" d="M69.393,359.949c0.063-3.543-2.271-14.306-3.052-17.779c-1.797,0.484-2.342,2.75-2.289,4.428
				c0.134,4.21,3.008,11.723,2.328,16.398C67.058,362.297,68.197,361.14,69.393,359.949z"/>
		</g>
		<g>
			<path fill="#C96D00" d="M112.539,327.487c-0.383-0.251-0.8-0.441-1.246-0.55c-0.482-0.118-0.871-0.045-1.32,0.077
				c-0.318,0.09-0.635,0.182-0.953,0.274c-0.201,0.058-0.403,0.116-0.604,0.175c-14.787,4.343-11.398,3.7-16.341,10.311
				c4.258-0.186,11.844-0.4,16.041,0.362c0.049,0.009,0.097,0.019,0.146,0.028c0.152,0.028,0.305,0.057,0.456,0.088
				c0.122,0.025,0.243,0.053,0.364,0.08c2.756-0.7,5.187-2.726,5.761-5.612C115.103,330.721,114.243,328.603,112.539,327.487z"/>
		</g>
		<g>
			<path fill="#C96D00" d="M108.937,339.645c-4.414-1.036-13.368-0.744-17.91-0.5c-1.874,2.396-4.119,5.021-6.964,8.033
				c5.419,0.138,16.5,2.333,20.189,3.073c0.003,0,0.007-0.002,0.01-0.003c2.29-0.4,3.986-2.105,5.086-4.086
				C110.421,344.229,111.37,340.942,108.937,339.645z"/>
		</g>
		<g>
			<path fill="#C96D00" d="M100.702,350.896c-3.589-0.679-14.243-2.652-17.918-2.379c-4.429,4.587-7.125,7.114-9.295,9.238
				c5.107,0.401,10.213,0.979,15.251,1.922c0.139,0.026,0.277,0.052,0.416,0.078c0.157,0.03,0.314,0.061,0.472,0.091
				c0.138,0.027,0.276,0.053,0.414,0.081c0.675,0.135,1.337,0.262,2.017,0.352c0.537,0.07,1,0.313,1.495,0.514
				c1.061,0.431,2.192,0.605,3.333,0.548c2.306-0.115,4.552-1.271,5.874-3.198c1.327-1.936,1.741-4.36,1.159-6.621
				C102.848,351.308,101.775,351.1,100.702,350.896z"/>
		</g>
	</g>
</g>
<g>
	<g>
		<path fill="#957552" d="M371.332,140.2c0.185,2.596-1.462,5.519-4.053,5.767c-1.599,0.153-3.148-0.735-4.233-1.92
			c-1.037-1.131-2.174-2.715-3.667-2.357c-0.866,0.208-1.418,1.024-1.996,1.703s-1.459,1.316-2.294,1.003
			c-1.217-0.456-0.994-2.212-0.663-3.469c0.466-1.768,0.684-3.601,0.647-5.429c-0.015-0.705-0.296-1.632-1-1.6
			c-0.245,0.011-0.464,0.15-0.654,0.304c-1.448,1.171-1.815,3.237-3.013,4.663c-0.599,0.712-1.602,1.269-2.438,0.863
			c-0.337-0.164-0.591-0.461-0.801-0.771c-1.757-2.589-1.011-6.1,0.168-8.998c0.609-1.497,1.331-3.107,0.908-4.667
			c-0.133-0.49-0.493-1.02-1-0.985c-0.271,0.019-0.5,0.198-0.711,0.369c-1.021,0.832-2.042,1.663-3.062,2.495
			c-0.552,0.449-1.228,0.927-1.912,0.732c-1.163-0.332-1.01-2.034-0.516-3.138c1.094-2.443,2.619-4.692,4.484-6.612
			c0.521-0.536,1.078-1.061,1.41-1.729s0.393-1.535-0.067-2.123c-0.851-1.088-2.61-0.487-3.697,0.365
			c-1.087,0.853-2.327,1.949-3.653,1.563c-1.021-0.298-1.613-1.447-1.571-2.511c0.042-1.063,0.583-2.041,1.196-2.91
			c1.48-2.098,3.478-3.859,4.543-6.195c0.235-0.515,0.421-1.11,0.215-1.637c-0.325-0.83-1.452-1.033-2.303-0.769
			s-1.573,0.846-2.413,1.145c-0.84,0.299-1.958,0.201-2.383-0.583c-0.313-0.575-0.131-1.287,0.106-1.897
			c0.806-2.068,2.172-3.885,2.938-5.967c0.777-2.112,0.9-4.458,0.348-6.64c0.85,0.795,1.7,1.59,2.549,2.385
			c0.96,0.898,1.938,1.808,3.108,2.405c2.754,1.406,6.063,0.869,9.108,1.4c1.568,0.274,3.205,0.938,3.998,2.318
			c0.793,1.38,0.219,3.548-1.34,3.868c-0.396,0.081-0.833,0.049-1.167,0.277c-0.533,0.364-0.474,1.228-0.041,1.707
			c0.433,0.478,1.097,0.661,1.729,0.788c2.465,0.499,5.014,0.51,7.465,1.075c2.451,0.564,4.921,1.826,6.077,4.06
			c0.197,0.381,0.355,0.803,0.31,1.23c-0.115,1.085-1.409,1.606-2.499,1.662c-2.194,0.112-4.401-0.703-6.562-0.307
			c-0.457,0.084-0.946,0.253-1.181,0.654c-0.454,0.776,0.347,1.686,1.119,2.146c2.076,1.237,4.491,1.746,6.761,2.574
			c2.27,0.828,4.555,2.125,5.609,4.3c0.54,1.113,0.643,2.607-0.259,3.455c-1.002,0.942-2.622,0.594-3.897,0.077
			c-1.275-0.517-2.704-1.149-3.964-0.597c-0.205,0.09-0.408,0.221-0.5,0.424c-0.207,0.458,0.233,0.935,0.645,1.222
			c2.879,2.009,6.798,2.911,8.491,5.987c0.226,0.41,0.396,0.934,0.143,1.327c-0.208,0.322-0.937,1.083-1.318,1.126
			c-1.067,0.119-1.668,0-2.62-0.498c-0.627-0.328-1.207-0.748-1.865-1.006C367.269,131.213,371.234,137.718,371.332,140.2z"/>
	</g>
	<path fill="#C69C6D" d="M334.298,81.658c4.436,4.423,7.63,9.686,10.191,15.291c-0.837,0.881-1.541,1.878-2.397,2.744
		c-0.325,0.329,0.182,0.841,0.509,0.51c0.792-0.801,1.451-1.714,2.208-2.544c0.926,2.08,1.77,4.202,2.561,6.345
		c0.115,0.311,0.236,0.617,0.356,0.925c-1.631,2.209-3.449,4.286-5.013,6.545c-0.264,0.381,0.36,0.742,0.623,0.362
		c1.463-2.115,3.149-4.071,4.697-6.125c0.007,0.017,0.014,0.034,0.021,0.051c0.006,0.08,0.036,0.156,0.088,0.213
		c1.064,2.593,2.301,5.08,3.71,7.502c-2.424,2.585-4.529,5.428-6.29,8.506c-0.229,0.402,0.392,0.766,0.623,0.362
		c1.698-2.97,3.719-5.713,6.046-8.218c0.073,0.123,0.15,0.244,0.224,0.366c0.003,0.005,0.007,0.01,0.01,0.016
		c0.177,0.292,0.352,0.583,0.534,0.874c0.944,1.505,1.926,2.988,2.906,4.471c-2.214,3.608-3.883,7.526-5.074,11.585
		c-0.131,0.446,0.563,0.637,0.694,0.192c1.142-3.89,2.729-7.637,4.821-11.11c1.271,1.928,2.529,3.863,3.688,5.861
		c0.131,0.227,0.261,0.455,0.39,0.683c-1.041,3.091-1.743,6.274-2.199,9.501c-0.065,0.459,0.656,0.463,0.72,0.01
		c0.415-2.932,1.052-5.83,1.955-8.65c2.013,3.715,3.598,7.647,4.189,11.86c0.064,0.459,0.762,0.279,0.698-0.176
		c-0.639-4.555-2.403-8.693-4.606-12.633c-0.007-0.09-0.054-0.163-0.12-0.213c-0.208-0.369-0.42-0.737-0.636-1.104
		c3.431,0.599,6.59,2.169,9.564,3.941c0.398,0.237,0.761-0.385,0.362-0.623c-3.229-1.925-6.649-3.568-10.399-4.115
		c-1.05-1.74-2.164-3.448-3.278-5.144c-0.016-0.038-0.039-0.072-0.067-0.102c-0.619-0.942-1.238-1.88-1.847-2.817
		c-0.434-0.669-0.86-1.342-1.276-2.018c5.705,0.987,11.314,2.745,16.255,5.816c0.394,0.245,0.756-0.377,0.362-0.623
		c-5.187-3.225-11.112-5.031-17.109-6.004c-1.53-2.547-2.912-5.159-4.055-7.911c5.459-0.103,10.857,0.67,16.053,2.375
		c0.441,0.145,0.632-0.55,0.192-0.694c-5.347-1.753-10.916-2.534-16.536-2.395c-0.113-0.285-0.223-0.57-0.331-0.857
		c-0.81-2.165-1.627-4.314-2.525-6.429c3.016,0.46,6.064,0.673,9.075,1.172c0.453,0.075,0.65-0.618,0.192-0.694
		c-3.186-0.529-6.414-0.734-9.601-1.253c-0.696-1.596-1.442-3.17-2.277-4.714c-2.257-4.17-5.007-8.069-8.371-11.422
		C334.48,80.822,333.969,81.33,334.298,81.658z"/>
</g>
<g>
	<g>
		<path fill="#FBB03B" d="M106.444,243.624c-0.969-2.445-4.276-5.259-6.622-6.448c-2.346-1.188-4.953-1.757-7.545-2.204
			c-3.975-0.684-7.994-1.108-12.024-1.269c0.603,2.181,1.219,4.395,2.4,6.326c1.181,1.931,3.021,3.576,5.246,3.991
			c-4.885-1.364-9.974,1.421-13.764,4.792c-3.79,3.371-7.06,7.498-11.614,9.73c7.393,1.867,15.121-0.506,22.374-2.857
			c-5.037,2.703-9.392,6.664-12.558,11.423c-3.158,4.748-5.269,10.401-9.738,13.942c8.766-0.228,17.479-2.312,25.4-6.074
			c-4.089,3.13-5.182,8.843-5.01,13.989s1.293,10.331,0.39,15.4c4.946-2.403,9.986-4.872,13.914-8.72
			c3.927-3.849,6.618-9.391,5.667-14.807c0.723,3.354,2.086,6.976,4.703,9.525c2.618,2.548,5.69,4.676,7.833,7.634
			c1.239-4.61,2.485-9.252,2.849-14.012c0.365-4.76-0.201-9.697-2.414-13.926c3.366,5.258,8.606,9.287,14.552,11.189
			c2.18-10.332-1.936-21.736-10.212-28.293c4.873,0.635,9.988-0.883,13.726-4.074C127.366,242.162,115.267,240.262,106.444,243.624z
			"/>
	</g>
	<path fill="#FFC66E" d="M126.464,250.043c-0.127-0.264-0.292-0.468-0.483-0.621c0.003-0.113-0.046-0.226-0.174-0.299
		c-2.812-1.614-6.049-1.101-9.063-0.428c-2.016,0.45-5.729,1.327-8.164,0.416c-0.182-0.191-0.341-0.398-0.48-0.623
		c0-0.099,0.003-0.191,0.014-0.275c0.711-0.008,1.419-0.115,1.894-0.208c0.508-0.099,1.014-0.245,1.52-0.416
		c0.085-0.014,0.17-0.029,0.252-0.044c0.092-0.017,0.156-0.059,0.198-0.114c0.202-0.074,0.403-0.15,0.605-0.229
		c0.376-0.101,0.749-0.213,1.121-0.328c0.834-0.257,1.667-0.543,2.53-0.692c0.15-0.026,0.294-0.04,0.435-0.048
		c0.058,0.012,0.119,0.012,0.179-0.005c0.722-0.009,1.352,0.168,2.121,0.197c0.529,0.02,1.039-0.34,0.992-0.783
		c0.108-0.188,0.069-0.459-0.202-0.52c-0.054-0.012-0.108-0.02-0.163-0.03c-0.501-0.379-1.24-0.313-1.908-0.084
		c-1.334,0.127-2.618,0.603-3.91,1.117c-0.211,0.083-0.726,0.273-1.391,0.489c-0.231,0.061-0.464,0.117-0.699,0.164
		c-0.884,0.174-1.693,0.103-2.579,0.096c-0.042,0-0.084,0-0.126,0.001c-0.745-0.295-1.25-0.939-1.236-2.154
		c0.018-1.48,0.23-2.984,0.439-4.447c0.006-0.042,0.004-0.08,0-0.117c0.034-0.216,0.065-0.431,0.088-0.646
		c0.051-0.467,0.044-1.064-0.533-1.201c-0.475-0.112-0.681,0.222-0.81,0.597c-0.284,0.826-0.356,1.821-0.406,2.755
		c-0.009,0.072-0.015,0.146-0.022,0.219c-0.041,0.053-0.069,0.12-0.074,0.202c-0.085,1.281-0.445,2.742-1.618,3.326
		c-0.138-0.006-0.274-0.02-0.41-0.041c-1.158-0.518-2.131-1.378-3.136-2.2c-1.3-1.063-2.666-2.04-4.105-2.906
		c-2.517-1.515-5.803-3.318-8.61-1.458c-0.202,0.134-0.23,0.384-0.073,0.565c0.484,0.556,1.097,0.484,1.785,0.445
		c0.115-0.006,0.229-0.007,0.344-0.009c2.565,0.562,5.133,1.211,7.488,2.387c0.106,0.053,0.209,0.11,0.314,0.167
		c0.278,0.191,0.553,0.386,0.823,0.591c0.556,0.423,1.106,0.903,1.674,1.362c-1.167-0.466-2.483-0.706-3.584-1.033
		c-1.378-0.409-2.789-0.967-4.198-1.247c-0.445-0.088-1.026-0.157-1.256,0.353c-0.332,0.735,0.448,1.262,1.439,1.627
		c0.668,0.346,1.394,0.486,2.144,0.555c0.321,0.06,0.577,0.101,0.714,0.125c2.214,0.381,4.599,0.581,6.415,1.946
		c-1.061-0.018-2.124-0.026-3.187-0.016c-8.969-0.474-17.981,1.989-25.463,7.015c-0.121,0.081-0.226,0.255-0.166,0.406
		c0.451,1.128,1.799,0.207,2.505-0.181c3.981-1.131,7.559-3.303,11.415-4.797c0.08-0.031,0.16-0.057,0.239-0.087
		c1.689-0.412,3.4-0.734,5.124-0.969c0.178,0,0.356,0,0.535,0.006c0.119,0.004,0.207-0.041,0.264-0.109
		c1.731-0.208,3.474-0.328,5.222-0.355c-0.796,0.256-1.583,0.551-2.365,0.866c-1.348,0.369-2.678,0.837-3.993,1.321
		c-1.753,0.644-3.506,1.309-5.323,1.756c-0.613,0.15-2.255,0.33-1.856,1.392c0.354,0.944,2.014,0.175,2.593-0.015
		c1.561-0.512,3.035-1.246,4.521-1.938c2.698-1.257,5.48-2.121,8.379-2.522c0.669-0.032,1.343-0.019,2.024,0.049
		c-0.15,0.173-0.3,0.347-0.448,0.521c-3.858,3.263-8.956,4.998-13.232,7.631c-2.217,1.365-4.302,2.948-6.217,4.713
		c-2.449,1.974-4.79,4.205-6.147,7.047c-0.117,0.021-0.223,0.098-0.265,0.247c-0.175,0.627-0.956,2.207,0.139,2.474
		c1.174,0.287,1.882-2.028,2.311-2.73c1.952-3.187,4.509-5.961,7.497-8.202c0.053-0.04,0.09-0.087,0.115-0.138
		c4.273-2.866,9.216-5.118,13.401-8.111c-2.171,2.745-4.284,5.62-6.48,8.406c-1.249,1.471-2.498,2.94-3.789,4.374
		c-0.12,0.133-0.243,0.265-0.363,0.397c-2.031,2.041-4.129,4.023-6.327,5.875c-0.171,0.145-0.344,0.288-0.518,0.429
		c-3.002,1.972-6.271,3.451-9.751,4.4c-0.11,0.03-0.232,0.132-0.251,0.251c-0.06,0.378,0.064,0.602,0.309,0.713
		c0.066,0.068,0.159,0.109,0.271,0.099c0.079,0.094,0.2,0.151,0.353,0.119c3.282-0.702,6.215-2.37,8.902-4.439
		c3.283-2.29,6.15-5.16,8.823-8.273c2.298-2.358,4.514-4.797,6.629-7.321c0.89-1.063,1.732-2.166,2.605-3.243
		c0.16-0.161,0.318-0.325,0.481-0.485c0.51-0.501,1.132-1.258,1.826-1.731c0.053,0.017,0.112,0.023,0.176,0.013
		c0.206-0.031,0.394-0.031,0.57-0.007c0.009,0.269,0.023,0.538,0.042,0.806c-0.69,2.968-1.824,5.802-3.397,8.435
		c-1.789,2.993-4.013,5.689-6.07,8.495c-2.019,2.753-3.873,5.641-5.014,8.878c-1.203,3.414-1.619,7.053-1.3,10.653
		c0.017,0.182,0.125,0.291,0.254,0.33c0.114,0.077,0.276,0.086,0.399,0.022c0.121-0.063,0.223-0.151,0.309-0.251
		c0.188,0.012,0.39-0.102,0.396-0.346c0.099-4.044,0.342-8.246,2.098-11.963c1.666-3.528,4.575-6.224,6.919-9.282
		c2.024-2.642,3.653-5.538,4.911-8.591c-1.691,13.196-4.152,27.216-14.104,36.83c-0.158,0.152-0.135,0.462,0.073,0.565
		c1.461,0.724,2.764-1.32,3.566-2.266c1.065-1.256,2.033-2.593,2.914-3.984c0.831-1.069,1.594-2.191,2.253-3.391
		c1.91-3.476,2.979-7.335,3.737-11.208c1.39-5.545,2.089-11.229,2.725-16.915c0.127-0.893,0.253-1.787,0.379-2.68
		c0.045,1.007,0.081,2.014,0.102,3.022c0,0.003,0.001,0.006,0.001,0.009c-0.09,2.142-0.139,4.286-0.106,6.428
		c-0.063,1.141-0.079,2.281-0.016,3.417c0.098,1.77,0.337,3.525,0.703,5.25c0.365,2.336,0.897,4.646,1.664,6.885
		c0.765,2.235,1.645,4.725,3.498,6.288c0.271,0.292,0.56,0.569,0.869,0.83c0.153,0.129,0.356,0.141,0.509,0
		c0.299-0.276,0.299-0.558,0.165-0.938c-0.204-0.579-0.719-1.159-1.158-1.688c-0.232-0.382-0.504-0.754-0.729-1.143
		c-0.789-1.358-1.461-2.783-2.019-4.251c-1.057-2.783-1.727-5.708-2.09-8.66c-0.387-3.141-0.433-6.298-0.286-9.452
		c0.023,0.105,0.043,0.21,0.067,0.314c1.089,4.687,3.85,8.74,5.208,13.331c-0.049,0.073-0.066,0.169-0.026,0.282
		c0.127,0.361,0.255,0.722,0.382,1.083c0.068,0.193,0.331,0.368,0.529,0.215c0.045-0.035,0.084-0.074,0.126-0.112
		c0.112-0.027,0.214-0.106,0.267-0.243c0.016-0.04,0.024-0.078,0.037-0.117c0.088-0.142,0.157-0.297,0.193-0.472
		c0.028-0.129-0.011-0.237-0.081-0.314c-0.019-0.462-0.17-0.912-0.351-1.393c-0.397-1.054-0.829-2.095-1.256-3.136
		c-0.797-1.944-1.607-3.884-2.313-5.864c-1.023-2.87-1.806-5.837-2.016-8.854c-0.002-0.273-0.002-0.546,0.004-0.82
		c0.002-0.08-0.019-0.145-0.053-0.197c-0.011-0.442-0.007-0.885,0.009-1.329c0.613,1.222,1.43,2.301,2.355,3.294
		c0.979,1.246,2.101,2.386,3.078,3.396c0.662,0.685,1.43,1.354,2.223,2.033c2.09,2.142,3.852,4.546,5.262,7.194
		c0.01,0.018,0.022,0.032,0.034,0.047c0.236,0.421,0.627,0.752,1.106,0.912c0.194,0.064,0.382-0.076,0.443-0.251
		c0.158-0.454,0.11-0.911-0.099-1.338c-0.026-0.053-0.059-0.093-0.095-0.122c-1.032-3.925-4.797-6.362-7.617-9.011
		c-2.146-2.015-4.131-4.317-5.47-6.917c1.512,1.698,3.608,3.046,5.506,4.118c3.943,2.225,8.17,4.801,10.215,8.885
		c0.287,0.765,0.575,1.53,0.862,2.294c0.036,0.14,0.071,0.279,0.103,0.422c0.021,0.097,0.07,0.162,0.132,0.204
		c0.047,0.125,0.094,0.25,0.141,0.376c0.106,0.282,0.489,0.368,0.658,0.086c1.017-1.695-0.116-3.521-1.179-4.889
		c-1.458-1.877-3.234-3.468-5.131-4.89c-1.949-1.46-4.027-2.736-6.103-4.005c-1.875-1.146-4.167-2.421-5.068-4.458
		c-0.027-0.085-0.054-0.17-0.081-0.255c-0.094-0.351-0.172-0.706-0.229-1.068c2.368,0.946,4.878,1.011,7.495,0.552
		c1.884-0.331,3.765-0.831,5.69-0.833c1.756-0.002,3.37,0.961,5.092,0.85c0.048,0.017,0.097,0.033,0.146,0.05
		C126.379,250.684,126.588,250.303,126.464,250.043z"/>
</g>
</svg>
