<?xml version="1.0" encoding="utf-8"?>
<!-- Generator: Adobe Illustrator 21.1.0, SVG Export Plug-In . SVG Version: 6.00 Build 0)  -->
<svg version="1.1" id="Calque_1" xmlns="http://www.w3.org/2000/svg" xmlns:xlink="http://www.w3.org/1999/xlink" x="0px" y="0px"
	 viewBox="0 0 432 432" style="enable-background:new 0 0 432 432;" xml:space="preserve">
<style type="text/css">
	.st0{fill:#1A1A1A;}
	.st1{fill:#C167A6;}
	.st2{fill:#5F9D67;}
	.st3{fill:#7292A0;}
	.st4{fill:#FBB03B;}
	.st5{fill:#4D423A;}
	.st6{fill:#5D9B7C;}
	.st7{fill:#736357;}
	.st8{fill:#DDD2C0;}
	.st9{fill:#AA3C44;}
	.st10{fill:#999999;}
	.st11{fill:#333333;}
	.st12{fill:#426393;}
	.st13{fill:#EE7E8C;}
	.st14{fill:#4C3670;}
	.st15{fill:#C6863D;}
	.st16{fill:#2480BD;}
	.st17{fill:#7AB9CD;}
	.st18{fill:#9E0B16;}
	.st19{fill:#231F20;}
	.st20{fill:#FC6F7E;}
	.st21{fill:#F9B761;}
	.st22{fill:#A261C1;}
	.st23{fill:#93BA32;}
	.st24{fill:#8CC63F;}
	.st25{fill:#009245;}
	.st26{fill:#FFC46E;}
	.st27{fill:#FFD4A1;}
	.st28{fill:#E8872E;}
	.st29{fill:#EA7DA2;}
	.st30{fill:#C40E1B;}
	.st31{fill:#F7931E;}
	.st32{fill:#87AA44;}
</style>
<g>
	<g>
		<path class="st26" d="M205.8,78.7c1,0.1,1.9,0.2,2.7,0.4c7,1.2,14.1,2.5,21.1,3.7c3.6,0.6,7.3,1,10.9,1.6c8.4,1.4,16.7,2.8,25,4.2
			c1.5,0.3,3.1,0.6,4.6,0.8c0.8,0.1,1.3,0.5,1.6,1.3c4.8,9.4,10.9,17.8,17.3,26.1c0.9,1.2,2,2.3,3.1,3.5c0.1,0.1,0.2,0.3,0.2,0.4
			c-0.1,0.1-0.1,0.2-0.2,0.2c-7,2.3-14,4.6-20.9,6.9c-2.6,0.9-5.2,1.8-7.8,2.8c-0.6,0.2-1.3,0.5-1.9,0.9c-1.4,0.9-1.3,2.2,0.2,2.9
			c0.6,0.3,1.3,0.4,2,0.5c2.6,0.4,5.3,0.7,7.9,1.1c0.6,0.1,1.1,0.2,1.8,0.3c-0.1,0.5-0.2,0.9-0.3,1.3c-0.4,1.3-0.9,2.6-1.4,3.9
			c-0.2,0.7-0.4,1.3-0.5,2c-0.2,1.2,0.7,2.1,1.9,1.8c0.9-0.2,1.8-0.7,2.6-1.2c1.6-1,3.2-2.2,4.7-3.3c1.6-1.1,3.2-2.3,4.8-3.4
			c2.1-1.4,4.3-2.7,6.4-4c2.2-1.4,4.4-2.8,6.7-4.1c0.4-0.3,0.9-0.5,1.4-0.9c0.9,0.8,1.7,1.5,2.6,2.3c-0.2,0.6-0.5,1.1-0.7,1.7
			c-2,4.5-4.1,8.9-6.1,13.4c-2.9,6.4-5.8,12.8-8.6,19.2c-0.2,0.5-0.5,1-0.6,1.6c-0.3,1.1,0.4,1.9,1.6,1.7c0.7-0.1,1.4-0.5,2-0.9
			c2.3-1.4,4.6-3,6.9-4.4c1.1-0.7,2.4-1.2,3.8-2c0.1,0.9,0.1,1.5,0.1,2.2c0,0.9,0.1,1.9,0,2.8c-0.1,2.5,0.4,4.8,1.3,7.1
			c0.1,0.2,0.2,0.5,0.3,0.7c0.5,0.9,1.5,1.1,2.3,0.3c0.4-0.4,0.7-0.9,0.9-1.4c0.6-1.7,1.1-3.4,1.5-5.2c1.8-7.9,3.4-15.7,5.2-23.6
			c0.3-1.5,0.9-3,1.3-4.6c0.5,0.3,0.9,0.5,1.3,0.8c3.6,2.4,7.1,4.9,10.7,7.2c2.7,1.7,5.5,3.3,8.3,4.9c0.7,0.4,1,0.8,1.1,1.6
			c1.5,10.4,3.4,20.8,5.7,31.1c1.5,6.9,3.2,13.8,4.8,20.7c0.4,1.8,0.9,3.7,1.3,5.5c0.1,0.3,0,0.5,0.1,0.9c-0.3-0.1-0.6-0.2-0.8-0.3
			c-11.5-4.7-23.3-8.2-35.5-10.3c-7.9-1.4-15.6-3.3-23.3-5.5c-11.2-3.2-21-8.9-29.7-16.6c-10.7-9.5-19.1-20.7-25.7-33.3
			c-3.8-7.2-7-14.7-10-22.2c-2.6-6.3-4.7-12.8-7-19.2c-2.6-7.4-5.3-14.7-7.9-22C206.6,81.3,206.2,80.1,205.8,78.7z"/>
		<path class="st26" d="M352.2,125.6c-0.7,1.3-1.3,2.6-2.1,3.7c-1.2,1.8-2.4,3.6-3.9,5.2c-3.6,4-7.3,7.9-11,11.9
			c-0.4-0.2-0.7-0.3-1-0.5c-2.9-1.8-5.9-3.6-8.8-5.6c-4.6-3.1-9.1-6.2-13.6-9.4c-4.6-3.4-8.8-7.3-12.7-11.6
			c-4.3-4.7-8.3-9.6-11.9-14.8c-4-5.8-8-11.7-11.1-18.1c-0.1-0.3-0.3-0.6-0.4-0.9c0.1-0.2,0.2-0.4,0.3-0.5
			c3.6-4.1,7.1-8.2,10.7-12.3c1.6-1.7,3.3-3.3,5-4.9c0.8-0.7,1.6-1.3,2.7-1.9c-0.2,3.5,1.4,6.2,3.1,8.9
			c6.9,11.1,15.1,21.2,24.7,30.2c4.9,4.6,10,9.1,15.5,13c1.8,1.3,3.7,2.4,5.6,3.5c2.5,1.4,5,2.7,7.8,3.6
			C351.4,125.3,351.7,125.4,352.2,125.6z"/>
		<path class="st27" d="M352.6,120.7c-0.1,0.6-0.1,1.3-0.2,1.9c-0.1,0.7-0.4,0.9-1.1,0.7c-1.4-0.6-2.9-1.1-4.3-1.8
			c-4.9-2.4-9.3-5.6-13.5-9c-5.1-4.3-10.1-8.7-14.7-13.5c-5.1-5.2-9.7-10.8-14-16.7c-2-2.8-3.8-5.6-5.7-8.4c-1.1-1.6-2-3.4-2.5-5.3
			c-0.2-0.7-0.3-1.4-0.3-2.1c0-1,0.6-1.6,1.6-1.6c1.1,0,2.3,0.1,3.4,0.3c6.8,1.3,12.8,4.3,18,8.9c1.8,1.6,3.6,3.2,5.4,4.8
			c1.1,1,2,2.3,3,3.4c3.1,3.7,6.2,7.5,9.4,11.1c2.9,3.3,5.7,6.6,8.1,10.3c1.9,2.9,3.9,5.8,5.3,9.1c0.9,2.1,1.7,4.3,2,6.7
			C352.5,119.8,352.6,120.2,352.6,120.7z"/>
		<path class="st28" d="M270.5,191.5c2.3,1.1,4.5,2.3,6.8,3.3c4.6,2.1,9.4,3.3,14.2,4.7c7.4,2.1,14.9,3.5,22.5,4.9
			c9,1.7,17.7,4.3,26.2,7.5c3.4,1.3,5.6,4,6.8,7.3c0.7,2,0.4,3.9-1.1,5.6c-1,1.1-2.2,1.4-3.5,1.4c-2.2-0.1-4.3-0.2-6.5-0.6
			c-7.5-1.2-14.7-3.6-21.5-6.9c-1.7-0.8-3.5-1.6-5.2-2.4c-2.8-1.4-5.5-2.8-8.2-4.3c-3.1-1.7-6.1-3.5-9.1-5.2
			c-5.8-3.4-11.4-7.2-16.6-11.5c-1.5-1.3-3.1-2.5-4.7-3.7C270.4,191.6,270.4,191.5,270.5,191.5z"/>
		<path class="st28" d="M232.7,152.8c-0.9-1.1-1.7-2.3-2.6-3.4c-4.3-5.7-8.2-11.6-11.7-17.8c-1.9-3.3-3.6-6.8-5.5-10.1
			c-1.7-3.1-3.4-6.2-5.2-9.3c-3.4-6.1-6-12.5-7.9-19.2c-0.7-2.5-1.1-5-0.4-7.5c0.3-1.1,0.8-2,1.2-3c0.1-0.3,0.4-0.5,0.6-0.7
			c0.9-0.7,1.5-0.6,2.2,0.4c1.1,1.6,2,3.3,2.6,5.1c3.4,9.8,6.8,19.5,10.4,29.2c4.5,12.2,9.4,24.3,16,35.6c0.1,0.2,0.2,0.5,0.4,0.7
			C232.8,152.7,232.8,152.8,232.7,152.8z"/>
		<path class="st29" d="M289.3,165c4.9-10.9,9.7-21.7,14.7-32.8c0.8,0.7,1.6,1.3,2.5,2c0.9,0.7,1.7,1.4,2.6,2c0.8,0.6,1.7,1.3,2.7,2
			c-3.6,10.7-4.9,22.1-7.8,33.1c-0.8-1.1-1-1.9-1-3.7c0-1.8,0-3.6-0.1-5.4c0-0.6-0.1-1.2-0.2-1.8c-0.3-1.5-1-2-2.4-1.4
			c-1.5,0.6-3,1.4-4.4,2.2c-1.9,1.1-3.7,2.4-5.6,3.5c-0.2,0.1-0.5,0.3-0.7,0.4C289.4,165.1,289.3,165,289.3,165z"/>
		<path class="st29" d="M264.1,132.5c9.9-3.6,19.9-6.9,29.9-10.2c1.4,1.6,2.8,3,4.2,4.5c-0.4,0.2-0.6,0.5-0.9,0.7
			c-3.5,2.1-7,4.2-10.5,6.4c-2.2,1.4-4.2,2.9-6.3,4.4c-1.9,1.3-3.7,2.6-5.6,3.9c-0.3,0.2-0.7,0.4-1.2,0.8c0.1-0.5,0.2-0.8,0.3-1.1
			c0.4-1.3,0.9-2.5,1.3-3.8c0.2-0.6,0.4-1.3,0.4-1.9c0.1-1.1-0.4-1.7-1.5-1.9c-2.1-0.4-4.1-0.7-6.2-1c-1.3-0.2-2.6-0.3-3.9-0.5
			C264.1,132.7,264.1,132.6,264.1,132.5z"/>
	</g>
	<g>
		<path class="st29" d="M131,196.2c0.1-10.4,2.8-19.3,8.1-27.3c1.6-2.4,3.5-4.7,5.7-6.5c3.2-2.6,6.8-3.9,10.9-3.5
			c3,0.3,5.6,1.7,7.8,3.8c3.2,3.2,4.9,7.1,5.6,11.5c0.3,2.1,0.4,4.2-0.2,6.3c-1,3.8-3.4,6.6-6.6,8.6c-3.8,2.4-7,0.7-8.6-2.5
			c-0.4-0.8-0.7-1.9-0.7-2.8c-0.1-1.9,1.4-3.2,3-2.8c0.8,0.2,1.3-0.2,1.7-0.7c0.1-0.1,0.2-0.3,0.3-0.4c2-3,0.9-5.8-2.6-6.7
			c-1.9-0.5-3.1-0.1-4.3,1.9c-1.6,2.8-2,5.9-1.4,9c0.5,2.7,1.7,5.1,2.9,7.5c2.9,5.4,6.4,10.4,10.6,15c2.5,2.6,5.2,5,8.2,7
			c1.5,1,3,1.9,4.4,2.9c1,0.8,2.2,0.9,3.4,0.9c2.4-0.2,4.6-0.8,6.6-2c1.1-0.7,2.2-1.5,3.3-2.3c5.1-3.7,9.2-8.4,13.1-13.3
			c2.3-2.9,4.4-5.9,6.7-8.8c1.2-1.6,2.4-3.2,3.7-4.7c0.6-0.7,1.4-1.4,2.2-2c0.5-0.4,1.1-0.6,1.7-0.7c1.1-0.2,1.9,0.3,2.2,1.3
			c0.2,0.6,0.3,1.2,0.3,1.8c-0.2,1.5-0.4,3-0.8,4.4c-0.8,2.6-2,4.9-3.6,7.1c-2.4,3.2-4.9,6.3-7.2,9.4c-2.1,2.9-3.6,6.1-4.6,9.5
			c-0.4,1.2,0.3,1.9,1.6,1.8c0.5,0,1-0.3,1.5-0.4c1.3-0.4,2.6-0.8,4-1.1c2.3-0.4,3.7,0.8,3.8,3.2c0,1.2-0.1,2.4-0.3,3.6
			c-0.2,1.1-0.8,2-1.5,2.9c-2.3,3-5.2,5.4-8.1,7.9c-6.4,5.5-12.8,11-19.1,16.5c-3.8,3.3-7.6,6.5-11.8,9.2c-1.1,0.7-2.3,1.1-3.6,0.8
			c-0.5-0.1-1-0.3-1.4-0.6c-5.6-4-10.7-8.6-15.5-13.6c-2-2.1-3.8-4.4-5.4-6.8c-3.1-4.7-6.3-9.4-8.6-14.5c-2-4.5-3.8-9-4.9-13.9
			c-0.7-3.1-1.4-6.3-1.9-9.5C131.2,200.2,131.2,197.9,131,196.2z"/>
		<path class="st29" d="M192.2,187c-0.2,3.7-1.7,6.9-4.8,9.3c-0.6,0.5-1.4,0.7-2.2,0.6c-1.5-0.1-2.4-1.2-2.2-2.7
			c0.1-0.6,0.2-1.1,0.3-1.7c0.5-2,0.1-3.9-0.1-5.9c-0.1-1-0.1-2,0.1-2.9c0.2-1.5,1.1-2.5,2.5-3c1.5-0.5,2.8-0.1,4,0.9
			C191.5,183,192.2,184.8,192.2,187z"/>
		<path class="st29" d="M122.8,174.4c-0.1-2.6,0.6-4.9,2.1-6.9c0.6-0.9,1.5-1.6,2.3-2.3c0.4-0.3,0.9-0.6,1.4-0.7
			c2.2-0.7,4.2,1,3.7,3.2c-0.2,1-0.6,2-1,2.9c-1.3,2.5-1.8,5.1-2.1,7.9c-0.1,0.9-0.3,1.8-0.5,2.6c-0.3,0.9-0.9,1.6-1.9,1.7
			c-1,0.1-1.7-0.3-2.3-1.1c-0.8-1.2-1.2-2.5-1.4-3.9C122.9,176.6,122.9,175.5,122.8,174.4z"/>
		<path class="st27" d="M193.2,206.3c-0.9,0.9-1.7,1.7-2.6,2.5c-0.2,0.2-0.6,0.3-0.9,0.3c-6.5,0.1-13.1,0.2-19.6,0.2
			c-0.3,0-0.7-0.1-0.9-0.2c-1-0.8-1.9-1.6-3.1-2.6c9.2-0.4,18.1-0.3,27-0.4C193.1,206.1,193.2,206.2,193.2,206.3z"/>
		<path class="st27" d="M236.2,208.7c-1.5,1.7-2.9,3.4-4.5,5c-7.5,7.8-14.8,15.9-22.8,23.1C201,244,193.1,251,185,257.9
			c-2.8,2.4-5.9,4.3-9,6.4c-1,0.7-2.1,1.2-3.2,1.8c-0.3,0.2-0.7,0.4-1.1,0.5c0,0-0.1,0-0.1,0.1l0.2,76.9v0l0.2,0.1
			c1,1.3,2.3,2.4,3.8,3.3c9.3,5.3,18.5,10.6,27.7,16c0.7,0.4,1.4,0.8,2.2,1.2c0.8,0.4,1,0.8,0.8,1.7c-0.1,0.7-0.4,0.9-1.3,1.1
			c-0.5,0.1-1,0.1-1.5,0.1c-12.2-0.1-24.4-0.2-36.7-0.2c-11.8-0.1-23.5-0.2-35.3-0.3c-0.6,0-1.2,0-1.8,0c-0.8-0.1-1.3-0.5-1.4-1.2
			c-0.1-0.6,0.2-1.2,0.8-1.5c0.3-0.2,0.7-0.4,1.1-0.5c10.7-5.2,21.4-10.5,32.2-15.7c1.8-0.9,3.2-2.1,4.6-3.4
			c0.2-0.2,0.4-0.4,0.6-0.6c0,0,0,0,0,0l0.2-76.8c-0.4-0.2-0.6-0.4-0.7-0.4c-0.2-0.1-0.4-0.3-0.6-0.4c-6.3-4.3-12.4-8.9-18-14.2
			c-8.3-7.8-16.1-16.1-23.4-24.7c-3.2-3.7-6.4-7.5-9.5-11.3c-1.8-2.3-3.5-4.6-5.2-7c-0.6-0.8-0.5-1.1,0.1-1.8
			c0.6-0.7,1.3-1.1,2.2-1.1c0.8,0,1.6,0,2.5,0c3.9,0.1,7.8,0.2,11.6,0.2c1,0,1.9,0,3.1,0c0.2,1,0.4,1.9,0.7,2.9
			c-5.5-0.1-10.8,0.3-16.4-0.4c0.3,0.4,0.3,0.5,0.4,0.6c4.9,5.8,9.8,11.5,14.7,17.3c8.1,9.4,16.6,18.3,25.8,26.6
			c3.8,3.4,7.6,6.7,11.7,9.7c1,0.7,2,1.3,3.1,1.9c1.2-0.7,2.4-1.4,3.6-2.2c6.3-4.1,12-9,17.6-14c5.7-5,11.4-9.9,17.1-15
			c1.5-1.3,2.7-2.8,4.1-4.2c0.9-1,1.8-2.1,2.8-3.1c5.1-5.4,10.3-10.9,15.4-16.3c0.1-0.1,0.2-0.3,0.5-0.6h-22.5
			c0.1-0.9,0.7-1.2,1-1.8c0.6-1.2,1.6-1.4,2.9-1.4c6.5,0.2,13,0.2,19.5,0.3c0.4,0,0.9,0,1.2-0.1c1.1-0.4,1.9,0,2.7,0.6
			C236.8,207.5,236.8,208,236.2,208.7z"/>
	</g>
	<g>
		<path class="st29" d="M183.9,98.8c-1.9-4.1-3.8-8.2-5.8-12.3c-0.1-0.3-0.3-0.6-0.5-1c0.6-0.3,1.2-0.5,1.7-0.8
			c0.6-0.3,1.1-0.7,1.6-1.1c1.5-1.2,2-3,1.3-4.6c-0.9-2-2.3-2.9-4.3-2.7c-0.5,0-1.1,0.2-1.6,0.3c-1.7,0.6-3.3,1.1-4.9,1.8
			c-14.2,6-28.3,12-42.4,17.9c0,0,0,0,0,0c-14,6.2-28.1,12.4-42.1,18.6c-1.6,0.7-3.1,1.5-4.7,2.3c-0.5,0.2-0.9,0.5-1.3,0.9
			c-1,0.8-1.4,1.8-1.5,2.8c0,0.7,0.1,1.4,0.5,2.2c0.1,0.2,0.2,0.5,0.4,0.7c0.8,1.2,2.2,1.7,3.8,1.5c0.6-0.1,1.3-0.3,1.9-0.5
			c0.6-0.2,1.1-0.4,1.8-0.7c0.1,0.4,0.3,0.7,0.4,1c1.7,4.2,3.3,8.4,5,12.6c1,2.3,2.5,4.3,4.4,6c1.5,1.3,3.3,1.9,5.3,1.9
			c1.9,0,3.7-0.3,5.5-1.1c4.7-2,9.4-3.9,14.2-5.8c2.7-1.2,5.3-2.6,7.6-4.4c2.6-1.9,4.1-4.5,4.7-7.6c0.5-2.6,0.3-5.1-0.8-7.6
			c-1.6-3.6-3-7.1-5-10.5c-1-1.7-1-1.8,0.4-3.2c0.3-0.3,0.6-0.6,0.8-0.9c0.5-0.6,1.1-1.1,1.8-1.4l0,0c0.7-0.3,1.4-0.4,2.2-0.3
			c0.4,0,0.8,0,1.2,0c2,0,2,0,2.6,1.9c1.1,3.7,2.7,7.3,4.2,10.8c1,2.5,2.8,4.3,5,5.7c2.7,1.7,5.6,2.4,8.8,1.8
			c2.9-0.5,5.7-1.4,8.4-2.5c4.7-2.1,9.3-4.2,14-6.3c1.8-0.8,3.2-1.9,4.6-3.3c1.4-1.4,2.2-3.2,2.3-5.2
			C185.4,103.5,185,101.1,183.9,98.8z M86,120.4c0,0.1,0,0.2,0,0.4c-0.1,0.4-0.2,0.9-0.5,1.2c-0.7,0.7-1.7,0.9-2.3,0.5
			c-0.3-0.2-0.5-0.6-0.5-1v0c0-0.4,0.1-0.9,0.4-1.3c0,0,0-0.1,0.1-0.1c0.7-0.9,1.8-1.2,2.4-0.7C85.8,119.5,86,119.9,86,120.4
			L86,120.4z M128.7,116c1.1,2.6,2,5.2,2.3,8c0,0.2,0,0.5,0.1,0.7c0,0.5,0,1,0,1.5c0,0.3-0.1,0.5-0.1,0.8c0,0.2-0.1,0.4-0.1,0.7
			c0,0.2-0.1,0.4-0.2,0.6c0,0,0,0,0,0c0,0.1-0.1,0.3-0.2,0.4c0,0.1-0.1,0.2-0.1,0.3c0,0.1-0.1,0.2-0.1,0.3c-0.1,0.2-0.1,0.3-0.2,0.5
			c-0.1,0.2-0.2,0.3-0.3,0.5c-0.1,0.2-0.2,0.3-0.3,0.5c-0.3,0.4-0.6,0.8-0.9,1.2c-0.7,0.5-1.5,1.3-2.5,1.9c-5.3,3.3-11,5.7-17.1,7.2
			c-1.2,0.3-2.4,0.4-3.6,0.5c-2,0.1-3.7-0.6-5.1-2c-0.8-0.7-1.5-1.6-2.1-2.5c-2.1-3.3-3.7-6.9-5-10.6c0-0.2-0.1-0.3-0.1-0.5
			c0-0.1-0.1-0.2-0.1-0.3c0-0.1-0.1-0.2-0.1-0.4c0-0.1,0-0.2-0.1-0.4c0-0.1,0-0.1,0-0.2c-0.1-0.6-0.2-1.1-0.2-1.7c0-0.1,0-0.3,0-0.4
			c0-0.2,0-0.5,0-0.7c0.1-1.8,1.1-3.1,2.6-4.1c0.7-0.5,1.5-0.9,2.4-1.3c4.3-2,8.5-4.1,12.8-5.9c3-1.3,6.2-2.1,9.3-3.1
			c0.7-0.2,1.5-0.3,2.3-0.4c1.4-0.1,2.5,0.4,3.3,1.6c0.3,0.4,0.6,0.9,0.8,1.4C126.8,111.9,127.8,113.9,128.7,116z M177.7,79
			c0,0,0.1,0,0.1,0c1,0.1,1.7,0.9,1.7,1.6c-0.1,0.8-1,1.4-1.9,1.4c-1,0-2.1-0.9-2-1.7C175.6,79.5,176.6,78.9,177.7,79z M178.2,109.9
			c-0.9,0.9-1.8,1.7-2.8,2.3c-5.3,3.3-10.9,5.9-17,7.5c-1.1,0.3-2.2,0.4-3.1,0.5c-3.2-0.2-5.7-1.3-7.6-3.6c-1.8-2.2-3.1-4.6-4.2-7.2
			c-0.9-2.1-1.7-4.2-2.5-6.3c-0.2-0.5-0.3-1-0.4-1.5c-0.3-1.4,0.1-2.5,1.1-3.5c0.6-0.5,1.2-1,1.9-1.4c2.9-1.6,5.7-3.3,8.6-4.6
			c4.3-1.9,8.7-3.6,13-5.3c0.8-0.3,1.7-0.6,2.6-0.8c2-0.5,3.9-0.1,5.3,1.4c0.9,0.9,1.8,2,2.4,3.1c1.9,3.4,3.3,7.1,4.3,10.9
			c0.3,1.1,0.4,2.2,0.4,3.3C180.3,106.7,179.7,108.5,178.2,109.9z"/>
		<path class="st27" d="M153,94.2c-0.3,2.4-0.5,4.5-0.7,6.6c-0.2,1.6-0.4,3.2-0.6,4.9c-0.2,1.8,1.3,2.9,3,2.4
			c0.6-0.2,0.9-0.7,1.1-1.3c0.3-1.1,0.5-2.2,0.7-3.4c0.6-3.8,1.3-7.6,1.9-11.5c1.2-0.5,2.5-1.1,3.8-1.6c2-0.8,4.1-1.5,6.1-2.3
			c1-0.4,1.9-0.1,2.6,0.7c0.8,1,1.6,2,2.2,3.1c1.7,3.4,3,6.9,4,10.5c0.4,1.3,0.5,2.6,0.2,4c-0.2,1-0.6,1.8-1.3,2.4
			c-1.9,1.8-4.2,3-6.6,4.3c0.1-0.5,0.2-0.8,0.2-1.1c0.5-2,1-4.1,1.4-6.1c0.1-0.7,0.1-1.4,0.1-2.1c-0.1-1-0.7-1.4-1.7-1.4
			c-1.1,0-2.1,0.7-2.4,1.9c-0.4,1.3-0.6,2.7-0.9,4.1c-0.5,2.1-0.9,4.2-1.3,6.4c-0.1,0.4-0.2,0.7-0.6,0.8c-2.4,0.9-4.8,1.9-7.4,2.3
			c-2.2,0.3-4.2-0.3-5.8-2c-1.8-1.9-3.2-4-4.2-6.4c-1-2.4-1.9-4.9-2.8-7.4c-0.2-0.4-0.2-0.9-0.3-1.3c-0.1-0.7,0.1-1.2,0.7-1.6
			C146.9,97.2,149.8,95.7,153,94.2z"/>
		<path class="st26" d="M126.6,118.2c-1.1-2.4-2.3-4.8-3.5-7.2c-0.2-0.4-0.5-0.8-0.8-1.1c-0.4-0.5-1-0.7-1.6-0.6
			c-3.1,0.6-6,1.6-9,2.9l-0.1,0l-0.1,0c-0.1,0-0.2,0.1-0.3,0.1l0,0c-0.5,0.2-1.2,0.5-1.9,0.8c0,0,0,0,0,0c-0.6,3.8-1.2,7.6-1.8,11.4
			c-0.2,1.1-0.4,2.2-0.7,3.4c-0.1,0.6-0.5,1.1-1.1,1.3c-1.7,0.6-3.2-0.6-3-2.3c0.2-1.6,0.4-3.2,0.5-4.9c0.2-2,0.4-4.1,0.6-6.4
			c-0.6,0.3-1.2,0.5-1.8,0.8c-1.9,0.9-3.9,1.9-5.8,2.9c-1,0.5-1.4,1.3-1.3,2.3c0.1,1.3,0.3,2.5,0.7,3.7c1.3,3.5,2.9,6.9,4.9,10.1
			c0.7,1.2,1.6,2.2,2.8,2.9c0.8,0.5,1.7,0.8,2.7,0.7c2.3-0.1,4.5-0.8,6.8-1.6l0.1,0c0.3-0.1,0.5-0.2,0.8-0.3c0,0,0,0,0,0
			c0.4-0.2,1-0.4,1.6-0.6l1.1-0.5l0.6-0.2c0.3-0.1,0.6-0.2,0.9-0.3c0.1-0.1,0.1-0.3,0.2-0.4c0.5-2.1,1-4.2,1.5-6.3
			c0.3-1.4,0.7-2.7,1.1-4c0.4-1.1,1.3-1.8,2.5-1.8c1,0,1.6,0.5,1.6,1.4c0,0.7,0,1.4-0.2,2.1c-0.5,2-1,4-1.6,6c0,0.2-0.1,0.4-0.2,0.6
			c1-0.6,2-1.2,3-1.9c1.8-1.4,2.6-3.3,2.5-5.6C128.2,123,127.6,120.5,126.6,118.2z"/>
		<path class="st26" d="M126.6,118.2c-1.1-2.4-2.3-4.8-3.5-7.2c-0.2-0.4-0.5-0.8-0.8-1.1c-0.4-0.5-1-0.7-1.6-0.6
			c-3.1,0.6-6,1.6-9,2.9l-0.1,0l-0.1,0c-0.1,0-0.2,0.1-0.3,0.1l0,0c-0.5,0.2-1.2,0.5-1.9,0.8c0,0,0,0,0,0c-0.6,3.8-1.2,7.6-1.8,11.4
			c-0.2,1.1-0.4,2.2-0.7,3.4c-0.1,0.6-0.5,1.1-1.1,1.3c-1.7,0.6-3.2-0.6-3-2.3c0.2-1.6,0.4-3.2,0.5-4.9c0.2-2,0.4-4.1,0.6-6.4
			c-0.6,0.3-1.2,0.5-1.8,0.8c-1.9,0.9-3.9,1.9-5.8,2.9c-1,0.5-1.4,1.3-1.3,2.3c0.1,1.3,0.3,2.5,0.7,3.7c1.3,3.5,2.9,6.9,4.9,10.1
			c0.7,1.2,1.6,2.2,2.8,2.9c0.8,0.5,1.7,0.8,2.7,0.7c2.3-0.1,4.5-0.8,6.8-1.6l0.1,0c0.3-0.1,0.5-0.2,0.8-0.3c0,0,0,0,0,0
			c0.4-0.2,1-0.4,1.6-0.6l1.1-0.5l0.6-0.2c0.3-0.1,0.6-0.2,0.9-0.3c0.1-0.1,0.1-0.3,0.2-0.4c0.5-2.1,1-4.2,1.5-6.3
			c0.3-1.4,0.7-2.7,1.1-4c0.4-1.1,1.3-1.8,2.5-1.8c1,0,1.6,0.5,1.6,1.4c0,0.7,0,1.4-0.2,2.1c-0.5,2-1,4-1.6,6c0,0.2-0.1,0.4-0.2,0.6
			c1-0.6,2-1.2,3-1.9c1.8-1.4,2.6-3.3,2.5-5.6C128.2,123,127.6,120.5,126.6,118.2z"/>
		<path class="st26" d="M122.3,109.9c-0.4-0.5-1-0.7-1.6-0.6c-3.1,0.6-6,1.6-9,2.9l-0.1,0l-0.1,0c-0.1,0-0.2,0.1-0.3,0.1l0,0
			c-0.5,0.2-1.2,0.5-1.9,0.8c0,0,0,0,0,0c-0.6,3.8-1.2,7.6-1.8,11.4c-0.2,1.1-0.4,2.2-0.7,3.4c-0.1,0.6-0.5,1.1-1.1,1.3
			c-1.7,0.6-3.2-0.6-3-2.3c0.2-1.6,0.4-3.2,0.5-4.9c0.2-2,0.4-4.1,0.6-6.4c-0.6,0.3-1.2,0.5-1.8,0.8c-1.9,0.9-3.9,1.9-5.8,2.9
			c-1,0.5-1.4,1.3-1.3,2.3c0.1,1.3,0.3,2.5,0.7,3.7c1.3,3.5,2.9,6.9,4.9,10.1c0.7,1.2,1.6,2.2,2.8,2.9c0.8,0.5,1.7,0.8,2.7,0.7
			c2.3-0.1,4.5-0.8,6.8-1.6l0.1,0c0.3-0.1,0.5-0.2,0.8-0.3c0,0,0,0,0,0c0.4-0.2,1-0.4,1.6-0.6l1.1-0.5l0.6-0.2
			c0.3-0.1,0.6-0.2,0.9-0.3c0.1-0.1,0.1-0.3,0.2-0.4c0.5-2.1,1-4.2,1.5-6.3c0.3-1.4,0.7-2.7,1.1-4c0.4-1.1,1.3-1.8,2.5-1.8
			c1,0,1.6,0.5,1.6,1.4c0,0.7,0,1.4-0.2,2.1c-0.5,2-1,4-1.6,6c0,0.2-0.1,0.4-0.2,0.6c1-0.6,2-1.2,3-1.9c1.8-1.4,2.6-3.3,2.5-5.6
			c-0.1-2.6-0.7-5.1-1.8-7.5c-1.1-2.4-2.3-4.8-3.5-7.2C122.9,110.6,122.6,110.2,122.3,109.9z"/>
		<path class="st26" d="M126.6,118.2c-1.1-2.4-2.3-4.8-3.5-7.2c-0.2-0.4-0.5-0.8-0.8-1.1c-0.4-0.5-1-0.7-1.6-0.6
			c-3.1,0.6-6,1.6-9,2.9l-0.1,0l-0.1,0c-0.1,0-0.2,0.1-0.3,0.1l0,0c-0.5,0.2-1.2,0.5-1.9,0.8c0,0,0,0,0,0c-0.6,3.8-1.2,7.6-1.8,11.4
			c-0.2,1.1-0.4,2.2-0.7,3.4c-0.1,0.6-0.5,1.1-1.1,1.3c-1.7,0.6-3.2-0.6-3-2.3c0.2-1.6,0.4-3.2,0.5-4.9c0.2-2,0.4-4.1,0.6-6.4
			c-0.6,0.3-1.2,0.5-1.8,0.8c-1.9,0.9-3.9,1.9-5.8,2.9c-1,0.5-1.4,1.3-1.3,2.3c0.1,1.3,0.3,2.5,0.7,3.7c1.3,3.5,2.9,6.9,4.9,10.1
			c0.7,1.2,1.6,2.2,2.8,2.9c0.8,0.5,1.7,0.8,2.7,0.7c2.3-0.1,4.5-0.8,6.8-1.6l0.1,0c0.3-0.1,0.5-0.2,0.8-0.3c0,0,0,0,0,0
			c0.4-0.2,1-0.4,1.6-0.6l1.1-0.5l0.6-0.2c0.3-0.1,0.6-0.2,0.9-0.3c0.1-0.1,0.1-0.3,0.2-0.4c0.5-2.1,1-4.2,1.5-6.3
			c0.3-1.4,0.7-2.7,1.1-4c0.4-1.1,1.3-1.8,2.5-1.8c1,0,1.6,0.5,1.6,1.4c0,0.7,0,1.4-0.2,2.1c-0.5,2-1,4-1.6,6c0,0.2-0.1,0.4-0.2,0.6
			c1-0.6,2-1.2,3-1.9c1.8-1.4,2.6-3.3,2.5-5.6C128.2,123,127.6,120.5,126.6,118.2z"/>
		<path class="st27" d="M126.6,118.2c-1.1-2.4-2.3-4.8-3.5-7.2c-0.2-0.4-0.5-0.8-0.8-1.1c-0.4-0.5-1-0.7-1.6-0.6
			c-3.1,0.6-6,1.6-9,2.9l-0.1,0l-0.1,0c-0.1,0-0.2,0.1-0.3,0.1l0,0c-0.5,0.2-1.2,0.5-1.9,0.8c0,0,0,0,0,0c-0.6,3.8-1.2,7.6-1.8,11.4
			c-0.2,1.1-0.4,2.2-0.7,3.4c-0.1,0.6-0.5,1.1-1.1,1.3c-1.7,0.6-3.2-0.6-3-2.3c0.2-1.6,0.4-3.2,0.5-4.9c0.2-2,0.4-4.1,0.6-6.4
			c-0.6,0.3-1.2,0.5-1.8,0.8c-1.9,0.9-3.9,1.9-5.8,2.9c-1,0.5-1.4,1.3-1.3,2.3c0.1,1.3,0.3,2.5,0.7,3.7c1.3,3.5,2.9,6.9,4.9,10.1
			c0.7,1.2,1.6,2.2,2.8,2.9c0.8,0.5,1.7,0.8,2.7,0.7c2.3-0.1,4.5-0.8,6.8-1.6l0.1,0c0.3-0.1,0.5-0.2,0.8-0.3c0,0,0,0,0,0
			c0.4-0.2,1-0.4,1.6-0.6l1.1-0.5l0.6-0.2c0.3-0.1,0.6-0.2,0.9-0.3c0.1-0.1,0.1-0.3,0.2-0.4c0.5-2.1,1-4.2,1.5-6.3
			c0.3-1.4,0.7-2.7,1.1-4c0.4-1.1,1.3-1.8,2.5-1.8c1,0,1.6,0.5,1.6,1.4c0,0.7,0,1.4-0.2,2.1c-0.5,2-1,4-1.6,6c0,0.2-0.1,0.4-0.2,0.6
			c1-0.6,2-1.2,3-1.9c1.8-1.4,2.6-3.3,2.5-5.6C128.2,123,127.6,120.5,126.6,118.2z"/>
	</g>
</g>
</svg>
