<?xml version="1.0" encoding="utf-8"?>
<!-- Generator: Adobe Illustrator 21.1.0, SVG Export Plug-In . SVG Version: 6.00 Build 0)  -->
<svg version="1.1" id="Calque_1" xmlns="http://www.w3.org/2000/svg" xmlns:xlink="http://www.w3.org/1999/xlink" x="0px" y="0px"
	 viewBox="0 0 432 432" style="enable-background:new 0 0 432 432;" xml:space="preserve">
<style type="text/css">
	.st0{fill:#EFC9AF;}
	.st1{fill:#C69C6C;}
	.st2{fill:#020203;}
	.st3{fill:#603914;}
	.st4{fill:#C1292E;}
	.st5{fill:#A67D52;}
	.st6{fill:#343434;}
	.st7{fill:#C7B29A;}
	.st8{fill:#754D24;}
	.st9{fill:#412413;}
	.st10{fill:#1B1B1B;}
	.st11{fill:#9E1460;}
	.st12{fill:#E7267A;}
	.st13{fill:#998675;}
	.st14{fill:#676767;}
	.st15{fill:#BEC1A5;}
	.st16{fill:#8D7968;}
	.st17{fill:#A6A184;}
	.st18{fill:#5B4841;}
	.st19{fill:#C1A07F;}
	.st20{fill:#72403F;}
	.st21{fill:#AA8767;}
	.st22{fill:#D6B394;}
	.st23{fill:#A34F4D;}
	.st24{fill:#B47B61;}
	.st25{fill:#E5C292;}
	.st26{fill:#B4AFA8;}
	.st27{fill:#9E9A98;}
	.st28{fill:#F39323;}
	.st29{fill:#F9B03D;}
	.st30{fill:#50B162;}
	.st31{fill:#106B40;}
	.st32{fill:#8C633A;}
	.st33{fill:#231F20;}
	.st34{fill:#2C2F32;}
	.st35{fill:#E52328;}
	.st36{fill:#C2C3C3;}
	.st37{fill:#2DABE3;}
	.st38{fill:#F9EA31;}
	.st39{fill:#E52629;}
	.st40{fill:#746458;}
	.st41{fill:#0D71B9;}
	.st42{fill:#E52521;}
	.st43{fill:#F6D9A7;}
	.st44{fill:#F4A5A6;}
	.st45{fill:#6E6F70;}
	.st46{fill:#929497;}
	.st47{fill:#F29A26;}
	.st48{fill:#E0C399;}
	.st49{fill:#F9CBCC;}
	.st50{fill:#EBDA8C;}
	.st51{fill:#30358C;}
	.st52{fill:#F6DEB8;}
	.st53{fill:#FFFFFF;}
	.st54{fill:#959FA1;}
	.st55{fill:#6A737A;}
	.st56{fill:#6CC0A9;}
	.st57{fill:#2C7179;}
	.st58{fill:#F2F2F2;}
	.st59{fill:#D83747;}
	.st60{fill:#C92C3F;}
	.st61{fill:#E67525;}
	.st62{fill:#FFD471;}
	.st63{fill:#F0832C;}
	.st64{fill:#90CDBC;}
	.st65{fill:#1E1B3C;}
	.st66{fill:#3C3C3B;}
	.st67{fill:#E94E1B;}
	.st68{fill:#BE1622;}
	.st69{fill:#665F4A;}
	.st70{fill:#3A3320;}
	.st71{fill:#13110C;}
	.st72{fill:#EDECED;}
	.st73{fill:#24211E;}
	.st74{fill:#DBD9DA;}
	.st75{fill:#D01419;}
	.st76{fill:#E1E0E0;}
	.st77{fill:#ECECEC;}
	.st78{fill:#F8F8F9;}
	.st79{fill:#6A6621;}
	.st80{fill:#89454C;}
	.st81{fill:#CBC135;}
	.st82{fill:#F8C8CB;}
	.st83{fill:#C45853;}
	.st84{fill:#729BA5;}
	.st85{fill:#F8AB00;}
	.st86{fill:#3B3835;}
	.st87{fill:#FAD3D7;}
	.st88{fill:#ECBABB;}
	.st89{fill:#F8CFB4;}
	.st90{fill:#844C16;}
	.st91{fill:#D49F61;}
	.st92{fill:#55514F;}
	.st93{fill:#B57D44;}
	.st94{fill:#FCE1E4;}
	.st95{fill:#D5D4D4;}
	.st96{fill:#B92932;}
	.st97{fill:#97C01E;}
	.st98{fill:#00AED3;}
	.st99{fill:#FFCE00;}
	.st100{fill:#E30613;}
	.st101{fill:#F28E36;}
	.st102{fill:#9B6228;}
	.st103{fill:#F6A753;}
	.st104{fill:#CB3749;}
	.st105{fill:#E4E1E1;}
	.st106{fill:#FDEA00;}
	.st107{fill:#53BFCC;}
	.st108{fill:#C2171F;}
	.st109{fill:#EA5139;}
	.st110{fill:#0098B0;}
	.st111{fill:#F28B00;}
	.st112{fill:#898584;}
	.st113{fill:#FAB84F;}
	.st114{fill:#E74310;}
	.st115{fill:#CC5E16;}
	.st116{fill:#00A33A;}
	.st117{fill:#F18600;}
	.st118{fill:#2C2523;}
	.st119{fill:#006633;}
	.st120{fill:#063141;}
	.st121{fill:#1488A9;}
	.st122{fill:#5CBCB8;}
	.st123{fill:#00472A;}
	.st124{fill:#ECC876;}
	.st125{fill:#EBA700;}
	.st126{fill:#F4E3BC;}
	.st127{fill:#BEBBBB;}
	.st128{fill:#A29F9D;}
	.st129{fill:#72C4BE;}
	.st130{fill:#DACCA3;}
	.st131{fill:#AAC5DD;}
	.st132{fill:#1B6DA2;}
	.st133{fill:#F9B233;}
	.st134{fill:#F39200;}
	.st135{fill:#5E5957;}
	.st136{fill:#BACFDD;}
	.st137{fill:#DBC6AF;}
	.st138{fill:#B17F4A;}
	.st139{fill:#467A97;}
	.st140{fill:#95C11F;}
	.st141{fill:#1D71B8;}
	.st142{fill:#2FAC66;}
	.st143{fill:#00A19A;}
	.st144{fill:#0B3958;}
	.st145{fill:#3AAA35;}
	.st146{fill:#1B4B64;}
	.st147{fill:none;}
	.st148{fill:#EBD53E;}
	.st149{fill:#EFF0F1;}
	.st150{fill:#F1BE00;}
	.st151{fill:#DFA600;}
	.st152{fill:#DAEEEE;}
	.st153{fill:#E9E7EA;}
	.st154{fill:#DE0B15;}
	.st155{fill:#AA1918;}
	.st156{fill:#76232F;}
	.st157{fill:#DC0C1F;}
	.st158{fill:#DC3015;}
	.st159{fill:#AA7F47;}
	.st160{fill:#DAAC71;}
	.st161{fill:#342D45;}
	.st162{fill:#F6F5F9;}
	.st163{fill:#1B1814;}
	.st164{fill:#E03D13;}
	.st165{fill:#BF2B17;}
	.st166{fill:#F5F0EF;}
	.st167{fill:#F19500;}
	.st168{fill:#D8870D;}
	.st169{fill:#31AD71;}
	.st170{fill:#2F7C55;}
	.st171{fill:#1A1814;}
	.st172{fill:#4B4845;}
	.st173{fill:#FAEEF0;}
	.st174{fill:#D19B09;}
	.st175{fill:#F1D7B5;}
	.st176{fill:#FCFCFD;}
	.st177{fill:#93BEC8;}
	.st178{fill:#D8D3D2;}
	.st179{fill:#4D4843;}
	.st180{fill:#4EABB8;}
	.st181{fill:#383835;}
	.st182{fill:#D5DADB;}
	.st183{fill:#9EBABB;}
	.st184{fill:#B4181C;}
	.st185{fill:#DD6A10;}
	.st186{fill:#F0F0F1;}
	.st187{fill:#753811;}
	.st188{fill:#DB0D1B;}
	.st189{fill:#DA213C;}
	.st190{fill:#BCDBB6;}
	.st191{fill:#9A9999;}
	.st192{fill:#4DA354;}
	.st193{fill:#DBBC9A;}
	.st194{fill:#A48A7B;}
	.st195{fill:#C5C2C2;}
	.st196{fill:#CC1417;}
	.st197{fill:#44403D;}
	.st198{fill:#F8D000;}
	.st199{fill:#974493;}
	.st200{fill:#F0811A;}
	.st201{fill:#58B034;}
	.st202{fill:#5BC4E9;}
	.st203{fill:#F8D71A;}
	.st204{fill:#E52921;}
	.st205{fill:#DDAE76;}
	.st206{fill:#F9DCBB;}
	.st207{fill:#CC6F22;}
	.st208{fill:#9CCDC5;}
	.st209{fill:#49998B;}
	.st210{fill:#9F3148;}
	.st211{fill:#DDA519;}
	.st212{fill:#EDC4A2;}
	.st213{fill:#5F3B17;}
	.st214{fill:#191517;}
	.st215{fill:#D9A67E;}
	.st216{fill:#C47713;}
	.st217{fill:#A91917;}
	.st218{fill:#DBC8CE;}
	.st219{fill:#9C6E80;}
	.st220{fill:#BC738E;}
	.st221{fill:#1E1E1C;}
	.st222{fill:#EAEAEA;}
	.st223{fill:#4E4D4D;}
	.st224{fill:#E7E6E6;}
	.st225{fill:#FED063;}
	.st226{fill:#FCBF0A;}
	.st227{fill:#AA5A9F;}
	.st228{fill:#833081;}
	.st229{fill:#882C87;}
	.st230{fill:#A4B639;}
	.st231{fill:#B9C95E;}
	.st232{fill:#D690BB;}
	.st233{fill:#AB6F97;}
</style>
<g>
	<path class="st101" d="M340,303c-1.7-13-20.3-27.9-44.6-29.6s-67.8,0.7-80.8,0.3c-13-0.3-50.9-2-86.8-2
		c-32.7,0-32.6,15.7-36.1,24.3l0,0c-0.2,0.6-0.5,1.2-0.8,1.7l0,0c-0.1,0.2-0.2,0.4-0.3,0.6c-5.7,0-8,2.7-8,10.6s3.3,10.5,8,10.5
		c-0.3,5.9,0,11,0.8,15.5c0.3,1.9,0.8,3.7,1.3,5.3c0.9,2.9,2,5.4,3.3,7.6c1.2,2,2.5,3.8,4,5.3c7.8,8.2,19.5,10.6,31.9,10.6
		c16.8,0,31.9-4.2,43-10.6c2.8-1.6,5.4-3.4,7.6-5.3c0.8-0.7,1.5-1.3,2.2-2c1.5-1.5,3-3.4,4.3-5.6c1-1.6,2-3.4,3-5.3
		c1.2-2.4,2.4-5,3.6-7.6c0.8-1.8,1.6-3.6,2.4-5.3c1.2-2.7,2.4-5.3,3.6-7.6c1-2,1.9-3.8,2.9-5.3c2.4-3.8,4.8-6.2,7.5-6
		c9.6,0.7,12,27.9,29.6,48.9c17.6,21,43.6,14.3,67.8,14.3c24.3,0,29.9-30.9,31.9-44.9c6.3,0,8-3,8-9.3
		C349.4,305.7,346,303.3,340,303z M317.6,349.2h-64.9c-3-2.1-5.9-4.6-8.4-7.6h79C321.7,344.5,319.8,347,317.6,349.2z M240.3,336.3
		c-1.6-2.4-3.1-5-4.4-7.6h91.4c-0.3,2.7-0.9,5.3-1.7,7.6H240.3z M233.5,323.3c-1.1-2.5-2.1-5.1-2.9-7.6H327c0.4,2.7,0.6,5.2,0.6,7.6
		H233.5z M228.9,310.3c-0.8-2.6-1.4-5.2-2-7.6h97.3c0.6,2.3,1.2,4.8,1.8,7.6H228.9z M170.4,347.9h-64.9c-2.2-2.2-4.1-4.8-5.7-7.6h79
		C176.2,343.3,173.4,345.8,170.4,347.9z M97.4,335c-0.8-2.4-1.4-4.9-1.7-7.6h91.4c-1.3,2.7-2.8,5.2-4.4,7.6H97.4z M95.4,322
		c0-2.4,0.2-5,0.6-7.6h96.4c-0.9,2.6-1.9,5.1-2.9,7.6H95.4z M97.1,309c0.6-2.8,1.2-5.4,1.8-7.6h97.3c-0.5,2.5-1.2,5-2,7.6H97.1z
		 M319.1,289.7c1.3,2,2.4,4.6,3.5,7.6h-96.7c-0.5-2.8-0.7-5.4-0.8-7.6H319.1z M275.9,280.7c0,0,11.3,0.7,25.3,0.7
		c5.3,0,9.6,0.6,13,3h-88C231.5,277,253.4,280.7,275.9,280.7z M147.2,279.4c22.5,0,44.4-3.7,49.7,3.7h-88c3.5-2.4,7.7-3,13-3
		C135.9,280.1,147.2,279.4,147.2,279.4z M104,288.4h94c-0.1,2.3-0.4,4.8-0.8,7.6h-96.7C101.5,293,102.7,290.4,104,288.4z
		 M129.5,357.9c-5.9,0-11.9-1.6-17.1-4.6h47.8C150.8,356.8,140.2,357.9,129.5,357.9z M293.5,359.2c-10.7,0-21.3-1.1-30.7-4.6h47.8
		C305.4,357.6,299.4,359.2,293.5,359.2z"/>
	<g>
		<path class="st73" d="M90.8,169.2c25.4-0.2,46.8-0.4,71.6,4.1c24.8,4.5,31.4,11.8,53.6,11.1s25.4-9.8,68.6-14.1
			c20.3-2.4,47-1.2,53.2-1.2c6.2,0,7.5,0.8,7.5,7.5s1.9,11.8-3.8,14.6c-5.8,2.8-5.8,19.4-11.8,36.1S305.6,253,284.5,253
			c-21.2,0-42.7-4.7-50.9-25.9c-6.2-16-9.6-23.7-16.9-23.7s-9.2,11.1-15.6,22.2c-6.4,11.1-12.4,27.4-53.6,27.4s-43.8-28.9-45.3-32.3
			c-1.5-3.4-5.3-29.1-11.3-29.9c-6-0.9-4.5-12-4.1-14.7C87.2,173.3,86.3,169.2,90.8,169.2z"/>
		<g>
			<g>
				<path class="st106" d="M153.9,177.5c14.7,2.6,44.7,4.9,44.9,20.7c0.2,15.8-4.9,43.4-36.3,46.6c-31.4,3.2-53.4-7.3-54.9-31
					s-2.1-37.2,15.6-37.6S153.9,177.5,153.9,177.5z"/>
				<path class="st106" d="M278.6,177.5c-14.7,2.6-44.7,4.9-44.9,20.7s4.9,43.4,36.3,46.6c31.4,3.2,53.4-7.3,54.9-31
					s2.1-37.2-15.6-37.6C291.6,175.8,278.6,177.5,278.6,177.5z"/>
			</g>
			<g>
				<ellipse class="st72" cx="97.7" cy="181" rx="6.6" ry="2.6"/>
				<ellipse class="st72" cx="334.7" cy="181" rx="6.6" ry="2.6"/>
			</g>
		</g>
	</g>
	<g>
		<path class="st75" d="M214.1,77.8c17.5,0,24.2-12.3,61.2-11.9s59.1,11.3,65.8,13.4s6,32.1-2,38.6c-8.1,6.5-25.6,25.6-56.5,25.6
			s-41.4-10.7-46.8-20.7s-8.1-23-18.2-23c-10.2,0-20.5,20.7-26.1,28c-5.6,7.3-14.4,22.2-52.9,13.2S93.1,117,91.9,103.7
			c-1.2-13.2-2.3-21.9,5.2-25.7c7.5-3.8,29-13.2,53.9-13.2S195.7,77.8,214.1,77.8z"/>
		<g>
			<path class="st73" d="M145.1,75c26.5,0.9,48.3,5.9,49.1,18.4s-3.1,32.8-17.8,38.9c-14.8,6.1-33.2,5.2-52-2.7S96.6,96.4,103.7,88
				C110.8,79.6,123.3,74.2,145.1,75z"/>
			<path class="st73" d="M288.8,75c-26.5,0.9-48.3,5.9-49.1,18.4c-0.8,12.5,3.1,32.8,17.8,38.9c14.8,6.1,33.2,5.2,52-2.7
				c18.8-7.9,27.8-33.2,20.7-41.6C323.1,79.6,310.7,74.2,288.8,75z"/>
		</g>
	</g>
</g>
</svg>
