<?xml version="1.0" encoding="utf-8"?>
<!-- Generator: Adobe Illustrator 21.1.0, SVG Export Plug-In . SVG Version: 6.00 Build 0)  -->
<svg version="1.1" id="Calque_1" xmlns="http://www.w3.org/2000/svg" xmlns:xlink="http://www.w3.org/1999/xlink" x="0px" y="0px"
	 viewBox="0 0 432 432" style="enable-background:new 0 0 432 432;" xml:space="preserve">
<style type="text/css">
	.st0{fill:#643514;}
	.st1{fill:#EEA900;}
	.st2{fill:#1A7733;}
	.st3{fill:#E3630E;}
	.st4{fill:#938922;}
	.st5{fill:#AA1A17;}
	.st6{fill:#E98800;}
	.st7{fill:#D01419;}
	.st8{fill:#D36415;}
	.st9{fill:#FFFFFF;}
	.st10{fill:#F1883B;}
	.st11{fill:#F7A518;}
	.st12{fill:#4C2814;}
	.st13{fill:#DB760F;}
	.st14{fill:#7E4615;}
	.st15{fill:#EC7105;}
	.st16{fill:#6E3B11;}
	.st17{fill:#46702C;}
	.st18{fill:#844D16;}
	.st19{fill:#CB8013;}
	.st20{fill:#00642F;}
	.st21{fill:#B72617;}
	.st22{fill:#D91815;}
	.st23{fill:#F59B00;}
	.st24{fill:#EE8600;}
	.st25{fill:#6E3710;}
	.st26{fill:#EE7042;}
	.st27{fill:#D82F15;}
	.st28{fill:#E84C0F;}
	.st29{fill:#D65514;}
	.st30{fill:#ED6E05;}
	.st31{fill:#CE6D28;}
	.st32{fill:#F7C5A5;}
	.st33{fill:#A8CB64;}
	.st34{fill:#971827;}
	.st35{fill:#DD5013;}
	.st36{fill:#EC893A;}
	.st37{fill:#E87507;}
	.st38{fill:#FFD682;}
	.st39{fill:#D46814;}
	.st40{fill:#F6E5DA;}
	.st41{fill:#FEFEFD;}
	.st42{fill:#F59C52;}
	.st43{fill:#E5640D;}
	.st44{fill:#FCF4EF;}
	.st45{fill:#FAE1D0;}
	.st46{fill:#E59256;}
	.st47{fill:#F9BD95;}
</style>
<g>
	<path class="st0" d="M166,118.1c12.4,21,5.2,45.5-12.4,53.1c-17.6,7.6-44.5-2.8-49.7-18.6C88.5,105.4,145.7,83.7,166,118.1z"/>
	<g>
		<path class="st1" d="M150.6,90.1c-1.4-2.4-3.3-5.9-2.8-9.2c6.9-45-40.1,19.1-13.6,16c2.9-0.3,2.8-4.8,4.3-9
			C136.4,99.1,157.1,101.5,150.6,90.1z"/>
		<path class="st1" d="M170.1,79.5c1.2-1.6-0.3-10.6-3.1-9.2c-17.1,8.6-13.8,12.5-11.6,18.5C156.6,91.9,168.9,81.2,170.1,79.5z"/>
		<path class="st1" d="M156.3,101.5c0.4,1,15.2,19.2,22.8-7.4C187.6,64.1,153.9,95.8,156.3,101.5z"/>
		<path class="st1" d="M113.3,88.4c-8.1-3.3-12.3-5.9-12,3.3c0.3,9.1,0.8,15.4,4.9,14.7C119.6,104.1,125.7,93.4,113.3,88.4z"/>
		<path class="st1" d="M124.8,73.9c-1.8-2.2-6.2-5-9.3-4.5c-3.1,0.5-3.4,10.5-2.2,13.1s5.1,3.2,7.9,4
			C124,87.3,126.6,76.2,124.8,73.9z"/>
		<path class="st1" d="M171.8,119.6c0.3,2.3,6.9,0.7,10.9,0.5c-12.1,6.6-6.9,12.2,1.4,12.4c5.3,0.2,11.9-8.1,15.4-9.5
			C230.5,110.7,169.7,104.6,171.8,119.6z"/>
		<path class="st1" d="M194.4,100.7c2.9-2.4,7.4-13.6,3.4-12.9c-19.5,3.4-13.6,4.5-18.3,18.7C178.3,110.2,191.5,103.1,194.4,100.7z"
			/>
		<path class="st1" d="M192.8,133.6c2.1,7.1,15.9,4.5,19.3,2.2C224.3,128,191.1,127.7,192.8,133.6z"/>
		<path class="st1" d="M96.2,126.3c3.3-0.3,8.9-13.9,7.2-15.8c-3.6-4-26.5-6.5-27.9-4.5C73.4,108.9,95.1,126.4,96.2,126.3z"/>
		<path class="st1" d="M95.9,102.9c7.9,2.2-4-18.5-11-16.3c-2.4,0.7-0.2,7.2,1.7,11S91.9,101.8,95.9,102.9z"/>
		<path class="st1" d="M138.8,180.2c-2.9,0.3-2.8,4.8-4.3,9c2.2-11.2-18.5-13.6-12-2.2c6,10.5-1.4,24.2,5.3,25.2
			C137.8,213.6,158.2,177.9,138.8,180.2z"/>
		<path class="st1" d="M102.9,197.5c-1.2,1.6,0.3,10.6,3.1,9.2c17.1-8.6,13.8-12.5,11.6-18.5C116.4,185.1,104.1,195.9,102.9,197.5z"
			/>
		<path class="st1" d="M116.7,175.5c-0.5-1.2-5-4.8-10.2-7.4c-8.2-4.1-20.2,30.1-10.2,27.6C101.9,194.3,119,181.2,116.7,175.5z"/>
		<path class="st1" d="M166.7,170.7c-13.4,2.2-19.5,12.9-7.1,17.9c8.1,3.3,12.3,5.9,12-3.3C171.4,176.2,170.9,170,166.7,170.7z"/>
		<path class="st1" d="M151.8,190.5c-2.8-0.8-5.3,10.3-3.6,12.6c1.8,2.2,6.2,5,9.3,4.5c3.1-0.5,3.4-10.5,2.2-13.1
			C158.5,191.9,154.6,191.3,151.8,190.5z"/>
		<path class="st1" d="M101.6,156.9c-0.3-2.3-6.9-0.7-10.9-0.5c12.1-6.6,6.9-12.2-1.4-12.4c-5.3-0.2-11.9,8.1-15.4,9.5
			C42.9,165.9,103.8,172,101.6,156.9z"/>
		<path class="st1" d="M79.1,175.9c-2.9,2.4-7.4,13.6-3.4,12.9c19.5-3.4,13.6-4.5,18.3-18.7C95.1,166.4,82,173.5,79.1,175.9z"/>
		<path class="st1" d="M74.8,135.1c22.9,13,30.4-9.7,13.2-6.6C87,128.7,64.9,129.5,74.8,135.1z"/>
		<path class="st1" d="M197.6,147.7c10.8-3.3-10.3-8.9-11.4-9.3C170.1,131.5,172.6,155.2,197.6,147.7z"/>
		<path class="st1" d="M80.6,143c-2.1-7.1-15.9-4.5-19.3-2.2C49.2,148.6,82.3,148.8,80.6,143z"/>
		<path class="st1" d="M190.8,153.5c0,6.5,12.3,7.8,15.7,6.8C218.7,156.7,190.8,148.1,190.8,153.5z"/>
		<path class="st1" d="M177.3,150.3c-3.3,0.3-8.9,13.9-7.2,15.8c3.6,4,26.5,6.5,27.9,4.5C200.1,167.7,178.4,150.2,177.3,150.3z"/>
		<path class="st1" d="M177.1,174.1c-7.9-2.2,4,18.5,11,16.3c2.4-0.7,0.2-7.2-1.7-11C184.5,175.6,181.1,175.2,177.1,174.1z"/>
	</g>
	<path class="st2" d="M142.4,331.3c-2.4-2.2-1.1-43.1-1.1-44c-7.3-2.5-20.3-17.4-21.3-18.8c-1.7-2.9,10,6.4,13.8,8.3
		c2.5,1.2,5.4,1.6,7.3,1.9c-0.6-20.9-2.5-55-2.8-65c-0.3-7.4,5.2-7.2,5-3.3C142.4,231.3,153.4,341.1,142.4,331.3z"/>
	<path class="st2" d="M117.7,265.8c1.5,5.3-23.2,6.1-27.9-17.5C88.2,243.4,113.7,251.6,117.7,265.8z"/>
</g>
<g>
	<g>
		<path class="st3" d="M216.9,244.4c-1.4,2.2-2.6,3.5-2.6,5.5c-0.2,15.5,11.3,3.7,10.6-4.9C222.2,245.3,219.5,245.1,216.9,244.4z"/>
		<path class="st3" d="M225.2,245c-1,6,3.4,15.1,6.2,14.6c1.7-0.3,5.1-8.4,1.7-16.2C230.8,244.2,228,244.8,225.2,245z"/>
		<path class="st3" d="M239.7,239.2c-1.5,1.7-3.6,3.1-6.1,4.1c0.8,5.9,11.8,15.7,15,14.1C251,256.1,245.8,243.1,239.7,239.2z"/>
		<path class="st3" d="M243.5,229.8c-0.3,3.4-1.5,6.4-3.5,8.9c6.5,3.3,20.4-1.8,20.9-4.2C261.5,231.9,246.1,229.2,243.5,229.8z"/>
		<path class="st3" d="M209.4,240.1c-1.6,0.8-3.3,4.5-4.4,6.4c-7.4,12.3,3.4,10.8,11.5-2.2C213.2,243.4,211.1,241.9,209.4,240.1z"/>
		<path class="st3" d="M242.7,220.8c0.7,2.4,1,5,0.9,7.7c3.6,1.5,16.9-2,16.6-4.6C259.8,220.4,247.1,219.2,242.7,220.8z"/>
		<path class="st3" d="M209,239.6c-1.7-2.2-3-4.9-3.7-7.8c-3.4,1.1-13.3,6.9-14.6,8.5C186.4,245.3,204.9,244.8,209,239.6z"/>
		<path class="st3" d="M204.9,229.6c-0.3-2-0.5-4-0.4-6c-5.2,0-15.6,5.4-14.3,6.6C193.1,232.9,201.9,231.7,204.9,229.6z"/>
		<path class="st3" d="M229.6,206.3c10.4-17.8-6.5-16.1-7.4-4c-0.3-5.5-3.8-12.5-6.3-12c-2.1,0.4-5.1,10-1.4,16.9
			C219.4,205,224.5,204.7,229.6,206.3z"/>
		<path class="st3" d="M208.1,212.3c1.6-2.1,3.8-3.7,6.2-4.9c-0.9-4.5-12.2-15.3-15.5-13.6C196.3,195.1,201.8,208.7,208.1,212.3z"/>
		<path class="st3" d="M204.5,222c0.3-3.5,1.2-6.6,3.3-9.4c-7.1-2.5-34,4.6-11.2,8.6C198.3,221.5,202.4,222.2,204.5,222z"/>
		<path class="st3" d="M237.1,210.9c1-0.6,11-14.3,4.6-15c-2.7-0.3-9.8,7.7-11.6,10.6C232.8,207.4,235.1,208.9,237.1,210.9z"/>
		<path class="st3" d="M237.8,211.6c2,2.2,3.5,4.8,4.5,7.8c3.6-1.2,13.1-6.8,14.4-8.4C261.3,205.5,240.8,206.8,237.8,211.6z"/>
	</g>
	<g>
		<path class="st2" d="M222.8,357.7c0.1,4.5,4.3,18.9,4.6,0C229,243.6,220.7,197.7,222.8,357.7z"/>
		<path class="st2" d="M198.8,276.8c1.9,2.5,6.3,10.6,12.2,10.5c5.9-0.1,5.9-0.7,6.4-1.2c-3.2-0.9-9.7-5.5-11.6-9
			c1.6,0.7,11.5,6.4,12.8,6.6C216.7,269,188.6,263.4,198.8,276.8z"/>
		<path class="st2" d="M230.1,308.5c1.7-0.2,14.9-7.7,16.9-8.7c-2.5,4.6-11.8,10.1-16.1,11.3c11.5,11.5,24.5-10.6,25.3-11.6
			C269.7,281.8,232.4,289.8,230.1,308.5z"/>
	</g>
	<path class="st0" d="M223.1,206.2c-8.1,0.1-18.2,5.1-17.9,17.3c0.3,16.8,7.9,20.7,18.5,20.4c10.6-0.3,19.7-4.3,19.4-16.4
		S235.6,206.1,223.1,206.2z M229.7,208.8c0.7-0.5,1.7-0.2,2.4,0.7c0.7,0.9,0.7,2,0,2.5c-0.7,0.5-1.7,0.2-2.4-0.7
		S229.1,209.3,229.7,208.8z M224.5,207.7c0.2-0.6,0.7-1,1.2-0.9c0.5,0.2,0.7,0.8,0.5,1.4c-0.2,0.6-0.7,1-1.2,0.9
		C224.5,208.9,224.3,208.3,224.5,207.7z M210.5,212.5c0.4,0,0.7,0.4,0.7,0.9c0,0.5-0.3,0.9-0.7,0.9c-0.4,0-0.7-0.4-0.7-0.9
		C209.8,212.9,210.1,212.5,210.5,212.5z M209.2,233.4c-0.3,0.3-0.8,0.2-1.1-0.2c-0.3-0.4-0.4-0.9-0.1-1.1c0.3-0.3,0.8-0.2,1.1,0.2
		C209.4,232.6,209.5,233.1,209.2,233.4z M214.8,240.4c-0.3,0.1-0.6,0-0.6-0.2c-0.1-0.2,0.1-0.5,0.3-0.6c0.3-0.1,0.6,0,0.6,0.2
		C215.2,240,215.1,240.3,214.8,240.4z M217.9,242.7c-0.8,0.3-1.7,0.1-1.9-0.5c-0.2-0.6,0.2-1.4,1-1.7c0.8-0.3,1.6-0.1,1.9,0.5
		C219.2,241.6,218.7,242.4,217.9,242.7z M220.8,241.9c-0.5,0-1-0.3-1-0.7c0-0.4,0.4-0.8,1-0.8c0.6,0,1,0.3,1,0.7
		C221.7,241.5,221.3,241.9,220.8,241.9z M236,239.8c-0.6,0.2-1.2,0.1-1.4-0.4c-0.2-0.5,0.2-1,0.8-1.3c0.6-0.2,1.3-0.1,1.4,0.4
		C236.9,239,236.6,239.5,236,239.8z M224.2,239.6c-7.8,0.4-14.4-1.9-14.9-13.6c-0.5-11.6,5.1-14.2,12.5-14.3
		c5.4-0.1,15.9,3,16.1,14.3C238.2,237.3,232.1,239.2,224.2,239.6z M239,219.9c-0.3,0.3-0.8,0.2-1.1-0.2c-0.3-0.4-0.4-0.8-0.1-1.1
		c0.3-0.3,0.8-0.2,1.1,0.2C239.2,219.2,239.3,219.7,239,219.9z"/>
</g>
<g>
	<g>
		<path class="st1" d="M314.2,153c-5.1-1.2-7.7-7-5.6-12.2c2.1-5.2,9.5-20.6,10.1-23.6c0.6-3,3.6,6.2,4.1,10.9
			c0.4,3.2,0.7,14.8-0.2,17.8S319.5,154.2,314.2,153z"/>
		<path class="st1" d="M328.9,160.7c-2.3-2.9-4.1-9.7,1.3-12.7c5.3-3,26.4-12.5,28.3-10.7c1.9,1.9-12.6,20.3-15.2,22.5
			C340.7,162.2,334.9,168.4,328.9,160.7z"/>
		<path class="st1" d="M298.5,154.2c2.5-1.7,4.7-7.6,1.7-12.7c-3.1-5.1-20.2-19.2-21.7-18.7c-1.5,0.5,4.1,13.5,5.4,20.8
			C285.4,150.9,290.5,159.7,298.5,154.2z"/>
		<path class="st1" d="M285.7,183.2c0.9,5.1-3.5,9.8-9.1,9.9c-5.6,0.1-22.7-0.7-25.7-0.1s4.3-5.7,8.4-8c2.8-1.6,13.4-6.4,16.5-6.7
			C278.9,178,284.8,177.9,285.7,183.2z"/>
		<path class="st1" d="M309,199.7c4.6,2,5.9,8,3,12.6c-2.9,4.6-12.8,17.7-13.9,20.4c-1.2,2.7-2.2-6.5-1.9-11
			c0.2-3.1,2.1-14.1,3.5-16.7C301.1,202.4,304.3,197.6,309,199.7z"/>
		<path class="st1" d="M287.2,166.8c-1.8,3.2-7.4,7.5-12.2,3.8c-4.8-3.8-21.8-19.4-20.8-21.9c1-2.4,23.6,3.8,26.7,5.2
			C283.9,155.3,291.9,158.2,287.2,166.8z"/>
		<path class="st1" d="M294.4,194.1c-2.5-1.7-8.9-1.4-12.4,3.4s-9.8,26.1-8.8,27.2s10.9-9,17-13.1
			C296.5,207.6,302.6,199.5,294.4,194.1z"/>
		<path class="st1" d="M334.4,190.3c3.3-4,9.7-3.7,13.4,0.5c3.8,4.2,14.2,17.7,16.6,19.6c2.4,1.9-7.1,0.4-11.6-1.1
			c-3.1-1.1-13.6-6-15.8-8.1C334.9,199,331,194.5,334.4,190.3z"/>
		<path class="st1" d="M323.2,199.6c3.6-0.7,10.5,0.7,10.8,6.8c0.3,6.1-0.6,29.2-3.1,30.1c-2.5,0.8-12.5-20.4-13.4-23.6
			C316.6,209.6,313.6,201.6,323.2,199.6z"/>
		<path class="st1" d="M336.4,176c0.4,3,4.7,7.6,10.6,7.2c5.9-0.5,26.2-9.5,26.4-11.1c0.2-1.5-13.9-2.4-21-4.4
			C345.2,165.7,335.1,166.4,336.4,176z"/>
	</g>
	<path class="st2" d="M334.1,269.9c-8.1,0.1-14.7,10.5-17.5,20c-0.3-14.8,0.2-85.6-2.6-74.6c-1.6,6.3-1.6,63.2-2.2,79.3
		c-4.4-9.6-14.5-20.8-20.3-22.8c-9.7-3.4-2.1,32.5,20.3,40.7c2.1,60,6.1,39.3,5.3,1.9C333.5,302.9,340.8,270.2,334.1,269.9z"/>
	<path class="st0" d="M314.4,154.1C314.4,154.1,314.4,154.1,314.4,154.1L314.4,154.1c-10.7-2.3-23.3,0.1-26.7,13.8
		c-2.2,8.8-1.8,15.1,1.2,20c2.9,4.8,8.3,8,16.5,10c0.2,0,0.3,0.1,0.5,0.1c10.8,2.5,17.7,0,21.6-2.5c3.8-2.4,6.4-6.1,7.1-9.9
		C336.5,176.8,334.5,158.7,314.4,154.1z M321.1,162.5l-8.2,2.9c-1.1-2.6-2.3-5.1-3.3-7.5l4.7-1.8c1.7,0.4,3.3,0.9,4.7,1.5
		L321.1,162.5z M320.3,158.2c1.7,0.9,3.3,1.8,4.6,2.9l-2.8,1L320.3,158.2z M300.9,180.3l-3.5-8.3l6.1-2.2l3.7,8L300.9,180.3z
		 M308.1,179.6l4,8.6l-6.8,2.5l-3.6-8.6L308.1,179.6z M304.4,169.5l7-2.5c1.1,2.5,2.3,5.2,3.5,7.8l-6.8,2.6L304.4,169.5z
		 M313.3,166.3l8.2-2.9l3.4,7.6l-8.1,3.1C315.6,171.6,314.5,168.9,313.3,166.3z M308.8,156.1c-0.1-0.2-0.2-0.5-0.3-0.7
		c0.7,0,1.3,0.1,1.9,0.1L308.8,156.1z M306.9,156.8l-7.2,2.7l-1.1-2.4c2.5-1.1,5.2-1.6,7.7-1.7C306.5,155.7,306.7,156.2,306.9,156.8
		z M307.7,158.6c0.9,2,2,4.6,3.3,7.5l-7.1,2.5l-3.4-7.3L307.7,158.6z M303.1,168.9l-6.1,2.1l-3-7.2l5.7-2.2L303.1,168.9z
		 M295.1,171.7l-6.5,2.3c0.2-1.7,0.6-3.6,1.1-5.6c0.3-1.3,0.7-2.4,1.2-3.5l1.2-0.5L295.1,171.7z M288.5,175.1l7-2.5l3.5,8.4
		l-6.1,2.4L288.5,175.1z M292,183.7l-2.4,0.9c-0.9-2.2-1.2-4.8-1.1-7.7L292,183.7z M299.8,182.8l3.6,8.6l-5.2,1.9l-4.3-8.2
		L299.8,182.8z M303.8,192.3l1.5,3.6c-2.2-0.6-4.2-1.2-5.9-2L303.8,192.3z M305.6,191.6l6.9-2.5l3.7,8c-2.7,0.2-5.6,0-8.6-0.6
		L305.6,191.6z M313.4,188.8l6.7-2.4c2.2,4.9,3.5,7.5,4.2,8.8c-2.1,1-4.5,1.6-7.1,1.8L313.4,188.8z M313,187.9l-4-8.6l6.8-2.6
		c1.6,3.5,2.9,6.4,3.9,8.8L313,187.9z M317.6,175.9l8.1-3.1l4,9l-8.2,3C320.4,182.1,319,179.1,317.6,175.9z M326.7,172.4l4.9-1.9
		c1.3,3.4,1.8,6.9,1.7,9.9l-2.6,1L326.7,172.4z M333.3,181.5c-0.1,1.4-0.2,2.7-0.4,3.8c0,0.2-0.1,0.4-0.1,0.6l-1.6-3.6L333.3,181.5z
		 M330.8,168.7l-4.9,1.9l-3.4-7.5l3.3-1.2C328,164,329.6,166.3,330.8,168.7z M297.7,157.5l1.1,2.4l-5.7,2.1l-0.2-0.5
		C294.3,159.7,296,158.4,297.7,157.5z M290.4,186.4l2.5-1l3.7,7.1c-2.6-1.5-4.6-3.4-6-5.6C290.6,186.8,290.5,186.6,290.4,186.4z
		 M326.6,193.9c-0.2,0.1-0.4,0.2-0.5,0.3c-0.7-1.4-2.2-4.5-4.1-8.6l8.2-3l2.1,4.6C331.2,189.9,329.2,192.2,326.6,193.9z"/>
</g>
</svg>
