<?xml version="1.0" encoding="utf-8"?>
<!-- Generator: Adobe Illustrator 22.0.1, SVG Export Plug-In . SVG Version: 6.00 Build 0)  -->
<svg version="1.1" id="Calque_1" xmlns="http://www.w3.org/2000/svg" xmlns:xlink="http://www.w3.org/1999/xlink" x="0px" y="0px"
	 viewBox="0 0 432 432" style="enable-background:new 0 0 432 432;" xml:space="preserve">
<style type="text/css">
	.st0{fill:#B78D5C;}
	.st1{fill:#EBCEC6;}
	.st2{fill:#D4B67E;}
	.st3{fill:#EF798A;}
	.st4{fill:#FBD8E3;}
	.st5{fill:#660A1E;}
	.st6{fill:#990033;}
	.st7{fill:#07512C;}
	.st8{fill:#8CC63F;}
	.st9{fill:#006837;}
	.st10{fill:#CCCCCC;}
	.st11{fill:#FFFFFF;}
	.st12{fill:#8A1A31;}
	.st13{fill:#A7A6AA;}
	.st14{fill:#D3A9B2;}
	.st15{fill:#2A2A2B;}
	.st16{fill:#DDC090;}
	.st17{fill:#AF434B;}
	.st18{fill:#62A581;}
	.st19{fill:#94C16C;}
	.st20{fill:#B9011B;}
	.st21{fill:#BABABA;}
	.st22{fill:#754C24;}
	.st23{fill:#A67C52;}
	.st24{fill:#8C6239;}
	.st25{fill:#C69C6D;}
	.st26{fill:#9E1E28;}
	.st27{fill:#D6C188;}
	.st28{fill:#BF364A;}
	.st29{fill:#A1272D;}
	.st30{fill:#BFA76B;}
	.st31{fill:#DCDEDD;}
	.st32{fill:#D89A5D;}
	.st33{fill:#F5EDDB;}
	.st34{fill:#603813;}
	.st35{fill:#4A7575;}
	.st36{fill:#7F3244;}
	.st37{fill:#9E7E5E;}
	.st38{fill:#C1272D;}
	.st39{fill:#561217;}
	.st40{fill:#C49F7A;}
	.st41{fill:#534741;}
	.st42{fill:#999999;}
	.st43{fill:#A80031;}
	.st44{fill:#1A1A1A;}
	.st45{fill:#333333;}
	.st46{fill:#B3B3B3;}
	.st47{fill:#B3A6AD;}
	.st48{fill:#B6B155;}
	.st49{fill:#679CBA;}
	.st50{fill:#0071BC;}
	.st51{fill:#F7931E;}
	.st52{fill:#821119;}
	.st53{fill:#39B54A;}
	.st54{fill:#1B1464;}
	.st55{fill:#FAF3E3;}
	.st56{fill:#DCD2BD;}
	.st57{fill:#F5EDDA;}
	.st58{fill:#815D3C;}
	.st59{fill:#F69331;}
	.st60{fill:#BCA791;}
	.st61{fill:#F9D51D;}
	.st62{fill:#704638;}
	.st63{fill:#A7DBD7;}
	.st64{fill:#DED7CD;}
	.st65{fill:#E89024;}
	.st66{fill:#EACAAC;}
	.st67{fill:#D8B195;}
	.st68{fill:#A50423;}
	.st69{fill:#CC7312;}
	.st70{fill:#9EC5FF;}
	.st71{fill:#6D86B4;}
	.st72{fill:#2E363A;}
	.st73{fill:#FFCC00;}
	.st74{fill:#B58847;}
	.st75{fill:#563315;}
	.st76{fill:#ED0A3A;}
	.st77{fill:#A62714;}
	.st78{fill:#247E5B;}
	.st79{fill:#176041;}
	.st80{fill:#61B756;}
	.st81{fill:#EDDBAE;}
	.st82{fill:#3F3F3F;}
	.st83{fill:#595959;}
	.st84{fill:#484849;}
	.st85{fill:#EFD1B4;}
	.st86{fill:#E0E0E2;}
	.st87{fill:#CCCCCE;}
	.st88{fill:#CEC76B;}
	.st89{fill:#42210B;}
	.st90{fill:#FCACBC;}
	.st91{fill:#D6B994;}
	.st92{fill:#F8C2C2;}
	.st93{fill:#E4D48E;}
	.st94{fill:#A57C53;}
	.st95{fill:#96704B;}
	.st96{fill:#9D6D47;}
	.st97{fill:#591427;}
	.st98{fill:#7CCC71;}
	.st99{fill:#C7B299;}
	.st100{fill:#998675;}
	.st101{fill:#7DC34D;}
	.st102{fill:#80694F;}
	.st103{fill:#FF1C2E;}
	.st104{fill:#A51B29;}
	.st105{fill:#00673B;}
	.st106{fill:#B88464;}
	.st107{fill:#CA986F;}
	.st108{fill:#3F2316;}
	.st109{fill:#F1F1F2;}
	.st110{fill:#00924A;}
	.st111{fill:#C7202F;}
	.st112{fill:#BBBDBF;}
	.st113{fill:#58595B;}
	.st114{fill:#D0D2D3;}
	.st115{fill:#6C6E70;}
	.st116{fill:#663818;}
	.st117{fill:#FF9134;}
	.st118{fill:#AC8D6B;}
	.st119{fill:#CE1F32;}
	.st120{fill:#00B252;}
	.st121{fill:#804D34;}
	.st122{fill:#61A6AF;}
	.st123{fill:#4C838D;}
	.st124{fill:#E6E6E6;}
	.st125{fill:#E6E7E7;}
	.st126{fill:#55396B;}
	.st127{fill:#6F4696;}
	.st128{fill:#9C2D8C;}
	.st129{fill:#915D3F;}
	.st130{fill:none;}
	.st131{fill:#00BCB9;}
	.st132{fill:#00BBB8;}
	.st133{fill:#6C328D;}
	.st134{fill:#5D4A42;}
	.st135{fill:#746559;}
	.st136{fill:#009245;}
	.st137{fill:#808184;}
	.st138{fill:#00A69C;}
	.st139{fill:#0078B8;}
	.st140{fill:#9F847A;}
	.st141{fill:#EECCB3;}
	.st142{fill:#241F20;}
	.st143{fill:#0D5408;}
	.st144{fill:#C9800A;}
	.st145{fill:#083A04;}
	.st146{fill:#BF001A;}
	.st147{fill:#AA0012;}
	.st148{fill:#9E620B;}
	.st149{fill:#A80E28;}
	.st150{fill:#0C3A1F;}
	.st151{fill:#C10A0A;}
	.st152{fill:#0A3D06;}
	.st153{fill:#A30738;}
	.st154{fill:#7F0A2E;}
	.st155{fill:#D8712B;}
	.st156{fill:#C15105;}
	.st157{fill:#F4A00B;}
	.st158{fill:#10440A;}
	.st159{fill:#A00E0E;}
	.st160{fill:#0F230D;}
	.st161{fill:#B20B33;}
	.st162{fill:#E5E5E5;}
	.st163{fill:#11722D;}
	.st164{fill:#0B281A;}
	.st165{fill:#E59D1F;}
	.st166{fill:#C60924;}
	.st167{fill:#960820;}
	.st168{fill:#AD1431;}
	.st169{fill:#E24756;}
	.st170{fill:#CE364C;}
	.st171{fill:#A50707;}
	.st172{fill:#4A9B29;}
	.st173{fill:#468E24;}
	.st174{fill:#AF0E22;}
	.st175{fill:#EDECE6;}
	.st176{fill:#54220E;}
	.st177{fill:#592C1C;}
	.st178{fill:#EFEAC7;}
	.st179{fill:#042111;}
	.st180{fill:#A80C0C;}
</style>
<g>
	<g>
		<path class="st54" d="M366.7,284.9c-0.4,6.4-1,10.8-1.5,12.4H67.5c-0.5-1.8-1.2-7.1-1.5-14.8c-0.2-6-0.3-13.4,0.3-21.8
			c3.3-53.7,28.1-146.6,150.2-146.6c124.5,0,147.9,95.5,150.4,148.8C367.2,271.6,367.1,279.1,366.7,284.9z"/>
		<g>
			<g>
				<path class="st55" d="M366.7,284.9c-6.3,0.9-12.5,1.9-18.8,2.8c-5.3,0.8-10.6,1.5-16,1.8c-6.3,0.3-12.6,0.6-18.8,0.9
					c-18.9,0.7-37.8,0.7-56.7,0.5c-10-0.1-20.1-0.5-30.1-0.7c-5.3-0.1-10.6-0.2-15.9-0.2c0-0.1,0-0.1,0-0.2
					c-18.9-0.1-37.9-0.2-56.8-0.3c-9.5,0-19,0.3-28.5,0.3c-6.9,0.1-13.9,0.1-20.8-0.1c-6.1-0.1-12.2-0.5-18.2-1.1
					c-0.5-0.1-1.1-0.1-1.6-0.1c-3.1,0.3-6.2-0.1-9.2-0.8c-0.5-0.1-1-0.3-1.5-0.4c-2.7-0.9-5.5-2.7-7.7-4.9c-0.2-6-0.3-13.4,0.3-21.8
					c0.9-0.9,1.8-1.8,2.9-2.6c3-2.2,6.6-3.4,10.3-4c5.2-0.9,10.2-0.4,15.2,0.9c2.4,0.6,4.9,1.1,7.3,1.9c1.7,0.5,3.4,0.5,5.1,0.3
					c3.1-0.4,6.3-0.8,9.5-1.1c2.7-0.3,5.4,0,8,0.4c3.6,0.5,7.1,1,10.8,0.7c3-0.2,6-0.6,9-0.9c3.1-0.3,6.1-0.6,9.2-0.7
					c4.5-0.2,9,0.5,13.5,1.3c3.8,0.7,7.6,1.4,11.4,2c4.6,0.8,9.2,0.5,13.7-0.3c5.4-0.9,10.5-2.5,15.7-3.9c4.2-1.2,8.4-2.2,12.7-2.9
					c6.1-0.9,11.7-0.1,16.8,3.1c1.3,0.8,2.7,1.6,4,2.4c3.8,2.3,8.1,3.4,12.7,3.4c1.5,0,3,0.1,4.5,0c3.8-0.1,7.5,0.2,11.2,0.7
					c7,0.9,13.9,0.5,20.8-1c3.8-0.9,7.7-1.7,11.5-2.6c5.4-1.1,10.8-1.5,16.3-1.3c6.3,0.2,12.6,0.2,19,0c4.3-0.1,8.6,0,12.8,0.6
					c3.1,0.4,6.1,1,9,1.9c2.8,0.9,5.4,2.1,7.7,3.7C367.2,271.6,367.1,279.1,366.7,284.9z"/>
				<g>
					<path class="st55" d="M241.9,152c1.5,0,2.8,0,4.2,0c0.1-0.1,0.1-0.2,0.2-0.3c0.7-1.1,2.1-1.3,3.1-0.5c0.7,0.6,1,1.4,0.8,2.4
						c-0.2,0.9-0.9,1.5-1.8,1.7c-0.8,0.1-1.4-0.2-1.8-0.8c-0.1-0.2-0.3-0.5-0.4-0.7c-1.1,0-2.1,0.1-3.3,0.1c0.1,0.1,0.1,0.2,0.1,0.4
						c0.2,0.4,0.4,0.8,0.5,1.2c0.1,0.4,0.1,0.8,0,1.2c-0.3,0.7-0.9,1-1.6,0.8c-0.4-0.1-0.8-0.3-1.1-0.5c-1-0.7-1.9-1.6-2.5-2.7
						c-0.1-0.1-0.1-0.2-0.2-0.4c-3,0-6,0-9,0.1c0,0.3,0.2,0.4,0.3,0.5c0.4,0.4,0.8,0.8,1.3,1.2c1.7,1.4,3.4,2.8,5.1,4.2
						c0.2,0.1,0.3,0.2,0.5,0.1c0.2,0,0.4,0,0.6,0c0.7,0,1.2,0.3,1.6,1c0.1,0.2,0.1,0.3,0.2,0.5c0.5,1,0.1,2.1-0.8,2.6
						c-0.9,0.6-2.1,0.3-2.8-0.5c-0.4-0.5-0.5-1.1-0.5-1.7c0-0.3-0.2-0.5-0.4-0.6c-1.8-1.5-3.6-3-5.4-4.5c-0.3-0.3-0.6-0.6-1-0.9
						c0,0.2-0.1,0.2,0,0.3c0.1,1.9,0.2,3.9,0.3,5.8c0,0.2,0.1,0.4,0.3,0.5c1.1,0.8,2.1,1.7,2.9,2.8c0.3,0.3,0.5,0.7,0.6,1.1
						c0.2,0.5,0.1,1.1-0.3,1.4c-0.4,0.4-1,0.4-1.4,0.1c-0.5-0.3-0.9-0.7-1.3-1c-0.2-0.2-0.4-0.4-0.7-0.7c0,0.2,0,0.3,0,0.5
						c0.1,1.2,0.1,2.4,0.2,3.7c0,0.3,0.1,0.5,0.4,0.6c0.6,0.3,1,0.8,1.3,1.4c0.2,0.5,0.2,0.9,0,1.4c-0.4,0.9-1.3,1.5-2.3,1.4
						c-1.3,0-2.3-1.6-1.8-2.8c0.1-0.3,0.3-0.6,0.5-0.9c0.1-0.2,0.2-0.3,0.1-0.6c-0.1-1.3-0.2-2.5-0.3-3.8c0-0.3,0-0.7-0.1-1.1
						c-0.2,0.2-0.3,0.2-0.4,0.3c-0.5,0.5-1,0.9-1.5,1.4c-0.2,0.2-0.5,0.4-0.9,0.4c-0.5,0-1-0.4-1-0.9c0-0.3,0-0.6,0.1-0.9
						c0.2-0.4,0.4-0.8,0.7-1.2c0.7-0.8,1.4-1.5,2.1-2.3c0.2-0.2,0.4-0.3,0.6-0.5c-0.1-2.1-0.2-4.2-0.3-6.3c0,0-0.1,0-0.1,0
						c-1.7,2-3.5,4-5.2,6c0.2,0.5,0.3,1.1,0.2,1.6c-0.2,0.9-1,1.6-2,1.7c-0.9,0.1-1.7-0.3-2.2-1.1c-0.3-0.5-0.5-1.1-0.4-1.7
						c0.2-1.3,1.4-2.2,2.8-1.9c0.1,0,0.1,0,0.2,0c1.6-1.9,3.3-3.8,4.9-5.7c-0.2-0.3-0.3-0.6-0.5-0.9c-0.1,0-0.3,0-0.4,0
						c-2,0-4,0-6.1,0c-0.3,0-0.5,0.1-0.6,0.4c-0.5,0.7-1,1.3-1.5,2c-0.2,0.3-0.5,0.5-0.7,0.7c-0.5,0.3-1,0.4-1.5,0.1
						c-0.5-0.3-0.6-0.8-0.5-1.4c0.1-0.4,0.3-0.7,0.4-1.1c0.1-0.2,0.2-0.4,0.3-0.6c-1.6-0.1-3.2-0.1-4.9-0.2c0,0.1-0.1,0.3-0.1,0.4
						c-0.3,1.1-1.5,1.9-2.6,1.6c-0.7-0.2-1.2-0.6-1.4-1.4c-0.1-0.2-0.1-0.5-0.1-0.7c-0.1-0.6,0.3-1.3,0.9-1.7
						c0.3-0.1,0.6-0.3,0.8-0.4c0.7-0.2,1.4,0,1.9,0.6c0.2,0.3,0.5,0.4,0.9,0.4c1.5-0.1,3.1-0.2,4.6-0.3c0.1,0,0.1,0,0.2-0.1
						c-0.1-0.1-0.2-0.1-0.3-0.2c-0.6-0.6-1.2-1.2-1.8-1.8c-0.2-0.2-0.4-0.5-0.5-0.7c-0.2-0.4-0.1-0.7,0.2-1c0.6-0.5,1.2-0.5,1.9-0.2
						c0.2,0.1,0.5,0.2,0.7,0.4c0.8,0.7,1.6,1.4,2.4,2.1c0.4,0.3,0.6,0.7,1,1.1c0.1,0.2,0.3,0.2,0.5,0.2c1.9,0,3.9-0.1,5.8-0.1
						c0.1,0,0.2,0,0.3,0c0.2,0,0.3-0.3,0.1-0.4c-0.1-0.1-0.2-0.2-0.2-0.2c-1.2-1-2.3-2.1-3.5-3.1c-0.8-0.7-1.6-1.4-2.3-2.1
						c-0.2-0.1-0.3-0.2-0.5-0.2c-1.1-0.1-2-0.6-2.7-1.4c-0.7-0.9-0.4-2.1,0.5-2.8c1.5-1,3.6-0.2,4.1,1.5c0.1,0.4,0.1,0.8,0.1,1.3
						c0.1,0.1,0.3,0.2,0.4,0.4c1.9,1.7,3.8,3.5,5.7,5.2c0.1,0.1,0.2,0.3,0.5,0.3c0-0.1,0-0.2,0-0.3c-0.1-2.3-0.2-4.6-0.3-6.9
						c0-0.3-0.1-0.4-0.3-0.6c-0.4-0.4-0.9-0.7-1.2-1.2c-0.6-0.7-1.1-1.4-1.6-2.1c-0.1-0.1-0.2-0.3-0.2-0.4c-0.3-0.7,0.3-1.4,1.1-1.3
						c0.3,0,0.5,0.2,0.8,0.3c0.3,0.2,0.7,0.5,1,0.8c0.1,0.1,0.2,0.2,0.4,0.4c-0.1-1.8-0.2-3.5-0.3-5.2c-0.1-0.1-0.2-0.1-0.3-0.2
						c-0.1-0.1-0.3-0.2-0.4-0.4c-0.6-0.8-0.7-1.7-0.4-2.6c0.3-0.9,1.2-1.4,2.1-1.1c0.8,0.2,1.4,0.7,1.8,1.4c0.5,0.9,0.3,1.9-0.5,2.5
						c-0.1,0.1-0.3,0.2-0.4,0.3c0.1,1.8,0.3,3.6,0.4,5.5c0.1-0.1,0.2-0.2,0.3-0.2c0.5-0.4,1-0.9,1.6-1.3c0.3-0.3,0.7-0.4,1.1-0.4
						c0.7,0,1.2,0.5,1.1,1.2c0,0.3-0.1,0.5-0.2,0.8c-0.2,0.4-0.5,0.9-0.8,1.2c-0.8,0.9-1.7,1.8-2.7,2.4c-0.2,0.1-0.3,0.3-0.3,0.5
						c0.1,2,0.2,4.1,0.3,6.1c0,0.1,0,0.2,0,0.3c0.1-0.1,0.2-0.2,0.3-0.2c1.4-1.6,2.8-3.3,4.2-4.9c0.2-0.2,0.1-0.4,0.1-0.6
						c-0.1-1,0.3-2,1.2-2.4c0.9-0.4,2-0.4,2.7,0.3c0.6,0.6,0.9,1.4,0.6,2.2c-0.3,0.9-1,1.5-2,1.7c-0.2,0-0.5,0-0.7,0
						c-0.3-0.1-0.5,0.1-0.6,0.3c-1.1,1.3-2.2,2.6-3.3,3.9c-0.3,0.4-0.7,0.8-1,1.3c-0.1,0.1-0.1,0.2-0.1,0.4c0.1,0,0.2,0.1,0.4,0.1
						c1.9,0,3.7,0,5.6-0.1c0.9,0,1.8,0,2.7,0c0.2,0,0.3,0,0.4,0c0.4-0.6,0.8-1.2,1.2-1.8c0.5-0.7,1.1-1.3,1.8-1.8
						c0.3-0.2,0.7-0.5,1.1-0.5c1-0.2,1.8,0.6,1.5,1.7c-0.2,0.5-0.5,1-0.8,1.4C242.6,151.3,242.3,151.6,241.9,152z"/>
					<path class="st55" d="M188.2,135.3c1.1,0.1,2,0.2,2.7,0.9c1.3,1.2,1.4,3.1,0.2,4.4c-1.6,1.7-4.7,1.7-6-1.1
						c-0.2-0.6-0.2-1.2-0.1-1.7C185.5,136.4,186.9,135.3,188.2,135.3z"/>
					<path class="st55" d="M227.1,231.9c0,2.3-2,4.3-4.4,4.3c-2.1,0-3.9-1.7-3.9-3.8c0-3,1.5-4.7,4-4.7
						C225.1,227.7,227.1,229.6,227.1,231.9z"/>
					<path class="st55" d="M102.9,207.5c-2.3,0-4.4-2.1-4.4-4.2c0-2.4,1.4-4,3.6-4.2c2.2-0.2,4.4,1.5,4.8,3.6
						c0.3,2.1-1.1,4.3-3.3,4.8C103.3,207.4,103,207.5,102.9,207.5z"/>
					<path class="st55" d="M140.1,147.8c-1.6,0-3-1.4-3-2.9c0-1.6,1-2.8,2.5-2.9c1.5-0.1,3.1,1,3.3,2.5c0.2,1.5-0.8,2.9-2.2,3.3
						C140.4,147.8,140.2,147.8,140.1,147.8z"/>
					<path class="st55" d="M108.3,246.2c-1.6,0-3-1.4-3-2.9c0-1.6,1-2.8,2.5-2.9c1.5-0.1,3.1,1,3.3,2.5c0.2,1.5-0.8,2.9-2.2,3.3
						C108.6,246.2,108.4,246.2,108.3,246.2z"/>
					<path class="st55" d="M255.5,184.8c-1.6,0-3-1.4-3-2.9c0-1.6,1-2.8,2.5-2.9c1.5-0.1,3.1,1,3.3,2.5c0.2,1.5-0.8,2.9-2.2,3.3
						C255.8,184.8,255.6,184.8,255.5,184.8z"/>
					<path class="st55" d="M259,131.9c0,1.8-1.8,3.4-3.8,3.4c-1.9,0-3.4-1.6-3.4-3.5c0-1.9,1.7-3.5,3.7-3.5
						C257.3,128.4,259,130.1,259,131.9z"/>
					<path class="st55" d="M331.8,241.8c0,1.8-1.8,3.4-3.8,3.4c-1.9,0-3.4-1.6-3.4-3.5c0-1.9,1.7-3.5,3.7-3.5
						C330.2,238.2,331.9,239.9,331.8,241.8z"/>
					<path class="st55" d="M306.4,166.6c0,1.3-1.2,2.4-2.6,2.4c-1.3,0-2.4-1.1-2.4-2.4c0-1.3,1.2-2.5,2.6-2.4
						C305.3,164.2,306.4,165.3,306.4,166.6z"/>
					<path class="st55" d="M335.4,196.6c0,1.3-1.2,2.4-2.6,2.4c-1.3,0-2.4-1.1-2.4-2.4c0-1.3,1.2-2.5,2.6-2.4
						C334.3,194.1,335.4,195.3,335.4,196.6z"/>
				</g>
			</g>
			<g>
				<g>
					<ellipse class="st56" cx="273.6" cy="271.3" rx="13.4" ry="3.3"/>
					<ellipse class="st56" cx="171.6" cy="272.5" rx="51.9" ry="4.1"/>
					<path class="st57" d="M268.1,241.5c0,0-0.1-0.1-0.1-0.1c-1.6-1.6-2.6-3.6-3-5.8c-0.2-0.9-0.3-1.8-0.2-2.7
						c0.1-1.5,0.4-2.9,1-4.2c0.6-1.5,1.6-2.9,2.7-4.1c1.2-1.2,2.6-1.9,4.3-2.2c2.2-0.3,4.2,0.1,6.1,1c1.9,1,3.3,2.6,4.2,4.5
						c0.6,1.3,0.9,2.6,1,4c0.2,2.5-0.3,4.9-1.5,7.1c-0.5,1-1.2,1.9-2.1,2.7c-0.1,0.1-0.1,0.1-0.2,0.2c0.1,0.1,0.1,0.1,0.2,0.1
						c0.8,0.5,1.6,1.1,2.3,1.7c0.8,0.8,1.6,1.6,2.3,2.5c1.3,1.7,2.2,3.6,2.7,5.7c0.4,1.7,0.6,3.3,0.5,5c0,1.6-0.3,3.1-0.8,4.6
						c-0.3,1.2-0.8,2.4-1.5,3.5c-1.3,2.1-3.1,3.7-5.2,4.8c-2.3,1.2-4.8,1.7-7.3,1.6c-2.8-0.1-5.4-0.8-7.9-2.2c-2.2-1.3-4-3-5.2-5.2
						c-1-1.8-1.6-3.8-1.7-5.9c0-0.5-0.1-1.1-0.1-1.6c0-1.4,0.3-2.8,0.6-4.1c0.4-1.5,1-2.9,1.8-4.3c0.4-0.7,0.8-1.3,1.4-1.9
						c1.3-1.4,2.6-2.8,4.2-3.9C267.1,242.2,267.6,241.9,268.1,241.5z"/>
				</g>
				<g>
					<path d="M265.4,225.8c-0.8-1.6-1.4-3.2-2-4.8c-0.4-1-0.7-1.9-1-2.9c-0.3-1.3,0.1-2.3,1.1-3.1c0.6-0.5,1.2-0.8,1.9-1.1
						c1.3-0.6,2.7-1,4.1-1.3c1.9-0.4,3.8-0.8,5.8-1c0.7-0.1,1.4-0.2,2-0.1c0.5,0,1,0.1,1.4,0.3c0.6,0.2,1,0.6,1.3,1.2
						c0.3,0.5,0.4,1.1,0.5,1.7c0.1,1,0.2,1.9,0.3,2.9c0.1,0.9,0.2,1.9,0.3,2.8c0.1,0.6,0.1,1.2,0.2,1.8c0,0.1,0,0.1,0,0.2
						c0.1,0,0.2,0,0.3,0c0.6,0,1.1,0,1.6,0.2c0.4,0.1,0.8,0.3,1.1,0.6c0.4,0.4,0.5,1,0.1,1.5c-0.2,0.3-0.5,0.5-0.9,0.7
						c-0.7,0.3-1.4,0.6-2.1,0.8c-1.8,0.5-3.6,0.9-5.4,1.4c-1.5,0.3-2.9,0.7-4.4,0.9c-1.8,0.3-3.6,0.6-5.4,0.9
						c-0.6,0.1-1.2,0.1-1.7,0.1c-0.4,0-0.7-0.1-1.1-0.2c-0.2-0.1-0.5-0.2-0.7-0.3c-0.5-0.4-0.6-1-0.3-1.6c0.2-0.3,0.5-0.6,0.8-0.7
						c0.5-0.3,1.1-0.5,1.7-0.7C265.1,225.9,265.2,225.8,265.4,225.8z"/>
					<g>
						<g>
							<path class="st58" d="M264.4,247.9c0,0.5-0.6,1.2-1.2,1.2c-0.2,0-0.4,0-0.5-0.1c-0.3-0.2-0.6-0.4-0.9-0.6
								c-0.6-0.6-1.3-1.2-1.9-1.8c-1.2-1.2-2.3-2.4-3.6-3.5c-1-0.9-1.9-1.8-2.7-2.8c-0.3-0.4-0.5-0.8-0.8-1.2
								c-0.1-0.2-0.1-0.4,0-0.5c0.1-0.2,0.3-0.3,0.5-0.3c0.1,0,0.3,0.1,0.4,0.1c0.3,0.2,0.6,0.4,0.9,0.6c0.9,0.7,1.8,1.5,2.6,2.3
								c1,0.9,1.9,1.8,2.8,2.7c1.1,1,2.2,2,3.4,2.9c0.2,0.2,0.4,0.3,0.6,0.5C264.3,247.3,264.4,247.5,264.4,247.9z"/>
							<path class="st58" d="M282.6,247.9c0,0.5,0.6,1.2,1.2,1.2c0.2,0,0.4,0,0.5-0.1c0.3-0.2,0.6-0.4,0.9-0.6
								c0.6-0.6,1.3-1.2,1.9-1.8c1.2-1.2,2.3-2.4,3.6-3.5c1-0.9,1.9-1.8,2.7-2.8c0.3-0.4,0.5-0.8,0.8-1.2c0.1-0.2,0.1-0.4,0-0.5
								c-0.1-0.2-0.3-0.3-0.5-0.3c-0.1,0-0.3,0.1-0.4,0.1c-0.3,0.2-0.6,0.4-0.9,0.6c-0.9,0.7-1.8,1.5-2.6,2.3
								c-1,0.9-1.9,1.8-2.8,2.7c-1.1,1-2.2,2-3.4,2.9c-0.2,0.2-0.4,0.3-0.6,0.5C282.7,247.3,282.6,247.5,282.6,247.9z"/>
						</g>
						<g>
							<path class="st26" d="M252.7,234.6c0,0,0-0.1,0-0.2c0.2-0.9,1.1-1.4,1.9-1c0.4,0.2,0.7,0.4,0.9,0.7c0.2,0.4,0.5,0.8,0.6,1.2
								c0.5,1.1,0.8,2.3,1,3.5c0,0.2,0,0.5-0.1,0.7c-0.1,0.2-0.2,0.4-0.3,0.6c-0.5,0.8-1.2,1.4-1.8,2c-0.4,0.3-0.8,0.5-1.3,0.4
								c-1.2-0.2-2.2-0.7-3.2-1.4c-1.1-0.8-2-1.8-2.7-3c-0.4-0.7-0.6-1.4-0.7-2.1c-0.1-0.9,0.2-1.8,0.9-2.4c0.6-0.5,1.2-0.7,2-0.6
								c0.9,0.1,1.7,0.6,2.4,1.2C252.4,234.4,252.5,234.5,252.7,234.6z"/>
							<path class="st26" d="M293.5,235.3c0,0,0-0.1,0-0.2c-0.2-0.9-1.1-1.4-1.9-1c-0.4,0.2-0.7,0.4-0.9,0.7
								c-0.2,0.4-0.5,0.8-0.6,1.2c-0.5,1.1-0.8,2.3-1,3.5c0,0.2,0,0.5,0.1,0.7c0.1,0.2,0.2,0.4,0.3,0.6c0.5,0.8,1.2,1.4,1.8,2
								c0.4,0.3,0.8,0.5,1.3,0.4c1.2-0.2,2.2-0.7,3.2-1.4c1.1-0.8,2-1.8,2.7-3c0.4-0.7,0.6-1.4,0.7-2.1c0.1-0.9-0.2-1.8-0.9-2.4
								c-0.6-0.5-1.2-0.7-2-0.6c-0.9,0.1-1.7,0.6-2.4,1.2C293.8,235.1,293.7,235.2,293.5,235.3z"/>
						</g>
					</g>
					<g>
						<path class="st59" d="M279.2,230.3c0.1,0,0.2,0.1,0.3,0.1c0.2,0.1,0.4,0.4,0.3,0.6c0,0.2-0.1,0.4-0.2,0.5
							c-0.2,0.2-0.3,0.4-0.5,0.6c-0.9,0.9-1.8,1.6-2.8,2.3c-0.4,0.3-0.8,0.5-1.2,0.6c-0.8,0.3-1.3,0.2-1.9-0.5
							c-0.4-0.4-0.6-0.9-0.8-1.5c-0.1-0.4,0-0.7,0.3-0.9c0.2-0.2,0.5-0.3,0.7-0.4c1.2-0.4,2.5-1,3.7-1.2c0.5-0.1,1.1-0.2,1.7-0.3
							C278.9,230.3,279,230.3,279.2,230.3z"/>
						<g>
							<path class="st60" d="M274.7,238.2c-1,0-1.9-0.3-2.7-0.8c-1.2-0.8-2.1-1.9-2.6-3.2c-0.1-0.1-0.1-0.3-0.1-0.4
								c0-0.1,0-0.1,0-0.2c0-0.1,0-0.2,0.2-0.2c0.1,0,0.2,0,0.3,0.1c0.1,0.1,0.1,0.2,0.2,0.3c0.2,0.5,0.5,1.1,0.9,1.5
								c0.8,1,1.8,1.7,3,2c1.2,0.3,2.2,0,3-0.9c0.7-0.6,1.1-1.4,1.5-2.3c0.1-0.2,0.2-0.5,0.3-0.7c0-0.1,0.1-0.2,0.2-0.3
								c0.1-0.2,0.3-0.2,0.4-0.2c0.1,0,0.2,0.2,0.2,0.4c0,0.1,0,0.2,0,0.3c-0.3,1-0.6,1.9-1.2,2.7c-0.3,0.4-0.6,0.8-1,1.1
								C276.3,238,275.5,238.2,274.7,238.2z"/>
							<circle class="st60" cx="270.8" cy="230.3" r="0.7"/>
							<circle class="st60" cx="277" cy="229.4" r="0.7"/>
						</g>
					</g>
					<g>
						<path class="st26" d="M290.6,256.3c0.2,0.3,0.3,0.6,0.5,0.9c0.2,0.3,0.3,0.7,0.5,1c0.2,0.3,0.2,0.7,0.2,1.1
							c0,0.3-0.1,0.5-0.2,0.7c-0.2,0.2-0.3,0.4-0.5,0.5c-0.9,0.6-1.8,1.2-2.7,1.9c-0.2,0.1-0.3,0.2-0.5,0.3c-0.5,0.2-1,0.1-1.4-0.4
							c-0.2-0.3-0.4-0.7-0.6-1c-0.7-1.4-1.5-2.8-2.1-4.3c-1.4-3.4-2.6-6.8-3.5-10.4c0-0.1-0.1-0.2-0.1-0.3c-0.3,0-0.7,0.1-1,0.1
							c-1.6,0.2-3.3,0.3-4.9,0.2c-1.8-0.1-3.6-0.2-5.3-0.6c-1-0.2-1.9-0.5-2.8-0.9c-0.2-0.1-0.4-0.2-0.6-0.3
							c-0.8-0.5-1.2-1.2-1.3-2.2c0-0.7,0.1-1.4,0.4-2c0.4-1,1.1-1.4,2.1-1.6c0.5-0.1,1-0.1,1.5,0c0.7,0,1.4,0.1,2.1,0.1
							c1,0.1,2.1,0.1,3.1,0.2c1.8,0.1,3.5,0,5.3,0c0.8,0,1.6-0.1,2.4-0.2c0.5-0.1,0.9,0,1.3,0.3c0.3,0.2,0.6,0.5,0.8,0.8
							c0.5,0.7,0.8,1.5,0.9,2.4c0,0.2,0.1,0.3,0.2,0.4c1.2,0.9,2.3,1.9,3.4,2.9c1.8,1.6,3.7,3.2,5.6,4.6c0.4,0.3,0.9,0.7,1.3,1
							c0.2,0.2,0.4,0.4,0.5,0.6c0.3,0.3,0.4,0.8,0.2,1.2c-0.1,0.2-0.2,0.5-0.3,0.7c-0.5,0.8-1.2,1.5-1.9,2.1c-0.3,0.2-0.6,0.4-1,0.6
							c-0.3,0.2-0.6,0.2-1,0.1c-0.2-0.1-0.4-0.2-0.6-0.3C290.8,256.4,290.7,256.3,290.6,256.3C290.6,256.3,290.6,256.3,290.6,256.3z
							"/>
					</g>
					<g>
						<g>
							<path class="st26" d="M271,256.7c0-1,0.8-2.1,1.8-2.3c0.5-0.1,0.9-0.2,1.4-0.2c1.1,0.2,2.1,1.3,2.1,2.5
								c0,0.8-0.4,1.5-1.1,1.9c-0.4,0.3-0.9,0.4-1.5,0.5C272.4,259.2,271.1,258.2,271,256.7z"/>
						</g>
						<g>
							<g>
								<path class="st26" d="M272.2,262.7c0-0.2,0-0.4,0.1-0.6c0.2-0.6,0.7-0.9,1.3-0.9c0.5,0,0.8,0.2,1.1,0.6
									c0.2,0.2,0.3,0.4,0.4,0.7c0.2,0.7-0.3,1.4-1,1.6c-0.9,0.2-1.8-0.4-1.8-1.3C272.3,262.9,272.3,262.8,272.2,262.7
									C272.3,262.7,272.3,262.7,272.2,262.7z"/>
								<path class="st26" d="M273.7,252.4c-1.2,0-1.8-1.3-1.3-2.2c0.3-0.5,0.8-0.7,1.3-0.6c0.5,0,0.9,0.3,1.1,0.8
									c0.1,0.3,0.2,0.6,0.2,1C274.9,252,274.3,252.4,273.7,252.4z"/>
							</g>
						</g>
					</g>
				</g>
			</g>
			<g>
				<path class="st52" d="M203.6,272c-1.5,0.5-3,0.7-4.5,0.7c-5.4,0-10.8,0.1-16.2,0c-0.5,0-1,0-1.4,0c-3.3-0.1-6.6-0.2-9.8-0.3
					c0,0,0-0.1,0-0.1c-5.3-0.1-10.6-0.2-15.9-0.3c-3.9-0.1-7.9-0.1-11.8-0.2c-1.2,0-2.4-0.1-3.6-0.2c-1.4,0-2.7,0-4.1,0
					c-1.5,0-2.7-0.6-3.4-1.9c-0.3-0.5-0.5-1.2-0.6-1.8c-0.2-1.3-0.2-2.5-0.3-3.8c-0.3-4.2-0.5-8.4-0.7-12.6
					c-0.5-9.8-0.7-19.6-0.7-29.4c0-3.9,0.3-7.8,0.2-11.6c0-3,0.9-5.6,2.4-8.1c0.6-0.9,1.1-1.8,1.7-2.7c4.7-6.6,9.2-13.5,13.6-20.4
					c2.9-4.6,6-9,9.4-13.2c1.1-1.4,2.3-2.6,3.7-3.7c0.5-0.3,0.9-0.7,1.4-1c1.6-0.9,3.3-1,5-0.1c0.9,0.5,1.7,1.1,2.5,1.7
					c2.8,2.5,5.5,5.2,7.9,8.2c3.6,4.4,7.4,8.7,10.9,13.1c4.3,5.3,8.5,10.6,12.4,16.3c1.3,1.9,2.5,4,3.7,6.1c0.7,1.3,1.3,2.7,1.4,4.2
					c0,0.2,0,0.3,0,0.5c0,10.1,0,20.3,0,30.4c0,4.7-0.1,9.3-0.1,14c0,4,0,7.9,0.1,11.9C206.8,270.2,205.3,271.4,203.6,272z"/>
				<g>
					<g>
						<path class="st55" d="M165.8,166.2c-0.2,0.3-0.2,0.4-0.3,0.5c-1,2.4-2.5,4.4-4.3,6.1c-0.1,0.1-0.2,0.2-0.3,0.3
							c-2.5,2.2-4.3,4.8-5.5,7.9c-1.3,3.3-3.3,6-5.8,8.4c-0.6,0.5-1.1,1.1-1.6,1.7c-1.7,1.8-3,3.8-3.8,6.1
							c-1.5,3.9-3.8,7.4-6.5,10.5c-1.5,1.7-2.9,3.5-3.8,5.6c-0.5,1.1-1.3,1.9-2.4,2.5c-1.9,1-3.9,0.8-5.3-0.8
							c-1.8-2.1-2.7-4.5-2.4-7.3c0.2-2.1,0.8-4,1.7-5.9c0.5-0.9,0.9-1.9,1.4-2.8c1.2-2.1,2.1-4.3,2.7-6.6c1-3.9,2.8-7.2,5.5-10.1
							c2.3-2.5,4.3-5.3,5.8-8.3c1.2-2.5,2.9-4.7,5-6.5c0.7-0.6,1.4-1.3,2-1.9c1.9-1.7,3.5-3.7,4.9-5.8c0.3-0.5,0.7-1.1,1.1-1.6
							c2.5-3.8,5.9-6.3,10.1-7.9c1.8-0.7,3.6-0.7,5.4-0.1c1.7,0.6,3.4,1.2,5.2,1.4c1.3,0.2,2.7,0.3,4,0.5c3.4,0.5,5.9,2.2,7.8,5
							c0.6,0.9,1.1,1.8,1.6,2.8c0.8,1.5,1.8,2.9,3.1,4.1c0.6,0.6,1.2,1.2,1.9,1.8c2.4,2.3,4.3,4.9,5.7,7.9c0.6,1.3,1.3,2.7,1.9,4
							c1.4,3.2,3.3,6,5.8,8.5c1.8,1.8,3.4,3.8,4.6,6.1c0.2,0.3,0.4,0.7,0.5,1c1.1,2.4,2.4,4.7,3.9,7c1.2,1.8,2,3.8,2.3,5.9
							c0.4,3-1,5.5-3.8,6.7c-1.5,0.6-3,0.8-4.5,0.5c-1.1-0.2-2.1-0.7-2.9-1.6c-0.7-0.7-1.3-1.5-1.9-2.3c-0.6-0.8-1.2-1.7-1.7-2.6
							c-0.9-1.4-2.1-2.6-3.6-3.5c-0.8-0.5-1.6-1-2.5-1.5c-3.1-1.9-5.3-4.5-6.7-7.8c-0.3-0.8-0.6-1.7-1-2.5c-0.5-1-1-1.9-1.5-2.8
							c-0.7-1.2-1.7-2.1-2.8-2.8c-0.7-0.4-1.3-0.8-2-1.2c-2.9-1.6-5-3.9-6.7-6.8c-0.5-0.9-1-1.8-1.5-2.7c-0.7-1.3-1.7-2.5-2.9-3.4
							c-1.5-1-2.6-2.3-3.6-3.8c-0.3-0.4-0.5-0.8-0.9-1.2C166.6,166.8,166.2,166.6,165.8,166.2z"/>
					</g>
					<g>
						<g>
							<path class="st61" d="M180.1,194.1c0,0.5,0,0.9-0.1,1.4c-0.6,5.3-4.8,9.5-10.1,10.1c-0.5,0.1-0.9,0.1-1.4,0.1
								c-0.5,0-0.9,0-1.4-0.1c-5.3-0.6-9.5-4.8-10.1-10.1c-0.1-0.5-0.1-0.9-0.1-1.4c0-0.5,0-0.9,0.1-1.4c0.6-5.3,4.8-9.5,10.1-10.1
								c0.5-0.1,0.9-0.1,1.4-0.1c0.5,0,0.9,0,1.4,0.1c5.3,0.6,9.5,4.8,10.1,10.1C180.1,193.2,180.1,193.7,180.1,194.1z"/>
							<path d="M180.1,194.1c0-0.5,0-0.9-0.1-1.4h-10.1v-10.1c-0.5-0.1-0.9-0.1-1.4-0.1c-0.5,0-0.9,0-1.4,0.1v10.1H157
								c-0.1,0.5-0.1,0.9-0.1,1.4c0,0.5,0,0.9,0.1,1.4h10.1v10.1c0.5,0.1,0.9,0.1,1.4,0.1c0.5,0,0.9,0,1.4-0.1v-10.1h10.1
								C180.1,195.1,180.1,194.6,180.1,194.1z"/>
						</g>
						<g>
							<rect x="136.5" y="225.2" class="st0" width="11" height="16.3"/>
							<path d="M135.2,224.4v7.9v2.1v8.1h13.6v-8.1v-2.1v-7.9H135.2z M146.6,240.1h-9.1v-5.8h9.1V240.1z M137.5,232.2v-5.6h9.1v5.6
								H137.5z"/>
						</g>
						<g>
							<rect x="189.5" y="225.2" class="st0" width="11" height="16.3"/>
							<path d="M188.2,224.4v7.9v2.1v8.1h13.6v-8.1v-2.1v-7.9H188.2z M199.5,240.1h-9.1v-5.8h9.1V240.1z M190.4,232.2v-5.6h9.1v5.6
								H190.4z"/>
						</g>
					</g>
					<g>
						<path class="st0" d="M182.9,238.8h-1.5v33.8c-3.3-0.1-6.6-0.2-9.8-0.3c0,0,0-0.1,0-0.1c-5.3-0.1-10.6-0.2-15.9-0.3v-33.1h-1.5
							c-1.2,0-2-1.3-1.4-2.4L160,224l7.2-12.4c0.6-1.1,2.2-1.1,2.8,0l7.2,12.4l7.2,12.4C184.9,237.5,184.1,238.8,182.9,238.8z"/>
						<g>
							<path class="st55" d="M152.8,239.2c5.3,1.9,4.2-5.6,5.3-7s2.3-2.9,3.6-5.5c1.4-2.7,2.1-6.3,3.9-6.8s1.6-0.4,2.6-0.4
								c1,0,1.5,0.5,2.3,1.1c1,0.8,3.3,6.3,4.8,7.5c1.5,1.2,2.1,4.3,2.8,6.3c0.7,2,4.4,6.1,6,4.8c2.1-1.6-0.2-7.7-3.1-10
								c-2-1.5-1.2-6.2-4.6-8c-1.7-0.9,0.4-4.7-1.7-6.6c-2.4-2.1-5.2-4.2-7.3-3.9c-2.1,0.2-2.3,4.8-3.4,5.2c-2,0.6-3.8,3.2-4,5.3
								c-0.2,2.1-2.7,1.9-4,4.1s0,6-1.7,7C152.2,233.4,150.4,238.4,152.8,239.2z"/>
							<g>
								<g>
									<path class="st9" d="M168.2,254.7c-5.6,0-10.1-4.5-10.1-10.1c0-5.6,4.5-10.1,10.1-10.1c5.6,0,10.1,4.5,10.1,10.1
										C178.4,250.2,173.8,254.7,168.2,254.7z M168.2,238.6c-3.3,0-5.9,2.7-5.9,5.9c0,3.3,2.7,5.9,5.9,5.9c3.3,0,5.9-2.7,5.9-5.9
										C174.2,241.3,171.5,238.6,168.2,238.6z"/>
								</g>
								<g>
									<circle class="st26" cx="161.2" cy="242.4" r="0.9"/>
									<circle class="st26" cx="160.3" cy="246.6" r="0.9"/>
									<circle class="st26" cx="167.7" cy="237.1" r="0.9"/>
									<circle class="st26" cx="172.4" cy="237.5" r="0.9"/>
									<circle class="st26" cx="175.9" cy="242" r="0.9"/>
									<circle class="st26" cx="176.3" cy="247.1" r="0.9"/>
									<circle class="st26" cx="173.3" cy="250.9" r="0.9"/>
									<circle class="st26" cx="169.4" cy="252.3" r="0.9"/>
									<circle class="st26" cx="163.6" cy="251.4" r="0.9"/>
									<circle class="st26" cx="163.1" cy="237.9" r="0.9"/>
								</g>
							</g>
							<circle class="st26" cx="158.5" cy="256.9" r="1.5"/>
						</g>
					</g>
				</g>
			</g>
		</g>
	</g>
	<path class="st24" d="M366,317.9H66c-6.6,0-12-5.4-12-12v-14.4c0-6.6,5.4-12,12-12h300c6.6,0,12,5.4,12,12v14.4
		C378,312.5,372.6,317.9,366,317.9z"/>
</g>
</svg>
