<?xml version="1.0" encoding="utf-8"?>
<!-- Generator: Adobe Illustrator 21.1.0, SVG Export Plug-In . SVG Version: 6.00 Build 0)  -->
<svg version="1.1" id="Calque_1" xmlns="http://www.w3.org/2000/svg" xmlns:xlink="http://www.w3.org/1999/xlink" x="0px" y="0px"
	 viewBox="0 0 432 432" style="enable-background:new 0 0 432 432;" xml:space="preserve">
<style type="text/css">
	.st0{fill:#A67C52;}
	.st1{fill:#8C6239;}
	.st2{fill:#E6E6E6;}
	.st3{fill:#42210B;}
	.st4{fill:#603813;}
	.st5{fill:#4B662B;}
	.st6{fill:#7C915E;}
	.st7{fill:#9E1E28;}
	.st8{fill:#006837;}
	.st9{fill:#C1272D;}
	.st10{fill:#C49153;}
	.st11{fill:#662F2A;}
	.st12{fill:#95B7A9;}
	.st13{fill:#AFA452;}
	.st14{fill:#C5443E;}
	.st15{fill:#F0959C;}
	.st16{fill:#F2F2F2;}
	.st17{fill:#A12025;}
	.st18{fill:#064928;}
	.st19{fill:#009245;}
	.st20{fill:#821119;}
	.st21{fill:#CCCCCC;}
	.st22{fill:#E2A1BC;}
	.st23{fill:#808080;}
	.st24{fill:#E27E1A;}
	.st25{fill:#C66A17;}
	.st26{fill:#F7931E;}
	.st27{fill:#754C24;}
	.st28{fill:#FFFFFF;}
	.st29{fill:#4D4D4D;}
	.st30{fill:#FF0000;}
	.st31{fill:#DBB76F;}
	.st32{fill:#C9741F;}
	.st33{fill:#BB0043;}
	.st34{fill:#DD6652;}
	.st35{fill:#FFC693;}
	.st36{fill:#F2B288;}
	.st37{fill:#C69C6D;}
	.st38{fill:#E62E36;}
	.st39{fill:#A51717;}
	.st40{fill:#561217;}
	.st41{fill:#FBB03B;}
	.st42{fill:#FF9191;}
	.st43{fill:#BDCCD4;}
	.st44{fill:none;}
</style>
<g>
	<g>
		<path class="st0" d="M172.6,322c0.7-32.2,9.6-245.9,9.9-252s13.9-8.4,14.3,2.3c0.4,10.7-11.5,127.7-12.1,142.7
			c-0.6,15,2.6,98.6,2.4,107C186.9,330.4,172.4,331.2,172.6,322z"/>
		<path class="st1" d="M125,82.4c20.9-0.2,108.1-5.8,123.7-7.2c-1.1,5.8-1.8,9.6-1.6,11.9c0.1,2.2,3.6,6.3,5.2,6.8
			c-3,1.6-4.5,4.7-5.2,5.2c0.8,2.5,3.4,4.4,2.7,5.8c-0.7,1.4-3.3,3.6-3.8,4c2.1,3.1,2,5.2,3.2,5.7c-0.7,2.2-2.1,4.8-2.7,5.9
			c-0.6,1.1,3,5.3,5,9c-4.3,4.8-3.4,12.7-0.7,14.6c-10.4,1.4-120.2,3.6-125.3,3.2c0.5-4.6-2.6-9.2-3.8-10.3c1.7-2,7.2-5.3,8.5-5.9
			c-5.6-2.2-6.2-6.7-8.5-9.3c-1.9-2.1,4.9-8.2,4-11.6c-1-3.5-4.8-9.6-3.2-10.1c3.6-1.1,4.2-5.8,5.8-6.3c-2.1-1.6-4.5-3.3-4.7-3.7
			c0.6-0.6,3.2-0.9,3.2-1.5c0-0.6-3.1-2.5-3.2-3.5C123.4,84.1,123.1,82.4,125,82.4z"/>
	</g>
	<path class="st2" d="M121.4,148.8c0.2-4.7,6.7-20.7,53.7-16.7c47.4,4,77.7,8.6,79.1,13.2c1.4,4.5-4.3,6.3-4.5,7.5
		c-0.3,1.2,0.5,4.8-0.9,5.9c-1.4,1-1.6,7.8-1.8,9c-0.1,1.2-1.7-12.8-3.6-15.4c-1.9-2.7-1.9,2.2-1.9,4.4c0,2.2-3.1,12.3-3.2,13.9
		c-0.1,1.6-1.6,21.1-2.2,22.5c-0.6,1.3-1.1-37-3.5-39.6s-4.6,4.2-6.8,4.4c-2.2,0.2-4.5-0.9-5.8-3.1c-1.2-2.2-2.1-1-3.5-0.9
		c-1.4,0.1-2.4-1.7-4.5-3.9c-2.1-2.2-9.9-1.3-10.1,0.3s0.6,6.4,0.2,8.4c-0.4,2-2.5-3.9-2.5-5.8c0-1.9-1.7-6.3-2.7-3.8
		c-1,2.4-1.6,25.7-2.7,30.2c-1.1,4.5-4.2-24.1-4.4-27.9s-2.3-0.2-2.2,3.1c0.1,3.3,0.5-4.9-1.3-5.4c-1.8-0.4-6.8-0.8-9.4,0.4
		c-2.6,1.2-10.3,1-13.5-0.9c-3.1-1.9-6.8,6.2-13.1,4.1c-6.3-2.1-5.8-4.7-6.7-4.8c-0.9-0.1-2.2,6.3-2.6,8c-0.4,1.6-0.9-6.3-2-7.3
		c-1.1-0.9-2,15.4-2.7,18s0.1-14.1-2.2-15.6c-2.3-1.5-0.4,5-1.7,5.6c-1.3,0.6-2.4-3.5-2.6-4.8c-0.2-1.3-0.7,1.1-2.5,1.1
		C125.6,152.5,121.3,152.3,121.4,148.8z"/>
	<g>
		<g>
			<path class="st3" d="M211.5,109c0.6-0.2,1.1-0.3,1.7-0.2c0.5,0,1,0.1,1.4,0.3c0.5,0.2,0.8,0.5,1.1,1c0.2,0.4,0,0.8-0.4,1
				c0,0-0.1,0-0.1,0.1c-0.4,0.3-0.8,0.3-1.2,0c-0.7-0.4-1.3-0.3-2-0.1c0.9,4,1.9,7.9,3,11.8c0.1,0,0.2,0,0.3,0c0.1,0,0.3,0,0.4-0.1
				c1.1-0.2,1.7-0.9,2.1-1.9c0.1-0.3,0.2-0.7,0.3-1.1c0.1-0.4,0.4-0.7,0.8-0.6c0.4,0,0.7,0.4,0.7,0.8c0,1.1-0.3,2-1,2.9
				c-0.8,1-1.7,1.7-3,1.9c-0.1,0-0.1,0-0.2,0c0,0.1,0,0.2,0.1,0.3c0.1,0.5,0.2,1.1,0.4,1.6c0,0.1,0,0.3,0,0.4
				c-0.2,0.5-0.8,0.6-1.2,0.3c-0.2-0.2-0.4-0.5-0.5-0.8c-0.1-0.5-0.3-1-0.4-1.5c0-0.1-0.1-0.2-0.1-0.3c-0.1,0-0.1,0-0.2,0
				c-1.4-0.1-2.7-0.6-3.8-1.4c-1.7-1.3-2.8-3-3.1-5.1c-0.1-0.5,0-1-0.1-1.5c-0.1-1,0.2-2,0.5-3c0.4-1.6,1.3-2.9,2.6-3.8
				c0,0,0,0,0.1-0.1c0-0.1-0.1-0.2-0.1-0.3c-0.3-0.9-0.5-1.9-0.6-2.9c0-0.6,0.4-0.9,0.9-0.9c0.3,0,0.6,0.2,0.7,0.5
				c0.1,0.3,0.3,0.5,0.3,0.8c0.2,0.5,0.3,1,0.4,1.5C211.4,108.8,211.4,108.9,211.5,109z M210.2,111.9c-0.1,0-0.1,0.1-0.1,0.1
				c-0.1,0.1-0.1,0.1-0.2,0.2c-0.5,0.5-0.9,1.2-1.2,1.8c-0.2,0.5-0.4,1-0.5,1.5c0,0.4-0.1,0.7-0.1,1.1c0,1,0.1,1.9,0.5,2.8
				c0.3,0.7,0.7,1.3,1.1,1.8c0.6,0.8,1.4,1.3,2.3,1.6c0.3,0.1,0.6,0.1,0.9,0.1C212.1,119.3,211,115.6,210.2,111.9z"/>
			<path class="st3" d="M194.5,113.5c0.2,1,0.4,1.9,0.6,2.8c0,0,0.1,0,0.2-0.1c0.9-0.5,1.9-0.6,2.9-0.6c0.9,0,1.7,0.1,2.5,0.4
				c1.8,0.7,2.9,2,3.4,3.8c0.3,1,0.2,2,0,3c-0.3,1.3-1,2.4-1.8,3.4c-1.2,1.3-2.6,1.9-4.4,1.8c-1.1,0-2-0.5-2.7-1.3
				c-0.3-0.3-0.5-0.7-0.7-1.2c-0.1-0.3-0.2-0.5,0-0.8c0.1-0.1,0.1-0.2,0.2-0.3c0.3-0.3,0.8-0.2,1.1,0.2c0.4,0.6,1,1,1.7,1.3
				c0.3,0.1,0.5,0.1,0.8,0.1c0.6-0.1,1.2-0.2,1.7-0.6c0.3-0.2,0.6-0.4,0.8-0.6c0.6-0.6,1-1.2,1.2-2.1c0.1-0.6,0.2-1.2,0.1-1.8
				c-0.1-0.5-0.2-1-0.4-1.5c-0.3-0.8-0.9-1.2-1.7-1.4c-0.7-0.2-1.3-0.2-2-0.2c-0.9,0.1-1.7,0.2-2.5,0.5c-0.3,0.1-0.5,0.2-0.8,0.3
				c-0.2,0-0.3,0.1-0.5,0.1c-0.3,0-0.5-0.2-0.5-0.5c0-0.2-0.1-0.3-0.1-0.5c-0.2-0.9-0.4-1.9-0.6-2.8c-0.1-0.5-0.2-1-0.3-1.5
				c-0.1-0.8,0.2-1,0.8-1.1c0.3-0.1,0.7-0.1,1-0.1c0.5-0.1,1-0.1,1.5-0.2c1.3-0.3,2.6-0.5,3.9-0.7c0.5-0.1,1-0.2,1.5-0.3
				c0.3,0,0.6,0,0.9,0c0.3,0,0.5,0.1,0.6,0.4c0.1,0.3,0,0.5-0.2,0.7c-0.2,0.2-0.5,0.3-0.8,0.3c-0.5,0.1-1.1,0.2-1.6,0.3
				c-1.2,0.2-2.4,0.4-3.6,0.6c-0.6,0.1-1.2,0.2-1.8,0.2C194.6,113.5,194.5,113.5,194.5,113.5z"/>
		</g>
		<g>
			<path class="st3" d="M144.6,111.2c-0.9,0-1.9-0.1-2.8-0.5c-1.5-0.7-2.4-1.9-2.8-3.5c-0.2-0.7-0.2-1.4,0-2.2
				c0.1-0.6,0.4-1.1,0.8-1.5c0.5-0.6,1.1-0.9,1.8-1c0.7-0.1,1.9,0.5,2.1,1.5c0.1,0.7-0.1,1.3-0.4,1.9c-0.2,0.4-0.6,0.5-1,0.4
				c-0.2-0.1-0.3-0.2-0.3-0.4c0-0.2,0.1-0.3,0.3-0.4c0.2-0.1,0.4-0.2,0.4-0.5c0-0.3-0.1-0.6-0.4-0.8c-0.4-0.2-0.7-0.1-1.1,0.2
				c-0.4,0.4-0.6,0.9-0.7,1.4c-0.1,1.2,0.3,2.2,1.3,2.9c0.3,0.3,0.7,0.4,1.2,0.5c0.5,0.1,1.1,0.1,1.6,0.1c0.5,0,0.9-0.1,1.4-0.3
				c1.1-0.6,1.8-1.5,2-2.8c0.1-0.4,0-0.8-0.3-1.1c-0.5-0.7-1-1.3-1.5-2c-0.6-0.7-1.3-1.3-2.1-1.8c-0.6-0.4-1.2-0.9-1.9-1.3
				c-0.3-0.2-0.6-0.5-0.9-0.8c-0.8-0.7-1.2-1.6-1.4-2.6c-0.1-0.6-0.1-1.2,0-1.9c0.1-0.5,0.1-1,0.2-1.5c0.1-0.4,0.2-0.7,0.3-1.1
				c0.6-1.4,1.5-2.4,3-2.8c1.5-0.4,2.8,0,3.9,1.2c0.7,0.7,0.8,1.6,0.5,2.5c-0.1,0.3-0.3,0.6-0.5,0.8c-0.4,0.4-1,0.7-1.6,0.8
				c-0.7,0.1-1.3-0.3-1.4-1c0-0.3,0-0.7,0.2-1c0.1-0.1,0.2-0.2,0.3-0.2c0.1-0.1,0.2,0,0.3,0.1c0.1,0.1,0,0.2-0.1,0.3
				c-0.2,0.1-0.2,0.4-0.2,0.6c0,0.4,0.3,0.7,0.7,0.6c1.2-0.3,1.5-1.1,1.3-2.1c-0.1-0.4-0.3-0.7-0.7-1c-0.5-0.4-1.1-0.6-1.7-0.6
				c-0.6,0-1.1,0.2-1.5,0.6c-0.4,0.4-0.6,0.9-0.8,1.4c0,0.2,0,0.4,0,0.6c0,0.7,0.3,1.4,0.9,1.8c0.6,0.5,1.2,1.1,1.9,1.6
				c1.1,0.8,2,1.6,2.9,2.5c0.3,0.3,0.6,0.6,0.8,0.9c0.5,0.5,0.9,1,1.2,1.6c0.2,0.4,0.4,0.8,0.4,1.3c0,0.1,0,0.2,0,0.3
				c0.5,1.7,0.2,3.3-0.6,4.9c-0.4,0.8-1,1.6-1.7,2.2c-0.8,0.7-1.7,1-2.8,1.2c-0.1,0-0.3,0-0.4,0
				C144.7,111.2,144.7,111.2,144.6,111.2z M148.9,104.4c0-0.2-0.1-0.4-0.2-0.6c-0.4-1-0.9-1.8-1.7-2.6c-0.5-0.5-1.1-1-1.7-1.5
				c-0.7-0.7-1.5-1.3-2.3-1.9c-0.4-0.4-0.8-0.8-1.1-1.4c-0.1-0.2-0.2-0.2-0.3-0.2c-0.1,0.1-0.2,0.2-0.1,0.4c0.1,0.2,0.2,0.3,0.3,0.5
				c0.3,0.5,0.8,1,1.3,1.4c0.9,0.8,1.9,1.6,2.8,2.4c1,0.8,1.8,1.8,2.3,3c0.1,0.2,0.1,0.4,0.2,0.7c0,0.1,0.1,0.2,0.3,0.2
				C148.9,104.7,148.9,104.6,148.9,104.4z"/>
			<path class="st3" d="M229.3,108c-0.9,0-1.9-0.1-2.8-0.5c-1.5-0.7-2.4-1.9-2.8-3.5c-0.2-0.7-0.2-1.4,0-2.2
				c0.1-0.6,0.4-1.1,0.8-1.5c0.5-0.6,1.1-0.9,1.8-1c0.7-0.1,1.9,0.5,2.1,1.5c0.1,0.7-0.1,1.3-0.4,1.9c-0.2,0.4-0.6,0.5-1,0.4
				c-0.2-0.1-0.3-0.2-0.3-0.4c0-0.2,0.1-0.3,0.3-0.4c0.2-0.1,0.4-0.2,0.4-0.5c0-0.3-0.1-0.6-0.4-0.8c-0.4-0.2-0.7-0.1-1.1,0.2
				c-0.4,0.4-0.6,0.9-0.7,1.4c-0.1,1.2,0.3,2.2,1.3,2.9c0.3,0.3,0.7,0.4,1.2,0.5c0.5,0.1,1.1,0.1,1.6,0.1c0.5,0,0.9-0.1,1.4-0.3
				c1.1-0.6,1.8-1.5,2-2.8c0.1-0.4,0-0.8-0.3-1.1c-0.5-0.7-1-1.3-1.5-2c-0.6-0.7-1.3-1.3-2.1-1.8c-0.6-0.4-1.2-0.9-1.9-1.3
				c-0.3-0.2-0.6-0.5-0.9-0.8c-0.8-0.7-1.2-1.6-1.4-2.6c-0.1-0.6-0.1-1.2,0-1.9c0.1-0.5,0.1-1,0.2-1.5c0.1-0.4,0.2-0.7,0.3-1.1
				c0.6-1.4,1.5-2.4,3-2.8c1.5-0.4,2.8,0,3.9,1.2c0.7,0.7,0.8,1.6,0.5,2.5c-0.1,0.3-0.3,0.6-0.5,0.8c-0.4,0.4-1,0.7-1.6,0.8
				c-0.7,0.1-1.3-0.3-1.4-1c0-0.3,0-0.7,0.2-1c0.1-0.1,0.2-0.2,0.3-0.2c0.1-0.1,0.2,0,0.3,0.1c0.1,0.1,0,0.2-0.1,0.3
				c-0.2,0.1-0.2,0.4-0.2,0.6c0,0.4,0.3,0.7,0.7,0.6c1.2-0.3,1.5-1.1,1.3-2.1c-0.1-0.4-0.3-0.7-0.7-1c-0.5-0.4-1.1-0.6-1.7-0.6
				c-0.6,0-1.1,0.2-1.5,0.6c-0.4,0.4-0.6,0.9-0.8,1.4c0,0.2,0,0.4,0,0.6c0,0.7,0.3,1.4,0.9,1.8c0.6,0.5,1.2,1.1,1.9,1.6
				c1.1,0.8,2,1.6,2.9,2.5c0.3,0.3,0.6,0.6,0.8,0.9c0.5,0.5,0.9,1,1.2,1.6c0.2,0.4,0.4,0.8,0.4,1.3c0,0.1,0,0.2,0,0.3
				c0.5,1.7,0.2,3.3-0.6,4.9c-0.4,0.8-1,1.6-1.7,2.2c-0.8,0.7-1.7,1-2.8,1.2c-0.1,0-0.3,0-0.4,0C229.5,108,229.4,108,229.3,108z
				 M233.7,101.2c0-0.2-0.1-0.4-0.2-0.6c-0.4-1-0.9-1.8-1.7-2.6c-0.5-0.5-1.1-1-1.7-1.5c-0.7-0.7-1.5-1.3-2.3-1.9
				c-0.4-0.4-0.8-0.8-1.1-1.4c-0.1-0.2-0.2-0.2-0.3-0.2c-0.1,0.1-0.2,0.2-0.1,0.4c0.1,0.2,0.2,0.3,0.3,0.5c0.3,0.5,0.8,1,1.3,1.4
				c0.9,0.8,1.9,1.6,2.8,2.4c1,0.8,1.8,1.8,2.3,3c0.1,0.2,0.1,0.4,0.2,0.7c0,0.1,0.1,0.2,0.3,0.2
				C233.6,101.5,233.7,101.4,233.7,101.2z"/>
			<path class="st3" d="M183,98.4c0-0.2,0.1-0.4,0.1-0.6c0.3-1.9,0.8-3.7,1.2-5.6c0.2-0.7,0.3-1.4,0.5-2c0.1-0.6,0.4-1.2,0.7-1.8
				c0.2-0.3,0.4-0.6,0.6-0.8c0.5-0.5,1.1-0.7,1.8-0.4c0.4,0.2,0.7,0.5,0.7,1c0,0.3,0.1,0.7,0,1c-0.1,0.5-0.6,0.9-1.1,0.8
				c-0.2,0-0.4-0.1-0.5-0.3c-0.2-0.3,0-0.6,0.3-0.5c0.2,0,0.4-0.1,0.4-0.3c0.1-0.2,0-0.4-0.1-0.6c0,0-0.1,0-0.2,0
				c-0.2,0-0.3,0.1-0.4,0.3c-0.2,0.3-0.3,0.6-0.4,0.8c-0.2,0.7-0.4,1.3-0.5,2c-0.3,1.4-0.6,2.9-0.9,4.3c-0.3,1.5-0.7,3-1,4.5
				c0,0.1-0.1,0.3-0.1,0.4c-0.1,0.2-0.3,0.4-0.5,0.4c-0.1,0-0.1,0-0.2,0.1c-0.4,0.2-0.8,0.1-1-0.2c-0.2-0.2-0.3-0.5-0.5-0.7
				c-0.4-0.8-0.7-1.7-1-2.6c-0.4-1.2-0.8-2.4-1.2-3.7c0-0.1-0.1-0.2-0.1-0.3c-0.1,0.4-0.2,0.7-0.3,1c-0.3,0.8-0.5,1.7-0.8,2.5
				c-0.4,1.1-0.7,2.2-1,3.4c0,0.2-0.1,0.3-0.1,0.5c-0.1,0.2-0.3,0.4-0.5,0.4c-0.3,0-0.4-0.1-0.5-0.3c0-0.1-0.1-0.2-0.1-0.2
				c-0.5-1.6-0.8-3.2-1.1-4.8c-0.4-2-0.7-4-1.4-5.9c-0.1-0.2-0.1-0.3-0.2-0.5c-0.1-0.2-0.2-0.2-0.4-0.2c-0.2,0-0.3,0.1-0.3,0.4
				c0.1,0,0.1,0,0.2,0c0.1,0,0.2,0.1,0.2,0.2c0,0.1,0,0.2-0.1,0.3c-0.2,0.2-0.4,0.2-0.6,0.1c-0.5-0.1-0.7-0.8-0.5-1.3
				c0.2-0.4,0.6-0.6,1.1-0.8c0.9-0.3,1.9,0.3,2.3,1.1c0.3,0.7,0.6,1.4,0.9,2.2c0.4,1.3,0.8,2.6,1.2,3.9c0,0.1,0.1,0.2,0.1,0.3
				c0.1-0.2,0.1-0.3,0.1-0.4c0.4-1.3,0.8-2.6,1.1-3.9c0.3-0.9,0.5-1.8,0.8-2.7c0.1-0.3,0.3-0.5,0.6-0.5c0.3,0,0.5,0.2,0.6,0.5
				c0.1,0.3,0.2,0.7,0.2,1c0.4,2,0.8,4,1.4,6c0.2,0.8,0.5,1.5,0.8,2.2C182.9,98.2,182.9,98.3,183,98.4z M174.7,92.1
				c0,0.1,0,0.1,0.1,0.2c0.4,1.3,0.9,2.5,1.3,3.8c0,0.1,0.1,0.3,0.2,0.4c0.1,0.2,0.2,0.2,0.3,0.2c0.1-0.1,0.1-0.2,0.1-0.3
				c-0.2-0.7-0.5-1.4-0.7-2.1c-0.2-0.6-0.4-1.2-0.7-1.8c0-0.1-0.1-0.2-0.1-0.3c-0.1-0.1-0.2-0.1-0.3-0.1
				C174.7,92,174.7,92.1,174.7,92.1z M180.2,92.9c-0.2,0-0.3,0.2-0.2,0.4c0.4,1.3,0.9,2.5,1.3,3.8c0,0.1,0.1,0.2,0.2,0.3
				c0.1,0.1,0.2,0.2,0.3,0.1c0.1-0.1,0.1-0.2,0.1-0.3c-0.1-0.2-0.2-0.4-0.3-0.6c-0.3-0.9-0.7-1.9-1-2.8c-0.1-0.2-0.1-0.4-0.2-0.6
				C180.4,92.9,180.3,92.9,180.2,92.9z"/>
			<path class="st3" d="M152.7,94.3c0,0.1,0,0.1,0,0.2c0.1,1.7,0.2,3.3,0.3,5c0.1,1.1,0.1,2.3,0.1,3.4c0,0.6,0,1.2,0,1.8
				c0,0.3-0.1,0.5-0.1,0.8c-0.1,0.3-0.3,0.4-0.5,0.4c-0.3,0-0.5-0.1-0.6-0.3c-0.1-0.2-0.2-0.4-0.2-0.6c-0.2-1.8-0.1-3.5-0.2-5.3
				c-0.1-2.4-0.2-4.7-0.3-7.1c0-0.7-0.1-1.3-0.1-2c0-0.3,0-0.6,0.1-0.8c0.1-0.5,0.6-0.8,1.1-0.5c0.2,0.1,0.4,0.2,0.6,0.4
				c0.4,0.3,0.7,0.7,1,1.1c1.7,2.4,3.3,4.8,5,7.1c0,0,0,0.1,0.1,0.1c0-0.1,0-0.2,0-0.2c0-2-0.1-4-0.1-6c0-0.4,0-0.9,0-1.3
				c0-0.7,0.3-1.2,0.9-1.6c0.4-0.3,0.8-0.4,1.3-0.2c0.4,0.2,0.7,0.6,0.8,1.1c0,0.4,0,0.8-0.2,1.1c-0.1,0.2-0.2,0.3-0.4,0.4
				c-0.2,0-0.3,0-0.4-0.1c-0.2-0.2-0.2-0.4,0-0.5c0.1-0.1,0.2-0.2,0.2-0.4c0-0.3,0-0.3-0.3-0.3c-0.1,0.1-0.1,0.3-0.2,0.5
				c0,0.5-0.1,1-0.1,1.5c-0.2,2.9-0.1,5.8,0.1,8.7c0,0.3,0,0.6,0,0.9c0,0.4-0.2,0.7-0.7,0.7c-0.5,0.1-0.8-0.1-1.2-0.3
				c-0.8-0.6-1.5-1.4-2.1-2.2c-0.9-1.2-1.7-2.5-2.5-3.7c-0.3-0.5-0.6-1.1-0.9-1.6C152.9,94.4,152.9,94.3,152.7,94.3
				C152.8,94.3,152.8,94.3,152.7,94.3z M158.3,99c-0.1-0.1-0.1-0.3-0.2-0.4c-0.7-0.9-1.5-1.7-2.2-2.6c-0.6-0.7-1.1-1.4-1.6-2.1
				c-0.2-0.2-0.3-0.4-0.4-0.6c-0.1-0.1-0.2-0.2-0.3-0.1c-0.1,0-0.2,0.2-0.1,0.3c0,0.1,0.1,0.2,0.1,0.2c0.5,0.6,0.9,1.3,1.4,1.9
				c0.9,1.2,1.9,2.4,2.9,3.5c0.1,0.1,0.2,0.1,0.3,0.1C158.2,99.1,158.2,99,158.3,99z"/>
			<path class="st3" d="M195,92.2c0.4,0.3,0.9,0.5,1.3,0.8c1.5,1.1,2.1,2.5,2,4.3c-0.1,1.2-0.7,2.2-1.7,2.9
				c-0.8,0.6-1.7,0.8-2.7,0.8c-0.7,0-1.5-0.1-2.2-0.1c-0.3,0-0.7,0-1,0.1c-0.5,0.1-0.8-0.1-1-0.7c0-0.1,0-0.2,0-0.2
				c0-2.8-0.1-5.5-0.1-8.3c0-1.1,0-2.1,0-3.2c0-0.2,0-0.5,0-0.7c0-0.3,0.2-0.5,0.5-0.6c1.3-0.5,2.6-0.6,3.9,0c1,0.5,1.6,1.3,1.8,2.5
				c0.1,0.7-0.1,1.3-0.5,1.8C195.4,91.7,195.2,91.9,195,92.2z M192.4,99.6c0.7,0.1,1.3,0,2,0c1.2-0.2,2-1.1,2.2-2.2
				c0.2-1.1-0.2-2-1-2.8c-0.8-0.7-1.6-1.1-2.7-1.1c-0.2,0-0.5,0-0.7,0C192.2,95.6,192.3,97.6,192.4,99.6z M192.1,92
				c0.3,0,0.6-0.1,0.8-0.1c0.3,0,0.6-0.1,0.8-0.3c0.2-0.2,0.3-0.3,0.5-0.5c0.5-0.6,0.5-1.3,0.1-2c-0.5-0.8-1.3-1-2.1-1.1
				C192.1,89.3,192,90.6,192.1,92z M191.3,93.9C191.3,93.9,191.3,93.9,191.3,93.9c0-0.2,0-0.5,0-0.7c-0.1-1.1-0.1-2.1-0.2-3.2
				c0-0.2,0-0.3,0-0.5c0-0.2-0.1-0.3-0.3-0.3c-0.1,0-0.2,0.1-0.2,0.3c0,0,0,0.1,0,0.1c0.2,2.9,0.3,5.8,0.3,8.7
				c0,0.2,0.1,0.3,0.2,0.3c0.1,0,0.2-0.1,0.3-0.2c0-0.1,0-0.2,0-0.3C191.4,96.6,191.3,95.2,191.3,93.9z"/>
			<path class="st3" d="M172.3,95c0,1.6-0.2,3-0.9,4.3c-0.3,0.6-0.8,1.1-1.3,1.6c-0.5,0.4-1.1,0.7-1.7,0.7c-1.2,0.1-2.3-0.1-3.3-0.7
				c-0.6-0.3-1.1-0.8-1.4-1.3c-0.7-1.1-1.2-2.3-1.4-3.7c-0.1-1.3,0-2.6,0.6-3.9c0.5-1.1,1.1-2,2.1-2.7c0.3-0.3,0.7-0.5,1.1-0.7
				c0.4-0.2,0.9-0.2,1.3-0.2c1.2,0,2.2,0.5,3,1.4c1,1.2,1.7,2.5,2,4C172.2,94.3,172.2,94.8,172.3,95z M169.7,95
				c-0.1-0.7-0.1-1.4-0.3-2.1c-0.1-0.8-0.4-1.5-0.9-2.2c-0.3-0.4-0.7-0.7-1.2-0.6c-0.1,0-0.1,0-0.2,0c-0.4-0.1-0.7,0-1,0.3
				c-0.5,0.4-0.9,0.8-1.1,1.4c-0.2,0.5-0.3,1-0.3,1.5c-0.1,1.2,0,2.4,0.2,3.6c0.2,0.9,0.4,1.8,0.9,2.6c0.2,0.3,0.4,0.5,0.7,0.6
				c0.5,0.1,1.1,0.2,1.6,0.2c0.4,0,0.8-0.2,1-0.6c0.2-0.3,0.3-0.5,0.3-0.8C169.6,97.5,169.7,96.2,169.7,95z M171.2,95.9
				c-0.1-1-0.2-2.1-0.4-3.1c0-0.2-0.1-0.4-0.2-0.6c0-0.1-0.1-0.2-0.3-0.1c-0.1,0-0.2,0.1-0.2,0.3c0,0,0,0.1,0,0.1
				c0.3,0.9,0.4,1.9,0.5,2.8c0,0.5,0.1,0.9,0.1,1.4c0,0.1,0,0.1,0,0.2c0,0.2,0.1,0.3,0.2,0.3c0.1,0,0.2-0.1,0.2-0.3
				C171.2,96.6,171.2,96.2,171.2,95.9z M163.2,94.9c0.1,0.4,0.1,0.9,0.2,1.4c0.1,0.4,0.2,0.8,0.2,1.2c0,0.2,0.1,0.3,0.3,0.2
				c0.1,0,0.2-0.1,0.2-0.3c0-0.2-0.1-0.3-0.1-0.5c-0.3-1.2-0.3-2.4-0.2-3.6c0-0.2,0-0.3,0.1-0.5c0-0.1,0-0.2-0.2-0.2
				c-0.1,0-0.2,0-0.3,0.1c0,0.1-0.1,0.2-0.1,0.3C163.2,93.6,163.2,94.2,163.2,94.9z"/>
			<path class="st3" d="M202.7,96c-0.7,0-1.5-0.1-2.2-0.1c0,0.1,0,0.1-0.1,0.2c-0.2,1.3-0.4,2.5-0.8,3.8c0,0.2-0.1,0.3-0.2,0.5
				c0,0.1-0.1,0.2-0.1,0.2c-0.1,0.2-0.3,0.2-0.4,0.2c-0.1,0-0.2-0.2-0.2-0.4c0-0.2,0.1-0.4,0.1-0.6c0.3-1.8,0.6-3.5,0.8-5.3
				c0.2-1.3,0.3-2.5,0.4-3.8c0.1-1.3,0.3-2.6,0.6-3.8c0.1-0.3,0.2-0.5,0.5-0.5c0.3-0.1,0.5,0.1,0.7,0.3c0.1,0.1,0.2,0.3,0.2,0.4
				c0.9,2,1.7,4.1,2.3,6.1c0.6,2,1.1,3.9,1.6,5.9c0,0.2,0.1,0.4,0.2,0.6c0,0.1,0.1,0.3,0.1,0.4c0,0.3-0.2,0.5-0.5,0.6
				c-0.2,0-0.4,0-0.6,0c-0.2,0-0.4-0.1-0.6-0.3c-0.1-0.2-0.3-0.4-0.3-0.6c-0.4-1.1-0.8-2.2-1.2-3.4C202.8,96.3,202.8,96.1,202.7,96z
				 M204.8,96.9c0-0.1,0-0.1-0.1-0.2c-0.7-1.8-1.4-3.6-2.1-5.4c-0.1-0.3-0.2-0.6-0.4-0.9c-0.1-0.2-0.2-0.3-0.4-0.2
				c-0.1,0.1-0.2,0.2-0.1,0.4c0.4,1,0.8,2.1,1.2,3.1c0.4,1,0.8,2,1.2,3c0,0.1,0.1,0.2,0.2,0.3c0.1,0.1,0.2,0.1,0.3,0.1
				C204.7,97,204.7,96.9,204.8,96.9z M202.3,94.8c-0.4-1.2-0.8-2.4-1.2-3.6c-0.2,1.2-0.3,2.5-0.5,3.7c0.5,0,1.1,0,1.6-0.1
				C202.2,94.8,202.3,94.8,202.3,94.8z"/>
			<path class="st3" d="M214.9,86.3c0.1,0.1,0.2,0.1,0.2,0.2c0.1,0.1,0.1,0.3,0,0.4c-0.2,0.2-0.5,0.1-0.7-0.1
				c-0.3-0.3-0.2-0.8,0.1-1.1c0.3-0.3,0.7-0.4,1.2-0.3c0.8,0.1,1.2,0.7,1.4,1.4c0.1,0.6,0.2,1.1,0.2,1.7c0.1,1.6,0.1,3.2,0.2,4.8
				c0,1.5,0.1,3,0.1,4.6c0,1.1,0,2.2,0,3.3c0,0.2,0,0.5-0.1,0.7c0.5,0,1,0,1.5,0c0.7,0,1.3,0.1,2,0.1c0.1,0,0.2,0,0.2,0.1
				c0.2,0.1,0.4,0.3,0.4,0.5c0,0.2-0.2,0.5-0.4,0.5c-0.2,0.1-0.4,0.1-0.7,0.1c-1.2,0.1-2.4,0.1-3.6-0.1c-0.3,0-0.6-0.1-0.9-0.2
				c-0.3-0.1-0.5-0.2-0.5-0.5c0-0.1,0-0.2,0-0.3c0-1-0.1-2-0.1-3c0-1.4,0-2.9,0-4.3c0-0.9,0-1.8,0-2.8c0-1.5,0-2.9,0.1-4.4
				c0-0.4-0.1-0.8-0.1-1.2c0,0,0-0.1,0-0.1C215.4,86.1,215.3,86.1,214.9,86.3z M216.1,95.5C216.1,95.5,216.1,95.5,216.1,95.5
				c0,0.2,0,0.3,0,0.5c0,1.1,0,2.1,0,3.2c0,0.1,0,0.2,0.1,0.4c0.1,0.1,0.2,0.2,0.3,0.1c0.1-0.1,0.2-0.2,0.1-0.3
				c0-0.1-0.1-0.2-0.1-0.3c0-0.6,0-1.2,0-1.8c0-1.8-0.1-3.6-0.1-5.4c0-0.1,0-0.1,0-0.2c0-0.1-0.1-0.2-0.2-0.2
				c-0.1,0-0.2,0.1-0.2,0.2c0,0.1,0,0.2,0,0.3C216,93.2,216,94.4,216.1,95.5z"/>
			<path class="st3" d="M210.4,99.2c0.5,0,1,0,1.5,0.1c0.6,0.1,1.2,0.1,1.9,0.2c0.1,0,0.2,0.1,0.3,0.1c0.2,0.1,0.3,0.4,0.3,0.6
				c0,0.3-0.2,0.5-0.5,0.5c-0.1,0-0.3,0-0.5,0c-0.9,0-1.8-0.1-2.6-0.1c-0.5,0-0.9,0-1.4,0c-0.2,0-0.3,0-0.5,0
				c-0.4,0-0.6-0.2-0.7-0.6c0-0.2-0.1-0.5-0.1-0.7c0-0.6,0-1.2,0-1.7c0-1.2,0.1-2.3,0.1-3.5c0-1.6,0.1-3.3,0.1-4.9c0-0.7,0-1.3,0-2
				c0-0.1,0-0.2,0-0.3c-0.1-0.5-0.4-0.6-0.8-0.2c0,0,0,0,0.1,0.1c0.3,0.2,0.3,0.4,0,0.6c-0.4,0.3-0.8,0-0.9-0.4
				c-0.1-0.4,0.1-0.8,0.5-1c0.4-0.3,0.9-0.4,1.4-0.2c0,0,0.1,0,0.1,0c0.5,0.1,0.7,0.4,0.9,0.8c0.2,0.5,0.4,1,0.4,1.6
				c0.3,2,0.3,4.1,0.3,6.2c0,1.5,0,3.1,0,4.6C210.4,99.2,210.4,99.2,210.4,99.2z M209.6,93.9c0-0.7,0-1.8-0.1-2.9
				c0-0.2-0.1-0.3-0.2-0.3c-0.1,0-0.2,0.1-0.3,0.3c0,0.1,0,0.2,0,0.3c0,2.2,0.1,4.4,0.1,6.6c0,0,0,0.1,0,0.1c0,0.1,0.1,0.2,0.2,0.2
				c0.1,0,0.2-0.1,0.3-0.2c0-0.1,0-0.2,0-0.3C209.6,96.6,209.6,95.5,209.6,93.9z"/>
		</g>
		<g>
			<path class="st4" d="M158,127.4c-0.5,0-0.9,0-1.3-0.3c-0.5-0.3-0.8-0.7-1-1.2c-0.1-0.2-0.1-0.4-0.1-0.7c0-0.2,0.1-0.3,0.3-0.4
				c0.2-0.1,0.3,0,0.5,0.1c0.1,0.1,0.2,0.3,0.4,0.5c0.1,0.1,0.2,0.3,0.3,0.4c0.2,0.3,0.5,0.4,0.8,0.4c0.2,0,0.4,0,0.6-0.1
				c0.1,0,0.2-0.1,0.3-0.2c0.5-0.3,0.7-0.7,0.8-1.2c0.1-0.5,0.1-0.9-0.2-1.4c-0.3-0.5-0.6-0.9-1.1-1.1c-0.3-0.2-0.7-0.4-1-0.6
				c-0.1-0.1-0.2-0.1-0.3-0.1c-0.3-0.1-0.7-0.2-1-0.5c-0.5-0.4-0.7-0.9-0.5-1.6c0.2-0.5,0.5-0.9,0.9-1.2c0.8-0.6,1.6-0.8,2.6-0.7
				c0.5,0.1,0.9,0.3,1.2,0.8c0.1,0.2,0.1,0.4,0,0.6c0,0.1-0.1,0.2-0.2,0.2c-0.1,0.1-0.2,0.1-0.3,0.1c-0.1-0.1-0.2-0.1-0.2-0.3
				c-0.1-0.4-0.2-0.6-0.6-0.6c-0.6-0.1-1.1,0-1.6,0.3c-0.2,0.1-0.2,0.3-0.2,0.5c0,0.1,0.1,0.1,0.1,0.1c0.1,0.1,0.2,0.1,0.3,0.1
				c0.3,0.1,0.7,0.2,1,0.3c1,0.3,1.9,0.9,2.5,1.8c0.3,0.4,0.5,0.7,0.6,1.2c0.1,0.2,0.1,0.5,0.2,0.7c0.1,0.6,0,1.2-0.3,1.7
				C160.8,126.5,159.6,127.3,158,127.4z"/>
			<path class="st4" d="M172.8,109.8c0,0.9-0.1,1.8-0.5,2.6c-0.5,1.1-1.2,1.9-2.4,2.3c-0.9,0.3-1.8,0.1-2.7-0.1
				c-1-0.3-1.7-0.9-2.1-1.8c-0.2-0.4-0.3-0.9-0.4-1.3c-0.1-0.8,0-1.6,0.2-2.4c0.4-1.5,1.3-2.7,2.7-3.5c0.9-0.5,2.7-0.6,3.7,0.5
				c0.3,0.3,0.6,0.6,0.8,1C172.5,107.9,172.7,108.8,172.8,109.8z M166.2,111c-0.1,0.8,0.6,1.8,1.6,1.9c0.4,0,0.7,0.1,1.1,0.1
				c0.5,0,0.9-0.2,1.3-0.6c0.2-0.3,0.4-0.6,0.5-0.9c0.2-0.8,0.3-1.6,0.1-2.4c-0.1-0.5-0.3-1-0.7-1.5c-0.5-0.5-1.4-0.7-2.1-0.2
				C166.9,108.4,166.2,109.5,166.2,111z"/>
			<path class="st4" d="M166.6,123c-0.6,0-1.3,0-2,0.1c-0.1,0.2-0.1,0.4-0.2,0.6c-0.2,0.8-0.5,1.6-0.7,2.4c0,0.1-0.1,0.3-0.1,0.4
				c0,0.1-0.1,0.2-0.1,0.2c-0.1,0.1-0.2,0.1-0.3,0.1c-0.1,0-0.2-0.1-0.2-0.3c0-0.2,0-0.5,0.1-0.7c0.2-1.2,0.5-2.4,0.9-3.5
				c0.4-1.2,0.9-2.5,1.3-3.7c0.1-0.2,0.1-0.4,0.2-0.6c0.2-0.4,0.7-0.5,1-0.1c0.1,0.1,0.2,0.3,0.3,0.5c0.3,0.8,0.6,1.5,1,2.3
				c0.4,1,0.9,2.1,1.3,3.1c0.3,0.7,0.5,1.3,0.8,2c0.1,0.1,0.1,0.3,0.1,0.5c0,0.2-0.1,0.4-0.3,0.5c-0.1,0-0.3,0.1-0.4,0.1
				c-0.2,0-0.4,0-0.6-0.2c-0.1-0.1-0.2-0.2-0.3-0.4C167.8,125.2,167.2,124.2,166.6,123C166.7,123.1,166.7,123,166.6,123z
				 M165.6,120.5c-0.2,0.6-0.4,1.1-0.6,1.7c0.4,0,0.9-0.1,1.3-0.1C166,121.6,165.8,121.1,165.6,120.5z"/>
			<path class="st4" d="M178.7,118.6c0.1,0.8,0,1.6,0.2,2.4c0.1,0,0.2,0,0.2,0c0.7,0,1.4,0,2.1,0c0.1,0,0.1,0,0.2,0
				c0.2,0.1,0.3,0.3,0.3,0.5c0,0.2-0.2,0.3-0.4,0.3c-0.7,0-1.5,0.1-2.2,0.1c0,0,0,0-0.1,0c0.1,0.9,0.2,1.8,0.4,2.6
				c0,0.1,0.1,0.2,0.1,0.3c0.1,0,0.2,0,0.4,0c0.7-0.1,1.5-0.1,2.2,0c0.1,0,0.3,0.1,0.4,0.2c0.3,0.2,0.3,0.6,0,0.8
				c-0.1,0.1-0.2,0.1-0.4,0.1c-0.6,0.1-1.2,0.1-1.8,0.2c-0.5,0-1,0.1-1.5,0.1c-0.1,0-0.3,0-0.4,0c-0.3-0.1-0.5-0.2-0.5-0.5
				c-0.1-0.4-0.1-0.8-0.2-1.2c-0.1-1.2-0.2-2.5-0.3-3.7c0-0.5-0.1-1-0.1-1.5c0-0.3,0-0.7,0-1c0-0.2,0.2-0.4,0.3-0.5
				c0.3-0.2,0.6-0.2,0.9-0.2c0.8-0.1,1.6-0.1,2.5-0.1c0.3,0,0.7,0,1,0c0.1,0,0.2,0,0.2,0c0.2,0.1,0.4,0.3,0.4,0.5
				c0,0.2-0.1,0.4-0.4,0.5c-0.1,0-0.2,0.1-0.4,0.1c-0.9,0-1.9,0.1-2.8,0.1C178.9,118.6,178.8,118.6,178.7,118.6z"/>
			<path class="st4" d="M175.9,111c0,0.6,0,1.2,0,1.8c0,0.3,0,0.7,0,1c0,0.4-0.3,0.7-0.6,0.7c-0.4,0-0.9-0.1-1-0.6
				c-0.1-0.5-0.2-0.9-0.2-1.4c-0.1-1.7-0.1-3.4,0-5.2c0-0.4,0.1-0.8,0.1-1.2c0-0.2,0.1-0.3,0.2-0.5c0.8-1,2.3-1.1,3.2-0.3
				c0.6,0.5,0.7,1.2,0.7,1.9c0,0.6-0.2,1.1-0.6,1.5c-0.2,0.2-0.5,0.5-0.8,0.7c-0.1,0.1-0.1,0.1-0.2,0.1c0.6,0.6,1.2,1.1,1.8,1.7
				c0.5,0.5,0.9,0.9,1.4,1.4c0.1,0.2,0.3,0.3,0.4,0.5c0.2,0.3,0.2,0.5,0,0.8c-0.2,0.2-0.5,0.3-0.8,0.2c-0.2-0.1-0.5-0.3-0.7-0.5
				c-0.3-0.3-0.6-0.6-0.9-0.9c-0.6-0.6-1.3-1.2-2-1.8C176.1,111,176,111,175.9,111z M175.9,108.7c0.4-0.2,0.6-0.4,0.8-0.7
				c0.3-0.4,0.4-0.8,0.3-1.3c-0.2-0.5-0.7-0.8-1.2-0.5C175.8,107,175.8,107.9,175.9,108.7z"/>
			<path class="st4" d="M173.1,125.5c0.7,0,1.3,0,2,0.1c0.3,0,0.6,0.1,0.8,0.1c0.1,0,0.2,0,0.2,0.1c0.2,0.1,0.3,0.2,0.3,0.5
				c0,0.2-0.1,0.4-0.3,0.4c-0.1,0.1-0.2,0.1-0.3,0.1c-0.6,0.1-1.3,0.1-1.9,0c-0.5,0-1.1-0.1-1.6,0c-0.5,0.1-0.7-0.2-0.8-0.6
				c-0.1-0.3-0.1-0.7-0.1-1c0-0.9-0.1-1.8-0.1-2.6c0-1.1-0.1-2.2-0.1-3.3c0-0.2,0-0.5,0-0.7c0.1-0.5,0.8-0.8,1.2-0.5
				c0.2,0.1,0.3,0.3,0.3,0.5c0.1,0.5,0.2,0.9,0.3,1.4c0.2,1.5,0.3,3.1,0.3,4.6C173.2,124.9,173.2,125.2,173.1,125.5z"/>
			<path class="st4" d="M160.5,107.6c0.1,0.7,0.2,1.4,0.3,2c0.1,0,0.1,0,0.2,0c0.6-0.2,1.3-0.3,2-0.3c0.1,0,0.1,0,0.2,0
				c0.2,0,0.4,0.2,0.4,0.4c0,0.2,0,0.4-0.2,0.5c-0.2,0.1-0.5,0.2-0.7,0.3c-0.6,0.1-1.2,0.2-1.8,0.3c0,0.1,0,0.2,0,0.4
				c0,1,0.1,2,0.1,2.9c0,0.2,0,0.4-0.1,0.6c-0.1,0.1-0.2,0.3-0.3,0.3c-0.2,0.1-0.4,0.2-0.7,0.2c-0.4,0.1-0.7-0.1-0.9-0.5
				c-0.1-0.3-0.2-0.7-0.3-1c-0.1-0.8-0.2-1.6-0.2-2.3c0-1,0-2,0-3c0-0.2,0.1-0.4,0.1-0.6c0.1-0.5,0.4-0.8,0.9-1
				c0.6-0.2,1.1-0.4,1.7-0.5c0.5-0.1,1.1-0.3,1.6-0.4c0.2-0.1,0.5-0.1,0.7-0.1c0.1,0,0.3,0,0.4,0.1c0.3,0.2,0.4,0.6,0.1,0.8
				c-0.1,0.1-0.3,0.2-0.4,0.2c-0.7,0.2-1.4,0.3-2.1,0.5C161,107.5,160.8,107.5,160.5,107.6z"/>
		</g>
	</g>
</g>
<path class="st16" d="M79.8,344.9c10.9-6,43.2-7.4,58.8-16.3c15.6-8.9,13.3-22.7,51.6-18.3c38.3,4.5,61.3,2.3,76.2,17.1
	c14.3,14.2,209.6,40.3-34.7,39.7c-92.5-0.3-102.4-1.2-118.2,0C98.8,368.3,71.1,349.7,79.8,344.9z"/>
<g>
	<path class="st2" d="M110.2,327c1.6-6.2,7.9-8.5,13.4-8.1s10.7,3.9,10.2,11c-0.5,7.2-7.7,9.9-15.2,9.2
		C111.2,338.5,109.1,331.2,110.2,327z"/>
	<path class="st2" d="M134.1,329.3c1.6-6.2,7.9-8.5,13.4-8.1c5.5,0.5,10.7,3.9,10.2,11c-0.5,7.2-7.7,9.9-15.2,9.2
		S133.1,333.6,134.1,329.3z"/>
	<path class="st2" d="M145.9,307.3c3.6-5.2,9.4-5.3,13.5-3c4.1,2.2,6.8,7.1,3.6,13.5c-3.2,6.4-9.8,6.6-15.3,3.5
		C142.2,318.2,143.4,310.8,145.9,307.3z"/>
	<path class="st2" d="M162.3,298.1c3.6-5.2,9.4-5.3,13.5-3c4.1,2.2,6.8,7.1,3.6,13.5s-9.8,6.6-15.3,3.5
		C158.6,309.1,159.8,301.7,162.3,298.1z"/>
	<path class="st2" d="M197.5,308.3c3.6-5.2,9.4-5.3,13.5-3c4.1,2.2,6.8,7.1,3.6,13.5c-3.2,6.4-9.8,6.6-15.3,3.5
		C193.8,319.3,195.1,311.9,197.5,308.3z"/>
	<path class="st2" d="M229.1,326.3c4.2-6.1,11-6.1,15.7-3.5s7.9,8.2,4.2,15.7c-3.7,7.5-11.4,7.7-17.9,4.1
		C224.9,339,226.3,330.5,229.1,326.3z"/>
</g>
<path class="st2" d="M325.7,291.6c-0.1,0.8-0.2,1.6-0.4,2.4c-7.7,3-21.5,6.6-33,6.6c-18.1,0-27.4-3.2-31.9-4.8l-1-0.3
	c-0.4-0.1-1-0.3-1.7-0.6c-0.2-0.7-0.3-1.5-0.3-2.2c0-1.8,0.3-3.7,0.9-5.2c0.2-0.6,0.5-1.2,0.8-1.7c2.8-4.7,7.1-5,10.4-3.2
	c0.3-0.8,0.6-1.5,1-2.2c3.3-5.6,8.6-5.7,12.3-3.2c1.9,1.2,3.4,3.2,4.1,5.7c2.6-1,5.4-0.4,7.6,1c0.5,0.3,1,0.8,1.5,1.2
	c3.2-2.9,7.2-2.5,10.1-0.6c0.4,0.3,0.9,0.6,1.3,1c0.3,0.2,0.5,0.5,0.8,0.8c0.1-0.3,0.2-0.5,0.4-0.8c0.1-0.2,0.2-0.4,0.3-0.5
	c3.3-5.6,8.6-5.7,12.3-3.2c1.6,1.1,3,2.7,3.8,4.7C325.6,288,325.9,289.7,325.7,291.6z"/>
<g>
	<g>
		<path class="st17" d="M307.5,285.6c0.3,0.2,0.5,0.5,0.8,0.8c0.1-0.3,0.2-0.5,0.4-0.8C308.2,285.6,307.9,285.6,307.5,285.6z"/>
		<path class="st17" d="M335.9,291.9c-0.1,0.7-0.2,2.1-3,4c-2,1.3-5.4,2.9-11.2,4.7c-0.7,0.2-1.4,0.4-2.2,0.7
			c-1.2,0.3-2.4,0.7-3.7,1c-3.7,0.9-7.4,1.7-11,2.3c-1.3,0.2-2.5,0.4-3.7,0.5c-3.1,0.4-6,0.6-8.6,0.6c-2.9,0-5.6-0.1-8-0.2
			c-6.4-0.4-11.6-1.1-15.6-2c-4.6-1-7.8-2.1-9.9-2.9l-1-0.3c-2.1-0.7-4.4-1.5-6.2-2.6c-1.9-1.1-3.3-2.5-3.2-4.4
			c0.1-3.4,4.7-4.6,6.6-5.1c0.9-0.2,2-0.5,3.3-0.7c-0.6,1.5-0.9,3.4-0.9,5.2c-0.4,0.1-0.8,0.2-1.1,0.3c-0.8,0.2-1.4,0.4-1.9,0.6
			c0.9,0.5,2.2,1,3.3,1.4c0.7,0.3,1.3,0.5,1.7,0.6l1,0.3c4.5,1.6,13.8,4.8,31.9,4.8c11.4,0,25.3-3.6,33-6.6c1.8-0.7,3.2-1.3,4.2-1.9
			c-1.1-0.2-2.4-0.4-3.8-0.5c0.1-1.9-0.1-3.6-0.7-5c2.1,0.2,4,0.5,5.5,0.7C335.2,288.1,336,290.2,335.9,291.9z"/>
	</g>
	<g>
		<path class="st9" d="M334.3,273.2c-4.3-9.8-12.5-21-27.8-25.5v2.1c14.2,4.5,21.9,15.1,26,24.3c4.8,10.8,4.6,19.6,2.3,23.1
			c-0.5,0.7-1.5,1.2-2.4,1.4c0.2-1,0.3-1.9,0.5-2.7c-2,1.3-5.4,2.9-11.2,4.7c-0.7,0.2-1.4,0.4-2.2,0.7c-1.2,0.3-2.4,0.7-3.7,1
			c-3.7,0.9-7.4,1.7-11,2.3c-1.3,0.2-2.5,0.4-3.7,0.5c-3.1,0.4-6,0.6-8.6,0.6c-2.9,0-5.6-0.1-8-0.2c-6.4-0.4-11.6-1.1-15.6-2
			c-4.6-1-7.8-2.1-9.9-2.9l-1-0.3c-2.1-0.7-4.4-1.5-6.2-2.6c0,0.3,0.1,0.7,0.2,1c-1-0.2-2.1-0.7-2.5-1.4c-2.3-3.5-2.6-12.3,2.3-23.1
			c4.3-9.6,12.3-20.5,27.6-24.7v-2.1c-16.3,4.3-24.9,15.9-29.4,26c-5.2,11.6-4.8,20.9-2.1,25c0.9,1.4,3,2.2,4.6,2.4
			c4.6,27,6.8,39.5,10.2,55.8c18.6,6.7,40.9,7.5,58.8-2c5.2-23.2,8.9-42.9,10.8-53.8c1.6-0.2,3.5-1,4.4-2.4
			C339.1,294.1,339.5,284.8,334.3,273.2z"/>
		<path class="st9" d="M306.6,245.3v5.2c0,0.6-0.5,1.2-1.2,1.2h-25.1c-0.6,0-1.2-0.5-1.2-1.2v-5.2c0-0.6,0.5-1.2,1.2-1.2h25.1
			C306,244.1,306.6,244.7,306.6,245.3z"/>
	</g>
</g>
</svg>
